<svg xmlns="http://www.w3.org/2000/svg" width="14" height="14" viewBox="0 0 14 14">
  <path fill="#FFFFFF" d="M11.9995625,5 C8.13425,5 5,8.21317634 5,12.1777238 C5,15.348285 7.0055,18.0384175 9.7875625,18.9876121 C10.1375625,19.0535533 10.2653125,18.831955 10.2653125,18.6417573 C10.2653125,18.4712969 10.2591875,18.0200256 10.2556875,17.4211718 C8.308375,17.8549484 7.8975625,16.4589684 7.8975625,16.4589684 C7.5795,15.629993 7.1205625,15.4092919 7.1205625,15.4092919 C6.484875,14.9638521 7.1686875,14.9728238 7.1686875,14.9728238 C7.870875,15.0235133 8.2405625,15.7125316 8.2405625,15.7125316 C8.8653125,16.8093092 9.879,16.4926119 10.278,16.3086942 C10.3414375,15.8448629 10.5225625,15.5286142 10.7225,15.3491822 C9.1680625,15.1679561 7.534,14.5525047 7.534,11.8022625 C7.534,11.0185938 7.8065625,10.378022 8.2545625,9.8760612 C8.182375,9.69438647 7.9421875,8.964996 8.3228125,7.97677473 C8.3228125,7.97677473 8.9108125,7.78388571 10.2478125,8.71244554 C10.8065,8.55319971 11.405,8.47380124 12.0004375,8.47066107 C12.595,8.47380124 13.1939375,8.55319971 13.7530625,8.71244554 C15.0891875,7.78388571 15.675875,7.97677473 15.675875,7.97677473 C16.0578125,8.964996 15.817625,9.69438647 15.7454375,9.8760612 C16.1943125,10.378022 16.465125,11.0185938 16.465125,11.8022625 C16.465125,14.5592334 14.8284375,15.1661617 13.2691875,15.3437993 C13.5203125,15.5653976 13.7443125,16.0032115 13.7443125,16.6729409 C13.7443125,17.6324529 13.7355625,18.4062529 13.7355625,18.6417573 C13.7355625,18.8337494 13.8615625,19.0571421 14.2168125,18.9867149 C16.99625,18.0357259 19,15.3473878 19,12.1777238 C19,8.21317634 15.86575,5 11.9995625,5" transform="translate(-5 -5)"/>
</svg>
