<svg xmlns="http://www.w3.org/2000/svg" width="24" height="24" viewBox="0 0 24 24">
  <path fill="#FFF" d="M18.1946629,15.4688577 C17.9526949,16.0278532 17.6662838,16.5424055 17.334442,17.0154776 C16.88211,17.6603964 16.5117508,18.1068027 16.2263274,18.3546964 C15.7838716,18.7615977 15.3098119,18.9699865 14.8021729,18.981838 C14.4377395,18.981838 13.9982466,18.8781374 13.4866571,18.6677734 C12.9733886,18.458397 12.5016992,18.3546964 12.0704036,18.3546964 C11.6180716,18.3546964 11.1329504,18.458397 10.6140525,18.6677734 C10.0943645,18.8781374 9.67571054,18.9877637 9.35562144,18.9986276 C8.86882134,19.0193677 8.38360144,18.8050532 7.8992704,18.3546964 C7.59014394,18.0850749 7.20348896,17.6228667 6.74029308,16.9680717 C6.24332045,16.2688335 5.8347402,15.4579938 5.51465111,14.5335773 C5.17184666,13.535089 5,12.5682046 5,11.6321342 C5,10.5598703 5.2316967,9.63505872 5.69578144,8.8600698 C6.06051116,8.2375701 6.54573106,7.74652321 7.15302135,7.38604028 C7.76031164,7.02555735 8.41648933,6.84185919 9.12313464,6.83010646 C9.50978962,6.83010646 10.016836,6.94970779 10.6469404,7.18476241 C11.2752671,7.42060713 11.6787117,7.54020846 11.8555953,7.54020846 C11.9878382,7.54020846 12.4360222,7.40036083 13.1958017,7.12155444 C13.9142985,6.86299436 14.5206999,6.75593587 15.017475,6.79810743 C16.3636072,6.90674612 17.3749346,7.43739675 18.0475069,8.39341724 C16.8435927,9.12287667 16.2480551,10.1445742 16.2599066,11.4552506 C16.2707705,12.476158 16.6411296,13.3257126 17.3690089,14.0002601 C17.6988755,14.3133371 18.0672594,14.5553051 18.4771235,14.7271517 C18.3882373,14.9849217 18.294413,15.2318278 18.1946629,15.4688577 L18.1946629,15.4688577 Z M15.1073488,3.32008909 C15.1073488,4.12027231 14.815012,4.86740035 14.2323136,5.55893501 C13.5291249,6.38103362 12.6785827,6.85608099 11.7562402,6.78112029 C11.7444875,6.68512319 11.7376729,6.58408921 11.7376729,6.47791958 C11.7376729,5.70974526 12.0720826,4.88764665 12.6659411,4.21546944 C12.962426,3.87513404 13.339501,3.59215 13.7967712,3.36640868 C14.2530537,3.14403515 14.6846456,3.02105615 15.0905592,3 C15.1024107,3.10696961 15.1073488,3.21394909 15.1073488,3.32007921 L15.1073488,3.32008909 Z"/>
</svg>
