<svg xmlns="http://www.w3.org/2000/svg" width="24" height="24" viewBox="0 0 24 24"><g fill="none" fill-rule="evenodd"><path fill="#FFF" fill-rule="nonzero" d="M15.858 17.314a7.21 7.21 0 0 0 3.368-6.12C19.226 7.22 16.05 4 12.13 4 8.21 4 5.033 7.22 5.033 11.194c0 3.973 3.177 7.193 7.096 7.193.577 0 1.137-.071 1.673-.203.674 1.226 1.7 2.093 3.879 1.678v-1.22s-1.397-.35-1.823-1.328zm-.05-5.17c0 1.202-.382 2.292-1.002 3.097a4.485 4.485 0 0 0-3.554-1.426v1.414s1.052.042 1.772 1.28a2.97 2.97 0 0 1-.84.122c-2.002 0-3.625-2.008-3.625-4.487v-1.853c0-2.478 1.623-4.486 3.625-4.486s3.625 2.008 3.625 4.486v1.854z"/></g></svg>