<?xml version="1.0" encoding="UTF-8"?>
<svg width="11px" height="10px" viewBox="0 0 11 10" version="1.1" xmlns="http://www.w3.org/2000/svg" xmlns:xlink="http://www.w3.org/1999/xlink">
    <!-- Generator: Sketch 41 (35326) - http://www.bohemiancoding.com/sketch -->
    <title></title>
    <desc>Created with Sketch.</desc>
    <defs></defs>
    <g id="Style-Guide" stroke="none" stroke-width="1" fill="none" fill-rule="evenodd">
        <g id="Icons" transform="translate(-605.000000, -144.000000)" fill="#FFFFFF">
            <g id="RSS-Small" transform="translate(598.000000, 137.000000)">
                <path d="M7.49,10.55 C8.62000565,10.55 9.6649952,10.8299972 10.625,11.39 C11.5650047,11.9400027 12.3099972,12.6849953 12.86,13.625 C13.4200028,14.5850048 13.7,15.6299943 13.7,16.76 L11.915,16.76 C11.915,15.959996 11.715002,15.2200034 11.315,14.54 C10.914998,13.8699966 10.3800033,13.335002 9.71,12.935 C9.0299966,12.534998 8.290004,12.335 7.49,12.335 L7.49,10.55 Z M7.49,7.025 C8.80000655,7.025 10.0599939,7.27999745 11.27,7.79 C12.4300058,8.2900025 13.4599955,8.9899955 14.36,9.89 C15.2600045,10.7900045 15.9599975,11.8199942 16.46,12.98 C16.9700025,14.190006 17.225,15.4499934 17.225,16.76 L15.455,16.76 C15.455,15.6799946 15.2450021,14.6450049 14.825,13.655 C14.424998,12.7049952 13.8575037,11.8625037 13.1225,11.1275 C12.3874963,10.3924963 11.5450047,9.825002 10.595,9.425 C9.60499505,9.0049979 8.5700054,8.795 7.49,8.795 L7.49,7.025 Z M7.49,15.38 C7.49,14.9999981 7.62499865,14.6800013 7.895,14.42 C8.16500135,14.1599987 8.4899981,14.03 8.87,14.03 C9.2500019,14.03 9.5699987,14.1599987 9.83,14.42 C10.0900013,14.6800013 10.22,14.9999981 10.22,15.38 C10.22,15.7600019 10.0900013,16.0849986 9.83,16.355 C9.5699987,16.6250013 9.2500019,16.76 8.87,16.76 C8.4899981,16.76 8.16500135,16.6250013 7.895,16.355 C7.62499865,16.0849986 7.49,15.7600019 7.49,15.38 Z" id=""></path>
            </g>
        </g>
    </g>
</svg>