<?xml version="1.0" encoding="UTF-8"?>
<svg width="12px" height="12px" viewBox="0 0 12 12" version="1.1" xmlns="http://www.w3.org/2000/svg" xmlns:xlink="http://www.w3.org/1999/xlink">
    <!-- Generator: Sketch 41 (35326) - http://www.bohemiancoding.com/sketch -->
    <title>Slack Copy-color</title>
    <desc>Created with Sketch.</desc>
    <defs></defs>
    <g id="Style-Guide" stroke="none" stroke-width="1" fill="none" fill-rule="evenodd">
        <g id="Icons" transform="translate(-570.000000, -143.000000)" fill="#FFFFFF">
            <g id="Slack-Small" transform="translate(564.000000, 137.000000)">
                <path d="M17.4976681,10.3505887 C16.2609159,6.22708139 14.4740377,5.26520467 10.3505304,6.50233188 C6.22739803,7.73908408 5.26514631,9.52596227 6.50227352,13.6494696 C7.73940072,17.772602 9.52627891,18.7348537 13.6494113,17.4977265 C17.7729186,16.2605993 18.7347953,14.4737211 17.4976681,10.3505887 M15.4122894,13.0273435 L14.634913,13.287594 L14.9041635,14.0923454 C15.0132887,14.417846 14.8377884,14.7703466 14.5119128,14.8794718 C14.4410377,14.9034719 14.3690375,14.9135969 14.2985374,14.9117219 C14.044287,14.9049719 13.8099115,14.7422216 13.7247864,14.4872211 L13.4551609,13.6828447 L11.8520331,14.2198456 L12.1212835,15.0242221 C12.2304087,15.3500977 12.0549084,15.7025983 11.7290328,15.8117235 C11.6581577,15.8353485 11.5861576,15.8454735 11.5156575,15.8435985 C11.261407,15.8372235 11.0270316,15.6740982 10.9419064,15.4194728 L10.672281,14.6147213 L9.89490457,14.8753468 C9.82402944,14.8989718 9.75165431,14.9090969 9.68115419,14.9072219 C9.42727873,14.9008469 9.19290332,14.7377216 9.10740316,14.4827211 C8.99827797,14.1572205 9.17377828,13.8047199 9.49965386,13.6955947 L10.2774052,13.4349692 L9.76027933,11.8918415 L8.98290294,12.152467 C8.91202782,12.176092 8.84002769,12.186217 8.76915256,12.184342 C8.51527711,12.177967 8.28090169,12.0148417 8.19540154,11.7598413 C8.08627634,11.4343407 8.26215166,11.08184 8.58765224,10.9727148 L9.36540362,10.7120894 L9.09577814,9.90771295 C8.98665295,9.58183737 9.16215326,9.22933674 9.48802884,9.12058655 C9.81390442,9.01146135 10.1664051,9.18696167 10.2755302,9.51283725 L10.5447807,10.3172137 L12.1482836,9.78021272 L11.8786581,8.97583629 C11.7695329,8.64996071 11.9454082,8.29746008 12.2709088,8.18833488 C12.5967844,8.07920969 12.949285,8.255085 13.0584102,8.58058558 L13.3276607,9.38533702 L14.1054121,9.12471155 C14.4312877,9.01558636 14.7834133,9.19146167 14.8925385,9.51696225 C15.0016637,9.84283783 14.8261634,10.1953385 14.5002878,10.3044637 L13.7229114,10.5647141 L14.2396623,12.1082169 L15.0174137,11.8475914 C15.3429143,11.7388412 15.6954149,11.9143415 15.8045401,12.2398421 C15.9136653,12.5657177 15.738165,12.9182183 15.4122894,13.0273435 Z M10.9399189,11.4968533 L11.4566699,13.039981 L13.0601727,12.5029801 L12.5434218,10.9598523 L10.9399189,11.4968533 Z" id="Slack-Copy"></path>
            </g>
        </g>
    </g>
</svg>