<svg version="1.1" id="Layer_1" xmlns="http://www.w3.org/2000/svg" x="0" y="0" viewBox="0 0 92 28" xml:space="preserve"><style>.st0{fill:#fff}</style><path class="st0" d="M.2.6h6.2v25H.2V.6zm10.2 25V7H16v1.7c.7-.7 1.5-1.3 2.5-1.6.9-.4 1.9-.5 3.1-.5 2 0 3.5.6 4.5 1.9 1 1.3 1.5 3.2 1.5 5.9v11.2H22v-11c0-1.3-.2-2.2-.7-2.8s-1.2-.8-2.1-.8c-1.1 0-1.9.3-2.4.8s-.7 1.5-.7 2.8v11h-5.7zm21.3 0V10.9h-2.9V7.5h2.9c0-.4-.1-.7-.1-.8v-.5c0-2 .5-3.4 1.4-4.3C34 1 35.5.6 37.7.6c.5 0 1 0 1.5.1s1 .2 1.6.3v3.9h-.9c-1 0-1.7.1-2.1.4-.3.3-.5.8-.5 1.5v.7h3.5v3.4h-3.5v14.8l-5.6-.1zm15-9.3c0 1.7.4 3 1.2 4s1.8 1.5 3.1 1.5 2.3-.5 3.1-1.5 1.2-2.4 1.2-4c0-1.7-.4-3-1.2-4.1-.8-1-1.8-1.5-3.1-1.5s-2.3.5-3.1 1.5-1.2 2.5-1.2 4.1m4.3 9.9c-3 0-5.5-.9-7.3-2.7-1.8-1.8-2.8-4.2-2.8-7.2s.9-5.4 2.8-7.2C45.6 7.3 48 6.4 51 6.4s5.5.9 7.3 2.7c1.8 1.8 2.8 4.2 2.8 7.2s-.9 5.4-2.8 7.2c-1.8 1.8-4.3 2.7-7.3 2.7M76 21c2 0 3.6-.7 4.7-2.1 1.1-1.4 1.7-3.3 1.7-5.8s-.6-4.4-1.7-5.8c-1.1-1.3-2.7-2-4.7-2s-3.5.7-4.7 2.1c-1.1 1.4-1.7 3.3-1.7 5.8s.6 4.4 1.7 5.8c1.2 1.3 2.7 2 4.7 2m6.7 3.7c-.9.5-2 .9-3.1 1.2-1.1.3-2.3.4-3.6.4-3.9 0-6.9-1.2-9.3-3.6-2.3-2.4-3.5-5.6-3.5-9.5 0-2.2.4-4.1 1.1-5.8.7-1.7 1.8-3.2 3.2-4.4 1.1-1 2.4-1.7 3.8-2.2s3-.8 4.7-.8c3.8 0 6.9 1.2 9.2 3.6 2.3 2.4 3.5 5.6 3.5 9.5 0 1.7-.2 3.2-.6 4.5-.4 1.3-1 2.6-1.8 3.6.7.6 1.5 1.1 2.4 1.5.9.4 1.8.6 2.8.7L89.6 28c-1.4-.1-2.7-.5-3.9-1-1.1-.6-2.1-1.4-3-2.3"/><path class="st0" d="M86.4 21.3c.8-1.1 1.4-2.3 1.8-3.6.2-.6.3-1.3.4-2-2.2.1-4.4.2-6.5.3-.3 1.2-.7 2.2-1.4 3-1.1 1.3-2.7 2-4.7 2s-3.5-.7-4.7-2.1c-.6-.7-1-1.5-1.2-2.4-2.2.1-4.3.2-6.4.2.5 2.4 1.5 4.4 3.1 6 2.3 2.4 5.4 3.6 9.3 3.6 1.3 0 2.4-.1 3.6-.4 1.1-.3 2.2-.7 3.1-1.2.9 1 1.9 1.7 3.1 2.3 1.2.6 2.5.9 3.9 1l1.9-4.5c-1-.1-1.9-.3-2.8-.7-1-.4-1.8-.9-2.5-1.5m-32.3-.9c-.8 1-1.8 1.5-3.1 1.5s-2.3-.5-3.1-1.5c-.7-.8-1-1.9-1.1-3.3H41c.2 2.6 1.1 4.7 2.7 6.4 1.8 1.8 4.3 2.7 7.3 2.7s5.5-.9 7.3-2.7c1.8-1.7 2.7-4 2.8-6.7-1.9.1-3.9.1-5.8.2-.1 1.3-.5 2.5-1.2 3.4m-22.4 5.2h5.6v-8.5h-5.6v8.5zm-21.3 0H16v-9c-1.9-.1-3.7-.2-5.6-.3v9.3zm11.5 0h5.6V17c-1.9 0-3.7-.1-5.6-.1v8.7zm-21.7 0h6.2v-9.5c-2-.1-4.1-.2-6.2-.4v9.9z"/></svg>