<svg xmlns="http://www.w3.org/2000/svg" viewBox="0 0 383.2 28.8"><path d="M12.8.8c5.3 0 9.5 2.4 9.5 8 0 2.4-1.2 4.5-3.9 5.6 3.4 1 4.8 4.3 4.8 6.4 0 6.1-4.9 8-10.4 8H0V.8h12.8zM4.4 12.4h8.4c3.4 0 5-1.3 5-3.5 0-2-1.7-4-5.1-4H4.4v7.5zm0 12.2h8.4c2.5 0 5.9-.8 5.9-3.9 0-3-3.3-4.4-5.9-4.4H4.4v8.3zm55-1.7H44.3l-2.6 5.9h-4.8L49.5.8h4.9l12.6 28h-4.8l-2.8-5.9zM51.9 5.5L46 18.8h11.8L51.9 5.5zM99 7c-1.3-1.9-4-3.1-6.9-3.1-3.8 0-6.5 1.6-6.5 4.2 0 2.7 3.1 3.5 6.8 4 5.8.8 11.2 2.4 11.2 8.7 0 6.3-5.8 8.6-11.6 8.6-5.4 0-9.5-1.6-12-6.4l3.4-2.2c2 3.4 5.5 4.6 8.7 4.6 3.4 0 7.1-1.1 7.1-4.6 0-3-3.2-4.1-7.2-4.6-5.6-.8-10.8-2.2-10.8-8.2 0-5.8 5.8-8 10.8-8 4 0 8.1 1 10.4 4.7L99 7zm42.4 21.8h-20.7V.8h20.6v4.4h-16.1v7.6h15.4V17h-15.4v7.5h16.2v4.3zm22.2-8.6v8.6h-4.5V.8h13c13.4 0 13.4 19.4 0 19.4h-8.5zm0-4.1h8.5c7.4 0 7.4-11.2 0-11.2h-8.5v11.2zM203.2.8v23.8H218v4.2h-19.2V.8h4.4zm50.4 22.1h-15.2l-2.6 5.9H231l12.6-28h4.9l12.6 28h-4.8l-2.7-5.9zm-7.5-17.4l-5.9 13.3H252l-5.9-13.3zm34.7-.7h-9.2v-4h22.9v4h-9.2v24h-4.5v-24zm50.6 24h-20.7V.8h20.6v4.4h-16.1v7.6h15.4V17h-15.4v7.5h16.2v4.3zM347 6c.1-2.9 2.8-3.8 5.2-3.8 2.5 0 5.1 1 5.1 3.9s-2.7 3.9-5.2 3.9c-1.7 0-4 .5-4 2.6v1.9h9.1v1.2h-10.3v-3.1c0-3 2.7-3.8 5.2-3.8 1.5 0 3.9-.6 3.9-2.6 0-2.1-2.2-2.8-3.9-2.8-1.7 0-3.9.5-3.9 2.6H347zm14.6 9c0 1.2-1.8 1.2-1.8 0s1.8-1.2 1.8 0zm2.6-9c.1-2.9 2.8-3.8 5.2-3.8 2.5 0 5.1 1 5.1 3.9s-2.7 3.9-5.2 3.9c-1.7 0-4 .5-4 2.6v1.9h9.1v1.2h-10.3v-3.1c0-3 2.7-3.8 5.2-3.8 1.5 0 3.9-.6 3.9-2.6 0-2.1-2.2-2.8-3.9-2.8-1.7 0-3.9.5-3.9 2.6h-1.2z" fill="#575756"/><path fill="none" stroke="#575756" stroke-miterlimit="10" d="M347.7 27.9h28"/></svg>