<?xml version="1.0" encoding="UTF-8"?>
<svg width="53px" height="54px" viewBox="0 0 53 54" version="1.1" xmlns="http://www.w3.org/2000/svg" xmlns:xlink="http://www.w3.org/1999/xlink">
    <!-- Generator: Sketch 47.1 (45422) - http://www.bohemiancoding.com/sketch -->
    <title>Like</title>
    <desc>Created with Sketch.</desc>
    <defs>
        <linearGradient x1="81.3295718%" y1="15.0101273%" x2="22.2005208%" y2="88.4620949%" id="linearGradient-1">
            <stop stop-color="#4AC668" offset="0%"></stop>
            <stop stop-color="#1097EC" offset="100%"></stop>
        </linearGradient>
    </defs>
    <g id="Page-1" stroke="none" stroke-width="1" fill="none" fill-rule="evenodd">
        <g id="Notification-Widget-Non-Logged" transform="translate(-354.000000, -175.000000)">
            <g id="Like" transform="translate(354.000000, 175.000000)">
                <rect id="Rectangle-6" fill="url(#linearGradient-1)" x="0" y="0" width="53" height="54" rx="3"></rect>
                <path d="M18.6112902,33.8156984 C18.6112902,33.5749458 18.6112902,33.3341931 18.3705375,33.0934404 C18.1297849,32.8526877 17.8890322,32.8526877 17.6482795,32.8526877 C17.4075268,32.8526877 17.4075268,32.8526877 17.1667741,33.0934404 C16.9260215,33.3341931 16.9260215,33.5749458 16.9260215,33.8156984 C16.9260215,34.0564511 16.9260215,34.2972038 17.1667741,34.5379565 C17.4075268,34.7787092 17.4075268,34.7787092 17.6482795,34.7787092 C17.8890322,34.7787092 18.1297849,34.7787092 18.3705375,34.5379565 C18.6112902,34.2972038 18.6112902,34.0564511 18.6112902,33.8156984 L18.6112902,33.8156984 Z M21.018817,26.3523653 L21.018817,35.7417199 C21.018817,35.9824726 21.018817,36.2232253 20.7780644,36.4639779 C20.5373117,36.4639779 20.296559,36.7047306 20.0558063,36.7047306 L15.9630107,36.7047306 C15.722258,36.7047306 15.4815054,36.7047306 15.2407527,36.4639779 C15,36.2232253 15,35.9824726 15,35.7417199 L15,26.3523653 C15,26.1116126 15,25.8708599 15.2407527,25.6301073 C15.4815054,25.3893546 15.722258,25.3893546 15.9630107,25.3893546 L20.296559,25.3893546 C20.5373117,25.3893546 20.7780644,25.3893546 21.018817,25.6301073 L21.018817,26.3523653 L21.018817,26.3523653 Z M37.6307521,28.5191394 C37.6307521,29.0006448 37.8715048,29.2413975 37.8715048,29.7229029 C37.8715048,30.4451609 37.6307521,31.1674189 37.1492467,31.6489243 C37.3899994,32.1304297 37.3899994,32.8526877 37.1492467,33.3341931 C37.1492467,33.8156984 36.6677413,34.2972038 36.4269887,34.7787092 C36.4269887,35.9824726 36.4269887,36.7047306 35.7047306,37.4269887 C34.9824726,38.1492467 34.0194618,38.3899994 32.8156984,38.3899994 L30.889677,38.3899994 C30.1674189,38.3899994 29.6859136,38.3899994 28.7229029,38.1492467 C28.2413975,38.1492467 27.5191394,37.908494 27.0376341,37.6677413 C26.7968814,37.6677413 26.0746234,37.4269887 25.3523653,37.186236 C24.1486019,36.7047306 23.4263439,36.4639779 22.9448385,36.4639779 C22.7040858,36.4639779 22.4633331,36.4639779 22.2225804,36.2232253 C22.2225804,35.9824726 21.9818278,35.9824726 21.9818278,35.7417199 L21.9818278,26.3523653 C21.9818278,26.1116126 22.2225804,25.8708599 22.2225804,25.6301073 C22.4633331,25.6301073 22.7040858,25.3893546 22.9448385,25.3893546 C23.1855912,25.3893546 23.6670965,25.1486019 24.1486019,24.4263439 C24.6301073,23.7040858 25.1116126,23.2225804 25.593118,22.7410751 C26.0746234,22.018817 26.7968814,21.296559 27.0376341,21.0558063 C27.2783868,20.8150536 27.2783868,20.574301 27.5191394,20.3335483 C27.5191394,20.0927956 27.7598921,19.8520429 27.7598921,19.6112902 C27.7598921,19.3705375 27.7598921,19.1297849 28.0006448,18.6482795 C28.0006448,18.4075268 28.0006448,17.9260215 28.2413975,17.6852688 C28.2413975,17.4445161 28.2413975,17.2037634 28.4821502,16.9630107 C28.4821502,16.722258 28.7229029,16.4815054 28.9636555,16.2407527 C29.2044082,16 29.4451609,16 29.4451609,16 L30.6489243,16 C30.889677,16 31.3711823,16.2407527 31.611935,16.2407527 C31.8526877,16.2407527 32.0934404,16.4815054 32.0934404,16.722258 C32.0934404,16.9630107 32.3341931,17.2037634 32.3341931,17.4445161 C32.3341931,17.6852688 32.3341931,17.9260215 32.5749458,18.1667741 L32.5749458,18.8890322 L32.5749458,19.3705375 L32.5749458,20.574301 C32.5749458,21.0558063 32.5749458,21.5373117 32.3341931,21.7780644 C32.3341931,22.018817 32.0934404,22.2595697 31.8526877,22.7410751 C31.8526877,22.7410751 31.8526877,22.7410751 31.8526877,22.9818278 L31.8526877,23.2225804 L31.8526877,23.4633331 L35.9454833,23.4633331 C36.6677413,23.4633331 37.3899994,23.7040858 37.8715048,24.4263439 C38.3530101,25.1486019 38.3530101,25.6301073 38.3530101,26.3523653 C38.3530101,27.0746234 38.1122574,27.7968814 37.6307521,28.5191394 Z" id="Shape" fill="#FFFFFF" fill-rule="nonzero"></path>
            </g>
        </g>
    </g>
</svg>