<svg fill="none" height="28" width="116" xmlns="http://www.w3.org/2000/svg"><clipPath id="a"><path d="M0 0h115.5v28H0z"/></clipPath><g clip-path="url(#a)" clip-rule="evenodd" fill-rule="evenodd"><path d="M108.824.175H6.68a231.673 231.673 0 00-.962.003 75.18 75.18 0 00-.306.005l-.138.002a8.947 8.947 0 00-1.378.121 4.5 4.5 0 00-1.283.423A4.335 4.335 0 00.308 3.896a8.772 8.772 0 00-.122 1.376l-.007.32-.001.113-.003.206v16.177l.003.21.001.112.007.322c.014.545.049.97.123 1.376.081.467.218.887.421 1.283.206.406.474.773.794 1.087.317.32.685.587 1.09.792.397.204.814.34 1.282.425.402.072.819.106 1.377.121.225.005.435.008.641.008h.34l.426.001h102.523a83.007 83.007 0 001.021-.009 8.935 8.935 0 001.375-.12 4.592 4.592 0 001.289-.426 4.222 4.222 0 001.089-.794c.316-.31.584-.678.795-1.084.203-.402.339-.823.418-1.286.073-.394.106-.791.127-1.372l.002-.323.001-.324.002-.152c.003-.168.003-.303.003-.61V6.675c0-.382-.001-.55-.005-.764l-.001-.322-.002-.316c-.021-.585-.054-.982-.128-1.379a4.437 4.437 0 00-.416-1.281 4.358 4.358 0 00-1.884-1.884 4.57 4.57 0 00-1.29-.423 8.816 8.816 0 00-1.373-.12l-.123-.003a134.082 134.082 0 00-.521-.007 99.254 99.254 0 00-.758-.001z" fill="#fff" stroke="#fff"/><path d="M62.543 13.067a.762.762 0 001.049-.27.772.772 0 00-.268-1.053c-3.035-1.812-7.838-1.983-10.727-1.1a.77.77 0 00-.51.959c.122.406.55.636.954.513 2.517-.769 6.866-.624 9.502.95zm-.086 2.332a.643.643 0 00-.21-.882c-2.525-1.56-6.218-2-9.189-1.093a.643.643 0 00-.425.8c.103.339.459.53.796.427 2.6-.793 5.953-.4 8.15.959.3.185.693.09.878-.211zm-1 2.24a.514.514 0 00-.17-.706c-2.156-1.324-4.829-1.633-7.945-.916a.512.512 0 00.227.999c2.848-.654 5.265-.387 7.186.793.24.148.554.072.701-.17zM57.704 5.774c4.518 0 8.18 3.682 8.18 8.225 0 4.543-3.662 8.225-8.18 8.225s-8.18-3.682-8.18-8.225c0-4.543 3.662-8.225 8.18-8.225zm14.074 7.593c1.721.42 2.423 1.074 2.423 2.255 0 1.397-1.062 2.3-2.705 2.3a4.596 4.596 0 01-3.113-1.2.093.093 0 01-.01-.13l.774-.925a.092.092 0 01.13-.01c.753.655 1.426.934 2.25.934.742 0 1.203-.323 1.203-.842 0-.47-.228-.732-1.58-1.045-1.587-.386-2.506-.885-2.506-2.297 0-1.317 1.065-2.237 2.59-2.237 1.037 0 1.925.309 2.713.945.038.03.046.086.017.126l-.69.978a.092.092 0 01-.13.02c-.662-.496-1.294-.737-1.93-.737-.658 0-1.1.317-1.1.79 0 .499.252.736 1.664 1.075zm7.333 1.583c0-.981-.625-1.693-1.485-1.693-.865 0-1.517.727-1.517 1.693s.652 1.693 1.517 1.693c.874 0 1.485-.696 1.485-1.693zm-1.193-2.983c1.324 0 2.664 1.024 2.664 2.983 0 1.958-1.34 2.983-2.664 2.983-.712 0-1.296-.266-1.778-.81v2.282a.093.093 0 01-.092.093h-1.265a.093.093 0 01-.092-.093v-7.229c0-.051.041-.093.092-.093h1.265c.05 0 .092.042.092.093v.65c.482-.577 1.066-.86 1.778-.86zm6.098 4.686c.915 0 1.58-.707 1.58-1.682 0-.972-.689-1.704-1.601-1.704-.91 0-1.57.708-1.57 1.683 0 .97.684 1.703 1.59 1.703zm0-4.686c1.698 0 3.028 1.31 3.028 2.983 0 1.678-1.339 2.994-3.05 2.994-1.692 0-3.018-1.306-3.018-2.973 0-1.685 1.335-3.004 3.04-3.004zm6.668.116c.051 0 .092.042.092.093v1.093a.093.093 0 01-.092.093h-1.392v2.629c0 .415.181.6.587.6.263 0 .499-.057.743-.18a.092.092 0 01.09.004.093.093 0 01.044.08v1.04a.093.093 0 01-.047.08 2.297 2.297 0 01-1.185.297c-1.116 0-1.681-.58-1.681-1.722v-2.828h-.608a.093.093 0 01-.092-.093v-1.093c0-.051.04-.093.092-.093h.608v-1.43c0-.052.041-.094.093-.094H89.2c.051 0 .092.042.092.093v1.43zm4.848.005h2.16c.039 0 .074.024.087.06l1.477 3.876 1.349-3.873a.093.093 0 01.087-.063h1.317c.03 0 .059.016.076.04a.095.095 0 01.01.087l-2.194 5.7c-.455 1.178-.971 1.615-1.905 1.615-.5 0-.903-.104-1.35-.348a.093.093 0 01-.04-.12l.428-.946a.093.093 0 01.055-.05.094.094 0 01.073.007c.24.132.475.199.698.199.275 0 .477-.091.683-.55l-1.81-4.36h-1.18v4.362a.093.093 0 01-.093.093h-1.264a.093.093 0 01-.092-.093v-4.362h-.608a.093.093 0 01-.093-.093V12.17c0-.05.042-.093.093-.093h.608v-.269c0-1.25.617-1.912 1.785-1.912.48 0 .8.077 1.051.152.04.012.066.049.066.09v1.07a.093.093 0 01-.122.09 2.122 2.122 0 00-.713-.133c-.442 0-.639.23-.639.748zm-2.81-.005c.05 0 .092.042.092.093v5.548a.093.093 0 01-.092.093h-1.265a.093.093 0 01-.093-.093v-5.548c0-.051.042-.093.093-.093zm-.626-2.526c.5 0 .907.408.907.911a.91.91 0 01-.907.913.91.91 0 01-.908-.913.91.91 0 01.908-.911zm11.13 3.078h-.232v.297h.232c.116 0 .185-.057.185-.149 0-.097-.069-.148-.185-.148zm.15.424l.252.354h-.212l-.227-.325h-.195v.325h-.177v-.94h.416c.217 0 .36.112.36.3 0 .154-.088.248-.217.286zm-.197-.898a.798.798 0 00-.801.81c0 .447.343.806.796.806a.798.798 0 00.801-.81.791.791 0 00-.796-.806zm-.005 1.706a.89.89 0 01-.89-.895c0-.491.395-.9.895-.9s.89.404.89.895c0 .49-.394.9-.895.9z" fill="#1ed760"/><path d="M13.726 16.033h-2.7v-4.219h.82v3.434h1.88zm1.959 0h-.833v-4.219h.833zm4.362-3.213l-.738.226c-.042-.232-.232-.595-.768-.595-.398 0-.66.256-.66.535 0 .233.149.417.458.477l.589.113c.768.148 1.178.648 1.178 1.243 0 .649-.541 1.303-1.523 1.303-1.119 0-1.612-.72-1.678-1.32l.762-.203c.035.416.327.791.922.791.44 0 .684-.22.684-.517 0-.244-.184-.435-.512-.5l-.589-.12c-.672-.136-1.106-.57-1.106-1.207 0-.75.672-1.32 1.47-1.32 1.023 0 1.415.618 1.51 1.094zm4.445-.226h-1.333v3.439h-.827v-3.44H21v-.779h3.493zm3.767 3.439h-2.642v-4.219h2.642v.774h-1.82v.964h1.647v.732h-1.648v.975h1.82zm4.933 0h-.863l-1.916-2.993v2.993h-.82v-4.219h1.023l1.755 2.79v-2.79h.821zm3.982-2.112c0 .952.666 1.404 1.315 1.404.654 0 1.32-.452 1.32-1.404s-.666-1.405-1.32-1.405c-.649 0-1.315.453-1.315 1.405zm-.85.006c0-1.363 1.022-2.202 2.165-2.202 1.148 0 2.172.839 2.172 2.202 0 1.356-1.024 2.195-2.172 2.195-1.143 0-2.166-.839-2.166-2.195zm9.21 2.106h-.862l-1.916-2.993v2.993h-.821v-4.219h1.023l1.755 2.79v-2.79h.821z" fill="#000"/></g></svg>