<svg fill="none" height="250" width="255" xmlns="http://www.w3.org/2000/svg"><filter id="a" color-interpolation-filters="sRGB" filterUnits="userSpaceOnUse" height="44.842" width="157.193" x="28.27" y="27.721"><feFlood flood-opacity="0" result="BackgroundImageFix"/><feColorMatrix in="SourceAlpha" values="0 0 0 0 0 0 0 0 0 0 0 0 0 0 0 0 0 0 127 0"/><feOffset dy="1"/><feGaussianBlur stdDeviation=".5"/><feColorMatrix values="0 0 0 0 0 0 0 0 0 0 0 0 0 0 0 0 0 0 0.199502 0"/><feBlend in2="BackgroundImageFix" result="effect1_dropShadow"/><feBlend in="SourceGraphic" in2="effect1_dropShadow" result="shape"/></filter><filter id="b" color-interpolation-filters="sRGB" filterUnits="userSpaceOnUse" height="15.672" width="27.461" x="28.962" y="98.284"><feFlood flood-opacity="0" result="BackgroundImageFix"/><feColorMatrix in="SourceAlpha" values="0 0 0 0 0 0 0 0 0 0 0 0 0 0 0 0 0 0 127 0"/><feOffset dy="1"/><feGaussianBlur stdDeviation=".5"/><feColorMatrix values="0 0 0 0 0 0 0 0 0 0 0 0 0 0 0 0 0 0 0.199502 0"/><feBlend in2="BackgroundImageFix" result="effect1_dropShadow"/><feBlend in="SourceGraphic" in2="effect1_dropShadow" result="shape"/></filter><path clip-rule="evenodd" d="M0 0h254.5v221.716H0z" fill="#3b3332" fill-rule="evenodd"/><g filter="url(#a)"><path d="M38.116 28.037l-.316 2.114h-4.936v3.556h4.304v2.095h-4.304v3.773h5.291v2.134h-8.194V28.037zm16.28 13.672h-3.732L46.32 30.862c.118.936.214 1.815.286 2.638s.109 1.788.109 2.894v5.315h-2.626V28.037h3.652l4.423 10.867c-.263-1.766-.395-3.386-.395-4.86v-6.007h2.626zm12.29-13.988c.922 0 1.741.142 2.459.425a7.101 7.101 0 012.004 1.215l-1.52 1.58c-.488-.368-.945-.638-1.373-.81s-.911-.256-1.451-.256c-1.04 0-1.88.411-2.518 1.234s-.957 2.078-.957 3.764c0 1.778.247 3.053.74 3.823s1.26 1.156 2.3 1.156c.75 0 1.429-.165 2.034-.494v-3.339H66.49l-.296-2.114h5.035v6.737a9.633 9.633 0 01-2.3 1.018 8.754 8.754 0 01-2.498.365c-2.014 0-3.541-.606-4.581-1.818-1.04-1.211-1.56-2.996-1.56-5.354 0-1.488.283-2.772.85-3.852.565-1.08 1.332-1.897 2.3-2.45s2.05-.83 3.248-.83zm13.555.316V41.71H77.34V28.037zM97.153 41.71H93.42l-4.344-10.847c.118.936.214 1.815.286 2.638s.109 1.788.109 2.894v5.315h-2.626V28.037h3.653l4.422 10.867c-.263-1.766-.394-3.386-.394-4.86v-6.007h2.626zm14.739-13.672l-.316 2.114h-4.936v3.556h4.304v2.095h-4.304v3.773h5.292v2.134h-8.195V28.037zm14.127 0l-.316 2.114h-4.936v3.556h4.305v2.095h-4.305v3.773h5.292v2.134h-8.194V28.037zm10.356 8.318h-1.48v5.354h-2.903V28.037h4.265c1.83 0 3.205.34 4.127 1.018.921.678 1.382 1.702 1.382 3.072 0 .895-.221 1.633-.662 2.213-.441.58-1.122 1.073-2.043 1.481l3.534 5.888h-3.297zm-1.48-2.055h1.52c.777 0 1.362-.174 1.757-.523.395-.35.593-.9.593-1.65 0-.698-.208-1.209-.622-1.531-.415-.323-1.063-.484-1.945-.484h-1.303zm15.825-6.263V41.71h-2.902V28.037zm16.911 13.672H163.9l-4.344-10.847c.118.936.214 1.815.286 2.638s.109 1.788.109 2.894v5.315h-2.626V28.037h3.652l4.423 10.867c-.263-1.766-.395-3.386-.395-4.86v-6.007h2.626zm12.291-13.988c.922 0 1.741.142 2.459.425a7.11 7.11 0 012.004 1.215l-1.521 1.58c-.487-.368-.944-.638-1.372-.81s-.911-.256-1.451-.256c-1.04 0-1.879.411-2.518 1.234-.638.824-.957 2.078-.957 3.764 0 1.778.247 3.053.74 3.823.494.77 1.261 1.156 2.301 1.156.75 0 1.428-.165 2.033-.494V36.02h-1.915l-.296-2.114h5.035v6.737a9.636 9.636 0 01-2.301 1.018 8.748 8.748 0 01-2.497.365c-2.014 0-3.541-.606-4.581-1.818-1.04-1.211-1.56-2.996-1.56-5.354 0-1.488.283-2.772.849-3.852.566-1.08 1.333-1.897 2.3-2.45.968-.553 2.051-.83 3.248-.83zM35.352 56.26c.855 0 1.599.122 2.23.365s1.251.616 1.857 1.117l-1.442 1.679c-.79-.646-1.619-.968-2.487-.968-.975 0-1.748.398-2.32 1.195s-.86 2.045-.86 3.744c0 1.66.287 2.888.86 3.685s1.352 1.195 2.34 1.195c.513 0 .98-.096 1.401-.286s.862-.465 1.323-.82l1.343 1.679c-.487.5-1.09.912-1.807 1.235s-1.51.484-2.38.484c-1.223 0-2.296-.277-3.218-.83s-1.638-1.367-2.152-2.44c-.513-1.073-.77-2.374-.77-3.902 0-1.488.263-2.77.79-3.843s1.25-1.89 2.172-2.45c.921-.56 1.961-.84 3.12-.84zm19.596 9.483c0 .935-.197 1.765-.592 2.49s-.984 1.294-1.767 1.708-1.735.623-2.853.623c-1.685 0-2.972-.438-3.86-1.314s-1.333-2.045-1.333-3.507v-9.167h2.902v9.029c0 .922.185 1.61.553 2.064.369.455.948.682 1.738.682s1.372-.227 1.747-.682c.375-.454.563-1.142.563-2.064v-9.03h2.902zm9.31-9.167v11.34h5.41l-.316 2.332h-7.997V56.575zm18.116 0l-.316 2.272h-3.456v11.4H75.7v-11.4h-3.633v-2.272zm15.39 9.167c0 .935-.197 1.765-.592 2.49-.395.724-.984 1.294-1.767 1.708s-1.734.623-2.853.623c-1.685 0-2.972-.438-3.86-1.314s-1.333-2.045-1.333-3.507v-9.167h2.903v9.029c0 .922.184 1.61.552 2.064.37.455.948.682 1.738.682s1.372-.227 1.747-.682c.376-.454.563-1.142.563-2.064v-9.03h2.903zm10.791-.85h-1.481v5.355h-2.902V56.575h4.265c1.829 0 3.205.34 4.126 1.017.922.679 1.382 1.703 1.382 3.073 0 .895-.22 1.633-.661 2.212-.441.58-1.122 1.074-2.044 1.482l3.535 5.888h-3.298zm-1.481-2.054h1.521c.776 0 1.362-.175 1.757-.524s.592-.899.592-1.65c0-.698-.207-1.208-.622-1.53-.414-.323-1.063-.485-1.945-.485h-1.303zm21.078-6.263l-.316 2.114H122.9v3.556h4.304v2.094H122.9v3.774h5.291v2.134h-8.194V56.575z" fill="#000"/></g><path d="M38.116 28.037l-.316 2.114h-4.936v3.556h4.304v2.095h-4.304v3.773h5.291v2.134h-8.194V28.037zm16.28 13.672h-3.732L46.32 30.862c.118.936.214 1.815.286 2.638s.109 1.788.109 2.894v5.315h-2.626V28.037h3.652l4.423 10.867c-.263-1.766-.395-3.386-.395-4.86v-6.007h2.626zm12.29-13.988c.922 0 1.741.142 2.459.425a7.101 7.101 0 012.004 1.215l-1.52 1.58c-.488-.368-.945-.638-1.373-.81s-.911-.256-1.451-.256c-1.04 0-1.88.411-2.518 1.234s-.957 2.078-.957 3.764c0 1.778.247 3.053.74 3.823s1.26 1.156 2.3 1.156c.75 0 1.429-.165 2.034-.494v-3.339H66.49l-.296-2.114h5.035v6.737a9.633 9.633 0 01-2.3 1.018 8.754 8.754 0 01-2.498.365c-2.014 0-3.541-.606-4.581-1.818-1.04-1.211-1.56-2.996-1.56-5.354 0-1.488.283-2.772.85-3.852.565-1.08 1.332-1.897 2.3-2.45s2.05-.83 3.248-.83zm13.555.316V41.71H77.34V28.037zM97.153 41.71H93.42l-4.344-10.847c.118.936.214 1.815.286 2.638s.109 1.788.109 2.894v5.315h-2.626V28.037h3.653l4.422 10.867c-.263-1.766-.394-3.386-.394-4.86v-6.007h2.626zm14.739-13.672l-.316 2.114h-4.936v3.556h4.304v2.095h-4.304v3.773h5.292v2.134h-8.195V28.037zm14.127 0l-.316 2.114h-4.936v3.556h4.305v2.095h-4.305v3.773h5.292v2.134h-8.194V28.037zm10.356 8.318h-1.48v5.354h-2.903V28.037h4.265c1.83 0 3.205.34 4.127 1.018.921.678 1.382 1.702 1.382 3.072 0 .895-.221 1.633-.662 2.213-.441.58-1.122 1.073-2.043 1.481l3.534 5.888h-3.297zm-1.48-2.055h1.52c.777 0 1.362-.174 1.757-.523.395-.35.593-.9.593-1.65 0-.698-.208-1.209-.622-1.531-.415-.323-1.063-.484-1.945-.484h-1.303zm15.825-6.263V41.71h-2.902V28.037zm16.911 13.672H163.9l-4.344-10.847c.118.936.214 1.815.286 2.638s.109 1.788.109 2.894v5.315h-2.626V28.037h3.652l4.423 10.867c-.263-1.766-.395-3.386-.395-4.86v-6.007h2.626zm12.291-13.988c.922 0 1.741.142 2.459.425a7.11 7.11 0 012.004 1.215l-1.521 1.58c-.487-.368-.944-.638-1.372-.81s-.911-.256-1.451-.256c-1.04 0-1.879.411-2.518 1.234-.638.824-.957 2.078-.957 3.764 0 1.778.247 3.053.74 3.823.494.77 1.261 1.156 2.301 1.156.75 0 1.428-.165 2.033-.494V36.02h-1.915l-.296-2.114h5.035v6.737a9.636 9.636 0 01-2.301 1.018 8.748 8.748 0 01-2.497.365c-2.014 0-3.541-.606-4.581-1.818-1.04-1.211-1.56-2.996-1.56-5.354 0-1.488.283-2.772.849-3.852.566-1.08 1.333-1.897 2.3-2.45.968-.553 2.051-.83 3.248-.83zM35.352 56.26c.855 0 1.599.122 2.23.365s1.251.616 1.857 1.117l-1.442 1.679c-.79-.646-1.619-.968-2.487-.968-.975 0-1.748.398-2.32 1.195s-.86 2.045-.86 3.744c0 1.66.287 2.888.86 3.685s1.352 1.195 2.34 1.195c.513 0 .98-.096 1.401-.286s.862-.465 1.323-.82l1.343 1.679c-.487.5-1.09.912-1.807 1.235s-1.51.484-2.38.484c-1.223 0-2.296-.277-3.218-.83s-1.638-1.367-2.152-2.44c-.513-1.073-.77-2.374-.77-3.902 0-1.488.263-2.77.79-3.843s1.25-1.89 2.172-2.45c.921-.56 1.961-.84 3.12-.84zm19.596 9.483c0 .935-.197 1.765-.592 2.49s-.984 1.294-1.767 1.708-1.735.623-2.853.623c-1.685 0-2.972-.438-3.86-1.314s-1.333-2.045-1.333-3.507v-9.167h2.902v9.029c0 .922.185 1.61.553 2.064.369.455.948.682 1.738.682s1.372-.227 1.747-.682c.375-.454.563-1.142.563-2.064v-9.03h2.902zm9.31-9.167v11.34h5.41l-.316 2.332h-7.997V56.575zm18.116 0l-.316 2.272h-3.456v11.4H75.7v-11.4h-3.633v-2.272zm15.39 9.167c0 .935-.197 1.765-.592 2.49-.395.724-.984 1.294-1.767 1.708s-1.734.623-2.853.623c-1.685 0-2.972-.438-3.86-1.314s-1.333-2.045-1.333-3.507v-9.167h2.903v9.029c0 .922.184 1.61.552 2.064.37.455.948.682 1.738.682s1.372-.227 1.747-.682c.376-.454.563-1.142.563-2.064v-9.03h2.903zm10.791-.85h-1.481v5.355h-2.902V56.575h4.265c1.829 0 3.205.34 4.126 1.017.922.679 1.382 1.703 1.382 3.073 0 .895-.22 1.633-.661 2.212-.441.58-1.122 1.074-2.044 1.482l3.535 5.888h-3.298zm-1.481-2.054h1.521c.776 0 1.362-.175 1.757-.524s.592-.899.592-1.65c0-.698-.207-1.208-.622-1.53-.414-.323-1.063-.485-1.945-.485h-1.303zm21.078-6.263l-.316 2.114H122.9v3.556h4.304v2.094H122.9v3.774h5.291v2.134h-8.194V56.575z" fill="#fff"/><g filter="url(#b)"><path d="M36.951 104.725c.922.171 1.669.504 2.241.998.573.493.86 1.248.86 2.262 0 1.435-.514 2.456-1.54 3.062-1.028.606-2.456.909-4.286.909h-4.264V98.284h3.731c1.87 0 3.298.277 4.285.83.987.553 1.48 1.442 1.48 2.667 0 .803-.24 1.452-.72 1.946s-1.076.827-1.787.998zm-4.087-4.347v3.458h1.422c.71 0 1.257-.148 1.639-.445.381-.296.572-.747.572-1.353s-.204-1.034-.612-1.284c-.408-.251-1.046-.376-1.915-.376zm1.382 9.424c.908 0 1.6-.135 2.073-.405.474-.27.711-.78.711-1.531 0-1.37-.842-2.055-2.527-2.055h-1.639v3.991zm21.176-11.518L51.04 106.8v5.157h-2.902v-5.137l-4.384-8.535h3.18l2.724 6.204 2.705-6.204z" fill="#000"/></g><path d="M36.951 104.725c.922.171 1.669.504 2.241.998.573.493.86 1.248.86 2.262 0 1.435-.514 2.456-1.54 3.062-1.028.606-2.456.909-4.286.909h-4.264V98.284h3.731c1.87 0 3.298.277 4.285.83.987.553 1.48 1.442 1.48 2.667 0 .803-.24 1.452-.72 1.946s-1.076.827-1.787.998zm-4.087-4.347v3.458h1.422c.71 0 1.257-.148 1.639-.445.381-.296.572-.747.572-1.353s-.204-1.034-.612-1.284c-.408-.251-1.046-.376-1.915-.376zm1.382 9.424c.908 0 1.6-.135 2.073-.405.474-.27.711-.78.711-1.531 0-1.37-.842-2.055-2.527-2.055h-1.639v3.991zm21.176-11.518L51.04 106.8v5.157h-2.902v-5.137l-4.384-8.535h3.18l2.724 6.204 2.705-6.204z" fill="#fff"/><path clip-rule="evenodd" d="M157.958 209.643V250l-37.296-39.887" fill="#3b3332" fill-rule="evenodd"/><path clip-rule="evenodd" d="M28.84 138.148h10.017v40.763H28.839z" fill="#296cae" fill-rule="evenodd"/><path d="M45.434 178.911v-30.305h9.162v2.819c1.18-1.183 2.51-2.067 3.992-2.65 1.483-.582 3.148-.874 4.995-.874 3.3 0 5.754 1.044 7.364 3.13 1.612 2.085 2.417 5.281 2.417 9.584v18.296h-9.163v-17.845c0-2.047-.36-3.551-1.082-4.51-.722-.958-1.862-1.438-3.424-1.438-1.838 0-3.147.447-3.928 1.339-.78.894-1.17 2.43-1.17 4.609v17.845zm34.631 0v-24.018H75.41v-5.555h4.655c-.058-.62-.092-1.07-.102-1.352a18.71 18.71 0 01-.015-.762c0-3.212.783-5.53 2.347-6.949 1.565-1.418 4.128-2.127 7.69-2.127.781 0 1.58.045 2.391.14.812.094 1.658.244 2.54.451v6.344h-1.533c-1.69 0-2.804.206-3.344.62-.542.413-.81 1.24-.81 2.48v1.155h5.686v5.555H89.23v24.018zm24.424-15.138c0 2.763.634 4.957 1.901 6.583s2.96 2.438 5.083 2.438c2.121 0 3.819-.817 5.095-2.453 1.277-1.636 1.915-3.824 1.915-6.568 0-2.764-.633-4.963-1.9-6.597-1.267-1.635-2.971-2.452-5.11-2.452-2.103 0-3.792.827-5.068 2.48-1.277 1.654-1.916 3.844-1.916 6.569zm6.984 16.125c-4.912 0-8.865-1.475-11.86-4.427-2.995-2.949-4.493-6.85-4.493-11.698 0-4.831 1.503-8.73 4.509-11.7 3.004-2.969 6.951-4.453 11.844-4.453 4.947 0 8.921 1.479 11.915 4.44 2.996 2.96 4.494 6.863 4.494 11.713 0 4.83-1.508 8.725-4.523 11.685-3.014 2.96-6.978 4.44-11.886 4.44z" fill="#296cae"/><path d="M152.179 171.355c3.246 0 5.779-1.121 7.599-3.367 1.818-2.246 2.727-5.381 2.727-9.402 0-4.022-.914-7.166-2.743-9.43-1.83-2.265-4.356-3.398-7.583-3.398-3.206 0-5.729 1.142-7.566 3.426-1.84 2.283-2.759 5.418-2.759 9.402s.914 7.109 2.742 9.372c1.83 2.266 4.358 3.397 7.583 3.397zm10.827 6.005c-1.514.827-3.184 1.457-5.012 1.89-1.829.431-3.766.648-5.81.648-6.272 0-11.29-1.935-15.055-5.807-3.764-3.872-5.647-9.041-5.647-15.505 0-3.533.574-6.696 1.726-9.487a18.779 18.779 0 015.144-7.146 18.605 18.605 0 016.207-3.553c2.309-.789 4.848-1.183 7.62-1.183 6.25 0 11.263 1.945 15.037 5.836 3.773 3.89 5.66 9.067 5.66 15.533 0 2.706-.314 5.154-.942 7.343-.629 2.191-1.6 4.168-2.918 5.934a14.902 14.902 0 003.86 2.467 15.095 15.095 0 004.479 1.17l-3.064 7.273c-2.318-.226-4.424-.794-6.319-1.705a16.032 16.032 0 01-4.966-3.708z" fill="#1e8d44"/><path clip-rule="evenodd" d="M183.281 139.582c-.92-5.359-4.667-10.175-9.656-12.392a2.776 2.776 0 00-3.666 1.409 2.766 2.766 0 001.407 3.672c3.342 1.493 5.824 4.663 6.44 8.257a2.775 2.775 0 003.209 2.267 2.78 2.78 0 002.266-3.213zm10.95-1.908c-1.547-8.959-7.811-16.981-16.111-20.652a2.777 2.777 0 00-3.667 1.418c-.618 1.405.001 3.054 1.422 3.665 6.629 2.931 11.647 9.358 12.879 16.513a2.774 2.774 0 003.211 2.267 2.777 2.777 0 002.266-3.211zm10.955-1.947c-2.201-12.611-11.079-23.894-22.795-28.982a2.784 2.784 0 00-3.66 1.444 2.792 2.792 0 001.444 3.659c10.043 4.348 17.646 14.024 19.532 24.838a2.78 2.78 0 105.479-.959z" fill="#f5a623" fill-rule="evenodd"/></svg>