<svg width="22" height="22" xmlns="http://www.w3.org/2000/svg"><g fill="none"><path fill="#FAB908" d="M9.445 6.87v7.85h2.7V6.87z"/><circle fill="#0066D9" cx="1.349" cy="10.059" r="1.349"/><circle fill="#0066D9" cx="1.349" cy="11.531" r="1.349"/><path fill="#0066D9" d="M0 10.059h2.699v1.472H0z"/><circle fill="#4285F4" cx="20.24" cy="11.531" r="1.349"/><circle fill="#4285F4" cx="20.24" cy="10.059" r="1.349"/><path fill="#4285F4" d="M21.59 11.53h-2.7v-1.47h2.7z"/><circle fill="#EA4335" cx="6.011" cy="14.475" r="1.349"/><circle fill="#EA4335" cx="6.011" cy="15.947" r="1.349"/><path fill="#EA4335" d="M4.661 14.475H7.36v1.472H4.661z"/><circle fill="#EA4335" cx="6.011" cy="5.643" r="1.349"/><circle fill="#EA4335" cx="6.011" cy="10.427" r="1.349"/><path fill="#EA4335" d="M4.661 5.643H7.36v4.815H4.661z"/><circle fill="#34A853" cx="15.579" cy="7.115" r="1.349"/><circle fill="#34A853" cx="15.579" cy="5.643" r="1.349"/><path fill="#34A853" d="M16.929 7.114h-2.7V5.642h2.7z"/><circle fill="#FAB908" cx="10.795" cy="2.821" r="1.349"/><circle fill="#FAB908" cx="10.795" cy="1.349" r="1.349"/><path fill="#FAB908" d="M12.145 2.822h-2.7V1.35h2.7z"/><circle fill="#FAB908" cx="10.795" cy="20.24" r="1.349"/><circle fill="#FAB908" cx="10.795" cy="18.768" r="1.349"/><path fill="#FAB908" d="M12.145 20.24h-2.7v-1.472h2.7z"/><circle fill="#34A853" cx="15.579" cy="15.947" r="1.349"/><circle fill="#34A853" cx="15.579" cy="11.163" r="1.349"/><path fill="#34A853" d="M16.929 15.947h-2.7v-4.784h2.7z"/><circle fill="#FAB908" cx="10.795" cy="6.869" r="1.349"/><circle fill="#FAB908" cx="10.795" cy="14.72" r="1.349"/></g></svg>