<svg width="22" height="22" xmlns="http://www.w3.org/2000/svg"><defs><linearGradient x1="49.999%" y1=".057%" x2="49.999%" y2="99.972%" id="a"><stop stop-color="#FF9402" offset="0%"/><stop stop-color="#FF613C" offset="100%"/></linearGradient></defs><g fill="none"><path d="M21.573 19.153a4.526 4.526 0 0 1-1.364 1.791 4.47 4.47 0 0 1-1.503.78 9.303 9.303 0 0 1-2.583.27H6.506c-.87.03-1.74-.06-2.584-.27a4.52 4.52 0 0 1-2.872-2.578 8.385 8.385 0 0 1-.421-3.023V6.506a8.366 8.366 0 0 1 .427-3.03A4.52 4.52 0 0 1 3.929.906 9.303 9.303 0 0 1 6.506.628h9.617c.87-.032 1.739.06 2.583.27a4.52 4.52 0 0 1 2.873 2.577c.325.976.468 2.003.421 3.03v9.617a8.366 8.366 0 0 1-.427 3.03z" fill="url(#a)"/><path d="M11.314 17.914a6.6 6.6 0 1 1 6.6-6.6 6.587 6.587 0 0 1-6.6 6.6zm0-2.615l.497-.496-.497-1.886-.496 1.886.496.496zm-.628 0l-.245.937.578-.578-.333-.359zm1.257 0l-.333.334.578.578-.245-.912zm.471 1.672l-1.1-1.093-1.1 1.093c.363.067.731.105 1.1.114.37.004.74-.034 1.1-.114zm-1.1-11.433a5.77 5.77 0 0 0-1.885 11.22l1.257-4.595a1.069 1.069 0 0 1-.44-.88 1.1 1.1 0 1 1 1.76.88l1.257 4.595a5.77 5.77 0 0 0-1.949-11.22zm3.772 8.636a.427.427 0 0 1-.579.082.37.37 0 0 1-.081-.553 4.224 4.224 0 0 0 0-4.784.37.37 0 0 1 .081-.553.427.427 0 0 1 .579.082 4.96 4.96 0 0 1 0 5.72v.006zM13.074 13.1a.465.465 0 0 1 0-.628 1.79 1.79 0 0 0 .44-1.157 1.886 1.886 0 0 0-.415-1.156.497.497 0 0 1 0-.629.377.377 0 0 1 .579 0 2.74 2.74 0 0 1 0 3.633.402.402 0 0 1-.604-.063zm-3.52 0a.402.402 0 0 1-.578 0 2.74 2.74 0 0 1 0-3.633.377.377 0 0 1 .578 0 .465.465 0 0 1 0 .629 1.886 1.886 0 0 0-.44 1.22c-.002.422.145.831.415 1.156.17.171.181.444.025.628zm-1.433 1.157a.427.427 0 0 1-.578-.082 4.96 4.96 0 0 1 0-5.72.427.427 0 0 1 .578-.081.37.37 0 0 1 .082.553 4.224 4.224 0 0 0 0 4.783.396.396 0 0 1-.082.547z" fill="#FFF"/></g></svg>