<svg width="22" height="22" xmlns="http://www.w3.org/2000/svg"><path d="M20.83 0H1.17A1.17 1.17 0 0 0 0 1.17v19.66C0 21.476.524 22 1.17 22h19.66A1.17 1.17 0 0 0 22 20.83V1.17A1.17 1.17 0 0 0 20.83 0zM2.153 13.86c-.005.041-.036.07-.073.07-.038 0-.068-.029-.073-.071l-.133-.996.133-1.014c.005-.043.035-.072.073-.072.037 0 .067.03.073.071l.158 1.015-.158.996zm.678.606c-.006.043-.037.074-.075.074-.04 0-.072-.031-.076-.074l-.18-1.603.18-1.639c.004-.043.037-.074.076-.074.038 0 .07.03.075.074l.205 1.639-.205 1.603zm.733.271c-.006.052-.044.09-.092.09s-.086-.038-.091-.09l-.17-1.874.17-1.945c.005-.052.043-.09.091-.09s.086.038.092.09l.193 1.945-.193 1.874zm.738.06c-.005.06-.05.104-.106.104a.11.11 0 0 1-.108-.105l-.16-1.933.16-1.998a.11.11 0 0 1 .108-.105c.055 0 .101.045.106.104l.183 2-.183 1.932zm.745.016a.125.125 0 0 1-.123.12.125.125 0 0 1-.122-.12l-.152-1.95.152-1.853a.124.124 0 0 1 .122-.121c.065 0 .118.052.123.12l.172 1.854-.172 1.95zm.75 0a.141.141 0 0 1-.138.136.14.14 0 0 1-.138-.136l-.143-1.949.143-3.016a.14.14 0 0 1 .138-.136c.073 0 .134.06.138.136l.161 3.016-.161 1.95zm.744-.001v-.001a.156.156 0 0 1-.153.152.155.155 0 0 1-.154-.151l-.133-1.937.133-3.706a.157.157 0 0 1 .154-.152c.082 0 .15.067.153.152l.151 3.706-.15 1.937zm.774-.03a.172.172 0 0 1-.17.167.171.171 0 0 1-.17-.167l-.123-1.917.124-4.015a.172.172 0 0 1 .17-.168c.09 0 .165.074.169.168l.14 4.015-.14 1.917zm.767-.013a.186.186 0 0 1-.184.184.186.186 0 0 1-.185-.183l-.115-1.905.115-4.15a.186.186 0 0 1 .185-.184c.1 0 .181.08.184.184l.13 4.15-.13 1.904zm.774-.016v-.002a.202.202 0 0 1-.2.2.2.2 0 0 1-.2-.199l-.106-1.886.106-4.044a.2.2 0 0 1 .2-.2.2.2 0 0 1 .2.2l.12 4.044-.12 1.887zm.78-.012v-.002a.216.216 0 0 1-.433.001l-.095-1.875.095-3.896a.216.216 0 1 1 .433 0l.108 3.897-.108 1.875zm.795-.197l-.01.184a.236.236 0 0 1-.231.23.233.233 0 0 1-.231-.221v-.008l-.088-1.864.087-4.592V8.23A.236.236 0 0 1 10.19 8a.236.236 0 0 1 .232.23l.097 4.637-.088 1.678zm.773.158V14.7a.25.25 0 0 1-.248.247.25.25 0 0 1-.247-.245l-.05-.905-.051-.93.1-5.032.001-.026a.25.25 0 0 1 .247-.246.252.252 0 0 1 .248.246l.11 5.058-.11 1.835zm6.677.25h-6.223a.264.264 0 0 1-.243-.258V7.57c.002-.131.047-.198.216-.264a3.962 3.962 0 0 1 5.382 3.342 2.245 2.245 0 0 1 3.113 2.07 2.235 2.235 0 0 1-2.245 2.235z" fill="#FF4300"/></svg>