<svg width="22" height="22" xmlns="http://www.w3.org/2000/svg"><path d="M10.99 0C4.92 0 0 4.92 0 10.99c0 6.069 4.92 10.99 10.99 10.99 6.069 0 10.99-4.921 10.99-10.99C21.98 4.92 17.058 0 10.99 0zm5.075 17.43a.758.758 0 0 1-1.025.3 12.002 12.002 0 0 0-9.327-.947.753.753 0 0 1-.943-.5c-.124-.396.098-1.24.498-1.365a13.522 13.522 0 0 1 10.502 1.068c.366.199.499 1.08.295 1.445zm1.398-4.138c-.157.304-.465.793-.782.793a.84.84 0 0 1-.405-.1 15.075 15.075 0 0 0-7.012-1.707 15.11 15.11 0 0 0-4.018.539.88.88 0 0 1-1.082-.619c-.127-.47.15-1.272.62-1.4a17.015 17.015 0 0 1 12.302 1.308.878.878 0 0 1 .377 1.186zm.583-3.315a1.01 1.01 0 0 1-.448-.106 18.506 18.506 0 0 0-8.331-1.954c-1.525 0-3.044.185-4.518.55a1.006 1.006 0 0 1-1.22-.736c-.135-.538.195-1.19.735-1.324 1.63-.405 3.313-.61 5.002-.61 3.24 0 6.347.73 9.23 2.166.5.25.703.853.454 1.35-.178.354-.533.664-.904.664z" fill="#4AB972"/></svg>