<svg fill="none" height="48" viewBox="0 0 48 48" width="48" xmlns="http://www.w3.org/2000/svg"><g stroke="#000" stroke-linecap="round" stroke-linejoin="round" stroke-width="2"><path d="m24 2c-1.5912 0-3.1174.63214-4.2426 1.75736-1.1253 1.12522-1.7574 2.65134-1.7574 4.24264v16c0 1.5912.6321 3.1174 1.7574 4.2426 1.1252 1.1252 2.6514 1.7574 4.2426 1.7574s3.1174-.6322 4.2426-1.7574 1.7574-2.6514 1.7574-4.2426v-16c0-1.5913-.6322-3.11742-1.7574-4.24264s-2.6514-1.75736-4.2426-1.75736z"/><path d="m38 20v4c0 3.713-1.475 7.274-4.1006 9.8994-2.6254 2.6256-6.1864 4.1006-9.8994 4.1006s-7.274-1.475-9.8995-4.1006c-2.6255-2.6254-4.1005-6.1864-4.1005-9.8994v-4"/><path d="m24 38v8"/><path d="m16 46h16"/></g></svg>