<?xml version="1.0" standalone="no"?>
<svg viewBox="0 0 44 44" style="background-color:#ffffff00" version="1.1" xmlns="http://www.w3.org/2000/svg" xmlns:xlink="http://www.w3.org/1999/xlink" xml:space="preserve" x="0px" y="0px" width="44px" height="44px">
	<path d="M 3 6 L 41 6 L 41 41 L 3 41 L 3 6 L 3 6 ZM 1 4 L 1 43 L 43 43 L 43 4 L 1 4 L 1 4 Z" fill="#333333"/>
	<path d="M 9 35 L 30 35 L 30 37 L 9 37 L 9 35 Z" fill="#333333"/>
	<path d="M 28 20 L 35 20 L 35 22 L 28 22 L 28 20 Z" fill="#333333"/>
	<path d="M 28 15 L 35 15 L 35 17 L 28 17 L 28 15 Z" fill="#333333"/>
	<path d="M 9 30 L 35 30 L 35 32 L 9 32 L 9 30 Z" fill="#333333"/>
	<path d="M 9 25 L 35 25 L 35 27 L 9 27 L 9 25 Z" fill="#333333"/>
	<path d="M 9 22 L 17 14 L 24 22 L 24 1 L 17 1 L 9 1 L 9 22 Z" fill="#333333"/>
</svg>