<?xml version="1.0" encoding="UTF-8"?>
<svg width="40px" height="44px" viewBox="0 0 40 44" version="1.1" xmlns="http://www.w3.org/2000/svg" xmlns:xlink="http://www.w3.org/1999/xlink">
    <!-- Generator: Sketch 41 (35326) - http://www.bohemiancoding.com/sketch -->
    <title>Desktop - Home Page</title>
    <desc>Created with Sketch.</desc>
    <defs></defs>
    <g id="Mobile" stroke="none" stroke-width="1" fill="none" fill-rule="evenodd">
        <g id="Icon" transform="translate(-2.000000, 0.000000)">
            <g id="Desktop---Home-Page" transform="translate(4.000000, 2.000000)">
                <g id="Layer_1">
                    <path d="M11.9632036,26.7917029 C8.98190234,24.8287944 7.00818126,21.4251605 7.00818126,17.5519866 C7.00818126,11.4708652 11.8698488,6.54081322 17.8671393,6.54081322 C23.8641969,6.54081322 28.7258644,11.4706291 28.7258644,17.5519866 C28.7258644,21.4249244 26.7521434,24.8285583 23.7708421,26.7917029" id="Shape" stroke="#000000" stroke-width="3"></path>
                    <path d="M29.4919841,31.4701178 C33.2039666,28.183345 35.5505129,23.3504839 35.5505129,17.9609268 C35.5505129,8.05788584 27.6335522,0.0296886715 17.8671513,0.0296886715 C8.10075036,0.0296886715 0.183532764,8.05762533 0.183532764,17.9606663 C0.183532764,23.3502234 2.53007912,28.1830845 6.24206163,31.4701178" id="Shape" stroke="#000000" stroke-width="3"></path>
                    <path d="M26.4187936,37.9633548 L19.4792302,37.9633548 L19.4792302,21.9615484 C21.3679168,21.2487097 22.7221595,19.4187097 22.7221595,17.2542581 C22.7221595,14.4729677 20.4946736,12.2167742 17.7543124,12.2167742 C15.0093703,12.2167742 12.7864654,14.4731613 12.7864654,17.2542581 C12.7864654,19.4187097 14.1384176,21.2487097 16.0272951,21.9615484 L16.0272951,37.9633548 L9.28146762,37.9633548 L9.28146762,41.8819355 L26.4187936,41.8819355 L26.4187936,37.9633548 L26.4187936,37.9633548 Z" id="Shape" fill="#000000"></path>
                </g>
            </g>
        </g>
    </g>
</svg>