<svg fill="none" height="48" viewBox="0 0 48 48" width="48" xmlns="http://www.w3.org/2000/svg"><g stroke="#000" stroke-linecap="round" stroke-linejoin="round" stroke-width="2"><path d="m8 34.6666v-10.6666c0-4.2435 1.6857-8.3131 4.6863-11.3137s7.0702-4.6863 11.3137-4.6863c4.2434 0 8.3132 1.6857 11.3138 4.6863 3.0004 3.0006 4.6862 7.0702 4.6862 11.3137v10.6666"/><path d="m40 36.4444c0 .943-.3746 1.8474-1.0414 2.5142s-1.5712 1.0414-2.5142 1.0414h-1.7778c-.943 0-1.8472-.3746-2.514-1.0414s-1.0414-1.5712-1.0414-2.5142v-5.3334c0-.9428.3746-1.8472 1.0414-2.514s1.571-1.0414 2.514-1.0414h5.3334zm-32 0c0 .943.3746 1.8474 1.0414 2.5142s1.5712 1.0414 2.5142 1.0414h1.7777c.943 0 1.8474-.3746 2.5142-1.0414s1.0414-1.5712 1.0414-2.5142v-5.3334c0-.9428-.3746-1.8472-1.0414-2.514s-1.5712-1.0414-2.5142-1.0414h-5.3333z"/></g></svg>