<svg height="39" viewBox="0 0 88 39" width="88" xmlns="http://www.w3.org/2000/svg" xmlns:xlink="http://www.w3.org/1999/xlink"><linearGradient id="a" x1="92.165%" x2="0%" y1="50%" y2="50%"><stop offset="0" stop-color="#ecf0f9"/><stop offset=".45869" stop-color="#ecf0f9"/><stop offset=".46135" stop-color="#fff"/><stop offset="1" stop-color="#fff"/></linearGradient><linearGradient id="b" x1="80.174%" x2="18.918%" y1="50%" y2="50%"><stop offset="0" stop-color="#f9955b"/><stop offset=".49354" stop-color="#f9955b"/><stop offset=".49456" stop-color="#fec774"/><stop offset="1" stop-color="#fedc7b"/></linearGradient><linearGradient id="c" x1="80.174%" x2="18.918%" y1="50%" y2="50%"><stop offset="0" stop-color="#fe9f67"/><stop offset=".50772" stop-color="#feb46e"/><stop offset=".50912" stop-color="#fec774"/><stop offset="1" stop-color="#fedc7b"/></linearGradient><g fill="none" fill-rule="evenodd" transform="translate(-3)"><path d="m39 0h1v28h-1z" fill="#292952"/><g transform="translate(4 1)"><path d="m2 .00000068 24-.00000244c1.1045695 0 2 .8954305 2 2v.00000244l-.0000301 22.68607812c-.0000009.8000034-.4767335 1.5230421-1.2120302 1.8382314l-12.7740938 5.4756905-12.80049819-5.476154c-.736002-.3148675-1.21334771-1.0382729-1.21334771-1.838798v-22.68504802c0-1.1045695.8954305-2 2-2z" fill="url(#a)"/><path d="m1.99999995-.49999933 24.00000005-.00000243c1.3807119 0 2.5 1.11928813 2.5 2.50000066l-.0000301 22.6860805c-.0000012 1.0000043-.5959168 1.9038026-1.5150378 2.2977892l-12.9708913 5.560049-12.99735616-5.5603714c-.92000251-.3935843-1.51668464-1.2978411-1.51668464-2.2984975v-22.68504802c0-1.38071188 1.11928813-2.50000001 2.5-2.50000001z" stroke="#292952"/></g><g transform="matrix(-.82903757 -.5591929 .5591929 -.82903757 13.607608 39.212263)"><path d="m12.696 22.539h-9.633v-1.384l-3.063-3.063 7.834-18.092 7.997 18.092-3.135 3.063z" fill="url(#b)" stroke="#292952" stroke-linecap="round" stroke-linejoin="round"/><path d="m7.91546454 2.97411392 3.43680106 12.22121678c.0793004 1.8194704-.049304 3.0162323-.3858132 3.5902857-.5047639.8610802.2603238 3.1978665.5968046 3.1978665.2243206 0-.9916102 0-3.64779246 0z" fill="#ffbd71"/><g stroke-linecap="round" stroke-linejoin="round"><g><path d="m1.131 23.746h13.569v2.262h-13.569z" fill="url(#c)"/><path d="m.631 23.246h14.569v3.262h-14.569z" stroke="#292952"/></g><g><path d="m3.16 30.531-.898-3.392h11.307l-.675 3.392z" fill="#292952"/><path d="m2.7751539 31.0310775-1.16324762-4.3923419h12.56689662l-.8750384 4.3923419z" stroke="#292952"/></g><path d="m7.91546454 0v12.4011817" stroke="#292952"/></g><circle cx="7.915" cy="13.569" fill="#292952" r="2.262"/></g><g fill-rule="nonzero" transform="translate(46)"><path d="m3.029 12.688h-3.029v-12.469h3.029z" fill="#2b6cad"/><path d="m4.976 12.688v-9.193h2.768v.854c.34091054-.34988008.75281955-.6226675 1.208-.8.445-.174.95-.268 1.507-.268.996 0 1.74.314 2.224.948.485.634.73 1.602.73 2.91v5.548h-2.768v-5.413c0-.62-.106-1.074-.325-1.368-.22-.294-.564-.434-1.036-.434-.557 0-.949.133-1.188.407-.232.274-.352.734-.352 1.395v5.415h-2.768zm10.483 0v-7.347h-1.396v-1.695h1.396c-.02-.189-.027-.33-.033-.411 0-.088-.007-.162-.007-.236 0-.983.237-1.69.705-2.127.467-.431 1.238-.653 2.305-.653.237 0 .474.013.718.04.243.027.493.074.757.142v1.939h-.461c-.507 0-.836.06-1.001.188s-.244.377-.244.76v.358h1.706v1.696h-1.7v7.346h-2.744zm9.41.656c-1.49 0-2.693-.46-3.602-1.379-.909-.92-1.363-2.133-1.363-3.65 0-1.501.454-2.722 1.37-3.648.909-.92 2.112-1.386 3.596-1.386 1.504 0 2.713.46 3.622 1.386.91.926 1.364 2.14 1.364 3.649 0 1.502-.461 2.716-1.377 3.642-.909.926-2.112 1.386-3.61 1.386zm-2.118-5.028c0 .864.194 1.543.575 2.05.388.508.902.762 1.544.762.641 0 1.163-.254 1.55-.761.388-.508.582-1.194.582-2.044 0-.864-.194-1.544-.575-2.058-.388-.508-.902-.761-1.55-.761-.642 0-1.15.26-1.538.775-.394.507-.588 1.193-.588 2.037z" fill="#2b6cad"/><path d="m40.677 12.337c-.4760126.2613667-.9853409.4568223-1.514.581-.5743333.1355443-1.1629133.2013525-1.753.196-1.893 0-3.407-.594-4.55-1.784-1.135-1.19-1.706-2.779-1.706-4.766 0-1.088.173-2.055.518-2.914.3366227-.84510922.8692542-1.5981281 1.554-2.197.5452968-.4842661 1.1821932-.85423051 1.873-1.088.697-.243 1.467-.365 2.304-.365 1.886 0 3.4.595 4.542 1.791 1.142 1.197 1.707 2.786 1.707 4.773 0 .831-.093 1.582-.286 2.258-.1834173.65602005-.4824384 1.2740421-.883 1.825.359.318.744.568 1.162.757.419.19.87.304 1.355.358l-.923 2.238c-.6622509-.0574321-1.3083116-.2360648-1.906-.527-.5686547-.2754407-1.0765848-.661658-1.494-1.136zm-3.274-1.845c.983 0 1.746-.345 2.291-1.035.551-.69.823-1.65.823-2.886 0-1.237-.278-2.204-.83-2.894-.55-.696-1.315-1.04-2.29-1.04-.97 0-1.727.35-2.285 1.054-.558.703-.83 1.663-.83 2.886 0 1.224.279 2.184.83 2.88.558.69 1.321 1.035 2.29 1.035z" fill="#228d45"/></g><path d="m52.23 17.635-.21 1.47h-3.825v2.895h3.33v1.47h-3.33v3.045h4.095v1.485h-6.075v-10.365zm8.55-.75v11.115h-1.695l-.135-1.005c-.2500012.3800019-.5674981.6799989-.9525.9s-.8224975.33-1.3125.33c-.9700048 0-1.7149974-.3749962-2.235-1.125-.5200026-.7500037-.78-1.7699935-.78-3.06 0-.810004.1299987-1.5324968.39-2.1675s.6324976-1.1324982 1.1175-1.4925 1.0474968-.54 1.6875-.54c.7600038 0 1.4249972.2849972 1.995.855v-4.02zm-3.555 9.885c.3400017 0 .6399987-.0824992.9-.2475s.5049989-.4224982.735-.7725v-3.63c-.2300011-.2800014-.4624988-.4899993-.6975-.63s-.5074984-.21-.8175-.21c-.5100025 0-.9124985.2274977-1.2075.6825s-.4425 1.1424954-.4425 2.0625c0 .9800049.1299987 1.6824979.39 2.1075s.6399975.6375 1.14.6375zm7.785-6.705v7.935h-1.92v-7.935zm-.975-4.02c.3600018 0 .6524989.1124989.8775.3375s.3375.5024984.3375.8325c0 .3300017-.1124989.6049989-.3375.825s-.5174982.33-.8775.33c-.3500017 0-.6374989-.1099989-.8625-.33s-.3375-.4949983-.3375-.825c0-.3300016.1124989-.6074989.3375-.8325s.5124983-.3375.8625-.3375zm7.83 11.58c-.2800014.200001-.5924983.3499995-.9375.45s-.6974982.15-1.0575.15c-.7800039-.01-1.372498-.2324978-1.7775-.6675s-.6075-1.0774957-.6075-1.9275v-4.185h-1.245v-1.38h1.245v-1.755l1.92-.225v1.98h1.845l-.195 1.38h-1.65v4.14c0 .390002.0674993.6699992.2025.84.1350007.1700009.3474986.255.6375.255.2900015 0 .6049983-.094999.945-.285zm4.32-7.785c1.1700059 0 2.0824967.3724963 2.7375 1.1175s.9825 1.7674935.9825 3.0675c0 .8300042-.1499985 1.5624968-.45 2.1975s-.7299972 1.1274983-1.29 1.4775c-.5600028.3500018-1.2249961.525-1.995.525-1.1700058 0-2.0849967-.3724963-2.745-1.1175s-.99-1.7724934-.99-3.0825c0-.8300041.1499985-1.5599968.45-2.19.3000015-.6300031.7324972-1.1199982 1.2975-1.47.5650028-.3500017 1.2324962-.525 2.0025-.525zm0 1.455c-1.1500057 0-1.725.9099909-1.725 2.73 0 .9400047.1424986 1.6324978.4275 2.0775s.7124972.6675 1.2825.6675c.5700029 0 .9974986-.2249977 1.2825-.675.2850014-.4500022.4275-1.1399953.4275-2.07 0-.9300046-.1424986-1.6174978-.4275-2.0625s-.7074972-.6675-1.2675-.6675zm9.435-1.44c.2900015 0 .5549988.0349997.795.105l-.33 1.86c-.2400012-.0600003-.4749988-.09-.705-.09-.4700023 0-.8399986.1674983-1.11.5025-.2700013.3350017-.4849992.8474966-.645 1.5375v4.23h-1.92v-7.935h1.665l.18 1.56c.190001-.5700028.4649982-1.0074985.825-1.3125s.7749977-.4575 1.245-.4575z" fill="#292952"/><path d="m7 34.58c2.38956686 2.56 4.6540617 3.84 6.7934845 3.84 3.2091343 0 4.0591606-1.5792188 6.0256115-1.92 1.3109673-.2271875 3.0379352.141936 5.180904 1.1073705" stroke="#292952" stroke-linecap="round" stroke-linejoin="round"/></g></svg>