<svg xmlns="http://www.w3.org/2000/svg" width="14" height="14" viewBox="0 0 14 14">
  <mask id="alexa-a" fill="#fff">
    <path fill-rule="evenodd" d="m0 0h11.8090906v12h-11.8090906z"/>
  </mask>
  <mask id="alexa-b" fill="#fff">
    <path fill-rule="evenodd" d="m5.91519985 12c-3.26182719 0-5.90614445-2.68633846-5.90614445-6 0-3.04248 2.22919-5.55573323 5.1187172-5.94681489v1.20901181c0 .34092923-.21165454.64738154-.52976362.75573231-1.66718178.56888308-2.8598363 2.18784-2.81594539 4.08324923.05348182 2.30761846 1.90379995 4.12189844 4.17578172 4.09863694 2.26367267-.0232616 4.09169989-1.89468002 4.09169989-4.1998154 0-.05253231-.0012727-.10481538-.0031818-.15684923-.0004546-.01164923-.0008182-.02333539-.0012727-.03504923-.0021819-.04831385-.005091-.09656308-.0088182-.14451692-.0011818-.01525847-.0026364-.03047077-.004-.04561847-.0029091-.03353538-.0062728-.06670153-.01-.09987692-.0041818-.03779077-.009-.07518461-.0141818-.11250461-.0022728-.01701231-.0045455-.03407077-.007091-.05101847-.50618176-3.38729538-4.84893619-5.2911407-4.87273619-5.30148923.25749999-.03479566.52013635-.05307692.78693634-.05307692 3.26189083 0 5.90616345 2.68626462 5.90616345 6 0 3.31366154-2.64427262 6-5.90616345 6"/>
  </mask>
  <g fill="none" fill-rule="evenodd">
    <circle cx="7" cy="7" r="7" fill="#fff"/>
    <g transform="matrix(1 0 0 -1 1 13)">
      <path fill="#5fcaf4" d="m5.91519985 11.9540227c-3.26182719 0-5.90614445-2.67604592-5.90614445-5.97701136 0-3.03082291 2.22919-5.53444675 5.1187172-5.92403001v1.20437956c0 .33962298-.21165454.64490113-.52976362.75283676-1.66718178.56670344-2.8598363 2.17945742-2.81594539 4.0676045.05348182 2.29877695 1.90379995 4.10610565 4.17578172 4.08293325 2.26367267-.0231724 4.09169989-1.88742066 4.09169989-4.18372406 0-.05233103-.0012727-.10441379-.0031818-.15624827-.0004546-.01160459-.0008182-.02324597-.0012727-.03491494-.0021819-.04812873-.005091-.0961931-.0088182-.14396321-.0011818-.0152-.0026364-.03035403-.004-.04544368-.0029091-.0334069-.0062728-.06644598-.01-.09949425-.0041818-.03764598-.009-.07489655-.0141818-.11207356-.0022728-.01694713-.0045455-.03394023-.007091-.05082299-.50618176-3.37431716-4.84893619-5.270868-4.87273619-5.28117688.25749999-.03466234.52013635-.05287356.78693634-.05287356 3.26189083 0 5.90616345 2.67597235 5.90616345 5.97701134 0 3.30096544-2.64427262 5.97701136-5.90616345 5.97701136"/>
      <g mask="url(#alexa-a)" transform="translate(.01)">
        <g fill="#5fcaf4" fill-rule="nonzero" mask="url(#alexa-b)" transform="translate(-.01)">
          <path d="m.00326727.00331754h13.60573243v13.82105166h-13.60573243z" transform="translate(-.89 -.914)"/>
        </g>
      </g>
    </g>
  </g>
</svg>
