<?xml version="1.0" encoding="UTF-8"?>
<svg width="10px" height="9px" viewBox="0 0 10 9" version="1.1" xmlns="http://www.w3.org/2000/svg" xmlns:xlink="http://www.w3.org/1999/xlink">
    <!-- Generator: Sketch 41 (35326) - http://www.bohemiancoding.com/sketch -->
    <title>mail_outline - material</title>
    <desc>Created with Sketch.</desc>
    <defs></defs>
    <g id="Style-Guide" stroke="none" stroke-width="1" fill="none" fill-rule="evenodd">
        <g id="Icons" transform="translate(-503.000000, -145.000000)" fill="#FFFFFF">
            <g id="Mail-Small" transform="translate(496.000000, 137.000000)">
                <g id="mail_outline---material---group" transform="translate(6.000000, 6.000000)">
                    <path d="M5.992,5.516 L10,3.008 L1.984,3.008 L5.992,5.516 Z M10,9.008 L10,4.016 L5.992,6.5 L1.984,4.016 L1.984,9.008 L10,9.008 Z M10,2 C10.2720014,2 10.503999,2.099999 10.696,2.3 C10.888001,2.500001 10.984,2.73599864 10.984,3.008 L10.984,9.008 C10.984,9.28000136 10.888001,9.515999 10.696,9.716 C10.503999,9.916001 10.2720014,10.016 10,10.016 L1.984,10.016 C1.71199864,10.016 1.48000096,9.916001 1.288,9.716 C1.09599904,9.515999 1,9.28000136 1,9.008 L1,3.008 C1,2.73599864 1.09599904,2.500001 1.288,2.3 C1.48000096,2.099999 1.71199864,2 1.984,2 L10,2 Z" id="mail_outline---material"></path>
                </g>
            </g>
        </g>
    </g>
</svg>