<svg xmlns="http://www.w3.org/2000/svg" width="24" height="24" viewBox="0 0 24 24"><g fill="none" fill-rule="evenodd"><path d="M0 0H24V24H0z"/><g transform="translate(4 4)"><path fill="#2A8AB8" fill-rule="nonzero" d="M5.533 8.002c-.23.555-.267 1.085-.082 1.183.127.069.326-.087.512-.372.074.31.257.592.519.817-.275.104-.453.273-.453.466 0 .315.484.57 1.082.57.538 0 .984-.207 1.067-.48h.129c.082.273.529.48 1.068.48.597 0 1.082-.255 1.082-.57 0-.193-.18-.362-.453-.466.26-.225.444-.507.517-.817.187.285.386.44.513.372.184-.098.148-.628-.082-1.183-.18-.436-.426-.757-.613-.828a.862.862 0 0 0-.12-.534c.002-.01.002-.02.002-.03a.486.486 0 0 0-.049-.213c-.046-1.134-.766-2.033-1.93-2.033s-1.883.9-1.93 2.033a.475.475 0 0 0-.05.213l.002.03a.87.87 0 0 0-.12.534c-.185.07-.431.392-.61.828z"/><path d="M0 16L0 0 16 0 16 16"/><path fill="#4BAB48" fill-rule="nonzero" d="M10.052.538c-.819-.224-1.509.28-1.738 1.075-.228.795.091 1.577.91 1.802.82.226 6.011 1.985 6.197 7.737.104-.255.194-.517.272-.787 1.22-4.236-1.306-8.635-5.64-9.827z"/><path fill="#ED1C24" fill-rule="nonzero" d="M14.083 11.693c-.563-.616-1.388-.754-1.987-.166-.6.588-4.68 4.136-9.672 1.262.166.224.344.44.534.65 3.001 3.285 8.004 3.429 11.175.32.6-.589.512-1.45-.05-2.066z"/><path fill="#FEDE0D" fill-rule="nonzero" d="M3.69 9.47C3.503 8.66 2.624 3.366 7.758.486c-.28.032-.562.077-.844.138C2.487 1.58-.303 5.83.683 10.12c.187.81.975 1.165 1.805.986.83-.18 1.388-.824 1.202-1.635z"/></g></g></svg>