<?xml version="1.0" encoding="UTF-8"?>
<svg width="16px" height="9px" viewBox="0 0 16 9" version="1.1" xmlns="http://www.w3.org/2000/svg" xmlns:xlink="http://www.w3.org/1999/xlink">
    <!-- Generator: Sketch 41 (35326) - http://www.bohemiancoding.com/sketch -->
    <title>Soundcloud-color</title>
    <desc>Created with Sketch.</desc>
    <defs></defs>
    <g id="Style-Guide" stroke="none" stroke-width="1" fill="none" fill-rule="evenodd">
        <g id="Icons" transform="translate(-534.000000, -144.000000)" fill="#FFFFFF">
            <g id="Soundcloud-Small" transform="translate(530.000000, 137.000000)">
                <path d="M4,14.3842028 C4,14.5855547 4.07198163,14.7377987 4.21591438,14.8409965 C4.35986238,14.9441789 4.51372732,14.9806618 4.67752443,14.950476 C4.83138936,14.9202748 4.93934655,14.8649007 5.00141125,14.7843692 C5.06344545,14.7038377 5.0944778,14.5704386 5.0944778,14.3842028 L5.0944778,12.194613 C5.0944778,12.038563 5.04112473,11.9064325 4.93440334,11.7982218 C4.82769721,11.6899955 4.69740405,11.6358901 4.54352387,11.6358901 C4.3946174,11.6358901 4.2668111,11.6899955 4.16008971,11.7982218 C4.05336832,11.9064325 4,12.038563 4,12.194613 L4,14.3842028 L4,14.3842028 Z M5.71242438,15.3204412 C5.71242438,15.4664345 5.76330585,15.5758985 5.86505351,15.6488951 C5.96681644,15.7218918 6.0971096,15.7583746 6.25593299,15.7583746 C6.41973011,15.7583746 6.55249487,15.7218763 6.65425779,15.6488951 C6.75600546,15.575914 6.80688692,15.4664345 6.80688692,15.3204412 L6.80688692,10.2164319 C6.80688692,10.0654257 6.7535186,9.93580174 6.64681247,9.82759095 C6.54009108,9.71938016 6.40979792,9.66525929 6.25593299,9.66525929 C6.10702652,9.66525929 5.97920497,9.71938016 5.87249884,9.82759095 C5.76577745,9.93581721 5.71242438,10.0654257 5.71242438,10.2164319 L5.71242438,15.3204412 L5.71242438,15.3204412 Z M7.41740344,15.5620511 C7.41740344,15.7080289 7.46952071,15.8175084 7.57375523,15.890505 C7.67798976,15.9634862 7.81200558,15.9999845 7.97581796,15.9999845 C8.13464135,15.9999845 8.26493451,15.9634862 8.36668218,15.890505 C8.4684451,15.8175084 8.51932656,15.7080289 8.51932656,15.5620511 L8.51932656,10.9035101 C8.51932656,10.7474755 8.46595824,10.6140764 8.35925211,10.5033437 C8.25253072,10.3926109 8.12472442,10.3372523 7.97581796,10.3372523 C7.82193777,10.3372523 7.69040881,10.3926109 7.58121582,10.5033437 C7.47202282,10.6140764 7.4174187,10.7474755 7.4174187,10.9035101 L7.4174187,15.5620511 L7.41740344,15.5620511 Z M9.12982783,15.584702 C9.12982783,15.861557 9.31347405,15.9999845 9.68078176,15.9999845 C10.0480742,15.9999845 10.2317204,15.861557 10.2317204,15.584702 L10.2317204,8.03439242 C10.2317204,7.61157508 10.1051499,7.3724871 9.85200894,7.317113 C9.68821183,7.27683953 9.52688631,7.32466331 9.36806292,7.46056889 C9.20922427,7.59647446 9.12981257,7.78773865 9.12981257,8.03439242 L9.12981257,15.584702 L9.12982783,15.584702 Z M10.8720488,15.803661 L10.8720488,7.58892415 C10.8720488,7.32718524 10.9489736,7.17115067 11.1028538,7.12080495 C11.4354065,7.04027348 11.7654876,7 12.0930818,7 C12.8524895,7 13.5598105,7.18120743 14.2149837,7.54362229 C14.8701722,7.90603715 15.4000412,8.40058243 15.8045603,9.02725813 C16.2090946,9.6539493 16.4436223,10.3447872 16.5081433,11.0998336 C16.8109147,10.9689564 17.1335352,10.9035255 17.4760201,10.9035255 C18.170922,10.9035255 18.7653121,11.1526858 19.2591751,11.6510062 C19.7530533,12.1493421 20,12.748323 20,13.4479954 C20,14.1526961 19.7530533,14.7541989 19.2591751,15.2525193 C18.7653121,15.7508398 18.1734089,16 17.4834654,16 L11.0060341,15.9924497 C10.9613469,15.9773491 10.9278429,15.9496543 10.9055069,15.9093963 C10.883171,15.8691383 10.8720488,15.8338622 10.8720488,15.803661 L10.8720488,15.803661 L10.8720488,15.803661 Z" id="Soundcloud"></path>
            </g>
        </g>
    </g>
</svg>