<svg xmlns="http://www.w3.org/2000/svg" width="24" height="24" viewBox="0 0 24 24"><g fill="none" fill-rule="evenodd"><path fill="#2DC100" d="M0 0H24V24H0z"/><g fill="#FFF" fill-rule="nonzero"><path d="M15.4 10.362c-1.39.075-2.598.508-3.579 1.486-.991.988-1.443 2.2-1.32 3.7-.543-.069-1.038-.145-1.535-.188-.172-.015-.376.006-.521.09-.483.281-.947.597-1.495.95.1-.468.165-.878.28-1.273.086-.29.046-.45-.213-.64-1.668-1.21-2.372-3.021-1.845-4.886.486-1.726 1.682-2.772 3.306-3.317 2.218-.745 4.71.015 6.058 1.824.486.653.785 1.387.864 2.254zm-6.395-.58a.65.65 0 0 0-.617-.66.63.63 0 0 0-.647.619.625.625 0 0 0 .609.656.64.64 0 0 0 .655-.616zm3.336-.66a.65.65 0 0 0-.626.65c.006.354.29.632.643.628a.623.623 0 0 0 .618-.648.626.626 0 0 0-.635-.63z"/><path d="M18.646 19c-.436-.2-.836-.5-1.262-.546-.424-.046-.87.207-1.314.253-1.352.143-2.563-.245-3.562-1.197-1.9-1.81-1.628-4.585.57-6.068 1.952-1.318 4.817-.879 6.194.95 1.202 1.596 1.06 3.715-.407 5.056-.424.388-.577.707-.305 1.219.05.094.057.214.086.333zm-4.964-4.95a.521.521 0 0 0 .517-.507.525.525 0 0 0-.513-.55.53.53 0 0 0-.52.547c.01.281.24.509.516.51zm3.2-1.057a.52.52 0 0 0-.51.506c-.011.3.215.546.503.547a.507.507 0 0 0 .509-.502.519.519 0 0 0-.502-.55z"/></g></g></svg>