<svg xmlns="http://www.w3.org/2000/svg" width="13" height="10" viewBox="0 0 13 10">
  <g fill="none">
    <path d="M0.941120543,6.87096774 C0.941120543,8.30390492 2.88162988,9.46519525 5.27415959,9.46519525 C7.6666893,9.46519525 9.60719864,8.30390492 9.60719864,6.87096774 C9.60719864,5.43803056 7.6666893,4.27674024 5.27415959,4.27674024 C2.88162988,4.27674024 0.941120543,5.43803056 0.941120543,6.87096774"/>
    <path fill="#FFFFFF" d="M5.37657046 9.25466893C3.25772496 9.45670628 1.42845501 8.53480475 1.29073005 7.19864177 1.15300509 5.86078098 2.75979626 4.61460102 4.87687606 4.41256367 6.99572156 4.21052632 8.82499151 5.13242784 8.96095076 6.46859083 9.10044143 7.80645161 7.49365025 9.05432937 5.37657046 9.25466893M9.61249576 4.81494058C9.43239389 4.762309 9.30879457 4.72835314 9.40237691 4.5008489 9.60719864 4.00679117 9.6283871 3.58064516 9.40590832 3.27504244 8.99096774 2.70458404 7.85385399 2.73514431 6.55076401 3.25976231 6.55076401 3.25976231 6.14112054 3.43123939 6.24706282 3.12054329 6.44658744 2.5008489 6.41657046 1.98302207 6.10580645 1.68251273 5.39952462 1.00169779 3.51904924 1.70797963 1.90696095 3.25806452.70098472 4.41765705 0 5.64855688 0 6.71307301 0 8.74702886 2.71388795 9.98471986 5.36774194 9.98471986 8.84794567 9.98471986 11.1627844 8.04074703 11.1627844 6.49745331 11.1645501 5.56366723 10.3470289 5.03395586 9.61249576 4.81494058M11.9238031 1.09168081C11.0833277.19524618 9.84380306-.146010187 8.69962649.0882852292L8.69962649.0882852292C8.4347708.142614601 8.26702886.393887946 8.32353141.646859083 8.38003396.901528014 8.63959253 1.06281834 8.90444822 1.00848896 9.71843803.842105263 10.5995246 1.08488964 11.1963328 1.72156197 11.7931409 2.3582343 11.9555857 3.22580645 11.6995586 3.98641766L11.6995586 3.98641766C11.6165705 4.23429542 11.7578268 4.4991511 12.0156197 4.57894737 12.2734126 4.65874363 12.5488625 4.5229202 12.6318506 4.27674024L12.6318506 4.27504244C12.9920543 3.20713073 12.7642784 1.98641766 11.9238031 1.09168081"/>
    <path fill="#FFFFFF" d="M10.633073 2.21222411C10.2234295 1.77589134 9.61955857 1.60950764 9.06336163 1.72495756 8.83558574 1.77079796 8.69079796 1.98811545 8.73847199 2.20713073 8.78791171 2.42614601 9.0121562 2.56536503 9.23816638 2.51782683L9.23816638 2.51782683C9.51008489 2.46179966 9.80672326 2.54329372 10.0062479 2.75551783 10.2057725 2.96943973 10.2605093 3.25976231 10.1739898 3.51443124L10.1739898 3.51443124C10.1033616 3.72665535 10.2234295 3.95585739 10.4459083 4.02546689 10.6683871 4.09337861 10.9049915 3.97792869 10.9773854 3.76400679 11.1521902 3.24278438 11.0427165 2.64855688 10.633073 2.21222411M5.49310696 6.8336163C5.41894737 6.95585739 5.25473684 7.01358234 5.12760611 6.96264856 5.00047538 6.91341256 4.96162988 6.77589134 5.03402377 6.65704584 5.10818336 6.53820034 5.26533107 6.48047538 5.3906961 6.52801358 5.51782683 6.5721562 5.56373514 6.70967742 5.49310696 6.8336163M4.81684211 7.6655348C4.61202037 7.97962649 4.17235993 8.11714771 3.84217317 7.97283531 3.51728353 7.83022071 3.42016978 7.46519525 3.62499151 7.15789474 3.82804754 6.85229202 4.25181664 6.71646859 4.58023769 6.84889643 4.91219015 6.98641766 5.01813243 7.34804754 4.81684211 7.6655348M5.5866893 5.44142615C4.57847199 5.18845501 3.43959253 5.67232598 3.00169779 6.52631579 2.55497453 7.39728353 2.98757216 8.36502547 4.004618 8.68081494 5.06050934 9.00848896 6.30356537 8.50594228 6.73616299 7.56706282 7.1634635 6.64685908 6.63022071 5.70118846 5.5866893 5.44142615"/>
  </g>
</svg>
