<svg width="66" height="64" viewBox="0 0 66 64" fill="none" xmlns="http://www.w3.org/2000/svg">
<path fill-rule="evenodd" clip-rule="evenodd" d="M0 0H65.152V56.7594H0V0Z" fill="#3B3332"/>
<g filter="url(#filter0_d)">
<path d="M9.75765 7.17754L9.67677 7.71872H8.41311V8.62912H9.51502V9.16525H8.41311V10.1313H9.76776V10.6775H7.67008V7.17754H9.75765ZM13.9252 10.6775H12.9699L11.8579 7.9008C11.8882 8.14021 11.9126 8.36527 11.9311 8.57602C11.9497 8.78676 11.9589 9.03374 11.9589 9.31698V10.6775H11.2867V7.17754H12.2218L13.354 9.95932C13.2866 9.50749 13.2529 9.09275 13.2529 8.71511V7.17754H13.9252V10.6775ZM17.0717 7.09662C17.3076 7.09662 17.5174 7.13287 17.701 7.20536C17.8847 7.27786 18.0557 7.38154 18.2141 7.51641L17.8249 7.92104C17.7002 7.82662 17.5831 7.7575 17.4736 7.71367C17.364 7.66983 17.2402 7.64792 17.1021 7.64792C16.8358 7.64792 16.621 7.75328 16.4576 7.96403C16.2941 8.17477 16.2124 8.49593 16.2124 8.92753C16.2124 9.38273 16.2756 9.70896 16.402 9.90621C16.5283 10.1035 16.7246 10.2021 16.9908 10.2021C17.1829 10.2021 17.3565 10.1599 17.5115 10.0756V9.22088H17.0212L16.9454 8.6797H18.2343V10.4044C18.0523 10.5157 17.856 10.6025 17.6454 10.6649C17.4348 10.7273 17.2217 10.7584 17.006 10.7584C16.4904 10.7584 16.0995 10.6033 15.8333 10.2931C15.5671 9.98292 15.434 9.52604 15.434 8.92247C15.434 8.54145 15.5065 8.2127 15.6514 7.93621C15.7963 7.65972 15.9926 7.45066 16.2402 7.30904C16.4879 7.16743 16.7651 7.09662 17.0717 7.09662ZM20.5417 7.17754V10.6775H19.7987V7.17754H20.5417ZM24.871 10.6775H23.9157L22.8037 7.9008C22.834 8.14021 22.8585 8.36527 22.877 8.57602C22.8955 8.78676 22.9048 9.03374 22.9048 9.31698V10.6775H22.2325V7.17754H23.1676L24.2999 9.95932C24.2325 9.50749 24.1988 9.09275 24.1988 8.71511V7.17754H24.871V10.6775ZM28.6443 7.17754L28.5635 7.71872H27.2998V8.62912H28.4017V9.16525H27.2998V10.1313H28.6544V10.6775H26.5568V7.17754H28.6443ZM32.2609 7.17754L32.1801 7.71872H30.9164V8.62912H32.0183V9.16525H30.9164V10.1313H32.271V10.6775H30.1734V7.17754H32.2609ZM34.9121 9.30686H34.533V10.6775H33.79V7.17754H34.8818C35.3502 7.17754 35.7023 7.26437 35.9382 7.43802C36.1741 7.61167 36.292 7.87383 36.292 8.2245C36.292 8.45379 36.2356 8.64261 36.1227 8.79097C36.0098 8.93933 35.8354 9.06578 35.5995 9.17031L36.5043 10.6775H35.6602L34.9121 9.30686ZM34.533 8.78086H34.9222C35.121 8.78086 35.271 8.73618 35.3721 8.64683C35.4732 8.55747 35.5237 8.4167 35.5237 8.2245C35.5237 8.04579 35.4706 7.91513 35.3645 7.83252C35.2583 7.74991 35.0924 7.70861 34.8666 7.70861H34.533V8.78086ZM38.5843 7.17754V10.6775H37.8413V7.17754H38.5843ZM42.9136 10.6775H41.9583L40.8463 7.9008C40.8766 8.14021 40.901 8.36527 40.9196 8.57602C40.9381 8.78676 40.9474 9.03374 40.9474 9.31698V10.6775H40.2751V7.17754H41.2102L42.3424 9.95932C42.275 9.50749 42.2413 9.09275 42.2413 8.71511V7.17754H42.9136V10.6775ZM46.0601 7.09662C46.296 7.09662 46.5058 7.13287 46.6894 7.20536C46.8731 7.27786 47.0441 7.38154 47.2025 7.51641L46.8133 7.92104C46.6886 7.82662 46.5715 7.7575 46.462 7.71367C46.3525 7.66983 46.2286 7.64792 46.0905 7.64792C45.8242 7.64792 45.6094 7.75328 45.446 7.96403C45.2826 8.17477 45.2008 8.49593 45.2008 8.92753C45.2008 9.38273 45.264 9.70896 45.3904 9.90621C45.5168 10.1035 45.713 10.2021 45.9793 10.2021C46.1713 10.2021 46.3449 10.1599 46.4999 10.0756V9.22088H46.0096L45.9338 8.6797H47.2227V10.4044C47.0407 10.5157 46.8444 10.6025 46.6338 10.6649C46.4232 10.7273 46.2101 10.7584 45.9944 10.7584C45.4788 10.7584 45.088 10.6033 44.8217 10.2931C44.5555 9.98292 44.4224 9.52604 44.4224 8.92247C44.4224 8.54145 44.4949 8.2127 44.6398 7.93621C44.7847 7.65972 44.981 7.45066 45.2286 7.30904C45.4763 7.16743 45.7535 7.09662 46.0601 7.09662ZM9.05 14.4023C9.26903 14.4023 9.45942 14.4335 9.62117 14.4959C9.78292 14.5582 9.9413 14.6535 10.0963 14.7816L9.72732 15.2115C9.52513 15.0463 9.31284 14.9637 9.09043 14.9637C8.84107 14.9637 8.6431 15.0657 8.49651 15.2697C8.34993 15.4737 8.27663 15.7932 8.27663 16.2281C8.27663 16.653 8.34993 16.9674 8.49651 17.1714C8.6431 17.3754 8.84275 17.4774 9.09549 17.4774C9.22691 17.4774 9.34653 17.453 9.45437 17.4041C9.5622 17.3552 9.67509 17.2852 9.79303 17.1942L10.1367 17.6241C10.0121 17.7522 9.8579 17.8576 9.67424 17.9402C9.49059 18.0228 9.28757 18.0641 9.06516 18.0641C8.75177 18.0641 8.47714 17.9933 8.24125 17.8517C8.00537 17.7101 7.82172 17.5019 7.6903 17.2271C7.55887 16.9522 7.49316 16.6193 7.49316 16.2281C7.49316 15.8471 7.56056 15.5192 7.69535 15.2444C7.83014 14.9696 8.01548 14.7605 8.25136 14.6172C8.48725 14.4739 8.75346 14.4023 9.05 14.4023ZM14.0667 16.83C14.0667 17.0694 14.0162 17.2818 13.9151 17.4673C13.814 17.6527 13.6632 17.7986 13.4627 17.9048C13.2622 18.011 13.0187 18.0641 12.7323 18.0641C12.301 18.0641 11.9716 17.952 11.7441 17.7278C11.5167 17.5035 11.4029 17.2043 11.4029 16.83V14.4832H12.146V16.7946C12.146 17.0306 12.1931 17.2068 12.2875 17.3232C12.3819 17.4395 12.5301 17.4976 12.7323 17.4976C12.9345 17.4976 13.0836 17.4395 13.1796 17.3232C13.2757 17.2068 13.3237 17.0306 13.3237 16.7946V14.4832H14.0667V16.83ZM16.45 14.4832V17.3864H17.835L17.7541 17.9832H15.707V14.4832H16.45ZM21.0876 14.4832L21.0068 15.0649H20.1222V17.9832H19.3792V15.0649H18.4491V14.4832H21.0876ZM25.0277 16.83C25.0277 17.0694 24.9772 17.2818 24.8761 17.4673C24.775 17.6527 24.6242 17.7986 24.4237 17.9048C24.2232 18.011 23.9797 18.0641 23.6933 18.0641C23.262 18.0641 22.9326 17.952 22.7051 17.7278C22.4777 17.5035 22.3639 17.2043 22.3639 16.83V14.4832H23.107V16.7946C23.107 17.0306 23.1541 17.2068 23.2485 17.3232C23.3429 17.4395 23.4911 17.4976 23.6933 17.4976C23.8955 17.4976 24.0446 17.4395 24.1406 17.3232C24.2367 17.2068 24.2847 17.0306 24.2847 16.7946V14.4832H25.0277V16.83ZM27.7901 16.6125H27.411V17.9832H26.668V14.4832H27.7598C28.2282 14.4832 28.5803 14.57 28.8162 14.7437C29.0521 14.9173 29.17 15.1795 29.17 15.5302C29.17 15.7595 29.1136 15.9483 29.0007 16.0966C28.8878 16.245 28.7134 16.3714 28.4775 16.476L29.3823 17.9832H28.5382L27.7901 16.6125ZM27.411 16.0865H27.8002C27.999 16.0865 28.149 16.0418 28.2501 15.9525C28.3512 15.8631 28.4017 15.7224 28.4017 15.5302C28.4017 15.3515 28.3486 15.2208 28.2425 15.1382C28.1363 15.0556 27.9704 15.0143 27.7446 15.0143H27.411V16.0865ZM32.8068 14.4832L32.726 15.0244H31.4623V15.9348H32.5642V16.4709H31.4623V17.4369H32.817V17.9832H30.7193V14.4832H32.8068Z" fill="black"/>
</g>
<path d="M9.75765 7.17754L9.67677 7.71872H8.41311V8.62912H9.51502V9.16525H8.41311V10.1313H9.76776V10.6775H7.67008V7.17754H9.75765ZM13.9252 10.6775H12.9699L11.8579 7.9008C11.8882 8.14021 11.9126 8.36527 11.9311 8.57602C11.9497 8.78676 11.9589 9.03374 11.9589 9.31698V10.6775H11.2867V7.17754H12.2218L13.354 9.95932C13.2866 9.50749 13.2529 9.09275 13.2529 8.71511V7.17754H13.9252V10.6775ZM17.0717 7.09662C17.3076 7.09662 17.5174 7.13287 17.701 7.20536C17.8847 7.27786 18.0557 7.38154 18.2141 7.51641L17.8249 7.92104C17.7002 7.82662 17.5831 7.7575 17.4736 7.71367C17.364 7.66983 17.2402 7.64792 17.1021 7.64792C16.8358 7.64792 16.621 7.75328 16.4576 7.96403C16.2941 8.17477 16.2124 8.49593 16.2124 8.92753C16.2124 9.38273 16.2756 9.70896 16.402 9.90621C16.5283 10.1035 16.7246 10.2021 16.9908 10.2021C17.1829 10.2021 17.3565 10.1599 17.5115 10.0756V9.22088H17.0212L16.9454 8.6797H18.2343V10.4044C18.0523 10.5157 17.856 10.6025 17.6454 10.6649C17.4348 10.7273 17.2217 10.7584 17.006 10.7584C16.4904 10.7584 16.0995 10.6033 15.8333 10.2931C15.5671 9.98292 15.434 9.52604 15.434 8.92247C15.434 8.54145 15.5065 8.2127 15.6514 7.93621C15.7963 7.65972 15.9926 7.45066 16.2402 7.30904C16.4879 7.16743 16.7651 7.09662 17.0717 7.09662ZM20.5417 7.17754V10.6775H19.7987V7.17754H20.5417ZM24.871 10.6775H23.9157L22.8037 7.9008C22.834 8.14021 22.8585 8.36527 22.877 8.57602C22.8955 8.78676 22.9048 9.03374 22.9048 9.31698V10.6775H22.2325V7.17754H23.1676L24.2999 9.95932C24.2325 9.50749 24.1988 9.09275 24.1988 8.71511V7.17754H24.871V10.6775ZM28.6443 7.17754L28.5635 7.71872H27.2998V8.62912H28.4017V9.16525H27.2998V10.1313H28.6544V10.6775H26.5568V7.17754H28.6443ZM32.2609 7.17754L32.1801 7.71872H30.9164V8.62912H32.0183V9.16525H30.9164V10.1313H32.271V10.6775H30.1734V7.17754H32.2609ZM34.9121 9.30686H34.533V10.6775H33.79V7.17754H34.8818C35.3502 7.17754 35.7023 7.26437 35.9382 7.43802C36.1741 7.61167 36.292 7.87383 36.292 8.2245C36.292 8.45379 36.2356 8.64261 36.1227 8.79097C36.0098 8.93933 35.8354 9.06578 35.5995 9.17031L36.5043 10.6775H35.6602L34.9121 9.30686ZM34.533 8.78086H34.9222C35.121 8.78086 35.271 8.73618 35.3721 8.64683C35.4732 8.55747 35.5237 8.4167 35.5237 8.2245C35.5237 8.04579 35.4706 7.91513 35.3645 7.83252C35.2583 7.74991 35.0924 7.70861 34.8666 7.70861H34.533V8.78086ZM38.5843 7.17754V10.6775H37.8413V7.17754H38.5843ZM42.9136 10.6775H41.9583L40.8463 7.9008C40.8766 8.14021 40.901 8.36527 40.9196 8.57602C40.9381 8.78676 40.9474 9.03374 40.9474 9.31698V10.6775H40.2751V7.17754H41.2102L42.3424 9.95932C42.275 9.50749 42.2413 9.09275 42.2413 8.71511V7.17754H42.9136V10.6775ZM46.0601 7.09662C46.296 7.09662 46.5058 7.13287 46.6894 7.20536C46.8731 7.27786 47.0441 7.38154 47.2025 7.51641L46.8133 7.92104C46.6886 7.82662 46.5715 7.7575 46.462 7.71367C46.3525 7.66983 46.2286 7.64792 46.0905 7.64792C45.8242 7.64792 45.6094 7.75328 45.446 7.96403C45.2826 8.17477 45.2008 8.49593 45.2008 8.92753C45.2008 9.38273 45.264 9.70896 45.3904 9.90621C45.5168 10.1035 45.713 10.2021 45.9793 10.2021C46.1713 10.2021 46.3449 10.1599 46.4999 10.0756V9.22088H46.0096L45.9338 8.6797H47.2227V10.4044C47.0407 10.5157 46.8444 10.6025 46.6338 10.6649C46.4232 10.7273 46.2101 10.7584 45.9944 10.7584C45.4788 10.7584 45.088 10.6033 44.8217 10.2931C44.5555 9.98292 44.4224 9.52604 44.4224 8.92247C44.4224 8.54145 44.4949 8.2127 44.6398 7.93621C44.7847 7.65972 44.981 7.45066 45.2286 7.30904C45.4763 7.16743 45.7535 7.09662 46.0601 7.09662ZM9.05 14.4023C9.26903 14.4023 9.45942 14.4335 9.62117 14.4959C9.78292 14.5582 9.9413 14.6535 10.0963 14.7816L9.72732 15.2115C9.52513 15.0463 9.31284 14.9637 9.09043 14.9637C8.84107 14.9637 8.6431 15.0657 8.49651 15.2697C8.34993 15.4737 8.27663 15.7932 8.27663 16.2281C8.27663 16.653 8.34993 16.9674 8.49651 17.1714C8.6431 17.3754 8.84275 17.4774 9.09549 17.4774C9.22691 17.4774 9.34653 17.453 9.45437 17.4041C9.5622 17.3552 9.67509 17.2852 9.79303 17.1942L10.1367 17.6241C10.0121 17.7522 9.8579 17.8576 9.67424 17.9402C9.49059 18.0228 9.28757 18.0641 9.06516 18.0641C8.75177 18.0641 8.47714 17.9933 8.24125 17.8517C8.00537 17.7101 7.82172 17.5019 7.6903 17.2271C7.55887 16.9522 7.49316 16.6193 7.49316 16.2281C7.49316 15.8471 7.56056 15.5192 7.69535 15.2444C7.83014 14.9696 8.01548 14.7605 8.25136 14.6172C8.48725 14.4739 8.75346 14.4023 9.05 14.4023ZM14.0667 16.83C14.0667 17.0694 14.0162 17.2818 13.9151 17.4673C13.814 17.6527 13.6632 17.7986 13.4627 17.9048C13.2622 18.011 13.0187 18.0641 12.7323 18.0641C12.301 18.0641 11.9716 17.952 11.7441 17.7278C11.5167 17.5035 11.4029 17.2043 11.4029 16.83V14.4832H12.146V16.7946C12.146 17.0306 12.1931 17.2068 12.2875 17.3232C12.3819 17.4395 12.5301 17.4976 12.7323 17.4976C12.9345 17.4976 13.0836 17.4395 13.1796 17.3232C13.2757 17.2068 13.3237 17.0306 13.3237 16.7946V14.4832H14.0667V16.83ZM16.45 14.4832V17.3864H17.835L17.7541 17.9832H15.707V14.4832H16.45ZM21.0876 14.4832L21.0068 15.0649H20.1222V17.9832H19.3792V15.0649H18.4491V14.4832H21.0876ZM25.0277 16.83C25.0277 17.0694 24.9772 17.2818 24.8761 17.4673C24.775 17.6527 24.6242 17.7986 24.4237 17.9048C24.2232 18.011 23.9797 18.0641 23.6933 18.0641C23.262 18.0641 22.9326 17.952 22.7051 17.7278C22.4777 17.5035 22.3639 17.2043 22.3639 16.83V14.4832H23.107V16.7946C23.107 17.0306 23.1541 17.2068 23.2485 17.3232C23.3429 17.4395 23.4911 17.4976 23.6933 17.4976C23.8955 17.4976 24.0446 17.4395 24.1406 17.3232C24.2367 17.2068 24.2847 17.0306 24.2847 16.7946V14.4832H25.0277V16.83ZM27.7901 16.6125H27.411V17.9832H26.668V14.4832H27.7598C28.2282 14.4832 28.5803 14.57 28.8162 14.7437C29.0521 14.9173 29.17 15.1795 29.17 15.5302C29.17 15.7595 29.1136 15.9483 29.0007 16.0966C28.8878 16.245 28.7134 16.3714 28.4775 16.476L29.3823 17.9832H28.5382L27.7901 16.6125ZM27.411 16.0865H27.8002C27.999 16.0865 28.149 16.0418 28.2501 15.9525C28.3512 15.8631 28.4017 15.7224 28.4017 15.5302C28.4017 15.3515 28.3486 15.2208 28.2425 15.1382C28.1363 15.0556 27.9704 15.0143 27.7446 15.0143H27.411V16.0865ZM32.8068 14.4832L32.726 15.0244H31.4623V15.9348H32.5642V16.4709H31.4623V17.4369H32.817V17.9832H30.7193V14.4832H32.8068Z" fill="white"/>
<g filter="url(#filter1_d)">
<path d="M9.45951 26.8095C9.6954 26.8534 9.88663 26.9385 10.0332 27.065C10.1798 27.1914 10.2531 27.3844 10.2531 27.6441C10.2531 28.0116 10.1217 28.2729 9.85883 28.428C9.59599 28.5831 9.23037 28.6607 8.76197 28.6607H7.67017V25.1607H8.62549C9.104 25.1607 9.46962 25.2315 9.72235 25.3731C9.97509 25.5148 10.1015 25.7423 10.1015 26.0559C10.1015 26.2616 10.04 26.4277 9.91696 26.5541C9.79396 26.6806 9.64148 26.7657 9.45951 26.8095ZM8.4132 25.6968V26.5819H8.77713C8.9591 26.5819 9.09895 26.544 9.19667 26.4681C9.29439 26.3923 9.34325 26.2768 9.34325 26.1217C9.34325 25.9666 9.29102 25.857 9.18656 25.7929C9.0821 25.7289 8.91867 25.6968 8.69626 25.6968H8.4132ZM8.76702 28.1094C8.99954 28.1094 9.17645 28.0748 9.29776 28.0057C9.41908 27.9366 9.47973 27.8059 9.47973 27.6137C9.47973 27.263 9.26407 27.0877 8.83274 27.0877H8.4132V28.1094H8.76702ZM14.1881 25.1607L13.066 27.3406V28.6607H12.323V27.3457L11.2008 25.1607H12.0146L12.7122 26.7488L13.4047 25.1607H14.1881Z" fill="black"/>
</g>
<path d="M9.45951 26.8095C9.6954 26.8534 9.88663 26.9385 10.0332 27.065C10.1798 27.1914 10.2531 27.3844 10.2531 27.6441C10.2531 28.0116 10.1217 28.2729 9.85883 28.428C9.59599 28.5831 9.23037 28.6607 8.76197 28.6607H7.67017V25.1607H8.62549C9.104 25.1607 9.46962 25.2315 9.72235 25.3731C9.97509 25.5148 10.1015 25.7423 10.1015 26.0559C10.1015 26.2616 10.04 26.4277 9.91696 26.5541C9.79396 26.6806 9.64148 26.7657 9.45951 26.8095ZM8.4132 25.6968V26.5819H8.77713C8.9591 26.5819 9.09895 26.544 9.19667 26.4681C9.29439 26.3923 9.34325 26.2768 9.34325 26.1217C9.34325 25.9666 9.29102 25.857 9.18656 25.7929C9.0821 25.7289 8.91867 25.6968 8.69626 25.6968H8.4132ZM8.76702 28.1094C8.99954 28.1094 9.17645 28.0748 9.29776 28.0057C9.41908 27.9366 9.47973 27.8059 9.47973 27.6137C9.47973 27.263 9.26407 27.0877 8.83274 27.0877H8.4132V28.1094H8.76702ZM14.1881 25.1607L13.066 27.3406V28.6607H12.323V27.3457L11.2008 25.1607H12.0146L12.7122 26.7488L13.4047 25.1607H14.1881Z" fill="white"/>
<path fill-rule="evenodd" clip-rule="evenodd" d="M40.4373 53.6685V64L30.8896 53.7888" fill="#3B3332"/>
<path fill-rule="evenodd" clip-rule="evenodd" d="M7.38281 35.3658H9.94729V45.8013H7.38281V35.3658Z" fill="#296CAE"/>
<path d="M11.6311 45.8013V38.0431H13.9766V38.7648C14.2784 38.4619 14.619 38.2356 14.9984 38.0865C15.3781 37.9373 15.8045 37.8627 16.2771 37.8627C17.1219 37.8627 17.7502 38.1298 18.1624 38.6639C18.5751 39.1976 18.7812 40.0159 18.7812 41.1175V45.8013H16.4353V41.2329C16.4353 40.7088 16.3433 40.3238 16.1584 40.0784C15.9735 39.833 15.6816 39.7101 15.2819 39.7101C14.8114 39.7101 14.4762 39.8247 14.2764 40.053C14.0765 40.2817 13.9766 40.675 13.9766 41.2329V45.8013H11.6311ZM20.4966 45.8013V39.6526H19.305V38.2306H20.4966C20.4817 38.0719 20.4729 37.9565 20.4704 37.8844C20.4675 37.8119 20.4667 37.7473 20.4667 37.6894C20.4667 36.867 20.6669 36.2737 21.0675 35.9104C21.4681 35.5475 22.1243 35.3658 23.0361 35.3658C23.236 35.3658 23.4404 35.3775 23.6482 35.4017C23.856 35.4258 24.0725 35.4642 24.2982 35.5171V37.1411H23.906C23.4733 37.1411 23.1881 37.194 23.0499 37.2999C22.9112 37.4057 22.8425 37.6173 22.8425 37.9348V38.2306H24.2982V39.6526H22.8425V45.8013H20.4966ZM26.749 41.9258C26.749 42.6332 26.9114 43.1949 27.2357 43.6111C27.5601 44.0273 27.9935 44.2352 28.5369 44.2352C29.0799 44.2352 29.5146 44.026 29.8414 43.6073C30.1683 43.1886 30.3315 42.6282 30.3315 41.9258C30.3315 41.2183 30.1695 40.6555 29.8452 40.2372C29.5208 39.8184 29.0845 39.6093 28.5369 39.6093C27.9985 39.6093 27.5663 39.8209 27.2395 40.2442C26.9126 40.6675 26.749 41.2283 26.749 41.9258ZM28.5369 46.0538C27.2795 46.0538 26.2677 45.6763 25.5007 44.9206C24.7341 44.1656 24.3506 43.1669 24.3506 41.9258C24.3506 40.6892 24.7354 39.6909 25.5049 38.9306C26.2739 38.1706 27.2845 37.7907 28.5369 37.7907C29.8035 37.7907 30.8208 38.1694 31.5873 38.9272C32.3543 39.6851 32.7378 40.6842 32.7378 41.9258C32.7378 43.1624 32.3518 44.1594 31.5798 44.9172C30.8083 45.6751 29.7936 46.0538 28.5369 46.0538Z" fill="#296CAE"/>
<path d="M38.9576 43.8669C39.7887 43.8669 40.437 43.5798 40.9029 43.0049C41.3684 42.4299 41.6012 41.6275 41.6012 40.598C41.6012 39.5685 41.3672 38.7635 40.8988 38.184C40.4303 37.604 39.7837 37.314 38.9576 37.314C38.1369 37.314 37.4911 37.6065 37.0206 38.1911C36.5497 38.7756 36.3144 39.578 36.3144 40.598C36.3144 41.6179 36.5484 42.4178 37.0164 42.9974C37.4849 43.5773 38.1319 43.8669 38.9576 43.8669ZM41.7294 45.4043C41.3418 45.6159 40.9142 45.7772 40.4462 45.888C39.9781 45.9984 39.4822 46.0538 38.9589 46.0538C37.3533 46.0538 36.0688 45.5584 35.1048 44.5673C34.1413 43.5761 33.6592 42.2528 33.6592 40.598C33.6592 39.6934 33.8062 38.8839 34.101 38.1694C34.3953 37.4549 34.8342 36.8449 35.418 36.3399C35.886 35.9358 36.4156 35.6325 37.0069 35.4304C37.5981 35.2284 38.2481 35.1275 38.9576 35.1275C40.5577 35.1275 41.841 35.6254 42.807 36.6216C43.773 37.6174 44.256 38.9427 44.256 40.598C44.256 41.2908 44.1757 41.9175 44.0149 42.4778C43.8538 43.0386 43.6052 43.5448 43.268 43.9969C43.5698 44.2614 43.8992 44.4723 44.256 44.6285C44.6133 44.7847 44.9955 44.8847 45.4027 44.9281L44.6183 46.79C44.0249 46.7321 43.4857 46.5867 43.0006 46.3534C42.5151 46.1196 42.0917 45.8034 41.7294 45.4043Z" fill="#1E8D44"/>
<path fill-rule="evenodd" clip-rule="evenodd" d="M46.9198 35.733C46.6843 34.361 45.7252 33.1282 44.448 32.5606C44.089 32.4012 43.6682 32.5623 43.5094 32.9213C43.3473 33.281 43.5086 33.7019 43.8698 33.8615C44.7252 34.2436 45.3607 35.0551 45.5182 35.9751C45.5391 36.0944 45.5882 36.2026 45.6583 36.2924C45.814 36.4918 46.0729 36.602 46.3398 36.5554C46.727 36.4891 46.986 36.1207 46.9198 35.733ZM49.723 35.2445C49.3271 32.9511 47.7235 30.8973 45.5986 29.9576C45.2395 29.798 44.8196 29.9604 44.66 30.3207C44.5017 30.6802 44.6601 31.1024 45.024 31.2589C46.7209 32.0092 48.0056 33.6545 48.3211 35.4862C48.3411 35.6065 48.3914 35.7138 48.4615 35.8036C48.6172 36.0031 48.8759 36.1131 49.143 36.0666C49.5302 36.0003 49.7905 35.6311 49.723 35.2445ZM52.5275 34.7461C51.9642 31.5178 49.6913 28.6293 46.692 27.3267C46.3306 27.1707 45.9124 27.3354 45.7551 27.6964C45.6485 27.9439 45.6928 28.2198 45.8481 28.4186C45.9187 28.5091 46.0125 28.584 46.1248 28.633C48.6958 29.7463 50.642 32.2232 51.1249 34.9916C51.1916 35.3775 51.5585 35.6374 51.949 35.5704C52.3355 35.503 52.5946 35.1347 52.5275 34.7461Z" fill="#F5A623"/>
<defs>
<filter id="filter0_d" x="6.49316" y="7.09662" width="41.7295" height="12.9675" filterUnits="userSpaceOnUse" color-interpolation-filters="sRGB">
<feFlood flood-opacity="0" result="BackgroundImageFix"/>
<feColorMatrix in="SourceAlpha" type="matrix" values="0 0 0 0 0 0 0 0 0 0 0 0 0 0 0 0 0 0 127 0"/>
<feOffset dy="1"/>
<feGaussianBlur stdDeviation="0.5"/>
<feColorMatrix type="matrix" values="0 0 0 0 0 0 0 0 0 0 0 0 0 0 0 0 0 0 0.199502 0"/>
<feBlend mode="normal" in2="BackgroundImageFix" result="effect1_dropShadow"/>
<feBlend mode="normal" in="SourceGraphic" in2="effect1_dropShadow" result="shape"/>
</filter>
<filter id="filter1_d" x="6.67017" y="25.1607" width="8.51797" height="5.49997" filterUnits="userSpaceOnUse" color-interpolation-filters="sRGB">
<feFlood flood-opacity="0" result="BackgroundImageFix"/>
<feColorMatrix in="SourceAlpha" type="matrix" values="0 0 0 0 0 0 0 0 0 0 0 0 0 0 0 0 0 0 127 0"/>
<feOffset dy="1"/>
<feGaussianBlur stdDeviation="0.5"/>
<feColorMatrix type="matrix" values="0 0 0 0 0 0 0 0 0 0 0 0 0 0 0 0 0 0 0.199502 0"/>
<feBlend mode="normal" in2="BackgroundImageFix" result="effect1_dropShadow"/>
<feBlend mode="normal" in="SourceGraphic" in2="effect1_dropShadow" result="shape"/>
</filter>
</defs>
</svg>
