<svg width="470" height="265" viewBox="0 0 470 265" xmlns="http://www.w3.org/2000/svg"><title>undraw_status_update_jjgk</title><defs><linearGradient x1="50.005%" y1="100.027%" x2="50.005%" y2="-.01%" id="a"><stop stop-color="gray" stop-opacity=".25" offset="0%"/><stop stop-color="gray" stop-opacity=".12" offset="54%"/><stop stop-color="gray" stop-opacity=".1" offset="100%"/></linearGradient><linearGradient x1="53.721%" y1="100.245%" x2="46.15%" y2="-.814%" id="b"><stop stop-color="gray" stop-opacity=".25" offset="0%"/><stop stop-color="gray" stop-opacity=".12" offset="54%"/><stop stop-color="gray" stop-opacity=".1" offset="100%"/></linearGradient></defs><g fill="none" fill-rule="evenodd"><path d="M271.417 54.18c-29.484.224-57.804-6.438-84.888-13.863-27.083-7.425-53.946-15.763-82.85-19.167-18.591-2.2-39.75-1.854-54.367 6.667-14.062 8.191-18.22 21.616-20.274 34.008-1.546 9.325-2.3 19.108 3.141 27.596 3.78 5.887 10.288 10.72 14.867 16.329 15.941 19.517 6.058 44.63-9.75 64.796-7.404 9.446-16.071 18.537-21.713 28.537-5.641 10-7.991 21.296-2.412 31.084 5.533 9.704 18.142 16.691 31.7 21.437 27.541 9.642 59.654 11.542 90.929 12.154 69.225 1.35 138.63-2.766 207.842-6.879 25.616-1.52 51.346-3.054 76.45-7.146 13.941-2.27 28.304-5.596 38.229-12.75 12.6-9.083 15.283-23.8 6.25-34.308-15.154-17.62-55.417-20.7-66.25-39.804-5.963-10.517-.654-22.654 7.083-32.88 16.642-21.937 45.142-41.666 45.813-66.095.462-16.771-14.167-33.034-36.117-40.18-23.017-7.5-54.492-5.329-70.767 9.009-16.733 14.737-46.875 21.258-72.916 21.454z" fill="#38D39F" opacity=".1"/><path d="M404.52 12.996v216.008c0 6.421-6.195 11.667-13.845 11.667H97.605c-7.65 0-13.847-5.225-13.847-11.667V12.996C83.758 6.562 89.954 0 97.604 0l293.054.713c7.65 0 13.863 5.87 13.863 12.283z" fill="#FFF"/><path d="M404.52 13.063v10H83.759v-10A13.062 13.062 0 0 1 96.833 0h294.63c7.212.002 13.058 5.85 13.058 13.063z" fill="#3F3D56"/><circle fill="#FA5959" opacity=".8" cx="99.3" cy="11.529" r="4.617"/><circle fill="#FED253" opacity=".8" cx="112.729" cy="11.529" r="4.617"/><circle fill="#8CCF4D" opacity=".8" cx="126.158" cy="11.529" r="4.617"/><path d="M272.667 79.083v23.334c0 .696-1.304 1.25-2.917 1.25H208.2c-1.608 0-2.917-.563-2.917-1.25V79.083c0-.695 1.3-1.404 2.917-1.404h61.55c1.617-.004 2.917.704 2.917 1.404z" opacity=".2" fill="#38D39F"/><path fill="#38D39F" d="M234.863 86.008H266.93V87.14099999999999H234.863z"/><path d="M218.637 83.525a7.604 7.604 0 0 0-4.191 13.946v-.504a1.73 1.73 0 0 1 1.52-1.713 3.017 3.017 0 0 0 5.292 0 1.73 1.73 0 0 1 1.521 1.713v.537a7.604 7.604 0 0 0-4.142-13.979zm2.984 9.642a3.012 3.012 0 0 1-6.013 0 3.3 3.3 0 0 1 1.73-4.421 1.004 1.004 0 0 1 .846-1.55h.07a1.004 1.004 0 0 0-.8 1.5h.03a1.088 1.088 0 0 1 0-.2.98.98 0 0 1 .191-.584 1 1 0 0 1 .958-.708h.071a.996.996 0 0 0-.767.45 1.004 1.004 0 0 1 1.558.837 1.02 1.02 0 0 1 0 .113 3.304 3.304 0 0 1 2.45 3.192c-.01.475-.12.942-.324 1.37z" fill="#38D39F" fill-rule="nonzero" opacity=".2"/><path fill="#38D39F" opacity=".2" d="M234.863 88.767H266.93V89.89999999999999H234.863z"/><path fill="#38D39F" opacity=".2" d="M234.863 91.525H266.93V92.658H234.863z"/><path fill="#38D39F" opacity=".2" d="M234.863 94.287H266.93V95.42H234.863z"/><path d="M200.413 124.78v23.332c0 .692-1.3 1.25-2.917 1.25h-61.55c-1.608 0-2.917-.566-2.917-1.25V124.78c0-.696 1.3-1.404 2.917-1.404h61.558c1.609 0 2.909.708 2.909 1.404z" opacity=".2" fill="#38D39F"/><path fill="#38D39F" d="M162.604 131.708H194.67100000000002V132.841H162.604z"/><path d="M146.383 129.22a7.604 7.604 0 0 0-4.191 13.95v-.507a1.725 1.725 0 0 1 1.52-1.709 3.017 3.017 0 0 0 5.292 0 1.725 1.725 0 0 1 1.521 1.708v.542a7.604 7.604 0 0 0-4.142-13.983zm2.98 9.643a3.013 3.013 0 0 1-6.013 0 3.308 3.308 0 0 1 1.73-4.42 1.008 1.008 0 0 1 .846-1.55l.074-.001a1.004 1.004 0 0 0-.804 1.5h.033a1.008 1.008 0 0 1 0-.196 1.475 1.475 0 0 1 1.15-1.296h.038c-.312.023-.595.19-.767.45a.996.996 0 0 1 .55-.167c.557 0 1.008.452 1.008 1.009a1.02 1.02 0 0 1 0 .112 3.3 3.3 0 0 1 2.15 4.583l.005-.024z" fill="#38D39F" fill-rule="nonzero" opacity=".2"/><path fill="#38D39F" opacity=".2" d="M162.604 134.467H194.67100000000002V135.60000000000002H162.604z"/><path fill="#38D39F" opacity=".2" d="M162.604 137.225H194.67100000000002V138.358H162.604z"/><path fill="#38D39F" opacity=".2" d="M162.604 139.983H194.67100000000002V141.116H162.604z"/><path d="M183.792 50.783v23.334c0 .691-1.3 1.25-2.917 1.25h-61.542c-1.604 0-2.916-.567-2.916-1.25V50.783c0-.695 1.304-1.404 2.916-1.404h61.55c1.609 0 2.909.709 2.909 1.404z" opacity=".2" fill="#38D39F"/><path fill="#38D39F" d="M145.983 57.712H178.05V58.845000000000006H145.983z"/><path fill="#38D39F" opacity=".2" d="M145.983 60.471H178.05V61.604H145.983z"/><path fill="#38D39F" opacity=".2" d="M145.983 63.229H178.05V64.362H145.983z"/><path fill="#38D39F" opacity=".2" d="M145.983 65.987H178.05V67.11999999999999H145.983z"/><path d="M129.75 55.225a7.608 7.608 0 0 0-4.167 13.95v-1.287a1.73 1.73 0 0 1 1.521-1.713 3.017 3.017 0 0 0 5.292 0c.867.103 1.52.839 1.52 1.713v1.316a7.604 7.604 0 0 0-4.166-13.979zm3.333 9.283a.512.512 0 0 1-.1.13.417.417 0 0 1-.22.075h-.155a3.02 3.02 0 0 1-5.912-.859c0-.52.136-1.032.396-1.483l-.034-.021a1.004 1.004 0 0 1 .1-1.396c.194-.11.406-.188.625-.229a2.792 2.792 0 0 0 1.584-1.212c.01.152.01.305 0 .458a.67.67 0 0 1 .954-.033c.079.112.17.215.27.308.105.055.22.088.338.096l.758.096c.314.008.617.117.863.312.131.147.23.32.287.508a7.6 7.6 0 0 1 .496 1.604 2.57 2.57 0 0 1-.229 1.638l-.02.008z" fill="#38D39F" fill-rule="nonzero" opacity=".2"/><path d="M289.487 161.167V184.5c0 .696-1.3 1.25-2.916 1.25h-61.554c-1.609 0-2.917-.563-2.917-1.25v-23.333c0-.696 1.3-1.4 2.917-1.4h61.562c1.608-.021 2.908.683 2.908 1.4z" opacity=".2" fill="#38D39F"/><path fill="#38D39F" d="M251.679 168.075H283.746V169.208H251.679z"/><path fill="#38D39F" opacity=".2" d="M251.679 170.833H283.746V171.966H251.679z"/><path fill="#38D39F" opacity=".2" d="M251.679 173.596H283.746V174.729H251.679z"/><path fill="#38D39F" opacity=".2" d="M251.679 176.354H283.746V177.48700000000002H251.679z"/><path d="M235.454 165.592a7.604 7.604 0 0 0-4.192 13.945v-1.287a1.73 1.73 0 0 1 1.521-1.708 3.017 3.017 0 0 0 5.292 0 1.725 1.725 0 0 1 1.52 1.708v1.32a7.604 7.604 0 0 0-4.14-13.978zm3.333 9.279a.467.467 0 0 1-.1.133.417.417 0 0 1-.22.075h-.159a3.017 3.017 0 1 1-5.512-2.341h-.034a1.004 1.004 0 0 1 .1-1.396c.195-.111.406-.188.626-.23a2.787 2.787 0 0 0 1.583-1.208c.01.153.01.306 0 .459a.67.67 0 0 1 .954-.034c.078.112.169.214.27.304a.796.796 0 0 0 .338.1l.759.096c.314.006.617.116.862.313.132.146.23.32.288.508.224.515.39 1.053.495 1.604.1.55.017 1.118-.237 1.617h-.013z" fill="#38D39F" fill-rule="nonzero" opacity=".2"/><path d="M216.9 237.617l-9.142-13.254s-.17-3.284-.77-4.05c-.6-.767-.13-2.471-.13-2.471s.642-.938.088-1.025c-.554-.088-.088-2.175-.088-2.175l-.041-3.334s.512-3.2.087-3.966a1.25 1.25 0 0 1 .042-1.363s.512-1.833 0-2.304c-.513-.47-.388-3.333-.258-5.583.129-2.25-.896-3.538-.896-3.88 0-.341-3.375-3.662-3.375-3.962 0-.3-2.138-1.533-3.421-1.875-1.284-.342-1.921-.596-1.88-.767.042-.17-2.008-.833-2.008-.833s-1.791-.13-2.479-1.02c-.687-.892-2.77-1.16-2.833-1.163l-.038-.18-.037-.191c.158-.271.308-.55.446-.834.041-.087.079-.17.116-.258a3.658 3.658 0 0 0 2.105-.654c.61-.51.98-1.251 1.02-2.046a4.513 4.513 0 0 0-.495-2.27c-.376-.767-.925-1.563-.738-2.397.083-.358.3-.674.417-1.024a2.708 2.708 0 0 0-.309-2.021c-.32-.617-.77-1.163-1.133-1.763a6.842 6.842 0 0 1-.9-2.5 3.85 3.85 0 0 0-.333-1.358 2.6 2.6 0 0 0-.75-.758 7.5 7.5 0 0 0-4.584-1.392c-1.162.042-2.325.354-3.479.212a12.75 12.75 0 0 1-2.029-.529c-1.433-.416-3.087-.6-4.333.221-1.246.82-1.746 2.433-2.592 3.696-.75 1.112-1.842 2.05-2.412 3.233v-.07a4.108 4.108 0 0 0-.317.862 6.142 6.142 0 0 0 .187 2.825c.066.488.313.935.692 1.25.417.27 1 .208 1.496.296-.021.079-.042.162-.058.241a9.767 9.767 0 0 0 6.762 11.392v.258c0 .245-.015.49-.042.734 0 0-4.296-.884-5.446-.284-1.15.6-3.42 1.063-3.75 1.405-.329.341-1.195.087-1.966 2.083-.771 1.996-.854 4.05-1.833 5-.98.95-1.496 1.579-1.542 2.262-.046.684.129.834-.254 1.063-.384.229-.942 1.108-.771 1.45.121.482-.066.99-.471 1.279a1.42 1.42 0 0 0-.596 1.28s-.258.937-.854 1.15c-.596.212-.983 1.62-.983 1.62l-1.938 2.23-3.841-4.25a1.62 1.62 0 0 0-2.284-.117l-1.892 1.679a3.725 3.725 0 0 0-1.887 1.125c-.41.422-.74.914-.975 1.454l-1.033.929a2.617 2.617 0 0 0-.267 2.896l2.463 2.72v.026a4.304 4.304 0 0 0-2.38.966c-3.67 3.242-3.716 6.225-3.158 7.588.558 1.362 5.212 6.608 5.212 6.608s2.705 3.517 6.609 5.388l-.03.029c-.079.083-.154.17-.228.267l-.063.083a.596.596 0 0 0-.058.083l-.071.1-.054.083-.075.125-.046.08-.088.166-.029.054c-.008.017-.07.155-.104.234l-.037.087c0 .054-.042.113-.067.167l-.038.112c0 .055-.037.109-.054.167l-.037.121c-.017.058-.034.12-.05.188 0 .037-.021.075-.03.112-.008.037-.045.204-.066.308-.003.04-.003.08 0 .121a1.88 1.88 0 0 0-.038.221c0 .05 0 .1-.02.154-.021.054-.021.138-.03.213-.008.075 0 .104 0 .162V241.363c-.087 5 .204 5.712.204 5.712a2.767 2.767 0 0 0 2.267 1.7c.245.018.492.005.733-.037 2.221-.388 7.434-1.28 9.271-.938 1.105.204 3.15-.1 4.605-.375l.383-.075.267.833.833-.233.716.417.455.258c.833 2.858 4.266 1.883 4.266 1.883l.813.471 8.246.213c.924.56 1.9 1.03 2.916 1.4.137.041.276.072.417.091.764.062 1.53.076 2.296.042.633 0 1.12-.042 1.12-.042s-.083-2.237-.204-4.745a67.27 67.27 0 0 0 7.638-.625c4.404-.775 6.25-4.78 6.917-6.917.2.874.338 1.76.416 2.654.18.78.409 1.548.684 2.3.24.607.556 1.181.941 1.708 3.246-1.108 1.28-2.77.596-3.495-.683-.725.471-1.321.471-1.321s.9-.6.833-1.154c-.066-.555-.129-1.15 2.78-1.109 2.908.042 2.712-2.362 2.712-2.362zM171.783 210.4c.038.246.442 2.87.809 3.563.104.46.137.933.095 1.404-1.72-.138-3.512-.213-3.512-.213.051.063.083.14.092.221l-.271-.063-.396-.095 3.175-4.821.008.004zm-6.283 10l2.98.475.25.037c-.083.466-.135.936-.155 1.409 0 .042.067.096.163.158a4.475 4.475 0 0 0-.059.704c.05.238 1.442.746 3.042 1.171-.025.083-.046.167-.067.242-1.412-.742-3.633-1.088-3.892-1.638-.258-.55-7.816-3.196-7.816-3.196s-.28-.145-.754-.375l1.991.375.546-.054c1.241.31 2.5.54 3.771.688v.004z" fill="url(#a)" fill-rule="nonzero"/><path d="M207.175 239.47s-1.188 7.16-7.2 8.218c-6.012 1.058-26.083.833-26.083.833s-11.475-1.667-15.625-11.346c-4.15-9.68-6.821-13.554-3.263-13.72 3.559-.168 22.742 6.478 23.842 6.562 1.1.083 29.387-14.725 28.329 9.454z" fill="#65617D"/><path d="M207.175 239.47s-1.188 7.16-7.2 8.218c-6.012 1.058-26.083.833-26.083.833s-11.475-1.667-15.625-11.346c-4.15-9.68-6.821-13.554-3.263-13.72 3.559-.168 22.742 6.478 23.842 6.562 1.1.083 29.387-14.725 28.329 9.454z" fill="#000" opacity=".05"/><path d="M153.346 247.417a2.746 2.746 0 0 0 2.237 1.708c.243.016.486.002.725-.042 2.2-.379 7.367-1.25 9.188-.929 1.096.204 3.125-.1 4.583-.37.958-.18 1.667-.35 1.667-.35s-1.692-5.634-1.904-5.8c-.213-.167-7.638-4.634-7.638-4.634l-5.87-.417a3.088 3.088 0 0 0-1.988 1.171c-.621.75-1.154 1.98-1.188 3.996-.104 4.963.188 5.667.188 5.667z" fill="#3F3D56"/><path d="M153.346 247.417a2.746 2.746 0 0 0 2.237 1.708 24.025 24.025 0 0 1-1.591-2.325l.029-4.108a7.242 7.242 0 0 1 2.312-6.109s-3.091.213-3.175 5.167c-.083 4.954.188 5.667.188 5.667z" fill="#000" opacity=".05"/><path d="M178.804 238.454l5.463-4.275 8.596-8.47-2.33-.105c-.35.221-1.325.921-1.362 1.771-.042 1.033-2.321.07-3.508.662-1.188.592-6.988 8.017-7.996 7.971-1.009-.046-1.821-.516-2.242.204a.417.417 0 0 1-.033.046l3.412 2.196zm-24.47-.692l.591.271c4.167 1.78 9.27 5.505 9.654 6.184.233.416 3.204 2.216 5.496 3.566.958-.179 1.667-.35 1.667-.35s-1.692-5.633-1.904-5.8c-.213-.166-7.634-4.633-7.634-4.633l-5.87-.417a3.088 3.088 0 0 0-2 1.18z" fill="#000" opacity=".1"/><path d="M142.808 225.625c.55 1.354 5.167 6.563 5.167 6.563s2.917 3.812 7.083 5.591c4.167 1.78 9.275 5.504 9.655 6.184.245.416 3.554 2.424 5.883 3.795l.525.304 1.154.671.612.35s1.417-1.137 2.83-2.283c1.412-1.146 2.783-2.267 2.804-2.33.042-.128.592-1.566.462-1.666-.066-.042-.354-.629-.891-1.308a6.004 6.004 0 0 0-2.155-1.784 6.117 6.117 0 0 1-2.795-2.916s-.188-.133-.467-.313a5.667 5.667 0 0 0-1.904-.833c-.933-.117-2.667-2.02-2.667-2.02a5.22 5.22 0 0 1-1.667-1.738c-.445-.93-7.012-5.417-7.62-5.834l15.933 10.204 3.813 2.446 5.462-4.275 8.596-8.47-2.838-.125c-4.166-.184-11.595-.467-12.533-.255-.763.179-1.55.23-2.33.15 0 0-2.116.096-3.512-.641-1.395-.738-3.604-1.084-3.858-1.63-.254-.545-7.75-3.174-7.75-3.174s-10.204-5.417-13.846-2.2c-3.642 3.216-3.704 6.183-3.146 7.537z" fill="#65617D"/><path d="M175.713 194.542l1.312 4.362 1.692 9.825 6.225.417 1.804-2.992 1.796-2.979s1.12-3.97 1.929-7.813c.712-3.395 1.175-6.695.416-7.054-.687-.316-1.137-1.462-1.433-2.691a8.125 8.125 0 0 1-.1-.459 23.967 23.967 0 0 1-.417-3.158s-13.045-.68-11.225 4.7c.327.918.493 1.884.492 2.858 0 .244-.015.487-.042.73a6.096 6.096 0 0 1-2.45 4.254z" fill="#EE8E9E"/><path d="M173 193.82l.467 7.413 1.058 6.309 1.188 2.916 1.058 15.984s10.208 1.183 12.692 0c.178-.075.333-.196.45-.35 3-4.53 2.016-17.646 2.016-17.646l1.154-8.483-.762-4.396-1.842-.196-1.42-.15s-.321.392-.78 1.004c-1.25 1.667-3.566 4.917-3.412 6.28.212 1.862-.254 3.75-.975 4.062-.721.312-1.313.808-1.438.3-.179-.428-.224-.9-.129-1.355.13-.72-.55-2.916-.55-2.916s-1.142-2.584-1.058-3.684c.083-1.1-.125-2.37-.467-2.666-.342-.296-.804-.596-.417-1.95.388-1.354-1.666-3.992-1.666-3.992L173 193.821z" fill="#E3E8F4"/><path d="M186.488 212.33l.416 12.662 2.446 1.358c.18-.074.335-.197.45-.354 3-4.53 2.017-17.646 2.017-17.646l1.141-8.47-.762-4.397-1.842-.196c.713-3.395 1.18-6.691.417-7.05-.688-.32-1.142-1.462-1.433-2.691l-1.326 8.954s.113.804.15 1.637a4.638 4.638 0 0 1-.108 1.58c-.296.762-.083 2.116-.083 2.116-.763 1.346-1.146 3.838-1.33 6.25-.25 3.2-.153 6.246-.153 6.246z" fill="#000" opacity=".1"/><path d="M189.375 185.333s2.133.267 2.808 1.155c.675.887 2.459 1.016 2.459 1.016s2.033.68 1.987.834c-.046.154.596.416 1.867.762 1.27.346 3.387 1.567 3.387 1.867 0 .3 3.334 3.595 3.334 3.937 0 .342 1.012 1.608.887 3.854s-.254 5.08.254 5.546c.509.467 0 2.288 0 2.288a1.25 1.25 0 0 0-.041 1.354c.416.762-.088 3.937-.088 3.937l.046 3.304s-.467 2.084.083 2.159c.55.075-.083 1.017-.083 1.017s-.467 1.695.125 2.458c.592.762.762 4.02.762 4.02l9.063 13.171s.125 2.413-2.754 2.371c-2.88-.041-2.838.55-2.75 1.1.087.55-.804 1.146-.804 1.146s-1.146.592-.467 1.313c.68.72 2.625 2.37-.592 3.47a7.658 7.658 0 0 1-.933-1.691c-.272-.748-.5-1.512-.68-2.288 0 0-.295-3.22-.887-3.641-.591-.421-.508-2.459-.508-2.459s.833-1.666-.338-2.329c-1.17-.662-18.379-10.204-18.379-10.204l-.416-12.663s-.296-9.358 1.483-12.5c0 0-.212-1.354.083-2.116.296-.763-.041-3.221-.041-3.221l1.133-8.967z" fill="#3F3D56"/><path d="M178.275 190.425s-4.258-.88-5.417-.288c-1.158.592-3.387 1.059-3.725 1.4-.337.342-1.187.084-1.95 2.084-.762 2-.833 4.02-1.82 4.954-.988.933-1.484 1.567-1.525 2.242-.042.675.129.833-.255 1.058-.383.225-.929 1.104-.762 1.442.167.337 8.808 7.791 8.808 7.791s.417 2.838.804 3.559c.388.72-.416 10.629-1.27 11.304-.855.675 5.733.612 5.733.612s.3-6.5.554-6.841c.254-.342-.17-7.284-.17-7.284s-.042-5.929.507-7.5c.55-1.57.488-6.775.488-6.775s.487-3.125 1.08-3.854c.59-.729-1.08-3.904-1.08-3.904z" fill="#000" opacity=".1"/><path d="M178.15 190.296s-4.258-.875-5.417-.284c-1.158.592-3.387 1.059-3.725 1.396-.337.338-1.187.088-1.946 2.084-.758 1.996-.833 4.025-1.82 4.954-.988.929-1.484 1.566-1.525 2.246-.042.679.125.833-.255 1.058-.379.225-.933 1.1-.762 1.442.17.341 8.808 7.791 8.808 7.791s.417 2.838.804 3.554c.388.717-.416 10.63-1.27 11.309-.855.679 5.716.612 5.716.612s.296-6.5.55-6.837c.255-.338-.17-7.284-.17-7.284s-.042-5.929.508-7.5c.55-1.57.492-6.774.492-6.774s.483-3.125 1.075-3.855c.591-.729-1.063-3.912-1.063-3.912z" fill="#3F3D56"/><path d="M177.7 186.708c.327.918.493 1.885.492 2.859a9.7 9.7 0 0 0 11.141-4.4 23.967 23.967 0 0 1-.416-3.159s-13.038-.679-11.217 4.7z" fill="#000" opacity=".1"/><path d="M171.267 180.017a9.675 9.675 0 1 0 19.35-.04 9.675 9.675 0 0 0-19.35.04z" fill="#EE8E9E"/><path d="M165.042 202.463l-2.33.72a1.2 1.2 0 0 1-.466 1.25 1.412 1.412 0 0 0-.592 1.25s-.254.934-.833 1.146c-.58.213-.971 1.608-.971 1.608l-1.95 2.246s-.72.592-.592.888c.13.296-.762.379-.762.379l.466 7.542 4.021.758 2.5-.254 2.034-.758 1.779-1.063.804-2.083 3.554-5.417-6.662-8.213z" fill="#3F3D56"/><path d="M157.12 212.583s-5.166-7.454-9.02-3.429c-3.854 4.025 1.567 10.542 2.838 10.33 1.27-.213 7.329-.55 7.329-.55l-1.146-6.35z" fill="#EE8E9E"/><path d="M171.475 178c.267.023.519.136.713.32.325.347.341.96.77 1.176a.9.9 0 0 0 .505.058c1.125-.162 1.775-1.433 2.858-1.783.632-.16 1.3-.102 1.896.162.241.082.457.225.625.417.362.47.108 1.158.275 1.725.233.788 1.17 1.1 1.987 1.2.817.1 1.73.162 2.271.775.364.462.515 1.057.417 1.637-.048.2-.048.409 0 .609.225.633 1.325.542 1.612.037.209-.362.146-.666.638-.766.355-.03.712.031 1.037.179.862.3 1.771.441 2.683.416a9.7 9.7 0 1 0-18.266-6.141l-.021-.021z" fill="#000" opacity=".1"/><path d="M183.77 184.03a1.308 1.308 0 0 1 0-.61 2.083 2.083 0 0 0-.416-1.637c-.542-.612-1.458-.67-2.27-.775-.813-.104-1.755-.416-1.988-1.2-.167-.566.087-1.25-.275-1.725a1.396 1.396 0 0 0-.625-.416 2.917 2.917 0 0 0-1.896-.167c-1.083.35-1.733 1.62-2.858 1.783a.904.904 0 0 1-.505-.058c-.416-.217-.445-.833-.77-1.175-.517-.546-1.492-.196-2.121-.6a1.93 1.93 0 0 1-.683-1.25 6.07 6.07 0 0 1-.188-2.808c.367-1.575 1.775-2.654 2.675-4 .833-1.25 1.308-2.838 2.567-3.671 1.258-.834 2.875-.642 4.296-.221.654.234 1.327.411 2.012.53 1.142.14 2.292-.172 3.446-.21a7.383 7.383 0 0 1 4.55 1.384c.298.195.55.45.742.75.193.426.306.883.333 1.35a6.85 6.85 0 0 0 .892 2.475c.358.596.804 1.138 1.125 1.754.36.603.469 1.322.304 2.005-.109.35-.321.662-.417 1.02-.188.834.358 1.617.73 2.38.359.696.53 1.475.495 2.258a2.85 2.85 0 0 1-1.017 2.029 3.633 3.633 0 0 1-2.145.65 7.637 7.637 0 0 1-2.738-.417 2.083 2.083 0 0 0-1.033-.179c-.496.1-.417.417-.642.767-.254.525-1.354.617-1.58-.017z" fill="#3F3D56"/><path d="M178.55 238.708l5.462-4.275 8.596-8.47-2.837-.125c-.333.299-.546.709-.6 1.154-.042 1.037-2.321.075-3.508.666-1.188.592-6.988 8.017-7.996 7.967-1.009-.05-1.821-.512-2.242.204l-.033.05a1.204 1.204 0 0 1-.646.383l3.804 2.446z" fill="#000" opacity=".1"/><path d="M167.537 238.412l2.746 8.75.417 1.375 1.308-.358 2.884-.792 12.833-3.524a11.133 11.133 0 0 0 4.62-1.25 13.97 13.97 0 0 1 7.976-1.742c1.696.158 3.583-.571 5.15-3.467 0 0 3.554-10.5-5.417-13.504-8.97-3.004-9.408 1.596-9.408 1.596l-.121.075c-.35.22-1.325.92-1.363 1.77-.041 1.034-2.32.071-3.508.663-1.187.592-6.979 8.05-7.987 8.004-1.009-.046-1.821-.516-2.242.204a.417.417 0 0 1-.033.046c-.313.417-1.25.534-1.88.55h-.587l-.08.025-.65.192-4.657 1.387z" fill="#65617D"/><path d="M168.25 221.392l1.32.212.55-5.462s-.603-.092-1.362-.267c.2.758-.258 3.708-.508 5.517z" fill="#000" opacity=".1"/><path d="M202.875 195.867s3.938-1.142 2.967 10.037c-.971 11.18-8.259 18.25-8.259 18.25s-8.387 3.684-12.154 3.092c-3.767-.592-6.512-.721-6.512-.721a9.638 9.638 0 0 0-3.813-1.017c-2.117-.083-6.562-1.395-6.667-1.82-.104-.425 1.105-6.646.596-7.113 0 0 5.93.242 6.521.67.592.43 1.438.122 2.083 0 .646-.12 2.584-1.812 6.438-.333 0 0 1.313.13 1.82-.212a1.825 1.825 0 0 1 1.326-.083c.326-.112.635-.269.916-.467.13-.167 1.146 0 1.146 0a.45.45 0 0 0 .634-.296c.133-.346.334-.662.591-.929 0 0 1.146-6.438 3.304-8.85.353-.305.529-.767.467-1.23-.17-.678 3.513-10.345 8.596-8.978zm-30.688 41.154l5.592 6.77.038-.041c.041-.125.591-1.567.462-1.667-.129-.1-1.1-2.204-3.05-3.091a5.804 5.804 0 0 1-2.392-2.18l-.65.209z" fill="#000" opacity=".1"/><path d="M172.25 248.733l.613.35s1.416-1.137 2.829-2.283c1.412-1.146 2.783-2.267 2.804-2.33.041-.128.591-1.566.462-1.666-.066-.042-.354-.629-.891-1.308-3.792-1.063-1.375 1.57-1.055 1.691 0 0-4.616-1.058-4.87 3.967a6 6 0 0 0 .108 1.58z" fill="#000" opacity=".1"/><path d="M176.938 250.863l.808.466 8.17.213a16.504 16.504 0 0 0 2.892 1.391c.137.042.276.073.417.092.758.06 1.52.073 2.28.042.624 0 1.108-.042 1.108-.042s-.388-10.308-.68-11.392c-.137-.52-.833-.416-1.5-.145a9.67 9.67 0 0 0-1.462.741s-3.471.333-4.025.633c-.554.3-2.117-.17-3.092 0-.975.171-2.708-1.145-2.708-1.145-4.742-1.567-2.083 1.354-1.738 1.483 0 0-4.612-1.058-4.866 3.967-.255 5.025 4.395 3.696 4.395 3.696z" fill="#3F3D56"/><path d="M188.754 246.883c.088 2.134 1.75 4.784 2.746 6.184.625 0 1.108-.042 1.108-.042s-.387-10.308-.679-11.392c-.137-.52-.833-.416-1.5-.145-.82 1.537-1.746 3.674-1.675 5.395z" fill="#565387"/><path d="M188.754 246.883c.088 2.134 1.75 4.784 2.746 6.184.625 0 1.108-.042 1.108-.042s-.387-10.308-.679-11.392c-.137-.52-.833-.416-1.5-.145-.82 1.537-1.746 3.674-1.675 5.395z" fill="#000" opacity=".1"/><path d="M187.358 247.167c.563 2.058.554 4.37 1.45 5.766.137.042.276.073.417.092.758.06 1.52.073 2.28.042.624 0 1.108-.042 1.108-.042s-.388-10.308-.68-11.392c-.137-.52-.833-.416-1.5-.145a9.67 9.67 0 0 0-1.462.741s-2.334 2.3-1.613 4.938z" fill="#000" opacity=".05"/><path d="M159.162 226.275s4.059 1.317 7.5 5.996l-7.5-5.996z" fill="#000" opacity=".1"/><g opacity=".1" transform="translate(168.75 172.5)" fill="#000"><path d="M23.4 2.958l-.025.092c-.04.121-.087.24-.142.354a2.5 2.5 0 0 1 .167-.446zM.433.904C.505.615.61.335.746.071.725.14.704.217.688.29.528 1.23.594 2.192.875 3.1c.06.489.304.936.683 1.25.63.417 1.605.054 2.117.596.33.346.346.962.77 1.175.16.072.338.093.51.058C6.078 6.021 6.728 4.75 7.811 4.4a2.858 2.858 0 0 1 1.892.162c.244.079.462.223.63.417.362.467.108 1.159.274 1.725.234.784 1.171 1.096 1.984 1.2.812.104 1.729.159 2.275.775.368.46.52 1.057.416 1.638a1.346 1.346 0 0 0 0 .604c.225.637 1.325.542 1.613.042.208-.367.146-.667.637-.771.356-.029.713.033 1.038.179a7.63 7.63 0 0 0 2.737.416 3.692 3.692 0 0 0 2.146-.65c.272-.22.496-.493.659-.804a2.708 2.708 0 0 1-.913 1.438 3.633 3.633 0 0 1-2.146.65 7.625 7.625 0 0 1-2.737-.417 2.083 2.083 0 0 0-1.038-.179c-.491.1-.416.417-.637.767-.288.504-1.388.595-1.613-.038a1.362 1.362 0 0 1 0-.608 2.05 2.05 0 0 0-.416-1.638c-.546-.612-1.459-.67-2.275-.775-.817-.104-1.75-.416-1.984-1.2-.166-.566.088-1.25-.275-1.725a1.396 1.396 0 0 0-.625-.416 2.917 2.917 0 0 0-1.896-.167c-1.083.35-1.733 1.62-2.858 1.783a.917.917 0 0 1-.508-.058c-.417-.217-.442-.833-.771-1.175-.513-.546-1.488-.196-2.117-.6a1.93 1.93 0 0 1-.683-1.25A6.07 6.07 0 0 1 .433.905z"/></g><path d="M192.804 207.3c-.775 1.046-1.667 2.017-2.346 3.125a5.93 5.93 0 0 0-1.029 3.696c.708-.73 1.034-1.738 1.483-2.65.759-1.55 1.892-2.863 2.846-4.284.184-.27 1.355-1.841.763-1.916-.488-.063-1.438 1.67-1.717 2.029z" fill="#000" opacity=".1"/><path d="M171.367 190.2l8.487 16.05c.254.475-.437 1.338-1.542 1.925l-42.362 22.404c-1.104.583-2.208.671-2.458.192l-8.488-16.046c-.254-.48.383-1.442 1.488-2.025l42.362-22.404c1.108-.588 2.263-.575 2.513-.096z" fill="#FFF"/><path d="M171.367 190.2l8.487 16.05c.254.475-.437 1.337-1.542 1.925l-42.362 22.404c-1.104.583-2.208.671-2.458.192l-8.488-16.046c-.254-.48.383-1.442 1.488-2.025l42.362-22.404c1.108-.588 2.263-.575 2.513-.096z" opacity=".2" fill="#38D39F"/><path fill="#38D39F" transform="rotate(-27.87 159.1 203.306)" d="M146.618833 202.866482L171.581333 202.866482 171.581333 203.745648 146.618833 203.745648z"/><path fill="#38D39F" opacity=".2" transform="rotate(-27.87 160.105 205.208)" d="M147.623881 204.768353L172.586381 204.768353 172.586381 205.64752 147.623881 205.64752z"/><path fill="#38D39F" opacity=".2" transform="rotate(-27.87 161.108 207.102)" d="M148.626981 206.662375L173.589481 206.662375 173.589481 207.541542 148.626981 207.541542z"/><path fill="#38D39F" opacity=".2" transform="rotate(-27.87 162.113 209.004)" d="M149.632029 208.564247L174.594529 208.564247 174.594529 209.443414 149.632029 209.443414z"/><path d="M135.804 212.925a5.917 5.917 0 0 0 2.192 11.12l-.467-.882c-.318-.6-.14-1.344.417-1.734a2.346 2.346 0 0 0 3.642-1.925 1.35 1.35 0 0 1 1.666.625l.48.909a5.917 5.917 0 0 0-7.938-8.113h.008zm5.68 5.17a.317.317 0 0 1-.022.126.35.35 0 0 1-.124.133l-.105.058a2.35 2.35 0 1 1-4.65.417h-.029a.787.787 0 0 1-.437-1c.092-.147.209-.276.346-.383a2.17 2.17 0 0 0 .65-1.409c.058.104.11.21.154.321a.525.525 0 0 1 .641-.37c.097.046.197.084.3.112a.683.683 0 0 0 .271-.054l.554-.213a.833.833 0 0 1 1.092.15c.34.273.65.582.925.921.27.34.422.758.433 1.192z" fill="#38D39F" fill-rule="nonzero" opacity=".2"/><path d="M153.775 214.15c-.042 5.588 11.52 6.775 11.52 6.775l2.955.467 1.32.212.55-5.462s-.603-.092-1.362-.267c-1.116-.262-2.566-.713-2.87-1.346-.509-1.058-12.071-5.97-12.113-.379z" fill="#EE8E9E"/><path d="M202.77 195.008s3.938-1.141 2.968 10.038c-.971 11.179-8.259 18.25-8.259 18.25s-8.387 3.683-12.154 3.091c-3.767-.591-6.52-.72-6.52-.72a9.638 9.638 0 0 0-3.813-1.017c-2.117-.083-6.563-1.396-6.667-1.82-.104-.426 1.104-6.668.596-7.113 0 0 5.929.241 6.52.67.592.43 1.438.121 2.084 0 .646-.12 2.583-1.816 6.438-.333 0 0 1.312.13 1.82-.212a1.825 1.825 0 0 1 1.325-.084c.326-.111.635-.268.917-.466.13-.167 1.146 0 1.146 0a.446.446 0 0 0 .633-.296c.134-.347.335-.665.592-.934 0 0 1.146-6.433 3.304-8.85a1.37 1.37 0 0 0 .467-1.224c-.163-.68 3.525-10.321 8.604-8.98z" fill="#3F3D56"/><path d="M366.317 56.725v23.333c0 .696-1.3 1.25-2.917 1.25h-61.567c-1.608 0-2.916-.562-2.916-1.25V56.725c0-.696 1.3-1.404 2.916-1.404h61.575c1.609.012 2.909.708 2.909 1.404z" fill="#FFF"/><path d="M359.104 60.97v23.334c0 .692-1.304 1.25-2.916 1.25h-61.555c-1.608 0-2.916-.566-2.916-1.25V60.971c0-.696 1.3-1.404 2.916-1.404h61.563c1.604 0 2.908.708 2.908 1.404z" opacity=".1" fill="#38D39F"/><path d="M366.317 56.725v23.333c0 .696-1.3 1.25-2.917 1.25h-61.567c-1.608 0-2.916-.562-2.916-1.25V56.725c0-.696 1.3-1.404 2.916-1.404h61.575c1.609.012 2.909.708 2.909 1.404z" fill="#FFF"/><path d="M366.317 56.725v23.333c0 .696-1.3 1.25-2.917 1.25h-61.567c-1.608 0-2.916-.562-2.916-1.25V56.725c0-.696 1.3-1.404 2.916-1.404h61.575c1.609.012 2.909.708 2.909 1.404z" opacity=".2" fill="#38D39F"/><path fill="#38D39F" d="M328.508 63.654H360.575V64.787H328.508z"/><path fill="#38D39F" opacity=".2" d="M328.508 66.412H360.575V67.545H328.508z"/><path fill="#38D39F" opacity=".2" d="M328.508 69.171H360.575V70.304H328.508z"/><path fill="#38D39F" opacity=".2" d="M328.508 71.929H360.575V73.062H328.508z"/><path d="M312.288 61.167a7.604 7.604 0 0 0-4.205 13.95v-1.288a1.733 1.733 0 0 1 1.521-1.712 3.017 3.017 0 0 0 5.292 0c.865.107 1.517.84 1.52 1.712v1.321a7.604 7.604 0 0 0-4.128-13.983zm3.333 9.279a.33.33 0 0 1-.321.204.958.958 0 0 1-.154 0 3.017 3.017 0 1 1-5.517-2.342l-.033-.02a1.008 1.008 0 0 1 .1-1.396c.194-.11.405-.188.625-.23a2.77 2.77 0 0 0 1.583-1.208 2.83 2.83 0 0 1 0 .459.67.67 0 0 1 .954-.034c.096.096.159.23.275.304a.72.72 0 0 0 .338.096l.754.1a1.067 1.067 0 0 1 1.15.834c.226.513.393 1.052.496 1.604a2.533 2.533 0 0 1-.242 1.633l-.008-.004z" fill="#38D39F" fill-rule="nonzero" opacity=".2"/><path d="M385.82 247.592c-.574-2.084-.95-3.909-.95-3.909s.026-2.287-1.066-3.962l-.02-.571-.167-4.233c.262-.777.591-1.53.983-2.25.708-1.355-.238-6.188-.238-6.188s-3.083-6.746-2.562-11.117c.52-4.37-6.53-19.079-6.53-19.079-.012-1.44.138-2.877.447-4.283.055-.297.07-.6.046-.9a.942.942 0 0 0 0-.108v.033c-.209-2.863-2.68-8.146-2.68-8.146l-.091-10.254s1.216-6.096-1.459-14.108c-.933-2.796-1.546-5.042-1.946-6.775-.045-.196-.091-.384-.129-.567 4.83-.925 8.513-1.667 8.513-1.667s-3.267-11.666-5.25-13.666-3.75-8.413-3.75-8.413-1.308-8.287.196-10.779c1.504-2.492 1.562-6.733 1.562-6.733s3.55-2.796 3.963-3.992c.412-1.196 1.07-3.88 1.016-5.275-.054-1.396-.558-2.638-.416-3.38.141-.74-1.204-3.495-.646-4.845.143-.414.21-.85.196-1.287v-.055a17.97 17.97 0 0 0-.454-3.441 9.808 9.808 0 0 0-3.692-1.796l-.092-.313-.237-.833a4.602 4.602 0 0 0-.367-.2v-.3l-.08-1.196.467-2.712c.946-4.721-5.325-5.18-5.325-5.18a3.258 3.258 0 0 0-1.825-1.479c-1.275-.416.059 7.046.667 7.5.454.342 1.909 2.634 2.608 3.75l.117.184c-.099.097-.19.201-.275.312l.3 1.613.046.25a6.533 6.533 0 0 0-.93 1.733s1.188 1.208 1.013 2.617c-.175 1.408.471 3.133.505 3.225-.071-.075-.909-.913-1.7-.667-.792.246-3.013 1-3.013 1s-1.667.358-1.496.72c.171.363-1.062 2.034-1.062 2.034l-4.667-4.091c-.05-.126-.1-.25-.146-.38a10.68 10.68 0 0 1-.462-1.854c.485-.135.96-.306 1.42-.512a3.113 3.113 0 0 0 1.217-.834c.417-.554.492-1.291.65-1.966.304-1.325 1.025-2.521 1.525-3.788a12.113 12.113 0 0 0 .613-6.692 4.442 4.442 0 0 0-.767-1.929c-.775-.983-2.12-1.346-3.12-2.112-1-.767-1.667-1.975-2.826-2.538-1.041-.508-2.283-.416-3.425-.162a18.28 18.28 0 0 0-6.291 2.562c-.638.417-1.342.892-2.084.784-.65-.092-1.142-.592-1.579-1.071a.346.346 0 0 1 0-.063l-.054-.054a7.954 7.954 0 0 0-.567 3.392c0 .179 0 .358.042.537v.188c.004.053.004.105 0 .158a.954.954 0 0 1-.025.242 1.733 1.733 0 0 1-.417.62 3.75 3.75 0 0 0-.35.517c0-.062.034-.125.054-.187-.275.429-.42.928-.416 1.437-.012.371.123.732.375 1.004.234.212.488.4.758.563-.073.496-.1.999-.08 1.5a8.713 8.713 0 0 0 4.526 7.263c.058.124.112.25.17.379.634 1.491 1.134 3.237 1.005 4.875 0 .12-.025.241-.042.358-.016.117-.108.13-.154.196 0 0-7.43.358-9.237-1.158-1.809-1.517-4.267 4.037-4.267 4.037s-2.642.62-3.196.125c-.554-.496-3.658.067-3.658.067a6.7 6.7 0 0 0-4.704-1.517 13.788 13.788 0 0 0-3.484-1.763l-.087-.025a3.825 3.825 0 0 0-1.667-.15s-3.77-2.879-4.9-4.458c-1.13-1.579-6.433-7.396-6.458-7.425l-.03-.287-.091-.875c-.15.03-.302.05-.454.058l-.113-.3a16.038 16.038 0 0 0-1.175-2.433s-.042-1.109.271-1.396c.313-.288-.3-4.325-.3-4.325s-3.588-7.571-6.317-1.709c0 0-5.416 3.934-.587 8.08 0 0 1.904.833 2.196 1.541.191.459.875 1.734 1.333 2.58.075.141.146.266.204.379l-.05.046.096.72.037.28c-.858.533-1.437 1.054-1.279 1.425.286.626.49 1.287.609 1.966 0 0 6.783 7.854 7.754 11.288 0 0 17.75 9.645 23.487 10.162l-.75 5.183a41.108 41.108 0 0 0-.066 4.209c.116 1.104-.45 6.142-.45 6.142s-.709 7.404-1.505 8.47c-.795 1.067-.479 5.475-.479 5.475a37.225 37.225 0 0 1-.9 6.309c-.729 2.829 0 6.27 0 6.27s-2.637 6.742 4.117 1.98c0 0 3.392-.342 7.3-.625v.391c0 .505.025 1.05.042 1.625.091 3.8.27 9.034.596 12.988.579 6.987 3.241 20.737 3.241 20.737l.267 6.959c-.11.659-.15 1.328-.121 1.995.036 2.46.773 4.858 2.125 6.913l.712 4.617s1.367 3.012 1.463 4.837a2.5 2.5 0 0 1-.038.446c-.038.235-.05.475-.033.713 0 2.108 1.475 7.104 1.475 7.104s.271 5.079 1.042 5.345c.662.226-.754 2.963-1.18 3.75a1.496 1.496 0 0 1-.033-.145c-.054.104-.087.158-.087.158a3.62 3.62 0 0 0-.188 1.296 1.842 1.842 0 0 0 .913 1.754c1.479.833 2.283 1.533 1.07 1.875-.45.089-.895.201-1.333.338 0-.059-.05-.117-.07-.171a.833.833 0 0 0-.467.908c.037.603.215 1.188.52 1.708 1.326 2.68 2.209 3.68 2.209 3.68l.58-.088a3.03 3.03 0 0 1-.313.642 2.47 2.47 0 0 1-.834.795 2.63 2.63 0 0 1-1.025.417 2.917 2.917 0 0 0-2.116 1.133c-.721 1.009-1.146 2.367.416 3.484l5.517 1.667s9.408.858 8.83-1.225c-.58-2.084-.95-3.909-.95-3.909a8.333 8.333 0 0 0-.905-3.696 4.583 4.583 0 0 0-.35-.537l.33-.05s.503-4.667 1.383-5.588c.204-.208.245-.366.191-.487.084-.258-.158-.417-.47-.467 0 .059-.038.121-.059.184a4.67 4.67 0 0 0-.912-.067s-.417-2.417.558-3.334a.933.933 0 0 0 .162-.729 3.946 3.946 0 0 0-.141-.983.254.254 0 0 0-.03.058c-.587-2.187-2.408-5.629-2.408-5.629s-.158-2.208.417-3.112c.575-.904-.542-12.009-.542-12.009s.025-5.387-.758-7.862c-.784-2.475.629-5.483.629-5.483s0-.059-.025-.163v-.037s-.046-.33-.12-.834a.27.27 0 0 1 0 .054c-.205-1.416-.597-3.983-.834-5.17-.371-1.667-.3-9.8-.3-9.8l1.25-3.517 2.666 5.875 2.896 7.858s1.346 1.63 1.442 3.333v.25c-.01.178-.01.356 0 .534a4.742 4.742 0 0 0 .896 2.8s.833 3.75 1.933 4.65c1.1.9 1.175 2.758 1.175 2.758s1.504 5.417 2.15 6.338c.542.787.654 3.004.675 3.683v.2s.259 1.942.313 3.58V220.47a5.93 5.93 0 0 1-.109 1.329v-.196a14.004 14.004 0 0 0-.258 3.408c.042 1.963.417 4.271 1.667 5.588 2.146 2.28 3.429 1.933 3.429 1.933s-.875 2.984-2.084 3.621a.88.88 0 0 0-.129.088c0-.054-.025-.113-.033-.167-.257.308-.372.71-.317 1.108-.037 1.3.863 3.375 1.667 4.313.298.27.66.462 1.05.558-.059.047-.12.09-.183.13-.135.078-.274.15-.417.212a2.042 2.042 0 0 1-.617.183 2.937 2.937 0 0 0-2.116 1.133c-.717 1.009-1.146 2.363.416 3.484l5.517 1.667s9.392.812 8.796-1.271z" fill="url(#b)"/><path d="M350.196 252.446l-5.342-1.667c-1.496-1.12-1.083-2.479-.387-3.487a2.812 2.812 0 0 1 2.046-1.13 2.5 2.5 0 0 0 .991-.416c.33-.195.606-.469.804-.796a3.9 3.9 0 0 0 .525-2.058s5.717-1.917 7.367-.284c.293.297.543.634.742 1a8.604 8.604 0 0 1 .879 3.7s.366 1.825.925 3.909c.558 2.083-8.55 1.229-8.55 1.229zm25.683-3.588l-5.337-1.666c-1.5-1.117-1.088-2.475-.392-3.48a2.783 2.783 0 0 1 2.046-1.129c.207-.032.408-.095.596-.187.143-.061.282-.132.416-.213 1.446-.866 1.33-2.854 1.33-2.854s5.72-1.917 7.366-.283c.222.22.418.464.584.729 1.058 1.667 1.037 3.967 1.037 3.967s.367 1.833.925 3.912c.558 2.08-8.57 1.204-8.57 1.204z" fill="#2D293D"/><path d="M356.2 242.625c.293.297.543.634.742 1l-8.634 1.338a3.9 3.9 0 0 0 .525-2.059s5.717-1.912 7.367-.279zm26.267-2.858l.062 1.625c-1.25 2.275-7.8 2.037-9.737.995.143-.06.282-.132.416-.212 1.446-.867 1.33-2.854 1.33-2.854s5.72-1.917 7.366-.284c.215.222.403.466.563.73z" fill="#000" opacity=".1"/><path d="M383.23 232.733a14.3 14.3 0 0 0-.947 2.25l.221 5.834c-1.379 2.5-9.07 1.975-10.154.687-1.083-1.287-2.32-4.704-1.163-5.341 1.159-.638 2-3.617 2-3.617s-1.25.341-3.333-1.938-1.691-7.533-1.37-8.8c.32-1.266-.213-5.454-.213-5.454s-.038-2.95-.663-3.883c-.625-.934-2.083-6.338-2.083-6.338s-.07-1.841-1.137-2.762-1.875-4.65-1.875-4.65a4.833 4.833 0 0 1-.859-3.138c.15-1.85-1.4-3.783-1.4-3.783l-2.812-7.858-2.588-5.88-1.187 3.521s-.059 8.117.304 9.8c.362 1.684.975 6.159.975 6.159s-1.363 3.004-.6 5.483c.762 2.48.746 7.867.746 7.867s1.087 11.096.533 12.004c-.554.908-.417 3.112-.417 3.112s3.271 6.367 2.346 7.288c-.925.92-.537 3.333-.537 3.333s2.083-.079 1.216.834c-.866.912-1.337 5.587-1.337 5.587l-8.867 1.375s-.858-1-2.142-3.683c-1.283-2.684.13-2.438 1.305-2.78 1.175-.341.416-1.045-1.038-1.879-1.454-.833-.7-2.85-.7-2.85s1.996-3.691 1.25-3.958c-.746-.267-1.017-5.346-1.017-5.346s-1.704-5.983-1.4-7.62c.305-1.638-1.391-5.48-1.391-5.48l-.692-4.62a12.767 12.767 0 0 1-1.958-8.705l-.258-7.17s-2.596-13.75-3.159-20.759c-.362-4.475-.546-10.592-.629-14.412-.046-2.142-.063-3.563-.063-3.563l31.696-4.537c.111 1.587.365 3.162.759 4.704.391 1.733.987 3.979 1.896 6.775 2.595 8.016 1.429 14.112 1.429 14.112l.1 10.25s3.062 6.742 2.562 9.125a19.812 19.812 0 0 0-.416 4.296s6.837 14.713 6.341 19.083c-.496 4.371 2.5 11.121 2.5 11.121s.913 4.85.225 6.204z" fill="#65617D"/><path d="M363.554 195.05l9.638-1.667s-5.271 5.817-9.638 1.667z" fill="#000" opacity=".05"/><path d="M371.417 183.975s.462 3.412-1.588 4.783c.013 0 3.75-.733 1.588-4.783zm-1-10.88s-7.842 6.98-10.834 6.542c-2.991-.437 10.834-6.541 10.834-6.541zm-18.75 25.572s-6.096 1.633-6.184 4.108c-.087 2.475 6.184-4.108 6.184-4.108z" fill="#000" opacity=".1"/><path d="M354.204 229.313s-8.62 1.954-6.12 2.962c2.5 1.008 6.595 1.742 6.595 1.742s2.804.037-.475-4.704z" fill="#000" opacity=".05"/><g opacity=".05" transform="translate(335.833 151.25)" fill="#000"><path d="M10.583 82.833a1.73 1.73 0 0 1-.833-1.229c-.05.1-.083.159-.083.159s-.734 2.016.7 2.85c.166.095.32.187.466.279.259-.059.534-.105.8-.184 1.142-.32.363-1.041-1.05-1.875zm11.155-1.004c.229-.229.2-.796.024-1.516a4.092 4.092 0 0 0-.416 2.15c.082-.238.216-.454.392-.634zm-2.75-36.6a10 10 0 0 0-.484 2.733 10.63 10.63 0 0 1 .604-1.887l-.12-.846zm19.754-4.633c.05-.267.067-.538.05-.808a20.894 20.894 0 0 0-.184 1.516c.042-.229.084-.467.134-.708zM19.788 71.425c.148-.534.2-1.09.154-1.642a5.546 5.546 0 0 0-.342 2.084c.045-.155.108-.303.188-.442zm2.358 13.825a28.996 28.996 0 0 0-.834 4.583l-8.866 1.375s-.854-1-2.138-3.679c-.112-.237-.204-.45-.279-.641-.525.266-.712.833.05 2.42 1.284 2.68 2.142 3.68 2.142 3.68l8.866-1.376s.484-4.666 1.334-5.583c.412-.47.125-.696-.275-.779zM9.866 72.47s.271 5.084 1.017 5.35c.342-.853.559-1.666.225-1.778-.75-.267-1.016-5.35-1.016-5.35s-1.709-5.984-1.4-7.617C9 61.442 7.3 57.595 7.3 57.595l-.696-4.62a12.767 12.767 0 0 1-1.958-8.704l-.275-7.146s-2.596-13.75-3.159-20.758C.85 11.892.667 5.77.583 1.954.583 1.262.558.65.546.134L.292.17s0 1.416.066 3.562c.084 3.817.267 9.938.625 14.413.567 6.987 3.163 20.758 3.163 20.758l.275 7.146a12.767 12.767 0 0 0 1.958 8.704l.692 4.621s1.7 3.842 1.392 5.48c-.309 1.637 1.404 7.616 1.404 7.616zm26.871 15.78a8.617 8.617 0 0 1-1.541-3.442c-.88.834.287 4 1.317 5.221 1.083 1.288 8.775 1.804 10.154-.683l-.055-1.404c-1.912 2.058-8.85 1.533-9.875.308zm10.88-8.75a14.3 14.3 0 0 0-.946 2.25l.037 1.033c.154-.383.375-.895.684-1.504a4.47 4.47 0 0 0 .25-1.837l-.025.058zm-10.7 1.58c.26-.578.48-1.173.658-1.78 0 0-1.25.342-3.333-1.938-1.513-1.666-1.721-4.895-1.596-7.02-.321 1.25-.709 6.52 1.37 8.8 1.372 1.491 2.372 1.858 2.9 1.937zm-4.471-16.188a40 40 0 0 1 .317 4.358 5.38 5.38 0 0 1 .125-.688c.32-1.25-.213-5.45-.213-5.45s-.042-2.95-.667-3.887c-.625-.938-2.083-6.337-2.083-6.337s-.07-1.842-1.142-2.759c-1.07-.916-1.875-4.65-1.875-4.65a4.85 4.85 0 0 1-.858-3.142c.15-1.85-1.4-3.779-1.4-3.779l-2.817-7.862-2.587-5.875-1.192 3.512v1.121l.971-2.854 2.588 5.875 2.808 7.858s1.55 1.93 1.4 3.78a4.825 4.825 0 0 0 .858 3.141s.804 3.75 1.875 4.65c1.071.9 1.138 2.758 1.138 2.758S31.154 60.08 31.775 61c.62.92.67 3.892.67 3.892z"/></g><path d="M369.25 80.362l-.45 2.713.08 1.196.058.883-3.063.417-.37-.625c-.68-1.13-2.084-3.425-2.534-3.75-.584-.454-1.888-7.896-.654-7.5a3.23 3.23 0 0 1 1.775 1.483s6.075.467 5.158 5.183z" fill="#FFCDD3"/><path d="M368.938 85.154l-3.063.417-.37-.625a2.717 2.717 0 0 1 3.374-.692l.058.9z" fill="#000" opacity=".1"/><path d="M369.75 86.583l-4.017 1.096-.108-.6-.292-1.616s1.521-2.2 3.904-.684l.234.834.279.97z" fill="#DCE6F2"/><path d="M303.88 83.175l-4.238 2.5s-.18-.333-.417-.8c-.446-.833-1.108-2.125-1.296-2.583-.283-.704-2.125-1.542-2.125-1.542-4.696-4.167.559-8.08.559-8.08 2.633-5.858 6.112 1.718 6.112 1.718s.6 4.037.296 4.325c-.304.287-.259 1.391-.259 1.391.446.78.826 1.595 1.138 2.438.15.383.23.633.23.633z" fill="#FFCDD3"/><path d="M303.88 83.175l-4.238 2.5s-.18-.333-.417-.8c.587-.533 2.688-2.375 3.4-2.32.34.031.684.031 1.025 0 .15.37.23.62.23.62z" fill="#000" opacity=".1"/><path d="M304.37 84.467l-4.77 2.583-.138-1.042-.095-.72s2.725-2.521 3.562-2.463c.417.042.838.025 1.25-.05l.092.87.1.822z" fill="#DCE6F2"/><path d="M358.15 98.667s-21.108 3.208-17.196 1.77c2.725-1.008 3.75-2.804 3.909-4.754.12-1.637-.363-3.383-.98-4.879a21.287 21.287 0 0 0-2.041-3.75s15.862-9.537 12.916-1.308a12.892 12.892 0 0 0-.77 3.875 10.833 10.833 0 0 0 .566 3.87 11.583 11.583 0 0 0 3.596 5.176z" fill="#FFCDD3"/><path d="M354.775 85.75a12.892 12.892 0 0 0-.77 3.875c-1.476 1.342-3.155 1.32-5.305 1.404-1.667.063-3.467.534-4.817-.212a21.287 21.287 0 0 0-2.041-3.75s15.862-9.542 12.933-1.317z" fill="#000" opacity=".1"/><circle fill="#FFCDD3" cx="348.1" cy="82.838" r="8.775"/><path d="M358.15 98.667s-21.108 3.208-17.196 1.77c2.725-1.008 3.75-2.804 3.909-4.754 1.012-1.187 3.1-2.083 4.445-2.583a6.33 6.33 0 0 1 3.838-.208c.5.127.98.326 1.425.591a11.583 11.583 0 0 0 3.579 5.184zm11.6-12.084l-4.017 1.096-.108-.6a3.592 3.592 0 0 1 3.846-1.483l.279.987zm-65.38-2.116l-4.77 2.583-.138-1.042a35.317 35.317 0 0 1 4.826-2.341l.083.8zm64.222 67.316c-8.159 1.613-19.78 3.75-21.667 3.255-1.558-.417-6.467-.171-10.738.141-.045-2.142-.062-3.562-.062-3.562l31.696-4.538c.115 1.588.373 3.163.77 4.704z" fill="#000" opacity=".1"/><path d="M376.708 149.542s-26.858 5.679-29.796 4.908c-2.937-.77-17.795.758-17.795.758-6.53 4.75-3.988-1.987-3.988-1.987s-.72-3.438 0-6.271c.461-2.074.75-4.183.863-6.304 0 0-.317-4.413.454-5.475.77-1.063 1.446-8.467 1.446-8.467s.541-5.037.416-6.141c-.125-1.105.063-4.205.063-4.205l.75-5.191c-5.554-.525-22.746-10.192-22.746-10.192-.946-3.43-7.5-11.292-7.5-11.292a8.458 8.458 0 0 0-.592-1.97c-.487-1.163 6.054-3.775 6.054-3.775s5.167 5.833 6.25 7.433c1.084 1.6 4.746 4.467 4.746 4.467a3.542 3.542 0 0 1 1.63.145l.083.025a13.192 13.192 0 0 1 3.37 1.767 6.4 6.4 0 0 1 4.559 1.52s3.004-.558 3.537-.062c.534.496 3.096-.116 3.096-.116s2.367-5.555 4.121-4.034c1.754 1.521 8.946 1.167 8.946 1.167.908-1.308 3.204-2.313 4.646-2.838a6.33 6.33 0 0 1 3.837-.212c.55.134 1.074.363 1.546.675l4.525 4.104s1.192-1.666 1.03-2.033c-.163-.367 1.45-.717 1.45-.717s2.108-.746 2.916-1c.808-.254 1.575.6 1.646.671-.034-.092-.654-1.854-.492-3.225.163-1.37-.987-2.617-.987-2.617 2.337-6.433 8.358-1.354 8.358-1.354s.8 3.438.258 4.788c-.541 1.35.75 4.1.63 4.841-.121.742.37 1.98.416 3.38.046 1.4-.579 4.079-.975 5.275-.396 1.195-3.833 3.983-3.833 3.983s-.059 4.208-1.513 6.7c-1.454 2.491-.175 10.779-.175 10.779s1.725 6.425 3.646 8.417c1.921 1.991 5.104 13.675 5.104 13.675z" fill="#3F3D56"/><path d="M335.43 102.583s-.905-2.4-1.668-2.591a17.68 17.68 0 0 1-2.17-.875l.416-.925s2.796.65 3.271 1.446c.475.795.15 2.945.15 2.945zm-15.013-4.808c-.121.742-6.667 1.667-6.667 1.667l3.188-3.454.083.025a13.192 13.192 0 0 1 3.396 1.762z" fill="#000" opacity=".1"/><circle fill="#575988" cx="301.058" cy="88.392" r="1"/><circle fill="#575988" cx="301.858" cy="89.542" r="1"/><circle fill="#575988" cx="302.637" cy="90.6" r="1"/><circle fill="#575988" cx="303.454" cy="91.75" r="1"/><circle fill="#575988" cx="372.896" cy="89.013" r="1"/><circle fill="#575988" cx="373.012" cy="90.096" r="1"/><circle fill="#575988" cx="373.117" cy="91.179" r="1"/><path d="M336.233 122.546c-.07-.084 17.342 20.25 29.771 7.633-.004 0-20.267 3.546-29.77-7.633zm-9.12 11.27s9.95-.112 11.1 2.705l.112 2.975a1.896 1.896 0 0 1-1.85.07c-1.02-.5-7.146-3.333-9.208-1.77l-.154-3.98z" fill="#000" opacity=".1"/><path d="M327.3 133.808s9.512-.108 10.613 2.58l.108 2.837a1.825 1.825 0 0 1-1.771.067c-.975-.48-6.833-3.167-8.804-1.688l-.146-3.796z" fill="#656691"/><path d="M331.708 112.03a31.967 31.967 0 0 0 4.109 6.462 25.93 25.93 0 0 0 6.25 5.591s-10.142-10.695-10.359-12.054zm-3.696-11.422s1.934 7.084 6.3 9.359l-6.3-9.359zm-2.512.821c-.05-.133-1.25 5.717 5.833 8.65.013 0-2.991-.891-5.833-8.65zm43.204-6.47c-.108 0 3.534 2.129 4.538 3.145 0 0-2.442-3.375-4.538-3.146z" fill="#000" opacity=".1"/><path d="M346.033 90.875a1.38 1.38 0 0 0 1.563 1.313c2.679.062 5.466.075 7.916-1.05a2.983 2.983 0 0 0 1.171-.834c.417-.554.475-1.287.63-1.966.295-1.321.987-2.5 1.475-3.784a12.53 12.53 0 0 0 .591-6.72 4.475 4.475 0 0 0-.742-1.93c-.75-.987-2.058-1.346-3.024-2.117-.967-.77-1.621-1.979-2.738-2.541-1.008-.508-2.212-.417-3.333-.167a17.4 17.4 0 0 0-6.084 2.559c-.62.416-1.3.887-2.037.779-.646-.096-1.13-.617-1.563-1.105a8.17 8.17 0 0 0-.508 3.846c.033.19.033.385 0 .575a1.767 1.767 0 0 1-.388.621c-.629.792-.995 2.021-.312 2.767.296.329.738.496 1.03.833.516.596.382 1.488.416 2.275-.02.276.06.55.225.771.301.257.715.34 1.091.217a2.946 2.946 0 0 1 1.146-.154c.418.12.783.378 1.034.733 1.304 1.504 1.85 3.212 2.441 5.079z" fill="#2D293D"/><g opacity=".1" transform="translate(337.917 72.917)" fill="#000"><path d="M19.02 16.688c-.317.369-.72.655-1.174.833-2.434 1.125-5.217 1.116-7.896 1.05a1.38 1.38 0 0 1-1.567-1.309c-.587-1.87-1.137-3.579-2.433-5.1a1.917 1.917 0 0 0-1.03-.733c-.389-.023-.78.03-1.15.154-.376.123-.79.041-1.09-.216a1.18 1.18 0 0 1-.226-.771c0-.788.117-1.667-.417-2.275-.287-.333-.733-.5-1.029-.833a1.733 1.733 0 0 1-.237-1.755C.333 6.496.167 7.458.738 8.088c.295.325.741.491 1.029.833.516.596.387 1.487.416 2.279-.019.274.061.546.225.767.3.26.715.342 1.092.216.37-.125.76-.177 1.15-.154.415.123.778.38 1.03.733 1.295 1.525 1.84 3.23 2.433 5.1.086.465.347.88.729 1.159.262.114.547.167.833.154 2.68.063 5.467.07 7.917-1.054a3.02 3.02 0 0 0 1.175-.833c.157-.22.275-.466.35-.726-.03.044-.062.086-.096.125zM1.47 4.57c.115-.132.2-.287.25-.454a1.57 1.57 0 0 0 0-.575A8.163 8.163 0 0 1 2.014.354L1.958.296a8.183 8.183 0 0 0-.508 3.846c.02.142.026.285.02.429z"/></g><path d="M344.675 96.25s11.008 1.033 11.93-.654m9.187-4.696s6.083-.225 7.5 2.004" fill="#000" opacity=".1"/><path d="M67.796 71.688V95.02c0 .696-1.304 1.25-2.917 1.25H3.325c-1.608 0-2.917-.563-2.917-1.25V71.687c0-.695 1.3-1.404 2.917-1.404h61.563c1.604 0 2.908.709 2.908 1.404z" fill="#FFF"/><path d="M67.796 71.688V95.02c0 .696-1.304 1.25-2.917 1.25H3.325c-1.608 0-2.917-.563-2.917-1.25V71.687c0-.695 1.3-1.404 2.917-1.404h61.563c1.604 0 2.908.709 2.908 1.405z" opacity=".2" fill="#38D39F"/><path fill="#38D39F" d="M29.988 78.617H62.055V79.75H29.988z"/><path d="M13.762 76.133A7.604 7.604 0 0 0 9.572 90.08v-.508a1.725 1.725 0 0 1 1.52-1.709 3.017 3.017 0 0 0 5.292 0 1.725 1.725 0 0 1 1.521 1.709v.541a7.604 7.604 0 0 0-4.142-13.979zm2.98 9.638a3.013 3.013 0 0 1-6.009 0 3.3 3.3 0 0 1 1.73-4.421.967.967 0 0 1-.163-.542 1.004 1.004 0 0 1 1.008-1.004h.071a1.004 1.004 0 0 0-.8 1.5h.03a1.008 1.008 0 0 1 0-.196c-.001-.209.065-.413.187-.583.13-.422.52-.71.962-.708h.071c-.311.023-.594.189-.767.45a1.004 1.004 0 0 1 1.559.833 1.02 1.02 0 0 1 0 .113 3.3 3.3 0 0 1 2.15 4.562l-.03-.004z" fill="#38D39F" fill-rule="nonzero" opacity=".2"/><path fill="#38D39F" opacity=".2" d="M29.988 81.375H62.055V82.508H29.988z"/><path fill="#38D39F" opacity=".2" d="M29.988 84.133H62.055V85.26599999999999H29.988z"/><path fill="#38D39F" opacity=".2" d="M29.988 86.892H62.055V88.02499999999999H29.988z"/></g></svg>