<svg width="65" height="64" viewBox="0 0 65 64" fill="none" xmlns="http://www.w3.org/2000/svg">
<path fill-rule="evenodd" clip-rule="evenodd" d="M0 0H64.9415V56.7594H0V0Z" fill="#363C41"/>
<g filter="url(#filter0_d)">
<path d="M9.95788 12.5163L9.87727 13.0979H8.99556V16.0163H8.25493V13.0979H7.32788V12.5163H9.95788ZM13.1748 16.0163V14.4838H12.0211V16.0163H11.2804V12.5163H12.0211V13.8971H13.1748V12.5163H13.9155V16.0163H13.1748ZM17.6766 12.5163L17.596 13.0575H16.3364V13.9679H17.4347V14.504H16.3364V15.47H17.6867V16.0163H15.5958V12.5163H17.6766Z" fill="black"/>
</g>
<path d="M9.95788 12.5163L9.87727 13.0979H8.99556V16.0163H8.25493V13.0979H7.32788V12.5163H9.95788ZM13.1748 16.0163V14.4838H12.0211V16.0163H11.2804V12.5163H12.0211V13.8971H13.1748V12.5163H13.9155V16.0163H13.1748ZM17.6766 12.5163L17.596 13.0575H16.3364V13.9679H17.4347V14.504H16.3364V15.47H17.6867V16.0163H15.5958V12.5163H17.6766Z" fill="white"/>
<g filter="url(#filter1_d)">
<path d="M31.3961 39.772C31.8495 39.772 32.2014 39.8664 32.4516 40.0553C32.7018 40.2441 32.827 40.5256 32.827 40.8999C32.827 41.291 32.7027 41.5852 32.4541 41.7825C32.2056 41.9797 31.873 42.0784 31.4565 42.0784H31.0585V43.272H30.3179V39.772H31.3961ZM31.3961 41.5321C31.611 41.5321 31.7756 41.4832 31.8898 41.3855C32.004 41.2877 32.0611 41.1258 32.0611 40.8999C32.0611 40.5054 31.8361 40.3081 31.386 40.3081H31.0585V41.5321H31.3961ZM35.6358 39.6911C35.9549 39.6911 36.2303 39.7628 36.4621 39.9061C36.6939 40.0494 36.8719 40.2576 36.9962 40.5307C37.1204 40.8038 37.1826 41.1343 37.1826 41.522C37.1826 41.903 37.1204 42.2309 36.9962 42.5057C36.8719 42.7806 36.6939 42.9905 36.4621 43.1354C36.2303 43.2804 35.9549 43.3529 35.6358 43.3529C35.3167 43.3529 35.0405 43.2813 34.807 43.138C34.5736 42.9947 34.3947 42.7856 34.2704 42.5108C34.1462 42.236 34.084 41.9064 34.084 41.522C34.084 41.1444 34.147 40.8181 34.273 40.5433C34.3989 40.2685 34.5786 40.0578 34.8121 39.9111C35.0455 39.7644 35.3201 39.6911 35.6358 39.6911ZM35.6358 40.2475C35.3805 40.2475 35.1882 40.3486 35.0589 40.5509C34.9296 40.7532 34.865 41.0769 34.865 41.522C34.865 41.9671 34.9305 42.2908 35.0614 42.4931C35.1924 42.6954 35.3839 42.7966 35.6358 42.7966C35.8911 42.7966 36.0825 42.6963 36.2102 42.4956C36.3378 42.295 36.4016 41.9705 36.4016 41.522C36.4016 41.0736 36.3378 40.749 36.2102 40.5484C36.0825 40.3478 35.8911 40.2475 35.6358 40.2475ZM39.5985 39.772C40.1426 39.772 40.5784 39.8959 40.9059 40.1438C41.2334 40.3916 41.3971 40.846 41.3971 41.5068C41.3971 42.1542 41.2367 42.6103 40.916 42.875C40.5952 43.1397 40.1846 43.272 39.6841 43.272H38.6865V39.772H39.5985ZM39.4271 40.3183V42.7258H39.7295C40.015 42.7258 40.2358 42.6373 40.392 42.4602C40.5482 42.2832 40.6263 41.9654 40.6263 41.5068C40.6263 41.1899 40.5868 40.9437 40.5079 40.7684C40.4289 40.5931 40.324 40.4742 40.193 40.4118C40.062 40.3495 39.9024 40.3183 39.7143 40.3183H39.4271ZM44.2816 39.6911C44.4999 39.6911 44.6897 39.7223 44.8509 39.7847C45.0121 39.8471 45.17 39.9423 45.3245 40.0704L44.9567 40.5003C44.7552 40.3351 44.5436 40.2525 44.3219 40.2525C44.0733 40.2525 43.876 40.3545 43.7299 40.5585C43.5838 40.7625 43.5107 41.082 43.5107 41.517C43.5107 41.9418 43.5838 42.2562 43.7299 42.4602C43.876 42.6642 44.075 42.7662 44.3269 42.7662C44.4579 42.7662 44.5772 42.7418 44.6846 42.6929C44.7921 42.644 44.9046 42.574 45.0222 42.483L45.3648 42.9129C45.2405 43.041 45.0869 43.1464 44.9038 43.229C44.7207 43.3116 44.5184 43.3529 44.2967 43.3529C43.9843 43.3529 43.7106 43.2821 43.4754 43.1405C43.2403 42.9989 43.0573 42.7907 42.9263 42.5159C42.7953 42.2411 42.7298 41.9081 42.7298 41.517C42.7298 41.1359 42.7969 40.808 42.9313 40.5332C43.0657 40.2584 43.2504 40.0494 43.4855 39.9061C43.7206 39.7628 43.986 39.6911 44.2816 39.6911ZM48.5717 43.272L48.3752 42.488H47.2819L47.0854 43.272H46.3145L47.3877 39.772H48.2896L49.3577 43.272H48.5717ZM47.423 41.9368H48.2341L47.826 40.3233L47.423 41.9368ZM51.6879 39.6911C51.9398 39.6911 52.159 39.7274 52.3454 39.7998C52.5318 39.8723 52.704 39.9828 52.8618 40.1311L52.5091 40.5408C52.3849 40.4397 52.2606 40.3655 52.1363 40.3183C52.012 40.2711 51.8794 40.2475 51.7383 40.2475C51.5838 40.2475 51.4603 40.2803 51.368 40.3461C51.2756 40.4118 51.2294 40.5054 51.2294 40.6268C51.2294 40.7111 51.2487 40.7802 51.2873 40.8342C51.326 40.8881 51.394 40.9387 51.4914 40.9859C51.5888 41.0331 51.7349 41.087 51.9297 41.1477C52.2757 41.259 52.5343 41.3964 52.7056 41.5599C52.8769 41.7235 52.9626 41.957 52.9626 42.2604C52.9626 42.4762 52.9089 42.6659 52.8014 42.8294C52.6939 42.993 52.5377 43.1211 52.3328 43.2138C52.1279 43.3066 51.8878 43.3529 51.6123 43.3529C51.3369 43.3529 51.0917 43.3091 50.8767 43.2214C50.6618 43.1338 50.477 43.0141 50.3225 42.8623L50.7004 42.4425C50.8347 42.5572 50.9741 42.644 51.1186 42.703C51.263 42.762 51.4209 42.7915 51.5922 42.7915C51.7736 42.7915 51.9188 42.7494 52.028 42.6651C52.1371 42.5808 52.1917 42.4628 52.1917 42.311C52.1917 42.2166 52.1724 42.1382 52.1338 42.0758C52.0952 42.0135 52.0288 41.957 51.9348 41.9064C51.8407 41.8558 51.7047 41.8036 51.5267 41.7496C51.1471 41.6316 50.8759 41.49 50.713 41.3248C50.5501 41.1595 50.4686 40.9437 50.4686 40.6774C50.4686 40.4818 50.5207 40.309 50.6248 40.1589C50.7289 40.0089 50.8734 39.8934 51.0581 39.8125C51.2428 39.7316 51.4528 39.6911 51.6879 39.6911ZM56.6229 39.772L56.5423 40.3537H55.6606V43.272H54.92V40.3537H53.9929V39.772H56.6229Z" fill="black"/>
</g>
<path d="M31.3961 39.772C31.8495 39.772 32.2014 39.8664 32.4516 40.0553C32.7018 40.2441 32.827 40.5256 32.827 40.8999C32.827 41.291 32.7027 41.5852 32.4541 41.7825C32.2056 41.9797 31.873 42.0784 31.4565 42.0784H31.0585V43.272H30.3179V39.772H31.3961ZM31.3961 41.5321C31.611 41.5321 31.7756 41.4832 31.8898 41.3855C32.004 41.2877 32.0611 41.1258 32.0611 40.8999C32.0611 40.5054 31.8361 40.3081 31.386 40.3081H31.0585V41.5321H31.3961ZM35.6358 39.6911C35.9549 39.6911 36.2303 39.7628 36.4621 39.9061C36.6939 40.0494 36.8719 40.2576 36.9962 40.5307C37.1204 40.8038 37.1826 41.1343 37.1826 41.522C37.1826 41.903 37.1204 42.2309 36.9962 42.5057C36.8719 42.7806 36.6939 42.9905 36.4621 43.1354C36.2303 43.2804 35.9549 43.3529 35.6358 43.3529C35.3167 43.3529 35.0405 43.2813 34.807 43.138C34.5736 42.9947 34.3947 42.7856 34.2704 42.5108C34.1462 42.236 34.084 41.9064 34.084 41.522C34.084 41.1444 34.147 40.8181 34.273 40.5433C34.3989 40.2685 34.5786 40.0578 34.8121 39.9111C35.0455 39.7644 35.3201 39.6911 35.6358 39.6911ZM35.6358 40.2475C35.3805 40.2475 35.1882 40.3486 35.0589 40.5509C34.9296 40.7532 34.865 41.0769 34.865 41.522C34.865 41.9671 34.9305 42.2908 35.0614 42.4931C35.1924 42.6954 35.3839 42.7966 35.6358 42.7966C35.8911 42.7966 36.0825 42.6963 36.2102 42.4956C36.3378 42.295 36.4016 41.9705 36.4016 41.522C36.4016 41.0736 36.3378 40.749 36.2102 40.5484C36.0825 40.3478 35.8911 40.2475 35.6358 40.2475ZM39.5985 39.772C40.1426 39.772 40.5784 39.8959 40.9059 40.1438C41.2334 40.3916 41.3971 40.846 41.3971 41.5068C41.3971 42.1542 41.2367 42.6103 40.916 42.875C40.5952 43.1397 40.1846 43.272 39.6841 43.272H38.6865V39.772H39.5985ZM39.4271 40.3183V42.7258H39.7295C40.015 42.7258 40.2358 42.6373 40.392 42.4602C40.5482 42.2832 40.6263 41.9654 40.6263 41.5068C40.6263 41.1899 40.5868 40.9437 40.5079 40.7684C40.4289 40.5931 40.324 40.4742 40.193 40.4118C40.062 40.3495 39.9024 40.3183 39.7143 40.3183H39.4271ZM44.2816 39.6911C44.4999 39.6911 44.6897 39.7223 44.8509 39.7847C45.0121 39.8471 45.17 39.9423 45.3245 40.0704L44.9567 40.5003C44.7552 40.3351 44.5436 40.2525 44.3219 40.2525C44.0733 40.2525 43.876 40.3545 43.7299 40.5585C43.5838 40.7625 43.5107 41.082 43.5107 41.517C43.5107 41.9418 43.5838 42.2562 43.7299 42.4602C43.876 42.6642 44.075 42.7662 44.3269 42.7662C44.4579 42.7662 44.5772 42.7418 44.6846 42.6929C44.7921 42.644 44.9046 42.574 45.0222 42.483L45.3648 42.9129C45.2405 43.041 45.0869 43.1464 44.9038 43.229C44.7207 43.3116 44.5184 43.3529 44.2967 43.3529C43.9843 43.3529 43.7106 43.2821 43.4754 43.1405C43.2403 42.9989 43.0573 42.7907 42.9263 42.5159C42.7953 42.2411 42.7298 41.9081 42.7298 41.517C42.7298 41.1359 42.7969 40.808 42.9313 40.5332C43.0657 40.2584 43.2504 40.0494 43.4855 39.9061C43.7206 39.7628 43.986 39.6911 44.2816 39.6911ZM48.5717 43.272L48.3752 42.488H47.2819L47.0854 43.272H46.3145L47.3877 39.772H48.2896L49.3577 43.272H48.5717ZM47.423 41.9368H48.2341L47.826 40.3233L47.423 41.9368ZM51.6879 39.6911C51.9398 39.6911 52.159 39.7274 52.3454 39.7998C52.5318 39.8723 52.704 39.9828 52.8618 40.1311L52.5091 40.5408C52.3849 40.4397 52.2606 40.3655 52.1363 40.3183C52.012 40.2711 51.8794 40.2475 51.7383 40.2475C51.5838 40.2475 51.4603 40.2803 51.368 40.3461C51.2756 40.4118 51.2294 40.5054 51.2294 40.6268C51.2294 40.7111 51.2487 40.7802 51.2873 40.8342C51.326 40.8881 51.394 40.9387 51.4914 40.9859C51.5888 41.0331 51.7349 41.087 51.9297 41.1477C52.2757 41.259 52.5343 41.3964 52.7056 41.5599C52.8769 41.7235 52.9626 41.957 52.9626 42.2604C52.9626 42.4762 52.9089 42.6659 52.8014 42.8294C52.6939 42.993 52.5377 43.1211 52.3328 43.2138C52.1279 43.3066 51.8878 43.3529 51.6123 43.3529C51.3369 43.3529 51.0917 43.3091 50.8767 43.2214C50.6618 43.1338 50.477 43.0141 50.3225 42.8623L50.7004 42.4425C50.8347 42.5572 50.9741 42.644 51.1186 42.703C51.263 42.762 51.4209 42.7915 51.5922 42.7915C51.7736 42.7915 51.9188 42.7494 52.028 42.6651C52.1371 42.5808 52.1917 42.4628 52.1917 42.311C52.1917 42.2166 52.1724 42.1382 52.1338 42.0758C52.0952 42.0135 52.0288 41.957 51.9348 41.9064C51.8407 41.8558 51.7047 41.8036 51.5267 41.7496C51.1471 41.6316 50.8759 41.49 50.713 41.3248C50.5501 41.1595 50.4686 40.9437 50.4686 40.6774C50.4686 40.4818 50.5207 40.309 50.6248 40.1589C50.7289 40.0089 50.8734 39.8934 51.0581 39.8125C51.2428 39.7316 51.4528 39.6911 51.6879 39.6911ZM56.6229 39.772L56.5423 40.3537H55.6606V43.272H54.92V40.3537H53.9929V39.772H56.6229Z" fill="white"/>
<path fill-rule="evenodd" clip-rule="evenodd" d="M40.3066 53.6685V64L30.7898 53.7888" fill="#363C41"/>
<path fill-rule="evenodd" clip-rule="evenodd" d="M51.2468 22.5266C51.012 21.1546 50.0561 19.9218 48.783 19.3542C48.4251 19.1948 48.0057 19.3559 47.8474 19.7149C47.6858 20.0746 47.8466 20.4955 48.2066 20.6551C49.0593 21.0372 49.6927 21.8487 49.8497 22.7687C49.8705 22.8881 49.9195 22.9962 49.9894 23.086C50.1446 23.2854 50.4026 23.3956 50.6686 23.349C51.0546 23.2827 51.3127 22.9143 51.2468 22.5266ZM54.0409 22.0381C53.6463 19.7448 52.0478 17.6909 49.9298 16.7512C49.5719 16.5916 49.1534 16.754 48.9942 17.1143C48.8364 17.4738 48.9944 17.896 49.3571 18.0525C51.0485 18.8028 52.329 20.4481 52.6435 22.2798C52.6635 22.4001 52.7136 22.5074 52.7835 22.5972C52.9387 22.7967 53.1966 22.9067 53.4628 22.8602C53.8488 22.7939 54.1082 22.4247 54.0409 22.0381ZM56.8363 21.5397C56.2748 18.3114 54.0094 15.4229 51.0197 14.1203C50.6594 13.9643 50.2426 14.129 50.0858 14.49C49.9796 14.7375 50.0238 15.0134 50.1785 15.2122C50.2489 15.3027 50.3424 15.3776 50.4543 15.4266C53.017 16.5399 54.957 19.0169 55.4383 21.7852C55.5048 22.1711 55.8705 22.431 56.2597 22.364C56.645 22.2966 56.9032 21.9283 56.8363 21.5397Z" fill="#F5A623"/>
<path fill-rule="evenodd" clip-rule="evenodd" d="M12.3972 21.5975H14.9534V32.033H12.3972V21.5975Z" fill="#296CAE"/>
<path d="M16.6318 32.033V24.2748H18.9697V24.9964C19.2706 24.6935 19.6101 24.4673 19.9882 24.3181C20.3667 24.169 20.7917 24.0944 21.2628 24.0944C22.1049 24.0944 22.7312 24.3615 23.1421 24.8956C23.5534 25.4293 23.7588 26.2476 23.7588 27.3492V32.033H21.4205V27.4646C21.4205 26.9404 21.3288 26.5555 21.1445 26.3101C20.9602 26.0647 20.6693 25.9418 20.2709 25.9418C19.8019 25.9418 19.4678 26.0563 19.2685 26.2847C19.0693 26.5134 18.9697 26.9067 18.9697 27.4646V32.033H16.6318ZM25.4687 32.033V25.8843H24.2809V24.4623H25.4687C25.4538 24.3036 25.4451 24.1881 25.4426 24.1161C25.4397 24.0436 25.4389 23.979 25.4389 23.9211C25.4389 23.0986 25.6385 22.5054 26.0377 22.142C26.437 21.7792 27.0911 21.5975 28 21.5975C28.1992 21.5975 28.403 21.6092 28.6101 21.6333C28.8172 21.6575 29.033 21.6958 29.258 21.7487V23.3728H28.867C28.4358 23.3728 28.1515 23.4257 28.0137 23.5315C27.8755 23.6374 27.807 23.849 27.807 24.1665V24.4623H29.258V25.8843H27.807V32.033H25.4687ZM31.7009 28.1574C31.7009 28.8649 31.8627 29.4265 32.1861 29.8427C32.5094 30.2589 32.9414 30.4669 33.483 30.4669C34.0242 30.4669 34.4575 30.2577 34.7833 29.839C35.1091 29.4203 35.2718 28.8599 35.2718 28.1574C35.2718 27.45 35.1104 26.8871 34.7871 26.4688C34.4638 26.0501 34.0288 25.8409 33.483 25.8409C32.9464 25.8409 32.5156 26.0526 32.1898 26.4759C31.864 26.8992 31.7009 27.46 31.7009 28.1574ZM33.483 32.2855C32.2296 32.2855 31.2211 31.908 30.4566 31.1522C29.6925 30.3973 29.3103 29.3986 29.3103 28.1574C29.3103 26.9209 29.6938 25.9226 30.4608 25.1622C31.2273 24.4023 32.2346 24.0223 33.483 24.0223C34.7456 24.0223 35.7595 24.401 36.5236 25.1589C37.2881 25.9168 37.6703 26.9159 37.6703 28.1574C37.6703 29.394 37.2856 30.391 36.5161 31.1489C35.747 31.9067 34.7356 32.2855 33.483 32.2855Z" fill="#296CAE"/>
<path d="M43.8702 30.0985C44.6986 30.0985 45.3448 29.8115 45.8092 29.2365C46.2732 28.6616 46.5052 27.8591 46.5052 26.8296C46.5052 25.8001 46.272 24.9952 45.8051 24.4156C45.3381 23.8357 44.6936 23.5457 43.8702 23.5457C43.0521 23.5457 42.4084 23.8382 41.9394 24.4227C41.47 25.0073 41.2355 25.8097 41.2355 26.8296C41.2355 27.8495 41.4688 28.6495 41.9353 29.229C42.4022 29.809 43.0472 30.0985 43.8702 30.0985ZM46.6331 31.6359C46.2467 31.8476 45.8204 32.0088 45.3539 32.1196C44.8874 32.2301 44.3931 32.2855 43.8714 32.2855C42.271 32.2855 40.9907 31.7901 40.0299 30.7989C39.0695 29.8077 38.5889 28.4845 38.5889 26.8296C38.5889 25.9251 38.7354 25.1156 39.0292 24.4011C39.3226 23.6865 39.7601 23.0766 40.342 22.5716C40.8085 22.1675 41.3364 21.8642 41.9257 21.6621C42.5151 21.46 43.163 21.3592 43.8702 21.3592C45.4651 21.3592 46.7443 21.8571 47.7072 22.8532C48.67 23.849 49.1515 25.1743 49.1515 26.8296C49.1515 27.5225 49.0714 28.1491 48.9112 28.7095C48.7506 29.2703 48.5028 29.7765 48.1666 30.2285C48.4675 30.4931 48.7958 30.7039 49.1515 30.8602C49.5076 31.0164 49.8886 31.1164 50.2945 31.1597L49.5126 33.0217C48.9211 32.9637 48.3837 32.8183 47.9002 32.585C47.4162 32.3513 46.9941 32.0351 46.6331 31.6359Z" fill="#1E8D44"/>
<defs>
<filter id="filter0_d" x="6.32788" y="12.5163" width="12.3588" height="5.49998" filterUnits="userSpaceOnUse" color-interpolation-filters="sRGB">
<feFlood flood-opacity="0" result="BackgroundImageFix"/>
<feColorMatrix in="SourceAlpha" type="matrix" values="0 0 0 0 0 0 0 0 0 0 0 0 0 0 0 0 0 0 127 0"/>
<feOffset dy="1"/>
<feGaussianBlur stdDeviation="0.5"/>
<feColorMatrix type="matrix" values="0 0 0 0 0 0 0 0 0 0 0 0 0 0 0 0 0 0 0.199502 0"/>
<feBlend mode="normal" in2="BackgroundImageFix" result="effect1_dropShadow"/>
<feBlend mode="normal" in="SourceGraphic" in2="effect1_dropShadow" result="shape"/>
</filter>
<filter id="filter1_d" x="29.3179" y="39.6911" width="28.3051" height="5.66182" filterUnits="userSpaceOnUse" color-interpolation-filters="sRGB">
<feFlood flood-opacity="0" result="BackgroundImageFix"/>
<feColorMatrix in="SourceAlpha" type="matrix" values="0 0 0 0 0 0 0 0 0 0 0 0 0 0 0 0 0 0 127 0"/>
<feOffset dy="1"/>
<feGaussianBlur stdDeviation="0.5"/>
<feColorMatrix type="matrix" values="0 0 0 0 0 0 0 0 0 0 0 0 0 0 0 0 0 0 0.199502 0"/>
<feBlend mode="normal" in2="BackgroundImageFix" result="effect1_dropShadow"/>
<feBlend mode="normal" in="SourceGraphic" in2="effect1_dropShadow" result="shape"/>
</filter>
</defs>
</svg>
