<svg fill="none" height="64" viewBox="0 0 65 64" width="65" xmlns="http://www.w3.org/2000/svg" xmlns:xlink="http://www.w3.org/1999/xlink"><filter id="a" color-interpolation-filters="sRGB" filterUnits="userSpaceOnUse" height="5.49998" width="12.3588" x="6.32788" y="12.5163"><feFlood flood-opacity="0" result="BackgroundImageFix"/><feColorMatrix in="SourceAlpha" type="matrix" values="0 0 0 0 0 0 0 0 0 0 0 0 0 0 0 0 0 0 127 0"/><feOffset dy="1"/><feGaussianBlur stdDeviation=".5"/><feColorMatrix type="matrix" values="0 0 0 0 0 0 0 0 0 0 0 0 0 0 0 0 0 0 0.199502 0"/><feBlend in2="BackgroundImageFix" mode="normal" result="effect1_dropShadow"/><feBlend in="SourceGraphic" in2="effect1_dropShadow" mode="normal" result="shape"/></filter><filter id="b" color-interpolation-filters="sRGB" filterUnits="userSpaceOnUse" height="5.66182" width="28.3051" x="29.3179" y="39.6911"><feFlood flood-opacity="0" result="BackgroundImageFix"/><feColorMatrix in="SourceAlpha" type="matrix" values="0 0 0 0 0 0 0 0 0 0 0 0 0 0 0 0 0 0 127 0"/><feOffset dy="1"/><feGaussianBlur stdDeviation=".5"/><feColorMatrix type="matrix" values="0 0 0 0 0 0 0 0 0 0 0 0 0 0 0 0 0 0 0.199502 0"/><feBlend in2="BackgroundImageFix" mode="normal" result="effect1_dropShadow"/><feBlend in="SourceGraphic" in2="effect1_dropShadow" mode="normal" result="shape"/></filter><path clip-rule="evenodd" d="m0 0h64.9415v56.7594h-64.9415z" fill="#363c41" fill-rule="evenodd"/><g filter="url(#a)"><path d="m9.95788 12.5163-.08061.5816h-.88171v2.9184h-.74063v-2.9184h-.92705v-.5816zm3.21692 3.5v-1.5325h-1.1537v1.5325h-.7407v-3.5h.7407v1.3808h1.1537v-1.3808h.7407v3.5zm4.5018-3.5-.0806.5412h-1.2596v.9104h1.0983v.5361h-1.0983v.966h1.3503v.5463h-2.0909v-3.5z" fill="#000"/></g><path d="m9.95788 12.5163-.08061.5816h-.88171v2.9184h-.74063v-2.9184h-.92705v-.5816zm3.21692 3.5v-1.5325h-1.1537v1.5325h-.7407v-3.5h.7407v1.3808h1.1537v-1.3808h.7407v3.5zm4.5018-3.5-.0806.5412h-1.2596v.9104h1.0983v.5361h-1.0983v.966h1.3503v.5463h-2.0909v-3.5z" fill="#fff"/><g filter="url(#b)"><path d="m31.3961 39.772c.4534 0 .8053.0944 1.0555.2833.2502.1888.3754.4703.3754.8446 0 .3911-.1243.6853-.3729.8826-.2485.1972-.5811.2959-.9976.2959h-.398v1.1936h-.7406v-3.5zm0 1.7601c.2149 0 .3795-.0489.4937-.1466.1142-.0978.1713-.2597.1713-.4856 0-.3945-.225-.5918-.6751-.5918h-.3275v1.224zm4.2397-1.841c.3191 0 .5945.0717.8263.215s.4098.3515.5341.6246c.1242.2731.1864.6036.1864.9913 0 .381-.0622.7089-.1864.9837-.1243.2749-.3023.4848-.5341.6297-.2318.145-.5072.2175-.8263.2175s-.5953-.0716-.8288-.2149c-.2334-.1433-.4123-.3524-.5366-.6272-.1242-.2748-.1864-.6044-.1864-.9888 0-.3776.063-.7039.189-.9787.1259-.2748.3056-.4855.5391-.6322.2334-.1467.508-.22.8237-.22zm0 .5564c-.2553 0-.4476.1011-.5769.3034s-.1939.526-.1939.9711.0655.7688.1964.9711c.131.2023.3225.3035.5744.3035.2553 0 .4467-.1003.5744-.301.1276-.2006.1914-.5251.1914-.9736 0-.4484-.0638-.773-.1914-.9736-.1277-.2006-.3191-.3009-.5744-.3009zm3.9627-.4755c.5441 0 .9799.1239 1.3074.3718.3275.2478.4912.7022.4912 1.363 0 .6474-.1604 1.1035-.4811 1.3682-.3208.2647-.7314.397-1.2319.397h-.9976v-3.5zm-.1714.5463v2.4075h.3024c.2855 0 .5063-.0885.6625-.2656.1562-.177.2343-.4948.2343-.9534 0-.3169-.0395-.5631-.1184-.7384-.079-.1753-.1839-.2942-.3149-.3566-.131-.0623-.2906-.0935-.4787-.0935zm4.8545-.6272c.2183 0 .4081.0312.5693.0936s.3191.1576.4736.2857l-.3678.4299c-.2015-.1652-.4131-.2478-.6348-.2478-.2486 0-.4459.102-.592.306s-.2192.5235-.2192.9585c0 .4248.0731.7392.2192.9432s.3451.306.597.306c.131 0 .2503-.0244.3577-.0733.1075-.0489.22-.1189.3376-.2099l.3426.4299c-.1243.1281-.2779.2335-.461.3161s-.3854.1239-.6071.1239c-.3124 0-.5861-.0708-.8213-.2124-.2351-.1416-.4181-.3498-.5491-.6246s-.1965-.6078-.1965-.9989c0-.3811.0671-.709.2015-.9838s.3191-.4838.5542-.6271.5005-.215.7961-.215zm4.2901 3.5809-.1965-.784h-1.0933l-.1965.784h-.7709l1.0732-3.5h.9019l1.0681 3.5zm-1.1487-1.3352h.8111l-.4081-1.6135zm4.2649-2.2457c.2519 0 .4711.0363.6575.1087.1864.0725.3586.183.5164.3313l-.3527.4097c-.1242-.1011-.2485-.1753-.3728-.2225s-.2569-.0708-.398-.0708c-.1545 0-.278.0328-.3703.0986-.0924.0657-.1386.1593-.1386.2807 0 .0843.0193.1534.0579.2074.0387.0539.1067.1045.2041.1517s.2435.1011.4383.1618c.346.1113.6046.2487.7759.4122.1713.1636.257.3971.257.7005 0 .2158-.0537.4055-.1612.569-.1075.1636-.2637.2917-.4686.3844-.2049.0928-.445.1391-.7205.1391-.2754 0-.5206-.0438-.7356-.1315-.2149-.0876-.3997-.2073-.5542-.3591l.3779-.4198c.1343.1147.2737.2015.4182.2605.1444.059.3023.0885.4736.0885.1814 0 .3266-.0421.4358-.1264.1091-.0843.1637-.2023.1637-.3541 0-.0944-.0193-.1728-.0579-.2352-.0386-.0623-.105-.1188-.199-.1694-.0941-.0506-.2301-.1028-.4081-.1568-.3796-.118-.6508-.2596-.8137-.4248-.1629-.1653-.2444-.3811-.2444-.6474 0-.1956.0521-.3684.1562-.5185.1041-.15.2486-.2655.4333-.3464s.3947-.1214.6298-.1214zm4.935.0809-.0806.5817h-.8817v2.9183h-.7406v-2.9183h-.9271v-.5817z" fill="#000"/></g><path d="m31.3961 39.772c.4534 0 .8053.0944 1.0555.2833.2502.1888.3754.4703.3754.8446 0 .3911-.1243.6853-.3729.8826-.2485.1972-.5811.2959-.9976.2959h-.398v1.1936h-.7406v-3.5zm0 1.7601c.2149 0 .3795-.0489.4937-.1466.1142-.0978.1713-.2597.1713-.4856 0-.3945-.225-.5918-.6751-.5918h-.3275v1.224zm4.2397-1.841c.3191 0 .5945.0717.8263.215s.4098.3515.5341.6246c.1242.2731.1864.6036.1864.9913 0 .381-.0622.7089-.1864.9837-.1243.2749-.3023.4848-.5341.6297-.2318.145-.5072.2175-.8263.2175s-.5953-.0716-.8288-.2149c-.2334-.1433-.4123-.3524-.5366-.6272-.1242-.2748-.1864-.6044-.1864-.9888 0-.3776.063-.7039.189-.9787.1259-.2748.3056-.4855.5391-.6322.2334-.1467.508-.22.8237-.22zm0 .5564c-.2553 0-.4476.1011-.5769.3034s-.1939.526-.1939.9711.0655.7688.1964.9711c.131.2023.3225.3035.5744.3035.2553 0 .4467-.1003.5744-.301.1276-.2006.1914-.5251.1914-.9736 0-.4484-.0638-.773-.1914-.9736-.1277-.2006-.3191-.3009-.5744-.3009zm3.9627-.4755c.5441 0 .9799.1239 1.3074.3718.3275.2478.4912.7022.4912 1.363 0 .6474-.1604 1.1035-.4811 1.3682-.3208.2647-.7314.397-1.2319.397h-.9976v-3.5zm-.1714.5463v2.4075h.3024c.2855 0 .5063-.0885.6625-.2656.1562-.177.2343-.4948.2343-.9534 0-.3169-.0395-.5631-.1184-.7384-.079-.1753-.1839-.2942-.3149-.3566-.131-.0623-.2906-.0935-.4787-.0935zm4.8545-.6272c.2183 0 .4081.0312.5693.0936s.3191.1576.4736.2857l-.3678.4299c-.2015-.1652-.4131-.2478-.6348-.2478-.2486 0-.4459.102-.592.306s-.2192.5235-.2192.9585c0 .4248.0731.7392.2192.9432s.3451.306.597.306c.131 0 .2503-.0244.3577-.0733.1075-.0489.22-.1189.3376-.2099l.3426.4299c-.1243.1281-.2779.2335-.461.3161s-.3854.1239-.6071.1239c-.3124 0-.5861-.0708-.8213-.2124-.2351-.1416-.4181-.3498-.5491-.6246s-.1965-.6078-.1965-.9989c0-.3811.0671-.709.2015-.9838s.3191-.4838.5542-.6271.5005-.215.7961-.215zm4.2901 3.5809-.1965-.784h-1.0933l-.1965.784h-.7709l1.0732-3.5h.9019l1.0681 3.5zm-1.1487-1.3352h.8111l-.4081-1.6135zm4.2649-2.2457c.2519 0 .4711.0363.6575.1087.1864.0725.3586.183.5164.3313l-.3527.4097c-.1242-.1011-.2485-.1753-.3728-.2225s-.2569-.0708-.398-.0708c-.1545 0-.278.0328-.3703.0986-.0924.0657-.1386.1593-.1386.2807 0 .0843.0193.1534.0579.2074.0387.0539.1067.1045.2041.1517s.2435.1011.4383.1618c.346.1113.6046.2487.7759.4122.1713.1636.257.3971.257.7005 0 .2158-.0537.4055-.1612.569-.1075.1636-.2637.2917-.4686.3844-.2049.0928-.445.1391-.7205.1391-.2754 0-.5206-.0438-.7356-.1315-.2149-.0876-.3997-.2073-.5542-.3591l.3779-.4198c.1343.1147.2737.2015.4182.2605.1444.059.3023.0885.4736.0885.1814 0 .3266-.0421.4358-.1264.1091-.0843.1637-.2023.1637-.3541 0-.0944-.0193-.1728-.0579-.2352-.0386-.0623-.105-.1188-.199-.1694-.0941-.0506-.2301-.1028-.4081-.1568-.3796-.118-.6508-.2596-.8137-.4248-.1629-.1653-.2444-.3811-.2444-.6474 0-.1956.0521-.3684.1562-.5185.1041-.15.2486-.2655.4333-.3464s.3947-.1214.6298-.1214zm4.935.0809-.0806.5817h-.8817v2.9183h-.7406v-2.9183h-.9271v-.5817z" fill="#fff"/><g clip-rule="evenodd" fill-rule="evenodd"><path d="m40.3066 53.6685v10.3315l-9.5168-10.2112" fill="#363c41"/><path d="m51.2468 22.5266c-.2348-1.372-1.1907-2.6048-2.4638-3.1724-.3579-.1594-.7773.0017-.9356.3607-.1616.3597-.0008.7806.3592.9402.8527.3821 1.4861 1.1936 1.6431 2.1136.0208.1194.0698.2275.1397.3173.1552.1994.4132.3096.6792.263.386-.0663.6441-.4347.5782-.8224zm2.7941-.4885c-.3946-2.2933-1.9931-4.3472-4.1111-5.2869-.3579-.1596-.7764.0028-.9356.3631-.1578.3595.0002.7817.3629.9382 1.6914.7503 2.9719 2.3956 3.2864 4.2273.02.1203.0701.2276.14.3174.1552.1995.4131.3095.6793.263.386-.0663.6454-.4355.5781-.8221zm2.7954-.4984c-.5615-3.2283-2.8269-6.1168-5.8166-7.4194-.3603-.156-.7771.0087-.9339.3697-.1062.2475-.062.5234.0927.7222.0704.0905.1639.1654.2758.2144 2.5627 1.1133 4.5027 3.5903 4.984 6.3586.0665.3859.4322.6458.8214.5788.3853-.0674.6435-.4357.5766-.8243z" fill="#f5a623"/><path d="m12.3972 21.5975h2.5562v10.4355h-2.5562z" fill="#296cae"/></g><path d="m16.6318 32.033v-7.7582h2.3379v.7216c.3009-.3029.6404-.5291 1.0185-.6783.3785-.1491.8035-.2237 1.2746-.2237.8421 0 1.4684.2671 1.8793.8012.4113.5337.6167 1.352.6167 2.4536v4.6838h-2.3383v-4.5684c0-.5242-.0917-.9091-.276-1.1545s-.4752-.3683-.8736-.3683c-.469 0-.8031.1145-1.0024.3429-.1992.2287-.2988.622-.2988 1.1799v4.5684zm8.8369 0v-6.1487h-1.1878v-1.422h1.1878c-.0149-.1587-.0236-.2742-.0261-.3462-.0029-.0725-.0037-.1371-.0037-.195 0-.8225.1996-1.4157.5988-1.7791.3993-.3628 1.0534-.5445 1.9623-.5445.1992 0 .403.0117.6101.0358.2071.0242.4229.0625.6479.1154v1.6241h-.391c-.4312 0-.7155.0529-.8533.1587-.1382.1059-.2067.3175-.2067.635v.2958h1.451v1.422h-1.451v6.1487zm6.2322-3.8756c0 .7075.1618 1.2691.4852 1.6853.3233.4162.7553.6242 1.2969.6242.5412 0 .9745-.2092 1.3003-.6279s.4885-.9791.4885-1.6816c0-.7074-.1614-1.2703-.4847-1.6886-.3233-.4187-.7583-.6279-1.3041-.6279-.5366 0-.9674.2117-1.2932.635s-.4889.9841-.4889 1.6815zm1.7821 4.1281c-1.2534 0-2.2619-.3775-3.0264-1.1333-.7641-.7549-1.1463-1.7536-1.1463-2.9948 0-1.2365.3835-2.2348 1.1505-2.9952.7665-.7599 1.7738-1.1399 3.0222-1.1399 1.2626 0 2.2765.3787 3.0406 1.1366.7645.7579 1.1467 1.757 1.1467 2.9985 0 1.2366-.3847 2.2336-1.1542 2.9915-.7691.7578-1.7805 1.1366-3.0331 1.1366z" fill="#296cae"/><path d="m43.8702 30.0985c.8284 0 1.4746-.287 1.939-.862.464-.5749.696-1.3774.696-2.4069s-.2332-1.8344-.7001-2.414c-.467-.5799-1.1115-.8699-1.9349-.8699-.8181 0-1.4618.2925-1.9308.877-.4694.5846-.7039 1.387-.7039 2.4069s.2333 1.8199.6998 2.3994c.4669.58 1.1119.8695 1.9349.8695zm2.7629 1.5374c-.3864.2117-.8127.3729-1.2792.4837-.4665.1105-.9608.1659-1.4825.1659-1.6004 0-2.8807-.4954-3.8415-1.4866-.9604-.9912-1.441-2.3144-1.441-3.9693 0-.9045.1465-1.714.4403-2.4285.2934-.7146.7309-1.3245 1.3128-1.8295.4665-.4041.9944-.7074 1.5837-.9095.5894-.2021 1.2373-.3029 1.9445-.3029 1.5949 0 2.8741.4979 3.837 1.494.9628.9958 1.4443 2.3211 1.4443 3.9764 0 .6929-.0801 1.3195-.2403 1.8799-.1606.5608-.4084 1.067-.7446 1.519.3009.2646.6292.4754.9849.6317.3561.1562.7371.2562 1.143.2995l-.7819 1.862c-.5915-.058-1.1289-.2034-1.6124-.4367-.484-.2337-.9061-.5499-1.2671-.9491z" fill="#1e8d44"/></svg>