<svg fill="none" height="12" viewBox="0 0 12 12" width="12" xmlns="http://www.w3.org/2000/svg"><g stroke="#000" stroke-linecap="round" stroke-linejoin="round" stroke-width="0.75"><path d="m2 8.66665v-2.66665c0-1.06087.42143-2.07828 1.17158-2.82842.75014-.75015 1.76755-1.17158 2.82842-1.17158 1.06085 0 2.0783.42143 2.82845 1.17158.7501.75014 1.17155 1.76755 1.17155 2.82842v2.66665"/><path d="m10 9.11109c0 .23575-.09365.46185-.26035.62855s-.3928.26035-.62855.26035h-.44445c-.23575 0-.4618-.09365-.6285-.26035s-.26035-.3928-.26035-.62855v-1.33335c0-.2357.09365-.4618.26035-.6285s.39275-.26035.6285-.26035h1.33335zm-8 0c0 .23575.09365.46185.26035.62855s.39279.26035.62854.26035h.44444c.23575 0 .46184-.09365.62854-.26035s.26035-.3928.26035-.62855v-1.33335c0-.2357-.09365-.4618-.26035-.6285s-.39279-.26035-.62854-.26035h-1.33333z"/></g></svg>