<svg xmlns="http://www.w3.org/2000/svg" width="12" height="11" viewBox="0 0 12 11">
  <path fill-rule="evenodd" d="M7.301,2.625 C8.07567054,2.79300084 8.77333023,3.12433086 9.394,3.619 C10.0146698,4.11366914 10.4976649,4.7109965 10.843,5.411 C11.1976684,6.13900364 11.375,6.91366256 11.375,7.735 C11.375,8.55633744 11.1976684,9.33099636 10.843,10.059 C10.4976649,10.7590035 10.0146698,11.3563309 9.394,11.851 C8.77333023,12.3456691 8.07567054,12.6769992 7.301,12.845 L7.301,11.641 C7.8610028,11.4823325 8.36033114,11.2116686 8.799,10.829 C9.23766886,10.4463314 9.58066543,9.98666935 9.828,9.45 C10.0753346,8.91333065 10.199,8.3416697 10.199,7.735 C10.199,7.1283303 10.0753346,6.55666935 9.828,6.02 C9.58066543,5.48333065 9.23766886,5.02366858 8.799,4.641 C8.36033114,4.25833142 7.8610028,3.98766746 7.301,3.829 L7.301,2.625 Z M8.757,7.735 C8.757,8.2483359 8.62633464,8.71266459 8.365,9.128 C8.10366536,9.54333541 7.74900224,9.86299888 7.301,10.087 L7.301,5.383 C7.74900224,5.60700112 8.10366536,5.92666459 8.365,6.342 C8.62633464,6.75733541 8.757,7.2216641 8.757,7.735 Z M0.875,5.985 L3.199,5.985 L6.125,3.059 L6.125,12.411 L3.199,9.485 L0.875,9.485 L0.875,5.985 Z" transform="translate(0 -2)"/>
</svg>
