<svg xmlns="http://www.w3.org/2000/svg" width="18" height="19" viewBox="0 0 18 19">
  <path fill="#2A2A2A" fill-rule="evenodd" d="M74.6875,483.5 L74.6875,491.75 L78.8125,491.75 L78.8125,492.4375 L74,492.4375 L74,482.8125 L86.375,482.8125 L86.375,487.625 L85.6875,487.625 L85.6875,483.5 L74.6875,483.5 Z M79.5,488.3125 L91.875,488.3125 L91.875,497.9375 L89.8125,497.9375 L89.8125,500.6875 L89.2539062,500.6875 L86.5039062,497.9375 L79.5,497.9375 L79.5,488.3125 Z M91.1875,497.25 L91.1875,489 L80.1875,489 L80.1875,497.25 L86.7617188,497.25 L89.125,499.613281 L89.125,497.25 L91.1875,497.25 Z" transform="translate(-74 -482)"/>
</svg>
