<svg xmlns="http://www.w3.org/2000/svg" width="24" height="24" viewBox="0 0 24 24"><path fill-rule="evenodd" d="M15.347 9.753v-1.1h-5.5v1.1h5.5zm-2.194 4.4v-1.11H9.847v1.11h3.306zm2.194-2.195v-1.11h-5.5v1.11h5.5zM15.916 7c.3 0 .555.106.767.317.211.212.317.467.317.767v6.61c0 .3-.106.56-.317.78-.212.221-.467.331-.767.331h-6.61c-.3 0-.56-.11-.78-.33-.221-.22-.331-.48-.331-.78v-6.61c0-.3.11-.556.33-.768.22-.211.48-.317.78-.317h6.61zM7.084 9.195v7.72h7.721V18h-7.72c-.3 0-.556-.106-.768-.317A1.045 1.045 0 0 1 6 16.916V9.195h1.084z"/></svg>