<svg xmlns="http://www.w3.org/2000/svg" fill="none" viewBox="0 0 18 18"><g clip-path="url(#clip0)"><path stroke="#888888" stroke-linecap="round" stroke-linejoin="round" stroke-width="1.5" d="M9 16.5c4.1421 0 7.5-3.3579 7.5-7.5 0-4.14214-3.3579-7.5-7.5-7.5-4.14214 0-7.5 3.35786-7.5 7.5 0 4.1421 3.35786 7.5 7.5 7.5z"/><path stroke="#888888" stroke-linecap="round" stroke-linejoin="round" stroke-width="1.5" d="M6.8175 6.74994c.17633-.50125.52437-.92392.98247-1.19315.4581-.26923.99671-.36765 1.52042-.27782.52371.08983.99871.36211 1.34091.76861.3422.40651.5295.921.5287 1.45236 0 1.5-2.25 2.25-2.25 2.25"/><circle cx="9" cy="12.75" r=".75" fill="#888888"/></g><defs><clipPath id="clip0"><path fill="white" d="M0 0h18v18H0z"/></clipPath></defs></svg>
 
