<?xml version="1.0" encoding="UTF-8"?>
<svg width="22px" height="22px" viewBox="0 0 22 22" version="1.1" xmlns="http://www.w3.org/2000/svg" xmlns:xlink="http://www.w3.org/1999/xlink">
    <!-- Generator: Sketch 54.1 (76490) - https://sketchapp.com -->
    <title>icon_overcast</title>
    <desc>Created with Sketch.</desc>
    <defs>
        <linearGradient x1="49.9994174%" y1="0.0573244679%" x2="49.9994174%" y2="99.9720795%" id="linearGradient-1">
            <stop stop-color="#FF9402" offset="0%"></stop>
            <stop stop-color="#FF613C" offset="100%"></stop>
        </linearGradient>
    </defs>
    <g id="Podcasts" stroke="none" stroke-width="1" fill="none" fill-rule="evenodd">
        <g id="Podcasts-Index-Dropdown-Open" transform="translate(-198.000000, -1012.000000)" fill-rule="nonzero">
            <g id="Dropdown" transform="translate(180.000000, 790.000000)">
                <g id="icon_overcast" transform="translate(18.000000, 222.000000)">
                    <path d="M21.5725714,19.1525714 C21.27608,19.8550864 20.8068931,20.4712996 20.2085714,20.944 C19.7620236,21.2971218 19.2521203,21.5616741 18.7062857,21.7234286 C17.8620203,21.9338955 16.9924025,22.0248775 16.1228571,21.9937143 L6.50571429,21.9937143 C5.63616888,22.0248775 4.76655108,21.9338955 3.92228571,21.7234286 C2.62768375,21.3369362 1.57389102,20.3915204 1.04971429,19.1462857 C0.725523586,18.1727336 0.582777649,17.1479456 0.628571429,16.1228571 L0.628571429,16.1228571 L0.628571429,6.50571429 L0.628571429,6.50571429 C0.58359507,5.47812123 0.728493979,4.45104367 1.056,3.476 C1.58169372,2.23316778 2.6352552,1.29026484 3.92857143,0.905142857 C4.77050436,0.693144792 5.63796961,0.60005096 6.50571429,0.628571429 L16.1228571,0.628571429 C16.9924025,0.597408263 17.8620203,0.688390175 18.7062857,0.898857143 C20.0008877,1.28534954 21.0546804,2.23076534 21.5788571,3.476 C21.903812,4.45154095 22.0465678,5.47853014 22,6.50571429 L22,16.1228571 C22.0449764,17.1504502 21.9000774,18.1775278 21.5725714,19.1525714 L21.5725714,19.1525714 Z" id="_Tracé_" fill="url(#linearGradient-1)"></path>
                    <path d="M11.3142857,17.9142857 C7.66920637,17.9142857 4.71428571,14.9593651 4.71428571,11.3142857 C4.71428571,7.66920637 7.66920637,4.71428571 11.3142857,4.71428571 C14.9593651,4.71428571 17.9142857,7.66920637 17.9142857,11.3142857 C17.9176314,13.0657381 17.2233507,14.7464185 15.9848846,15.9848846 C14.7464185,17.2233507 13.0657381,17.9176314 11.3142857,17.9142857 Z M11.3142857,15.2994286 L11.8108571,14.8028571 L11.3142857,12.9171429 L10.8177143,14.8028571 L11.3142857,15.2994286 Z M10.6857143,15.2994286 L10.4405714,16.236 L11.0188571,15.6577143 L10.6857143,15.2994286 Z M11.9428571,15.2994286 L11.6097143,15.6325714 L12.188,16.2108571 L11.9428571,15.2994286 Z M12.4142857,16.9714286 L11.3142857,15.8777143 L10.2142857,16.9714286 C10.5774478,17.0377217 10.9452327,17.075551 11.3142857,17.0845714 C11.6840783,17.0891715 12.0531721,17.0512075 12.4142857,16.9714286 L12.4142857,16.9714286 Z M11.3142857,5.53771429 C8.50059711,5.54297222 6.10094069,7.57682981 5.63459155,10.3516072 C5.1682424,13.1263846 6.77118931,15.8329487 9.42857143,16.7577143 L10.6857143,12.1628571 C10.4046981,11.9585058 10.2405856,11.6302809 10.2457143,11.2828571 C10.2457143,10.7655706 10.6061373,10.3181752 11.1115691,10.208066 C11.6170009,10.0979568 12.1308626,10.3548877 12.3460343,10.8252986 C12.561206,11.2957096 12.4195435,11.8524852 12.0057143,12.1628571 L13.2628571,16.7577143 C15.9318197,15.8292831 17.5357343,13.1045763 17.0522106,10.3204156 C16.5686869,7.53625497 14.1400031,5.51188735 11.3142857,5.53771429 Z M15.0857143,14.1742857 C14.9445158,14.3495024 14.6916473,14.3852339 14.5074286,14.256 C14.4171952,14.1981355 14.3564129,14.1040584 14.3407475,13.9980162 C14.3250822,13.891974 14.3560664,13.7843405 14.4257143,13.7028571 C15.4155158,12.2619905 15.4155158,10.3602952 14.4257143,8.91942857 C14.3560664,8.83794525 14.3250822,8.73031176 14.3407475,8.62426952 C14.3564129,8.51822729 14.4171952,8.42415022 14.5074286,8.36628571 C14.6916473,8.23705185 14.9445158,8.27278327 15.0857143,8.448 C16.2960094,10.1626019 16.2960094,12.4533981 15.0857143,14.168 L15.0857143,14.1742857 Z M13.0742857,13.0994286 C12.911299,12.9216012 12.911299,12.6486845 13.0742857,12.4708571 C13.3531977,12.1495496 13.509107,11.7397309 13.5142857,11.3142857 C13.5090038,10.8932573 13.3629615,10.4861092 13.0994286,10.1577143 C12.9499435,9.97485306 12.9499435,9.71200409 13.0994286,9.52914286 C13.1710863,9.44357634 13.2769629,9.39414282 13.3885714,9.39414282 C13.5001799,9.39414282 13.6060566,9.44357634 13.6777143,9.52914286 C14.5957783,10.5662003 14.5957783,12.1252283 13.6777143,13.1622857 C13.5926378,13.2416105 13.4773904,13.280227 13.361696,13.2681755 C13.2460016,13.256124 13.1411871,13.1945844 13.0742857,13.0994286 Z M9.55428571,13.0994286 C9.47849488,13.1777791 9.37415229,13.2220177 9.26514286,13.2220177 C9.15613343,13.2220177 9.05179083,13.1777791 8.976,13.0994286 C8.05793595,12.0623711 8.05793595,10.5033431 8.976,9.46628571 C9.04765772,9.3807192 9.15353436,9.33128567 9.26514286,9.33128567 C9.37675136,9.33128567 9.482628,9.3807192 9.55428571,9.46628571 C9.71727239,9.64411306 9.71727239,9.9170298 9.55428571,10.0948571 C9.26811615,10.4365609 9.11223161,10.8685837 9.11428571,11.3142857 C9.1124386,11.736569 9.25930861,12.1460248 9.52914286,12.4708571 C9.69941675,12.6420891 9.71033893,12.9151435 9.55428571,13.0994286 L9.55428571,13.0994286 Z M8.12114286,14.256 C7.93692418,14.3852339 7.68405563,14.3495024 7.54285714,14.1742857 C6.33256207,12.4596838 6.33256207,10.1688876 7.54285714,8.45428571 C7.68405563,8.27906899 7.93692418,8.24333756 8.12114286,8.37257143 C8.2113762,8.43043594 8.27215855,8.52451301 8.28782388,8.63055524 C8.30348921,8.73659747 8.27250501,8.84423096 8.20285714,8.92571429 C7.21305562,10.3665809 7.21305562,12.2682762 8.20285714,13.7091429 C8.32845449,13.8834188 8.29219901,14.1260516 8.12114286,14.256 L8.12114286,14.256 Z" id="overcastCanvas-group" fill="#FFFFFF"></path>
                </g>
            </g>
        </g>
    </g>
</svg>