<?xml version="1.0" encoding="UTF-8"?>
<svg width="22px" height="22px" viewBox="0 0 22 22" version="1.1" xmlns="http://www.w3.org/2000/svg" xmlns:xlink="http://www.w3.org/1999/xlink">
    <!-- Generator: Sketch 54.1 (76490) - https://sketchapp.com -->
    <title>_logo_Podcasts_192px</title>
    <desc>Created with Sketch.</desc>
    <g id="Podcasts" stroke="none" stroke-width="1" fill="none" fill-rule="evenodd">
        <g id="Podcasts-Index-Dropdown-Open" transform="translate(-198.000000, -891.000000)" fill-rule="nonzero">
            <g id="Dropdown" transform="translate(180.000000, 790.000000)">
                <g id="_logo_Podcasts_192px" transform="translate(18.000000, 101.000000)">
                    <polygon id="Shape" fill="#FAB908" points="9.4454383 6.86940965 9.4454383 10.140966 9.4454383 11.4486072 9.4454383 14.7201636 12.1441349 14.7201636 12.1441349 11.4486072 12.1441349 10.140966 12.1441349 6.86940965"></polygon>
                    <circle id="Oval" fill="#0066D9" cx="1.34934833" cy="10.0587785" r="1.34934833"></circle>
                    <circle id="Oval" fill="#0066D9" cx="1.34934833" cy="11.5307948" r="1.34934833"></circle>
                    <rect id="Rectangle-path" fill="#0066D9" x="0" y="10.0587785" width="2.69869665" height="1.47201636"></rect>
                    <circle id="Oval" fill="#4285F4" cx="20.2402249" cy="11.5307948" r="1.34934833"></circle>
                    <circle id="Oval" fill="#4285F4" cx="20.2402249" cy="10.0587785" r="1.34934833"></circle>
                    <rect id="Rectangle-path" fill="#4285F4" transform="translate(20.240225, 10.794786) rotate(180.000000) translate(-20.240225, -10.794786) " x="18.890877" y="10.0587783" width="2.69869665" height="1.47201636"></rect>
                    <circle id="Oval" fill="#EA4335" cx="6.01073343" cy="14.4748275" r="1.34934833"></circle>
                    <circle id="Oval" fill="#EA4335" cx="6.01073343" cy="15.9468439" r="1.34934833"></circle>
                    <rect id="Rectangle-path" fill="#EA4335" x="4.66138513" y="14.4748275" width="2.69869665" height="1.47201636"></rect>
                    <circle id="Oval" fill="#EA4335" cx="6.01073343" cy="5.64272935" r="1.34934833"></circle>
                    <circle id="Oval" fill="#EA4335" cx="6.01073343" cy="10.4267825" r="1.34934833"></circle>
                    <rect id="Rectangle-path" fill="#EA4335" x="4.66138513" y="5.64272935" width="2.69869665" height="4.81472016"></rect>
                    <circle id="Oval" fill="#34A853" cx="15.5788397" cy="7.11474572" r="1.34934833"></circle>
                    <circle id="Oval" fill="#34A853" cx="15.5788397" cy="5.64272935" r="1.34934833"></circle>
                    <rect id="Rectangle-path" fill="#34A853" transform="translate(15.578839, 6.378737) rotate(180.000000) translate(-15.578839, -6.378737) " x="14.229491" y="5.6427289" width="2.69869665" height="1.47201636"></rect>
                    <circle id="Oval" fill="#FAB908" cx="10.7947866" cy="2.82136468" r="1.34934833"></circle>
                    <circle id="Oval" fill="#FAB908" cx="10.7947866" cy="1.34934833" r="1.34934833"></circle>
                    <rect id="Rectangle-path" fill="#FAB908" transform="translate(10.794786, 2.085356) rotate(180.000000) translate(-10.794786, -2.085356) " x="9.44543816" y="1.34934825" width="2.69869665" height="1.47201636"></rect>
                    <circle id="Oval" fill="#FAB908" cx="10.7947866" cy="20.2402249" r="1.34934833"></circle>
                    <circle id="Oval" fill="#FAB908" cx="10.7947866" cy="18.7682085" r="1.34934833"></circle>
                    <rect id="Rectangle-path" fill="#FAB908" transform="translate(10.794786, 19.504217) rotate(180.000000) translate(-10.794786, -19.504217) " x="9.44543816" y="18.7682084" width="2.69869665" height="1.47201636"></rect>
                    <circle id="Oval" fill="#34A853" cx="15.5788397" cy="15.9468439" r="1.34934833"></circle>
                    <circle id="Oval" fill="#34A853" cx="15.5788397" cy="11.1627907" r="1.34934833"></circle>
                    <rect id="Rectangle-path" fill="#34A853" transform="translate(15.578839, 13.554817) rotate(180.000000) translate(-15.578839, -13.554817) " x="14.229491" y="11.1627902" width="2.69869665" height="4.78405316"></rect>
                    <circle id="Oval" fill="#FAB908" cx="10.7947866" cy="6.86940965" r="1.34934833"></circle>
                    <circle id="Oval" fill="#FAB908" cx="10.7947866" cy="14.7201636" r="1.34934833"></circle>
                </g>
            </g>
        </g>
    </g>
</svg>