<svg height="24" viewBox="0 0 24 24" width="24" xmlns="http://www.w3.org/2000/svg" xmlns:xlink="http://www.w3.org/1999/xlink"><linearGradient id="a" x1="50%" x2="50%" y1="0%" y2="100%"><stop offset="0" stop-color="#f452ff"/><stop offset="1" stop-color="#832bc1"/></linearGradient><g fill="none" fill-rule="evenodd"><path d="m23.7166346 20.9709615c-.2351923.5974039-.7778846 1.4385577-1.5475 2.0311539-.4443269.3422115-.9748077.6693269-1.7034615.8851923-.7767308.2301923-1.7334616.3079808-2.9242308.3079808h-10.88778845c-1.19067308 0-2.14740385-.0777885-2.92423077-.3079808-.72865385-.2158654-1.25903846-.5429808-1.70346154-.8851923-.76951923-.5925962-1.31230769-1.4336539-1.5475-2.0311539-.47365385-1.2036538-.47846154-2.569423-.47846154-3.429423v-10.88788465c0-.86.00480769-2.22576923.47855769-3.42942308.23519231-.59740385.77788462-1.43855769 1.5475-2.03105769.44432693-.34221154.97480769-.66932693 1.70336539-.88519231.77682692-.23019231 1.73355769-.30798077 2.92423077-.30798077h10.88788465c1.190673 0 2.1474038.07778846 2.9242307.30798077.7286539.21586538 1.2590385.54307692 1.7034616.88519231.7695192.59259615 1.3123077 1.43365384 1.5475 2.03105769.4736538 1.20365385.4784615 2.56942308.4784615 3.42942308v10.88778845c0 .8600962-.0048077 2.2258654-.4785577 3.4295192z" fill="url(#a)"/><path d="m23.7166346 20.9709615c-.2351923.5974039-.7778846 1.4385577-1.5475 2.0311539-.4443269.3422115-.9748077.6693269-1.7034615.8851923-.7767308.2301923-1.7334616.3079808-2.9242308.3079808h-10.88778845c-1.19067308 0-2.14740385-.0777885-2.92423077-.3079808-.72865385-.2158654-1.25903846-.5429808-1.70346154-.8851923-.76951923-.5925962-1.31230769-1.4336539-1.5475-2.0311539-.47365385-1.2036538-.47846154-2.569423-.47846154-3.429423v-10.88788465c0-.86.00480769-2.22576923.47855769-3.42942308.23519231-.59740385.77788462-1.43855769 1.5475-2.03105769.44432693-.34221154.97480769-.66932693 1.70336539-.88519231.77682692-.23019231 1.73355769-.30798077 2.92423077-.30798077h10.88788465c1.190673 0 2.1474038.07778846 2.9242307.30798077.7286539.21586538 1.2590385.54307692 1.7034616.88519231.7695192.59259615 1.3123077 1.43365384 1.5475 2.03105769.4736538 1.20365385.4784615 2.56942308.4784615 3.42942308v10.88778845c0 .8600962-.0048077 2.2258654-.4785577 3.4295192z"/><path d="m10.9676923 11.9838462c-.3630769-.3829808-1.00067307-.6285577-1.75355768-.6285577-.75288462 0-1.39057693.2455769-1.7535577.6285577-.18951923.1999038-.28971154.4048076-.32125.6967307-.06115384.5653846-.02682692 1.0520193.03942308 1.8302885.06307692.7415384.18288462 1.7303846.33923077 2.7375.11125.7167308.20173077 1.1035577.28403846 1.3806731.13336539.4489423.63221154.8415384 1.41211539.8415384.77990384 0 1.27865388-.3926923 1.41211538-.8415384.0823077-.2770193.1726923-.6638462.2839423-1.3806731.1563462-1.0071154.2761539-1.9958654.3392308-2.7375.06625-.7782692.1005769-1.265.0394231-1.8302885-.0315385-.2919231-.1317308-.4967307-.3211539-.6967307zm-3.73182692-3.41086543c0 1.09365385.88653847 1.98019233 1.98009616 1.98019233 1.09365386 0 1.98019226-.88653848 1.98019226-1.98019233 0-1.09355769-.8865384-1.98019231-1.98019226-1.98019231-1.09355769 0-1.98009616.88663462-1.98009616 1.98019231zm1.95557693-7.81451923c-4.63105769.01317308-8.42576923 3.77019231-8.48307692 8.40096154-.04644231 3.75125002 2.34807692 6.96009612 5.69182692 8.13625002.08115384.0285577.16355769-.03875.15076923-.1239423-.04375-.2911539-.08519231-.5839423-.12317308-.8717308-.01346154-.1017308-.07826923-.1894231-.17221154-.2304808-2.64288461-1.1546154-4.48836538-3.8052884-4.45875-6.87548074.03884616-4.02932692 3.32903846-7.31413461 7.35826923-7.34673077 4.11913465-.03326923 7.48076925 3.30788462 7.48076925 7.41942308 0 3.03951923-1.8374039 5.65759613-4.4597116 6.80298073-.0939423.0410577-.1583653.1290385-.1717307.230577-.0379808.2876923-.0793269.5802884-.1230769.8713461-.0127885.0850962.0695192.1525.150673.1239423 3.311827-1.1649038 5.6925-4.3238461 5.6925-8.02884613-.0000961-4.69961539-3.8302884-8.52153846-8.53307689-8.50826923zm-.15375 3.90355769c2.62528849-.10173077 4.79346149 2.00451923 4.79346149 4.60759615 0 1.32384612-.5609615 2.51903842-1.4574038 3.36076922-.0759615.0713462-.1169231.1726923-.1110577.2767308.0178846.3167308.0113462.6243269-.0097115.9718269-.0056731.0925962.098173.1517308.1748077.0994231 1.5032692-1.0273077 2.4920192-2.7546154 2.4920192-4.70884617 0-3.21769231-2.6801923-5.82125-5.92528847-5.69548077-3.01576923.11682692-5.43528846 2.60336539-5.47394231 5.62115385-.02538461 1.98490389.96942308 3.74317309 2.49201923 4.78346149.07644231.0522116.18-.0071153.17432693-.0995192-.02115385-.3476923-.02759616-.6553846-.0098077-.9720192.00586539-.1039423-.03480769-.2051923-.11076923-.2765385-.92442307-.8678846-1.49211538-2.1117307-1.45596153-3.48471152.06365384-2.4164423 2.01182692-4.39028846 4.42730769-4.48384615z" fill="#fff" fill-rule="nonzero" transform="translate(2.885 1.923)"/></g></svg>