<?xml version="1.0" encoding="UTF-8"?>
<svg width="22px" height="22px" viewBox="0 0 22 22" version="1.1" xmlns="http://www.w3.org/2000/svg" xmlns:xlink="http://www.w3.org/1999/xlink">
    <!-- Generator: Sketch 54.1 (76490) - https://sketchapp.com -->
    <title>icon_spotify</title>
    <desc>Created with Sketch.</desc>
    <g id="Podcasts" stroke="none" stroke-width="1" fill="none" fill-rule="evenodd">
        <g id="Podcasts-Index-Dropdown-Open" transform="translate(-198.000000, -971.000000)" fill="#4AB972" fill-rule="nonzero">
            <g id="Dropdown" transform="translate(180.000000, 790.000000)">
                <g id="icon_spotify" transform="translate(18.000000, 181.000000)">
                    <path d="M10.9896267,0 C4.92060904,0 0,4.92060904 0,10.9896267 C0,17.0586444 4.92060904,21.9792534 10.9896267,21.9792534 C17.0586444,21.9792534 21.9792534,17.0586444 21.9792534,10.9896267 C21.9792534,4.92060904 17.0586444,0 10.9896267,0 Z M16.065446,17.4309155 C15.9280864,17.6822947 15.6711749,17.8224204 15.4047112,17.8224204 C15.2810963,17.8224204 15.1574381,17.7935914 15.0406955,17.7304008 C13.280998,16.7605855 11.2822397,16.2481886 9.26290766,16.2481886 C8.05269155,16.2481886 6.85755992,16.4281218 5.71325737,16.7825422 C5.31488016,16.9061572 4.89177996,16.6836503 4.76950491,16.28389 C4.64588998,15.8868959 4.86839686,15.0434185 5.26815717,14.9184204 C6.55807466,14.5186601 7.90292731,14.3167269 9.26424754,14.3167269 C11.5363418,14.3167269 13.7878625,14.8936974 15.77011,15.9857878 C16.1355088,16.1849548 16.2687623,17.0668998 16.065446,17.4309155 Z M17.4625108,13.2919332 C17.3059175,13.5955246 16.99822,14.0845383 16.6808841,14.0845383 C16.5421415,14.0845383 16.4047819,14.0543261 16.2756346,13.9842633 C14.0941768,12.8523222 11.7355521,12.2781179 9.26424754,12.2781179 C7.90292731,12.2781179 6.55120236,12.4567112 5.24615717,12.8166208 C4.77499411,12.9443851 4.29142633,12.6696228 4.16366208,12.1984597 C4.03728094,11.7272967 4.3133831,10.9263929 4.78320629,10.7986719 C6.23931238,10.4016778 7.74767387,10.1997446 9.26420432,10.1997446 C11.9827819,10.1997446 14.6861886,10.8591395 17.0847073,12.1064401 C17.517446,12.3289902 17.6864008,12.8592377 17.4625108,13.2919332 Z M18.0463104,9.9771945 C17.8965894,9.9771945 17.7427191,9.94283301 17.5984872,9.87143026 C14.9953124,8.57330059 12.1915874,7.91667191 9.26697053,7.91667191 C7.74214145,7.91667191 6.22284479,8.10213752 4.74884479,8.46615324 C4.20761886,8.59940668 3.66224361,8.27109234 3.52899018,7.73120629 C3.39435363,7.19270334 3.72405108,6.54022397 4.26393713,6.40697053 C5.89453045,6.00172102 7.57729273,5.79706483 9.26558743,5.79706483 C12.5061572,5.79706483 15.6134735,6.52652259 18.4968566,7.96339489 C18.9955088,8.21205108 19.1988251,8.81646758 18.950169,9.31373674 C18.7716621,9.66673084 18.4172417,9.9771945 18.0463104,9.9771945 Z" id="Shape"></path>
                </g>
            </g>
        </g>
    </g>
</svg>