<svg xmlns="http://www.w3.org/2000/svg" width="18" height="13" viewBox="0 0 18 13">
  <g fill="none" fill-rule="evenodd">
    <path d="M5.88064865,5.1353027 L1.30718919,1.00435135 C1.11418784,1.06988108 0.97297297,1.24637838 0.97297297,1.45994595 L0.97297297,10.4519676 L5.88064865,5.1353027 Z"/>
    <polygon points="15.276 .973 2.724 .973 9 6.642"/>
    <path d="M16.6928108,1.00435135 L12.1193514,5.1353027 L17.027027,10.4519676 L17.027027,1.45994595 C17.027027,1.24637838 16.8857878,1.06988108 16.6928108,1.00435135 Z M16.3838919,11.1891892 L11.3974905,5.7872432 L9.3258851,7.6583676 C9.2332581,7.7419946 9.1168419,7.7837838 9,7.7837838 C8.8831338,7.7837838 8.7667176,7.7419946 8.6740905,7.6583676 L6.60248514,5.7872432 L1.61610811,11.1891892 L16.3838919,11.1891892 Z"/>
    <path fill="#000000" fill-rule="nonzero" d="M18,10.7022162 L18,1.45994595 C18,0.6587027 17.3493122,0.00734595 16.5478743,0.00116757 C16.5453446,0.00107027 16.5430581,0 16.5405405,0 L16.5367338,0 L1.46324189,0 L1.45945946,0 C1.45691757,0 1.45463108,0.00107027 1.45210135,0.00116757 C0.65066351,0.00734595 0,0.6587027 0,1.45994595 L0,10.7022162 C0,11.5072541 0.65655,12.1621622 1.46324189,12.1621622 L16.5367338,12.1621622 C17.3434257,12.1621622 18,11.5072541 18,10.7022162 Z M8.6740905,7.6583676 C8.7667176,7.7419946 8.8831338,7.7837838 9,7.7837838 C9.1168419,7.7837838 9.2332581,7.7419946 9.3258851,7.6583676 L11.3974905,5.7872432 L16.3838919,11.1891892 L1.61610811,11.1891892 L6.60248514,5.7872432 L8.6740905,7.6583676 Z M17.027027,10.4519676 L12.1193514,5.1353027 L16.6928108,1.00435135 C16.8857878,1.06988108 17.027027,1.24637838 17.027027,1.45994595 L17.027027,10.4519676 Z M15.2763446,0.97297297 L9,6.6416595 L2.72363108,0.97297297 L15.2763446,0.97297297 Z M1.30718919,1.00435135 L5.88064865,5.1353027 L0.97297297,10.4519676 L0.97297297,1.45994595 C0.97297297,1.24637838 1.11418784,1.06988108 1.30718919,1.00435135 Z"/>
  </g>
</svg>
