<svg xmlns="http://www.w3.org/2000/svg" width="12" height="16" viewBox="0 0 12 16" xmlns:xlink="http://www.w3.org/1999/xlink">
  <defs>
    <path id="a" d="M83.515625,961 C82.7447878,961 82.0234409,961.148436 81.3515625,961.445312 C80.6796841,961.742189 80.0963566,962.143227 79.6015625,962.648438 C79.1067684,963.153648 78.7161473,963.747392 78.4296875,964.429688 C78.1432277,965.111983 78,965.838538 78,966.609375 C78,967.776048 78.2291644,968.674476 78.6875,969.304688 C79.1458356,969.934899 79.5989561,970.453123 80.046875,970.859375 C80.3385431,971.119793 80.5729158,971.341145 80.75,971.523438 C80.9270842,971.70573 81.015625,971.895832 81.015625,972.09375 L81.015625,972.9375 C81.015625,972.947917 81.0182291,972.958333 81.0234375,972.96875 C81.0286459,972.979167 81.03125,972.989583 81.03125,973 L81.015625,973 L81.015625,974.453125 C81.015625,975.213545 81.2447894,975.828123 81.703125,976.296875 C82.1614606,976.765627 82.7708295,977 83.53125,977 C84.270837,977 84.8697894,976.765627 85.328125,976.296875 C85.7864606,975.828123 86.015625,975.213545 86.015625,974.453125 L86.015625,973 L86,973 C86,972.989583 86.0026041,972.979167 86.0078125,972.96875 C86.0130209,972.958333 86.015625,972.947917 86.015625,972.9375 L86.015625,972.09375 C86.015625,971.791665 86.1145823,971.533855 86.3125,971.320312 C86.5104177,971.10677 86.77604,970.854168 87.109375,970.5625 C87.5572939,970.166665 87.9895813,969.682295 88.40625,969.109375 C88.8229187,968.536455 89.03125,967.70313 89.03125,966.609375 C89.03125,965.838538 88.8880223,965.111983 88.6015625,964.429688 C88.3151027,963.747392 87.9244816,963.153648 87.4296875,962.648438 C86.9348934,962.143227 86.3515659,961.742189 85.6796875,961.445312 C85.0078091,961.148436 84.2864622,961 83.515625,961 Z M83.5,976 C83.0312477,976 82.666668,975.861981 82.40625,975.585938 C82.145832,975.309894 82.015625,974.932294 82.015625,974.453125 L82.015625,973.78125 C82.1927092,973.84375 82.4036446,973.895833 82.6484375,973.9375 C82.8932304,973.979167 83.18229,974 83.515625,974 C83.8385433,974 84.1249987,973.976563 84.375,973.929688 C84.6250013,973.882812 84.8385408,973.828125 85.015625,973.765625 L85.015625,974.453125 C85.015625,974.942711 84.8828138,975.322915 84.6171875,975.59375 C84.3515612,975.864585 83.9791691,976 83.5,976 Z"/>
    <mask id="b" width="11.031" height="16" x="0" y="0" fill="white">
      <use xlink:href="#a"/>
    </mask>
  </defs>
  <g fill="none" fill-rule="evenodd" transform="translate(-78 -961)">
    <use fill="#000000" xlink:href="#a"/>
    <use stroke="#FFFFFF" stroke-width="4" mask="url(#b)" xlink:href="#a"/>
  </g>
</svg>
