<svg xmlns="http://www.w3.org/2000/svg" width="12" height="16" viewBox="0 0 12 16">
  <path fill="#000000" fill-rule="evenodd" d="M83.515625,994 C82.7447878,994 82.0234409,994.148436 81.3515625,994.445312 C80.6796841,994.742189 80.0963566,995.143227 79.6015625,995.648438 C79.1067684,996.153648 78.7161473,996.747392 78.4296875,997.429688 C78.1432277,998.111983 78,998.838538 78,999.609375 C78,1000.77605 78.2291644,1001.67448 78.6875,1002.30469 C79.1458356,1002.9349 79.5989561,1003.45312 80.046875,1003.85938 C80.3385431,1004.11979 80.5729158,1004.34114 80.75,1004.52344 C80.9270842,1004.70573 81.015625,1004.89583 81.015625,1005.09375 L81.015625,1005.9375 C81.015625,1005.94792 81.0182291,1005.95833 81.0234375,1005.96875 C81.0286459,1005.97917 81.03125,1005.98958 81.03125,1006 L81.015625,1006 L81.015625,1007.45312 C81.015625,1008.21355 81.2447894,1008.82812 81.703125,1009.29688 C82.1614606,1009.76563 82.7708295,1010 83.53125,1010 C84.270837,1010 84.8697894,1009.76563 85.328125,1009.29688 C85.7864606,1008.82812 86.015625,1008.21355 86.015625,1007.45312 L86.015625,1006 L86,1006 C86,1005.98958 86.0026041,1005.97917 86.0078125,1005.96875 C86.0130209,1005.95833 86.015625,1005.94792 86.015625,1005.9375 L86.015625,1005.09375 C86.015625,1004.79167 86.1145823,1004.53386 86.3125,1004.32031 C86.5104177,1004.10677 86.77604,1003.85417 87.109375,1003.5625 C87.5572939,1003.16666 87.9895813,1002.68229 88.40625,1002.10938 C88.8229187,1001.53646 89.03125,1000.70313 89.03125,999.609375 C89.03125,998.838538 88.8880223,998.111983 88.6015625,997.429688 C88.3151027,996.747392 87.9244816,996.153648 87.4296875,995.648438 C86.9348934,995.143227 86.3515659,994.742189 85.6796875,994.445312 C85.0078091,994.148436 84.2864622,994 83.515625,994 Z M83.5,1009 C83.0312477,1009 82.666668,1008.86198 82.40625,1008.58594 C82.145832,1008.30989 82.015625,1007.93229 82.015625,1007.45312 L82.015625,1006.78125 C82.1927092,1006.84375 82.4036446,1006.89583 82.6484375,1006.9375 C82.8932304,1006.97917 83.18229,1007 83.515625,1007 C83.8385433,1007 84.1249987,1006.97656 84.375,1006.92969 C84.6250013,1006.88281 84.8385408,1006.82813 85.015625,1006.76562 L85.015625,1007.45312 C85.015625,1007.94271 84.8828138,1008.32292 84.6171875,1008.59375 C84.3515612,1008.86458 83.9791691,1009 83.5,1009 Z M86.453125,1002.8125 C86.1093733,1003.10417 85.7838557,1003.42187 85.4765625,1003.76562 C85.1692693,1004.10938 85.015625,1004.55208 85.015625,1005.09375 L85.015625,1005.71875 C84.8906244,1005.78125 84.7109387,1005.84635 84.4765625,1005.91406 C84.2421863,1005.98177 83.9166687,1006.01562 83.5,1006.01562 C83.0729145,1006.01562 82.7447928,1005.98438 82.515625,1005.92188 C82.2864572,1005.85937 82.1197922,1005.79688 82.015625,1005.73438 L82.015625,1005.09375 C82.015625,1004.66666 81.8776055,1004.30208 81.6015625,1004 C81.3255195,1003.69792 81.0312516,1003.40625 80.71875,1003.125 C80.2916645,1002.73958 79.8984393,1002.29427 79.5390625,1001.78906 C79.1796857,1001.28385 79,1000.5573 79,999.609375 C79,998.973955 79.1145822,998.377607 79.34375,997.820312 C79.5729178,997.263018 79.890623,996.77344 80.296875,996.351562 C80.703127,995.929685 81.1822889,995.59896 81.734375,995.359375 C82.2864611,995.11979 82.8802052,995 83.515625,995 C84.1510448,995 84.7447889,995.11979 85.296875,995.359375 C85.8489611,995.59896 86.328123,995.929685 86.734375,996.351562 C87.140627,996.77344 87.4583322,997.263018 87.6875,997.820312 C87.9166678,998.377607 88.03125,998.973955 88.03125,999.609375 C88.03125,1000.47396 87.8723974,1001.13281 87.5546875,1001.58594 C87.2369776,1002.03906 86.8697937,1002.44791 86.453125,1002.8125 Z" transform="translate(-78 -994)"/>
</svg>
