<svg xmlns="http://www.w3.org/2000/svg" width="17" height="15" viewBox="0 0 17 15">
  <path fill="#1F1F1F" fill-rule="evenodd" d="M88.75,522.75 C89.4270867,522.75 90.0130184,522.997393 90.5078125,523.492188 C91.0026066,523.986982 91.25,524.572913 91.25,525.25 L91.25,530.679688 L88.125,530.679688 L88.125,534 L78.125,534 L78.125,530.679688 L75,530.679688 L75,525.25 C75,524.572913 75.2473934,523.986982 75.7421875,523.492188 C76.2369816,522.997393 76.8229133,522.75 77.5,522.75 L88.75,522.75 Z M86.875,532.75 L86.875,527.75 L79.375,527.75 L79.375,532.75 L86.875,532.75 Z M88.125,519 L88.125,522.125 L78.125,522.125 L78.125,519 L88.125,519 Z" transform="translate(-75 -519)"/>
</svg>
