<svg xmlns="http://www.w3.org/2000/svg" width="14" height="14" viewBox="0 0 14 14">
  <path fill="#FF9F00" fill-rule="evenodd" d="M387.32,15.4 C388.826674,15.4 390.219994,15.7733296 391.5,16.52 C392.75334,17.253337 393.746663,18.2466604 394.48,19.5 C395.22667,20.7800064 395.6,22.1733258 395.6,23.68 L393.22,23.68 C393.22,22.613328 392.953336,21.6266712 392.42,20.72 C391.886664,19.8266622 391.173338,19.113336 390.28,18.58 C389.373329,18.046664 388.386672,17.78 387.32,17.78 L387.32,15.4 Z M387.32,10.7 C389.066675,10.7 390.746659,11.0399966 392.36,11.72 C393.906674,12.38667 395.279994,13.319994 396.48,14.52 C397.680006,15.720006 398.61333,17.0933256 399.28,18.64 C399.960003,20.2533414 400.3,21.9333246 400.3,23.68 L397.94,23.68 C397.94,22.2399928 397.660003,20.8600066 397.1,19.54 C396.566664,18.273327 395.810005,17.1500049 394.83,16.17 C393.849995,15.1899951 392.726673,14.433336 391.46,13.9 C390.139993,13.3399972 388.760007,13.06 387.32,13.06 L387.32,10.7 Z M387.32,21.84 C387.32,21.3333308 387.499998,20.9066684 387.86,20.56 C388.220002,20.2133316 388.653331,20.04 389.16,20.04 C389.666669,20.04 390.093332,20.2133316 390.44,20.56 C390.786668,20.9066684 390.96,21.3333308 390.96,21.84 C390.96,22.3466692 390.786668,22.7799982 390.44,23.14 C390.093332,23.5000018 389.666669,23.68 389.16,23.68 C388.653331,23.68 388.220002,23.5000018 387.86,23.14 C387.499998,22.7799982 387.32,22.3466692 387.32,21.84 Z" transform="translate(-387 -10)"/>
</svg>
