<svg xmlns="http://www.w3.org/2000/svg" width="16" height="16" viewBox="0 0 16 16">
  <path fill="#000000" fill-rule="evenodd" d="M88.2057961,769.616821 L91.2949876,772.703484 C91.6854752,773.098839 92.3166468,773.098839 92.7071344,772.703484 C93.0976219,772.308128 93.0976219,771.668554 92.7071344,771.273199 L89.6256862,768.1935 C90.4971809,767.025464 91.0131106,765.576539 91.0131106,764.007103 C91.0131106,760.137187 87.876169,757 84.0065553,757 C80.1369417,757 77,760.137187 77,764.007103 C77,767.877019 80.1369417,771.014206 84.0065553,771.014206 C85.5817732,771.014206 87.0355807,770.494346 88.2057961,769.616821 L88.2057961,769.616821 Z M84.0065553,769.012177 C81.2425456,769.012177 79.0018729,766.771329 79.0018729,764.007103 C79.0018729,761.242877 81.2425456,759.002029 84.0065553,759.002029 C86.7705651,759.002029 89.0112377,761.242877 89.0112377,764.007103 C89.0112377,766.771329 86.7705651,769.012177 84.0065553,769.012177 L84.0065553,769.012177 L84.0065553,769.012177 Z" transform="translate(-77 -757)"/>
</svg>
