<svg width="285" height="285" viewBox="0 0 285 285" fill="none" xmlns="http://www.w3.org/2000/svg">
<path d="M284.29 128.46C286.594 151.707 283.147 175.164 274.254 196.766C265.361 218.369 251.293 237.453 233.29 252.34C232.044 253.175 230.54 253.537 229.051 253.359C227.562 253.182 226.185 252.477 225.17 251.373C224.155 250.268 223.569 248.837 223.517 247.338C223.466 245.839 223.953 244.371 224.89 243.2C237.442 227.821 246.097 209.639 250.12 190.2C254.906 188.669 259.116 185.724 262.195 181.752C265.274 177.78 267.076 172.969 267.366 167.952C267.655 162.935 266.417 157.948 263.815 153.649C261.213 149.35 257.369 145.941 252.79 143.87C252.5 124.528 244.801 106.034 231.28 92.2C230.124 91.0976 229.426 89.5992 229.327 88.0046C229.228 86.4101 229.735 84.8369 230.746 83.5998C231.757 82.3627 233.197 81.5528 234.78 81.3322C236.362 81.1116 237.969 81.4966 239.28 82.41C250.854 94.108 259.853 108.098 265.7 123.48C266.265 124.938 267.112 126.271 268.193 127.402C269.273 128.532 270.566 129.439 271.998 130.069C273.429 130.7 274.97 131.042 276.534 131.077C278.097 131.111 279.652 130.837 281.11 130.27C282.258 129.837 283.331 129.226 284.29 128.46Z" fill="#F2A41F"/>
<path d="M283 118.82C283.111 120.321 282.678 121.812 281.781 123.021C280.883 124.229 279.581 125.075 278.111 125.402C276.642 125.73 275.104 125.518 273.778 124.805C272.452 124.092 271.427 122.926 270.89 121.52C263.848 102.971 252.443 86.3907 237.64 73.1802C238.709 68.2694 238.264 63.1499 236.363 58.4974C234.462 53.8448 231.196 49.878 226.994 47.1202C222.793 44.3625 217.854 42.9436 212.829 43.0507C207.804 43.1578 202.93 44.7859 198.85 47.7202C181.957 38.2956 162.091 35.7147 143.35 40.5102C141.828 40.9326 140.203 40.7716 138.793 40.0587C137.383 39.3458 136.291 38.1322 135.729 36.6558C135.167 35.1794 135.177 33.5464 135.756 32.0767C136.335 30.607 137.442 29.4064 138.86 28.7102C154.775 24.5336 171.388 23.7365 187.63 26.3702C190.751 26.8501 193.935 26.0719 196.483 24.2064C199.031 22.3409 200.735 19.5405 201.22 16.4202C201.415 15.1744 201.415 13.9059 201.22 12.6602C222.512 22.2917 241.108 37.0126 255.37 55.5256C269.631 74.0386 279.12 95.7753 283 118.82Z" fill="#FF7D1F"/>
<path d="M242.54 146C246.599 146.002 250.566 147.207 253.94 149.463C257.314 151.718 259.944 154.924 261.497 158.674C263.05 162.423 263.457 166.549 262.666 170.53C261.876 174.511 259.923 178.168 257.054 181.04C254.185 183.911 250.53 185.868 246.55 186.663C242.57 187.457 238.443 187.054 234.692 185.505C230.941 183.955 227.733 181.329 225.474 177.957C223.215 174.585 222.006 170.619 222 166.56C221.995 163.86 222.522 161.186 223.552 158.69C224.582 156.195 226.095 153.927 228.003 152.017C229.911 150.107 232.177 148.593 234.672 147.56C237.166 146.528 239.84 145.997 242.54 146Z" fill="#F2A41F"/>
<path d="M237 189.46C237.831 189.519 238.642 189.74 239.386 190.113C240.131 190.486 240.795 191.002 241.339 191.632C241.884 192.262 242.299 192.994 242.56 193.784C242.821 194.575 242.923 195.41 242.86 196.24C238.524 212.109 230.91 226.894 220.51 239.64C219.53 240.86 218.8 242.261 218.361 243.763C217.922 245.265 217.784 246.839 217.954 248.395C218.124 249.95 218.599 251.457 219.351 252.829C220.104 254.201 221.12 255.411 222.34 256.39C223.316 257.181 224.414 257.809 225.59 258.25C206.6 271.878 184.55 280.625 161.382 283.721C138.215 286.816 114.641 284.165 92.74 276C91.3838 275.347 90.308 274.227 89.7092 272.846C89.1105 271.464 89.0287 269.914 89.4788 268.477C89.929 267.041 90.881 265.814 92.161 265.021C93.4409 264.229 94.9633 263.923 96.45 264.16C116.035 267.339 136.099 265.751 154.94 259.53C158.657 262.912 163.313 265.088 168.292 265.769C173.271 266.451 178.34 265.607 182.83 263.349C187.319 261.09 191.019 257.524 193.44 253.12C195.861 248.716 196.889 243.681 196.39 238.68C213.002 228.76 225.172 212.842 230.39 194.21C230.757 192.768 231.621 191.501 232.83 190.632C234.039 189.763 235.516 189.348 237 189.46Z" fill="#4CC7D9"/>
<path d="M213.36 47.3604C217.42 47.3604 221.39 48.5644 224.766 50.8203C228.142 53.0761 230.773 56.2825 232.327 60.0339C233.881 63.7852 234.288 67.9131 233.496 71.8956C232.703 75.878 230.748 79.5361 227.877 82.4072C225.006 85.2784 221.348 87.2337 217.365 88.0259C213.383 88.818 209.255 88.4115 205.504 86.8576C201.752 85.3037 198.546 82.6724 196.29 79.2962C194.034 75.9201 192.83 71.9508 192.83 67.8904C192.83 62.4455 194.993 57.2236 198.843 53.3734C202.693 49.5233 207.915 47.3604 213.36 47.3604Z" fill="#FF7D1F"/>
<path d="M192.24 9.00007C193.594 9.65405 194.668 10.7729 195.266 12.1526C195.864 13.5323 195.946 15.081 195.498 16.5162C195.049 17.9515 194.1 19.1778 192.823 19.9715C191.545 20.7652 190.025 21.0735 188.54 20.8401C168.94 17.6423 148.858 19.2238 130 25.4501C126.282 22.0808 121.631 19.9163 116.659 19.2417C111.687 18.5672 106.628 19.414 102.146 21.6709C97.6652 23.9277 93.9725 27.4887 91.5544 31.8851C89.1364 36.2814 88.1064 41.307 88.6 46.3001C71.9863 56.2136 59.8149 72.1295 54.6 90.7601C54.2107 92.2949 53.261 93.6286 51.938 94.4986C50.6149 95.3686 49.0141 95.712 47.4506 95.4612C45.8871 95.2104 44.474 94.3837 43.4894 93.1435C42.5048 91.9034 42.0198 90.3397 42.13 88.7601C46.4734 72.8937 54.0863 58.1107 64.48 45.3601C65.472 44.1426 66.2132 42.7408 66.6609 41.2355C67.1086 39.7302 67.2539 38.1511 67.0884 36.5894C66.9229 35.0277 66.45 33.5141 65.6968 32.1361C64.9436 30.758 63.9251 29.5426 62.7 28.5601C61.716 27.7778 60.6162 27.1537 59.44 26.7101C78.4262 13.0948 100.47 4.35808 123.628 1.2697C146.787 -1.81868 170.349 0.836079 192.24 9.00007Z" fill="#D72A34"/>
<path d="M171.66 220.64C175.721 220.638 179.691 221.84 183.069 224.095C186.446 226.349 189.079 229.555 190.634 233.306C192.19 237.057 192.598 241.186 191.807 245.169C191.016 249.152 189.061 252.811 186.19 255.683C183.32 258.555 179.662 260.511 175.679 261.304C171.696 262.097 167.568 261.691 163.816 260.138C160.064 258.584 156.857 255.953 154.601 252.577C152.344 249.2 151.14 245.231 151.14 241.17C151.14 235.726 153.302 230.506 157.15 226.656C160.998 222.806 166.217 220.642 171.66 220.64Z" fill="#4CC7D9"/>
<path d="M149.06 247.8C149.794 249.313 149.898 251.056 149.349 252.646C148.8 254.236 147.642 255.543 146.13 256.28C130.21 260.449 113.595 261.243 97.35 258.61C95.4916 258.327 93.5927 258.488 91.8081 259.078C90.0235 259.669 88.4038 260.673 87.0809 262.009C85.7581 263.344 84.7695 264.973 84.1959 266.764C83.6223 268.554 83.4797 270.454 83.78 272.31C62.4904 262.68 43.8958 247.962 29.6346 229.453C15.3733 210.944 5.88306 189.211 2 166.17C1.90242 164.675 2.34209 163.195 3.23971 161.996C4.13732 160.798 5.43378 159.959 6.89522 159.632C8.35667 159.305 9.88687 159.511 11.2098 160.213C12.5328 160.915 13.5613 162.066 14.11 163.46C21.1465 182.009 32.5482 198.59 47.35 211.8C46.2754 216.712 46.7169 221.834 48.616 226.49C50.5151 231.146 53.7824 235.116 57.986 237.875C62.1896 240.634 67.1316 242.052 72.1586 241.942C77.1855 241.832 82.0609 240.2 86.14 237.26C103.029 246.685 122.893 249.266 141.63 244.47C143.062 244.064 144.592 244.176 145.95 244.784C147.309 245.393 148.41 246.461 149.06 247.8Z" fill="#895594"/>
<path d="M113.32 23.29C117.38 23.292 121.348 24.4978 124.723 26.7548C128.098 29.0119 130.728 32.2189 132.28 35.9705C133.832 39.722 134.238 43.8496 133.444 47.8314C132.651 51.8131 130.695 55.4703 127.823 58.3405C124.952 61.2106 121.294 63.1649 117.312 63.9563C113.329 64.7476 109.202 64.3405 105.451 62.7863C101.7 61.2322 98.4947 58.6008 96.2392 55.2249C93.9838 51.8489 92.78 47.8801 92.78 43.82C92.78 41.1232 93.3114 38.4527 94.3437 35.9612C95.3761 33.4698 96.8892 31.2061 98.7966 29.2996C100.704 27.3931 102.968 25.8811 105.46 24.8499C107.952 23.8188 110.623 23.2887 113.32 23.29Z" fill="#D72A34"/>
<path d="M71.63 196.57C75.6904 196.572 79.6591 197.778 83.0342 200.036C86.4092 202.293 89.039 205.501 90.5911 209.253C92.1431 213.005 92.5477 217.133 91.7536 221.115C90.9595 225.097 89.0024 228.755 86.1298 231.624C83.2573 234.494 79.5982 236.448 75.6154 237.238C71.6326 238.028 67.5049 237.619 63.7543 236.064C60.0037 234.508 56.7986 231.875 54.5444 228.498C52.2902 225.121 51.088 221.151 51.09 217.09C51.09 214.394 51.6214 211.724 52.6539 209.233C53.6864 206.742 55.1997 204.479 57.1072 202.573C59.0148 200.668 61.2793 199.157 63.7712 198.127C66.2631 197.097 68.9336 196.568 71.63 196.57Z" fill="#895594"/>
<path d="M59.17 33.0001C60.4721 34.0394 61.3087 35.5529 61.4962 37.2083C61.6836 38.8637 61.2067 40.5259 60.17 41.8301C47.6214 57.2115 38.9668 75.392 34.94 94.8301C30.1536 96.361 25.9436 99.3064 22.8649 103.278C19.7863 107.25 17.9835 112.061 17.6944 117.078C17.4053 122.095 18.6434 127.082 21.2454 131.381C23.8474 135.68 27.6912 139.09 32.27 141.16C32.5663 160.498 40.2645 178.986 53.78 192.82C54.9363 193.923 55.6337 195.421 55.7328 197.016C55.8318 198.61 55.3252 200.183 54.3143 201.42C53.3034 202.657 51.8627 203.467 50.2803 203.688C48.698 203.908 47.0907 203.524 45.78 202.61C34.207 190.913 25.2107 176.923 19.37 161.54C18.6888 159.786 17.6019 158.219 16.1982 156.967C14.7946 155.714 13.1142 154.812 11.2947 154.334C9.47516 153.856 7.56827 153.815 5.73021 154.216C3.89215 154.617 2.1752 155.448 0.719999 156.64C-1.60357 133.372 1.8352 109.889 10.7329 88.2638C19.6306 66.6386 33.7138 47.5356 51.74 32.6401C52.8558 31.9022 54.1778 31.5393 55.5139 31.6041C56.8501 31.6688 58.1308 32.1578 59.17 33.0001Z" fill="#6C7C89"/>
<path d="M42.45 97.8896C46.5104 97.8896 50.4797 99.0937 53.8559 101.35C57.232 103.605 59.8634 106.812 61.4172 110.563C62.9711 114.315 63.3777 118.442 62.5855 122.425C61.7934 126.407 59.8381 130.065 56.9669 132.937C54.0957 135.808 50.4376 137.763 46.4552 138.555C42.4728 139.347 38.3449 138.941 34.5935 137.387C30.8421 135.833 27.6358 133.202 25.3799 129.826C23.1241 126.449 21.92 122.48 21.92 118.42C21.92 112.975 24.083 107.753 27.9331 103.903C31.7832 100.053 37.0051 97.8896 42.45 97.8896Z" fill="#6C7C89"/>
<path d="M121 90V200H111.45V100.586L84.4458 117.459L80 110.346L112.767 90H121Z" fill="black"/>
<path d="M149.52 177.504L150.896 178.368L136.048 200.768L134.704 199.872L149.52 177.504ZM136.496 178.368C137.925 178.368 139.077 178.837 139.952 179.776C140.827 180.715 141.264 181.973 141.264 183.552C141.264 185.131 140.827 186.4 139.952 187.36C139.099 188.299 137.947 188.768 136.496 188.768C135.067 188.768 133.904 188.299 133.008 187.36C132.133 186.421 131.696 185.163 131.696 183.584C131.696 182.005 132.133 180.747 133.008 179.808C133.883 178.848 135.045 178.368 136.496 178.368ZM136.496 179.712C135.429 179.712 134.651 180.075 134.16 180.8C133.669 181.525 133.424 182.453 133.424 183.584C133.424 184.693 133.669 185.611 134.16 186.336C134.651 187.061 135.429 187.424 136.496 187.424C137.563 187.424 138.331 187.061 138.8 186.336C139.291 185.611 139.536 184.683 139.536 183.552C139.536 182.443 139.291 181.525 138.8 180.8C138.331 180.075 137.563 179.712 136.496 179.712ZM148.88 189.952C150.309 189.952 151.461 190.421 152.336 191.36C153.232 192.299 153.68 193.547 153.68 195.104C153.68 196.704 153.243 197.984 152.368 198.944C151.493 199.883 150.331 200.352 148.88 200.352C147.472 200.352 146.32 199.883 145.424 198.944C144.549 197.984 144.112 196.725 144.112 195.168C144.112 193.568 144.539 192.299 145.392 191.36C146.267 190.421 147.429 189.952 148.88 189.952ZM148.88 191.296C147.835 191.296 147.067 191.659 146.576 192.384C146.085 193.109 145.84 194.037 145.84 195.168C145.84 196.277 146.085 197.195 146.576 197.92C147.067 198.645 147.835 199.008 148.88 199.008C149.947 199.008 150.725 198.645 151.216 197.92C151.707 197.195 151.952 196.256 151.952 195.104C151.952 194.016 151.707 193.109 151.216 192.384C150.725 191.659 149.947 191.296 148.88 191.296Z" fill="black"/>
<path d="M133.108 109V89.82H142.684L142.488 91.22H134.788V98.696H141.424V100.096H134.788V109H133.108ZM150.504 94.048C152.445 94.048 153.957 94.72 155.04 96.064C156.141 97.3893 156.692 99.2467 156.692 101.636C156.692 104.007 156.132 105.883 155.012 107.264C153.911 108.627 152.399 109.308 150.476 109.308C148.535 109.308 147.013 108.636 145.912 107.292C144.829 105.929 144.288 104.063 144.288 101.692C144.288 100.143 144.54 98.7893 145.044 97.632C145.548 96.4747 146.267 95.588 147.2 94.972C148.133 94.356 149.235 94.048 150.504 94.048ZM150.504 95.42C149.085 95.42 147.984 95.952 147.2 97.016C146.416 98.08 146.024 99.6387 146.024 101.692C146.024 103.727 146.407 105.276 147.172 106.34C147.956 107.404 149.057 107.936 150.476 107.936C151.895 107.936 152.996 107.404 153.78 106.34C154.583 105.276 154.984 103.708 154.984 101.636C154.984 99.6013 154.592 98.0613 153.808 97.016C153.043 95.952 151.941 95.42 150.504 95.42ZM167.144 94.048C167.723 94.048 168.208 94.104 168.6 94.216L168.292 95.756C167.882 95.644 167.452 95.588 167.004 95.588C166.015 95.588 165.212 95.952 164.596 96.68C163.999 97.3893 163.495 98.5093 163.084 100.04V109H161.46V94.356H162.86L163 97.632C163.392 96.4187 163.924 95.5227 164.596 94.944C165.287 94.3467 166.136 94.048 167.144 94.048ZM188.826 105.752C188.826 106.517 188.919 107.068 189.106 107.404C189.311 107.74 189.628 107.992 190.058 108.16L189.694 109.308C189.022 109.177 188.499 108.925 188.126 108.552C187.771 108.179 187.538 107.609 187.426 106.844C186.418 108.487 184.896 109.308 182.862 109.308C181.462 109.308 180.351 108.916 179.53 108.132C178.727 107.329 178.326 106.265 178.326 104.94C178.326 103.428 178.858 102.261 179.922 101.44C181.004 100.619 182.498 100.208 184.402 100.208H187.202V98.78C187.202 97.604 186.94 96.7547 186.418 96.232C185.895 95.6907 185.027 95.42 183.814 95.42C182.694 95.42 181.368 95.7 179.838 96.26L179.418 95.028C181.06 94.3747 182.6 94.048 184.038 94.048C187.23 94.048 188.826 95.5973 188.826 98.696V105.752ZM183.142 107.992C184.896 107.992 186.25 107.133 187.202 105.416V101.384H184.654C183.16 101.384 182.022 101.673 181.238 102.252C180.454 102.831 180.062 103.699 180.062 104.856C180.062 105.864 180.332 106.639 180.874 107.18C181.415 107.721 182.171 107.992 183.142 107.992ZM138.988 125.048C140.687 125.048 142.003 125.701 142.936 127.008C143.869 128.315 144.336 130.181 144.336 132.608C144.336 134.979 143.841 136.855 142.852 138.236C141.881 139.617 140.519 140.308 138.764 140.308C137.887 140.308 137.084 140.112 136.356 139.72C135.647 139.328 135.049 138.805 134.564 138.152L134.396 140H132.968V119.392L134.592 119.196V127.4C135.749 125.832 137.215 125.048 138.988 125.048ZM138.456 138.964C139.781 138.964 140.799 138.432 141.508 137.368C142.236 136.285 142.6 134.699 142.6 132.608C142.6 128.464 141.284 126.392 138.652 126.392C137.775 126.392 137.019 126.616 136.384 127.064C135.749 127.493 135.152 128.109 134.592 128.912V136.612C135.059 137.34 135.619 137.919 136.272 138.348C136.925 138.759 137.653 138.964 138.456 138.964ZM159.626 132.132C159.626 132.543 159.607 132.935 159.57 133.308H149.798C149.891 135.212 150.339 136.631 151.142 137.564C151.963 138.479 153.036 138.936 154.362 138.936C155.127 138.936 155.799 138.824 156.378 138.6C156.975 138.357 157.619 137.984 158.31 137.48L159.066 138.516C158.338 139.113 157.591 139.561 156.826 139.86C156.06 140.159 155.211 140.308 154.278 140.308C152.336 140.308 150.815 139.645 149.714 138.32C148.612 136.995 148.062 135.156 148.062 132.804C148.062 131.255 148.295 129.901 148.762 128.744C149.247 127.568 149.928 126.663 150.806 126.028C151.702 125.375 152.738 125.048 153.914 125.048C155.78 125.048 157.199 125.683 158.17 126.952C159.14 128.203 159.626 129.929 159.626 132.132ZM158.03 131.628C158.03 129.985 157.684 128.707 156.994 127.792C156.322 126.859 155.314 126.392 153.97 126.392C152.756 126.392 151.776 126.859 151.03 127.792C150.283 128.725 149.872 130.144 149.798 132.048H158.03V131.628ZM170.913 139.384C169.98 140 168.953 140.308 167.833 140.308C166.713 140.308 165.836 139.981 165.201 139.328C164.567 138.656 164.249 137.695 164.249 136.444V126.672H161.785V125.356H164.249V121.856L165.873 121.66V125.356H169.653L169.457 126.672H165.873V136.36C165.873 137.219 166.051 137.863 166.405 138.292C166.76 138.703 167.301 138.908 168.029 138.908C168.776 138.908 169.523 138.693 170.269 138.264L170.913 139.384ZM180.456 139.384C179.523 140 178.496 140.308 177.376 140.308C176.256 140.308 175.379 139.981 174.744 139.328C174.11 138.656 173.792 137.695 173.792 136.444V126.672H171.328V125.356H173.792V121.856L175.416 121.66V125.356H179.196L179 126.672H175.416V136.36C175.416 137.219 175.594 137.863 175.948 138.292C176.303 138.703 176.844 138.908 177.572 138.908C178.319 138.908 179.066 138.693 179.812 138.264L180.456 139.384ZM193.395 132.132C193.395 132.543 193.376 132.935 193.339 133.308H183.567C183.66 135.212 184.108 136.631 184.911 137.564C185.732 138.479 186.806 138.936 188.131 138.936C188.896 138.936 189.568 138.824 190.147 138.6C190.744 138.357 191.388 137.984 192.079 137.48L192.835 138.516C192.107 139.113 191.36 139.561 190.595 139.86C189.83 140.159 188.98 140.308 188.047 140.308C186.106 140.308 184.584 139.645 183.483 138.32C182.382 136.995 181.831 135.156 181.831 132.804C181.831 131.255 182.064 129.901 182.531 128.744C183.016 127.568 183.698 126.663 184.575 126.028C185.471 125.375 186.507 125.048 187.683 125.048C189.55 125.048 190.968 125.683 191.939 126.952C192.91 128.203 193.395 129.929 193.395 132.132ZM191.799 131.628C191.799 129.985 191.454 128.707 190.763 127.792C190.091 126.859 189.083 126.392 187.739 126.392C186.526 126.392 185.546 126.859 184.799 127.792C184.052 128.725 183.642 130.144 183.567 132.048H191.799V131.628ZM203.703 125.048C204.281 125.048 204.767 125.104 205.159 125.216L204.851 126.756C204.44 126.644 204.011 126.588 203.563 126.588C202.573 126.588 201.771 126.952 201.155 127.68C200.557 128.389 200.053 129.509 199.643 131.04V140H198.019V125.356H199.419L199.559 128.632C199.951 127.419 200.483 126.523 201.155 125.944C201.845 125.347 202.695 125.048 203.703 125.048ZM148.844 156.356L145.26 171H143.076L139.828 157.868L136.524 171H134.368L130.7 156.356H132.38L135.516 169.74L138.932 156.356H140.78L144.14 169.768L147.248 156.356H148.844ZM157.559 156.048C159.5 156.048 161.012 156.72 162.095 158.064C163.196 159.389 163.747 161.247 163.747 163.636C163.747 166.007 163.187 167.883 162.067 169.264C160.965 170.627 159.453 171.308 157.531 171.308C155.589 171.308 154.068 170.636 152.967 169.292C151.884 167.929 151.343 166.063 151.343 163.692C151.343 162.143 151.595 160.789 152.099 159.632C152.603 158.475 153.321 157.588 154.255 156.972C155.188 156.356 156.289 156.048 157.559 156.048ZM157.559 157.42C156.14 157.42 155.039 157.952 154.255 159.016C153.471 160.08 153.079 161.639 153.079 163.692C153.079 165.727 153.461 167.276 154.227 168.34C155.011 169.404 156.112 169.936 157.531 169.936C158.949 169.936 160.051 169.404 160.835 168.34C161.637 167.276 162.039 165.708 162.039 163.636C162.039 161.601 161.647 160.061 160.863 159.016C160.097 157.952 158.996 157.42 157.559 157.42ZM174.199 156.048C174.778 156.048 175.263 156.104 175.655 156.216L175.347 157.756C174.936 157.644 174.507 157.588 174.059 157.588C173.07 157.588 172.267 157.952 171.651 158.68C171.054 159.389 170.55 160.509 170.139 162.04V171H168.515V156.356H169.915L170.055 159.632C170.447 158.419 170.979 157.523 171.651 156.944C172.342 156.347 173.191 156.048 174.199 156.048ZM181.396 171.308C180.594 171.308 179.959 171.075 179.492 170.608C179.044 170.141 178.82 169.451 178.82 168.536V150.392L180.444 150.196V168.48C180.444 169.432 180.836 169.908 181.62 169.908C182.012 169.908 182.348 169.843 182.628 169.712L183.076 170.916C182.554 171.177 181.994 171.308 181.396 171.308ZM197.225 150.392V171H195.825L195.629 168.76C194.621 170.459 193.155 171.308 191.233 171.308C189.534 171.308 188.19 170.636 187.201 169.292C186.23 167.929 185.745 166.081 185.745 163.748C185.745 162.236 185.969 160.901 186.417 159.744C186.883 158.587 187.546 157.681 188.405 157.028C189.282 156.375 190.309 156.048 191.485 156.048C193.146 156.048 194.518 156.711 195.601 158.036V150.196L197.225 150.392ZM191.485 169.964C192.418 169.964 193.202 169.74 193.837 169.292C194.49 168.844 195.078 168.163 195.601 167.248V159.604C194.555 158.129 193.277 157.392 191.765 157.392C190.439 157.392 189.385 157.943 188.601 159.044C187.835 160.145 187.462 161.704 187.481 163.72C187.481 165.736 187.835 167.285 188.545 168.368C189.254 169.432 190.234 169.964 191.485 169.964Z" fill="black"/>
</svg>
