<svg fill="none" height="75" viewBox="0 0 481 75" width="481" xmlns="http://www.w3.org/2000/svg" xmlns:xlink="http://www.w3.org/1999/xlink"><clipPath id="a"><path d="m0 0h245v75h-245z"/></clipPath><g clip-path="url(#a)"><g fill="#2b6cad"><path d="m16.9232 1.55896h-16.401716v67.09014h16.401716z"/><path d="m27.6924 18.7715v49.8776h15.0009v-29.3705c0-3.5866.6391-6.1152 1.9174-7.5857 1.2783-1.4679 3.422-2.2045 6.4313-2.2045 2.5565 0 4.4233.7902 5.6057 2.3679 1.1823 1.5777 1.7709 4.0527 1.7709 7.4223v29.3705h15.0036v-30.1125c0-7.0821-1.3182-12.3428-3.9573-15.7741-2.6364-3.4339-6.655-5.1509-12.0583-5.1509-3.0225 0-5.7495.4795-8.1782 1.4384-2.426.959-4.6044 2.4134-6.5351 4.3607v-4.6392z"/><path d="m84.3939 29.1188v39.5303h15.0036v-39.5303h9.3095v-9.142h-9.3095v-1.9018c0-2.041.4394-3.4018 1.3265-4.0821.884-.6804 2.708-1.0205 5.475-1.0205h2.508v-10.44112c-1.443-.34018-2.828-.58661-4.157-.74196-1.328-.15536-2.636-.23036-3.914-.23036-5.8323 0-10.0292 1.16786-12.5911 3.50089-2.5618 2.33572-3.8427 6.15005-3.8427 11.43755 0 .3723.0053.7875.0239 1.2535.016.4634.0719 1.2054.1678 2.2259h-7.6216v9.142z"/><path clip-rule="evenodd" d="m116.398 62.9866c4.906 4.859 11.377 7.2858 19.419 7.2858 8.037 0 14.527-2.4349 19.462-7.3072 4.937-4.8723 7.406-11.2821 7.406-19.2321 0-7.9822-2.453-14.4054-7.358-19.2777-4.903-4.8723-11.409-7.3072-19.51-7.3072-8.01 0-14.473 2.4429-19.392 7.3286-4.921 4.8884-7.382 11.3063-7.382 19.2563 0 7.9794 2.453 14.4 7.355 19.2535zm11.097-8.4187c-2.074-2.6759-3.113-6.2866-3.113-10.8348 0-4.484 1.047-8.0893 3.137-10.8107 2.091-2.7215 4.855-4.0822 8.298-4.0822 3.502 0 6.293 1.3447 8.368 4.0366 2.074 2.6893 3.11 6.3081 3.11 10.8563 0 4.516-1.044 8.1187-3.134 10.8107-2.091 2.6919-4.871 4.0366-8.344 4.0366-3.475 0-6.247-1.3366-8.322-4.0125z" fill-rule="evenodd"/></g><path d="m202.465 56.2123c5.316 0 9.462-1.8455 12.442-5.5419 2.977-3.6965 4.466-8.8554 4.466-15.4742 0-6.6187-1.497-11.7937-4.493-15.5196-2.995-3.7286-7.131-5.5928-12.415-5.5928-5.249 0-9.379 1.8803-12.388 5.6383-3.012 3.7581-4.517 8.917-4.517 15.4741 0 6.5572 1.497 11.7 4.49 15.4259 2.996 3.7286 7.135 5.5902 12.415 5.5902zm17.728 9.8839c-2.479 1.3608-5.214 2.3974-8.207 3.1099-2.994.7098-6.165 1.066-9.513 1.066-10.268 0-18.484-3.1848-24.649-9.5571-6.162-6.3723-9.246-14.8795-9.246-25.5188 0-5.8151.94-11.0196 2.826-15.6133 1.882-4.5938 4.689-8.5152 8.423-11.76165 2.993-2.59821 6.38-4.54821 10.162-5.84732 3.782-1.299105 7.939-1.9473187 12.476-1.9473187 10.234 0 18.442 3.2008887 24.62 9.6053587 6.178 6.40183 9.268 14.92233 9.268 25.56423 0 4.4545-.514 8.4831-1.542 12.0858-1.031 3.6053-2.621 6.8598-4.778 9.766 1.931 1.7009 4.037 3.0563 6.32 4.0607 2.284 1.0045 4.729 1.6474 7.334 1.9259l-5.018 11.9706c-3.794-.3723-7.243-1.3072-10.346-2.8072-3.105-1.5026-5.813-3.5357-8.13-6.1018" fill="#1e8d44"/></g><g fill="#000"><path d="m261 19h1v38h-1z"/><path d="m298.353 33.8975 4.784 20.1025h3.728l5.571-32.4111h-3.751l-1.955 12.9824-1.954 13.499h-.247l-4.537-19.0693h-3.549l-4.537 19.0693h-.247l-1.954-13.499-1.954-12.9824h-3.751l5.57 32.4111h3.729l4.784-20.1025z"/><path d="m336.738 50.3613h-15.161v-11.1406h14.33v-3.4814h-14.33v-10.5118h15.161v-3.6386h-19.136v32.4111h19.136z"/><path d="m355.695 54c6.963 0 11.096-3.3691 11.096-9.0518 0-4.3349-2.853-7.5019-7.21-7.9287v-.3369c3.257-.5615 5.57-3.5039 5.57-7.0752 0-5.0312-3.593-8.0185-9.568-8.0185h-10.489v32.4111zm-6.671-28.9971h5.661c4.132 0 6.468 1.9092 6.468 5.3008 0 3.4141-2.47 5.2783-7.075 5.2783h-5.054zm0 25.5606v-11.6797h5.683c5.256 0 7.974 1.9766 7.974 5.7949 0 3.8633-2.696 5.8848-7.839 5.8848z"/><path d="m392.06 54v-3.5264h-6.559v-25.3584h6.559v-3.5263h-17.071v3.5263h6.559v25.3584h-6.559v3.5264z"/><path d="m404.75 54v-25.291h.314l13.926 25.291h3.751v-32.4111h-3.571v25.2236h-.315l-13.88-25.2236h-3.796v32.4111z"/><path d="m448.773 54h4.178l-10.444-32.4111h-4.223l-10.444 32.4111h4.02l2.83-9.2988h11.276zm-8.49-27.6494h.113l4.537 14.959h-9.209z"/><path d="m470.066 41.085 6.042 12.915h4.47l-6.603-13.7236c3.683-1.2129 6.042-4.6944 6.042-8.9395 0-6.0195-4.021-9.748-10.445-9.748h-10.871v32.4111h3.908v-12.915zm-7.457-15.9698h6.604c4.335 0 6.806 2.291 6.806 6.3116 0 4.0429-2.516 6.3115-6.986 6.3115h-6.424z"/></g></svg>