<svg width="177" height="54" viewBox="0 0 177 54" fill="none" xmlns="http://www.w3.org/2000/svg">
<path d="M0.377075 1.12244H12.2265V49.4274H0.377075V1.12244Z" fill="white"/>
<path d="M20.0068 49.4274V13.5154H30.8442V16.8557C32.239 15.4537 33.8128 14.4064 35.5655 13.716C37.3201 13.0256 39.2902 12.6804 41.4738 12.6804C45.3774 12.6804 48.2806 13.9166 50.1853 16.389C52.0919 18.8595 53.0442 22.6472 53.0442 27.7464V49.4274H42.2049V28.2806C42.2049 25.8544 41.7797 24.0724 40.9255 22.9365C40.0713 21.8006 38.7226 21.2317 36.8756 21.2317C34.7016 21.2317 33.1529 21.762 32.2294 22.8189C31.3059 23.8777 30.8442 25.6982 30.8442 28.2806V49.4274H20.0068ZM60.9707 49.4274V20.9655H55.4645V14.3833H60.9707C60.9015 13.6485 60.8611 13.1143 60.8495 12.7807C60.8361 12.4451 60.8322 12.1462 60.8322 11.8781C60.8322 8.07108 61.7576 5.32479 63.6084 3.64308C65.4592 1.96329 68.4913 1.12244 72.7047 1.12244C73.6282 1.12244 74.5728 1.17644 75.5328 1.28829C76.4929 1.40015 77.4933 1.57758 78.5361 1.82251V9.34008H76.7237C74.7248 9.34008 73.4069 9.58501 72.7682 10.0749C72.1275 10.5647 71.8101 11.5444 71.8101 13.014V14.3833H78.5361V20.9655H71.8101V49.4274H60.9707ZM89.8602 31.4878C89.8602 34.7625 90.6105 37.3622 92.1093 39.2889C93.608 41.2155 95.6108 42.1779 98.1215 42.1779C100.63 42.1779 102.639 41.2097 104.149 39.2715C105.659 37.3333 106.414 34.7394 106.414 31.4878C106.414 28.2131 105.665 25.6076 104.166 23.6713C102.668 21.7331 100.651 20.7649 98.1215 20.7649C95.6339 20.7649 93.6369 21.7447 92.1266 23.7041C90.6163 25.6635 89.8602 28.2594 89.8602 31.4878ZM98.1215 50.5961C92.3113 50.5961 87.6362 48.8488 84.0923 45.3504C80.5504 41.8558 78.7785 37.233 78.7785 31.4878C78.7785 25.7638 80.5562 21.1429 84.1116 17.6233C87.665 14.1056 92.3344 12.3467 98.1215 12.3467C103.974 12.3467 108.674 14.0998 112.216 17.6079C115.76 21.1159 117.532 25.7407 117.532 31.4878C117.532 37.2118 115.748 41.8269 112.181 45.3349C108.616 48.843 103.928 50.5961 98.1215 50.5961Z" fill="white"/>
<path d="M146.271 40.473C150.111 40.473 153.107 39.1442 155.26 36.4828C157.411 33.8214 158.486 30.1069 158.486 25.3414C158.486 20.5759 157.405 16.8499 155.241 14.1673C153.076 11.4827 150.088 10.1404 146.271 10.1404C142.479 10.1404 139.495 11.4943 137.321 14.2001C135.145 16.9059 134.058 20.6203 134.058 25.3414C134.058 30.0626 135.14 33.7654 137.302 36.4481C139.466 39.1326 142.456 40.473 146.271 40.473ZM159.079 47.5894C157.288 48.5691 155.312 49.3155 153.149 49.8285C150.987 50.3396 148.695 50.5961 146.277 50.5961C138.858 50.5961 132.923 48.303 128.469 43.7149C124.017 39.1269 121.789 33.0017 121.789 25.3414C121.789 21.1545 122.469 17.4073 123.831 14.0998C125.191 10.7923 127.219 7.96886 129.916 5.63143C132.079 3.76072 134.526 2.35672 137.258 1.42136C139.99 0.486001 142.993 0.0192871 146.271 0.0192871C153.665 0.0192871 159.594 2.32393 164.058 6.93514C168.521 11.5444 170.753 17.6792 170.753 25.3414C170.753 28.5486 170.382 31.4492 169.639 34.0431C168.895 36.639 167.746 38.9822 166.188 41.0747C167.582 42.2994 169.104 43.2752 170.753 43.9984C172.404 44.7216 174.17 45.1845 176.052 45.3851L172.427 54.0039C169.685 53.7358 167.194 53.0627 164.952 51.9827C162.709 50.9008 160.753 49.437 159.079 47.5894Z" fill="white"/>
</svg>
