<svg fill="none" height="200" viewBox="0 0 371 200" width="371" xmlns="http://www.w3.org/2000/svg" xmlns:xlink="http://www.w3.org/1999/xlink"><clipPath id="a"><path d="m55 65h163.333v50h-163.333z"/></clipPath><path d="m0 0h371v200h-371z" fill="#f0f0f0"/><path d="m115.706 166.315-.149-5.115h.131l2.374 6.821h1.353l2.373-6.821h.132l-.149 5.115v4.685h1.59v-12.683h-1.995l-2.566 7.708h-.123l-2.575-7.708h-1.987v12.683h1.591zm14.317-7.136c.791 0 1.363-.545 1.363-1.301 0-.765-.572-1.31-1.363-1.31-.782 0-1.362.545-1.362 1.31 0 .756.58 1.301 1.362 1.301zm4.043 11.821v-1.424h-3.093v-8.156h-4.878v1.424h3.155v6.732h-3.226v1.424zm11.022-6.495c-.237-2.074-1.688-3.278-3.92-3.278-2.663 0-4.201 1.59-4.201 4.385v1.178c0 2.795 1.538 4.395 4.201 4.395 2.232 0 3.683-1.205 3.92-3.244h-1.74c-.176 1.081-1.02 1.723-2.198 1.723-1.555 0-2.417-1.09-2.417-3.059v-.808c0-1.969.862-3.059 2.417-3.059 1.169 0 2.031.659 2.198 1.767zm6.715 2.224c0-2.347 1.204-3.692 3.366-3.692.527 0 1.151.114 1.582.273v-1.934c-.316-.132-.835-.202-1.38-.202-1.837 0-2.953.888-3.331 2.689h-.246v-2.443h-3.788v1.353h2.083v6.873h-1.899v1.354h6.522v-1.354h-2.909zm11.443 4.456c2.584 0 4.228-1.653 4.228-4.246v-1.45c0-2.601-1.644-4.245-4.228-4.245s-4.227 1.644-4.227 4.245v1.45c0 2.593 1.643 4.246 4.227 4.246zm0-8.447c1.529 0 2.487 1.099 2.487 2.874v1.204c0 1.776-.958 2.874-2.487 2.874s-2.487-1.098-2.487-2.874v-1.204c0-1.775.958-2.874 2.487-2.874zm7.524 1.327c0 1.398.87 2.277 2.619 2.672l1.432.325c1.16.264 1.591.625 1.591 1.328 0 .835-.773 1.371-1.977 1.371-1.161 0-1.952-.466-2.145-1.283h-1.775c.158 1.687 1.617 2.698 3.876 2.698 2.338 0 3.84-1.16 3.84-2.98 0-1.406-.852-2.215-2.742-2.636l-1.388-.308c-1.117-.246-1.582-.624-1.582-1.31 0-.791.729-1.318 1.854-1.318 1.055 0 1.802.483 1.96 1.266h1.688c-.159-1.661-1.53-2.663-3.622-2.663-2.197 0-3.629 1.125-3.629 2.838zm17.165 4.404c-.238.782-1.09 1.265-2.224 1.265-1.512 0-2.487-1.037-2.487-2.654v-.431h6.424v-1.037c0-2.724-1.52-4.377-4.025-4.377-2.487 0-4.131 1.661-4.131 4.184v1.459c0 2.725 1.538 4.307 4.228 4.307 2.065 0 3.647-1.108 3.902-2.716zm-2.33-5.792c1.451 0 2.312 1.028 2.312 2.733h-4.693c0-1.714.896-2.733 2.381-2.733zm10.706 4.052c0-2.347 1.204-3.692 3.366-3.692.527 0 1.151.114 1.582.273v-1.934c-.317-.132-.835-.202-1.38-.202-1.837 0-2.953.888-3.331 2.689h-.246v-2.443h-3.788v1.353h2.083v6.873h-1.899v1.354h6.522v-1.354h-2.909zm7.004-5.309 3.463 9.58h1.96l3.454-9.58h-1.872l-2.487 7.778h-.123l-2.505-7.778zm15.724-2.241c.791 0 1.362-.545 1.362-1.301 0-.765-.571-1.31-1.362-1.31-.782 0-1.362.545-1.362 1.31 0 .756.58 1.301 1.362 1.301zm4.043 11.821v-1.424h-3.094v-8.156h-4.878v1.424h3.156v6.732h-3.226v1.424zm11.022-6.495c-.238-2.074-1.688-3.278-3.92-3.278-2.663 0-4.202 1.59-4.202 4.385v1.178c0 2.795 1.539 4.395 4.202 4.395 2.232 0 3.682-1.205 3.92-3.244h-1.741c-.175 1.081-1.019 1.723-2.197 1.723-1.556 0-2.417-1.09-2.417-3.059v-.808c0-1.969.861-3.059 2.417-3.059 1.169 0 2.03.659 2.197 1.767zm9.465 3.964c-.237.782-1.09 1.265-2.223 1.265-1.512 0-2.488-1.037-2.488-2.654v-.431h6.425v-1.037c0-2.724-1.52-4.377-4.025-4.377-2.487 0-4.131 1.661-4.131 4.184v1.459c0 2.725 1.538 4.307 4.227 4.307 2.066 0 3.648-1.108 3.903-2.716zm-2.329-5.792c1.45 0 2.312 1.028 2.312 2.733h-4.694c0-1.714.897-2.733 2.382-2.733zm7.418 1.388c0 1.398.87 2.277 2.619 2.672l1.433.325c1.16.264 1.591.625 1.591 1.328 0 .835-.774 1.371-1.978 1.371-1.16 0-1.951-.466-2.144-1.283h-1.776c.159 1.687 1.618 2.698 3.876 2.698 2.338 0 3.841-1.16 3.841-2.98 0-1.406-.852-2.215-2.742-2.636l-1.389-.308c-1.116-.246-1.582-.624-1.582-1.31 0-.791.73-1.318 1.855-1.318 1.054 0 1.801.483 1.96 1.266h1.687c-.158-1.661-1.529-2.663-3.621-2.663-2.197 0-3.63 1.125-3.63 2.838z" fill="#000"/><path d="m169.068 146v-7.985h2.723v-1.175h-6.767v1.175h2.724v7.985zm11.038-3.853v-1.454c0-2.539-1.288-4.043-3.402-4.043s-3.402 1.504-3.402 4.043v1.454c0 2.539 1.288 4.043 3.402 4.043s3.402-1.504 3.402-4.043zm-3.402 2.837c-1.308 0-2.069-1.003-2.069-2.843v-1.441c0-1.841.761-2.844 2.069-2.844 1.307 0 2.069 1.003 2.069 2.844v1.441c0 1.84-.762 2.843-2.069 2.843zm5.44-8.144v9.16h1.326v-3.187h1.771c1.841 0 3.047-1.174 3.047-2.983 0-1.815-1.187-2.99-3.009-2.99zm1.326 1.13h1.486c1.288 0 1.986.648 1.986 1.86 0 1.206-.698 1.86-1.986 1.86h-1.486zm12.353 8.03v-1.149h-1.867v-6.862h1.867v-1.149h-5.053v1.149h1.866v6.862h-1.866v1.149zm5.972-1.022c-1.377 0-2.094-.933-2.094-2.71v-1.695c0-1.778.717-2.711 2.088-2.711 1.098 0 1.86.8 1.898 2h1.333c-.025-2.012-1.238-3.212-3.218-3.212-2.184 0-3.46 1.441-3.46 3.923v1.695c0 2.482 1.276 3.922 3.46 3.922 1.929 0 3.218-1.225 3.218-3.078h-1.333c-.025 1.155-.749 1.866-1.892 1.866z" fill="#979797"/><g clip-path="url(#a)"><g fill="#2b6cad"><path d="m66.2821 66.0393h-10.9344v44.7267h10.9344z"/><path d="m73.4616 77.5143v33.2517h10.0006v-19.5803c0-2.391.4261-4.0767 1.2783-5.0571.8522-.9786 2.2813-1.4696 4.2875-1.4696 1.7043 0 2.9489.5267 3.7371 1.5785.7883 1.0518 1.1806 2.7018 1.1806 4.9482v19.5803h10.0023v-20.0749c0-4.7214-.879-8.2286-2.638-10.5161-1.7577-2.2893-4.4367-3.4339-8.0389-3.4339-2.015 0-3.833.3196-5.4521.9589-1.6174.6393-3.0696 1.609-4.3568 2.9072v-3.0929z"/><path d="m111.263 84.4125v26.3535h10.002v-26.3535h6.207v-6.0946h-6.207v-1.2679c0-1.3607.293-2.2678.884-2.7214.59-.4536 1.806-.6804 3.65-.6804h1.673v-6.9607c-.963-.2268-1.886-.3911-2.772-.4946-.886-.1036-1.757-.1536-2.609-.1536-3.888 0-6.686.7786-8.394 2.3339-1.708 1.5572-2.562 4.1-2.562 7.625 0 .2483.003.525.016.8358.01.3089.048.8035.112 1.4839h-5.081v6.0946z"/><path clip-rule="evenodd" d="m132.599 106.991c3.27 3.239 7.584 4.857 12.946 4.857 5.358 0 9.685-1.623 12.974-4.871 3.292-3.248 4.938-7.5216 4.938-12.8216 0-5.3215-1.636-9.6036-4.906-12.8518-3.268-3.2482-7.605-4.8714-13.006-4.8714-5.34 0-9.649 1.6285-12.928 4.8857-3.281 3.2589-4.922 7.5375-4.922 12.8375 0 5.3196 1.636 9.5996 4.904 12.8356zm7.398-5.612c-1.383-1.7843-2.075-4.1915-2.075-7.2236 0-2.9893.697-5.3929 2.091-7.2072 1.394-1.8142 3.236-2.7214 5.532-2.7214 2.335 0 4.195.8964 5.578 2.6911 1.383 1.7928 2.074 4.2053 2.074 7.2375 0 3.0107-.696 5.4125-2.09 7.2076-1.394 1.794-3.247 2.691-5.562 2.691-2.317 0-4.165-.891-5.548-2.675z" fill-rule="evenodd"/></g><path d="m189.977 102.475c3.543 0 6.308-1.23 8.294-3.6947 1.985-2.4643 2.978-5.9036 2.978-10.3161s-.998-7.8625-2.996-10.3464c-1.997-2.4857-4.754-3.7286-8.276-3.7286-3.499 0-6.253 1.2536-8.259 3.759-2.008 2.5053-3.011 5.9446-3.011 10.316 0 4.3715.997 7.8 2.993 10.284 1.997 2.4858 4.756 3.7268 8.277 3.7268zm11.818 6.589c-1.653.907-3.476 1.598-5.471 2.073-1.996.474-4.11.711-6.342.711-6.846 0-12.323-2.123-16.433-6.371-4.108-4.248-6.164-9.9199-6.164-17.0128 0-3.8767.627-7.3464 1.884-10.4089 1.255-3.0625 3.126-5.6768 5.615-7.8411 1.996-1.7321 4.254-3.0321 6.775-3.8982 2.521-.866 5.293-1.2982 8.318-1.2982 6.822 0 12.294 2.134 16.413 6.4036 4.119 4.2678 6.178 9.9482 6.178 17.0428 0 2.9697-.342 5.6554-1.028 8.0572-.687 2.4036-1.747 4.5736-3.185 6.5106 1.287 1.134 2.692 2.038 4.213 2.707 1.523.67 3.153 1.098 4.89 1.284l-3.345 7.981c-2.53-.249-4.829-.872-6.897-1.872-2.071-1.002-3.876-2.357-5.421-4.068" fill="#1e8d44"/></g><g fill="#000"><path d="m229 77.6643h.666667v25.3333h-.666667z"/><path d="m261.136 98.5445h-10.242v-19.1517h-2.621v21.6072h12.863z"/><path d="m278.461 101v-2.3507h-4.372v-16.9056h4.372v-2.3509h-11.38v2.3509h4.372v16.9056h-4.372v2.3507z"/><path d="m291.803 97.8258h-.075l-5.6-18.433h-2.771l6.963 21.6072h2.815l6.963-21.6072h-2.665z"/><path d="m317.408 98.5745h-10.107v-7.4271h9.553v-2.321h-9.553v-7.0078h10.107v-2.4258h-12.758v21.6072h12.758z"/></g></svg>