<svg width="371" height="200" viewBox="0 0 371 200" fill="none" xmlns="http://www.w3.org/2000/svg">
<rect width="371" height="200" fill="#F0F0F0"/>
<g clip-path="url(#clip0)">
<path d="M66.2821 75.0393H55.3477V119.766H66.2821V75.0393Z" fill="#2B6CAD"/>
<path d="M73.4616 86.5143V119.766H83.4622V100.186C83.4622 97.7947 83.8883 96.109 84.7405 95.1286C85.5927 94.15 87.0218 93.659 89.028 93.659C90.7323 93.659 91.9769 94.1857 92.7651 95.2375C93.5534 96.2893 93.9457 97.9393 93.9457 100.186V119.766H103.948V99.6911C103.948 94.9697 103.069 91.4625 101.31 89.175C99.5523 86.8857 96.8733 85.7411 93.2711 85.7411C91.2561 85.7411 89.4381 86.0607 87.819 86.7C86.2016 87.3393 84.7494 88.309 83.4622 89.6072V86.5143H73.4616Z" fill="#2B6CAD"/>
<path d="M111.263 93.4125V119.766H121.265V93.4125H127.472V87.3179H121.265V86.05C121.265 84.6893 121.558 83.7822 122.149 83.3286C122.739 82.875 123.955 82.6482 125.799 82.6482H127.472V75.6875C126.509 75.4607 125.586 75.2964 124.7 75.1929C123.814 75.0893 122.943 75.0393 122.091 75.0393C118.203 75.0393 115.405 75.8179 113.697 77.3732C111.989 78.9304 111.135 81.4732 111.135 84.9982C111.135 85.2465 111.138 85.5232 111.151 85.834C111.161 86.1429 111.199 86.6375 111.263 87.3179H106.182V93.4125H111.263Z" fill="#2B6CAD"/>
<path fill-rule="evenodd" clip-rule="evenodd" d="M132.599 115.991C135.869 119.23 140.183 120.848 145.545 120.848C150.903 120.848 155.23 119.225 158.519 115.977C161.811 112.729 163.457 108.455 163.457 103.155C163.457 97.8339 161.821 93.5518 158.551 90.3036C155.283 87.0554 150.946 85.4322 145.545 85.4322C140.205 85.4322 135.896 87.0607 132.617 90.3179C129.336 93.5768 127.695 97.8554 127.695 103.155C127.695 108.475 129.331 112.755 132.599 115.991ZM139.997 110.379C138.614 108.595 137.922 106.188 137.922 103.155C137.922 100.166 138.619 97.7625 140.013 95.9482C141.407 94.134 143.249 93.2268 145.545 93.2268C147.88 93.2268 149.74 94.1232 151.123 95.9179C152.506 97.7107 153.197 100.123 153.197 103.155C153.197 106.166 152.501 108.568 151.107 110.363C149.713 112.157 147.86 113.054 145.545 113.054C143.228 113.054 141.38 112.163 139.997 110.379Z" fill="#2B6CAD"/>
<path d="M189.977 111.475C193.52 111.475 196.285 110.245 198.271 107.78C200.256 105.316 201.249 101.877 201.249 97.4642C201.249 93.0517 200.251 89.6017 198.253 87.1178C196.256 84.6321 193.499 83.3892 189.977 83.3892C186.478 83.3892 183.724 84.6428 181.718 87.1482C179.71 89.6535 178.707 93.0928 178.707 97.4642C178.707 101.836 179.704 105.264 181.7 107.748C183.697 110.234 186.456 111.475 189.977 111.475ZM201.795 118.064C200.142 118.971 198.319 119.662 196.324 120.137C194.328 120.611 192.214 120.848 189.982 120.848C183.136 120.848 177.659 118.725 173.549 114.477C169.441 110.229 167.385 104.557 167.385 97.4642C167.385 93.5875 168.012 90.1178 169.269 87.0553C170.524 83.9928 172.395 81.3785 174.884 79.2142C176.88 77.4821 179.138 76.1821 181.659 75.316C184.18 74.45 186.952 74.0178 189.977 74.0178C196.799 74.0178 202.271 76.1518 206.39 80.4214C210.509 84.6892 212.568 90.3696 212.568 97.4642C212.568 100.434 212.226 103.12 211.54 105.521C210.853 107.925 209.793 110.095 208.355 112.032C209.642 113.166 211.047 114.07 212.568 114.739C214.091 115.409 215.721 115.837 217.458 116.023L214.113 124.004C211.583 123.755 209.284 123.132 207.216 122.132C205.145 121.13 203.34 119.775 201.795 118.064" fill="#1E8D44"/>
</g>
<rect x="229" y="86.6643" width="0.666667" height="25.3333" fill="black"/>
<path d="M261.136 107.545H250.894V88.3928H248.273V110H261.136V107.545Z" fill="black"/>
<path d="M278.461 110V107.649H274.089V90.7437H278.461V88.3928H267.081V90.7437H271.453V107.649H267.081V110H278.461Z" fill="black"/>
<path d="M291.803 106.826H291.728L286.128 88.3928H283.357L290.32 110H293.135L300.098 88.3928H297.433L291.803 106.826Z" fill="black"/>
<path d="M317.408 107.574H307.301V100.147H316.854V97.8264H307.301V90.8186H317.408V88.3928H304.65V110H317.408V107.574Z" fill="black"/>
<defs>
<clipPath id="clip0">
<rect width="163.333" height="50" fill="white" transform="translate(55 74)"/>
</clipPath>
</defs>
</svg>
