<svg fill="none" height="200" viewBox="0 0 371 200" width="371" xmlns="http://www.w3.org/2000/svg" xmlns:xlink="http://www.w3.org/1999/xlink"><clipPath id="a"><path d="m40 78h143.733v44h-143.733z"/></clipPath><path d="m0 0h371v200h-371z" fill="#f0f0f0"/><g clip-path="url(#a)"><g fill="#2b6cad"><path d="m49.9285 78.9146h-9.6223v39.3594h9.6223z"/><path d="m56.2464 89.0126v29.2614h8.8006v-17.231c0-2.1037.3749-3.5872 1.1248-4.4499.75-.8611 2.0076-1.2933 3.7731-1.2933 1.4998 0 2.595.4636 3.2886 1.3892.6937.9256 1.039 2.3776 1.039 4.354v17.231h8.8021v-17.666c0-4.1547-.7734-7.241-2.3216-9.254-1.5467-2.0146-3.9043-3.0219-7.0742-3.0219-1.7732 0-3.3731.2813-4.7979.8439-1.4233.5626-2.7012 1.4158-3.8339 2.5583v-2.7217z"/><path d="m89.5113 95.083v23.191h8.8022v-23.191h5.4615v-5.3633h-5.4615v-1.1157c0-1.1974.2577-1.9957.778-2.3949.5187-.3991 1.5885-.5987 3.2125-.5987h1.471v-6.1254c-.846-.1996-1.659-.3442-2.438-.4353-.78-.0911-1.5471-.1351-2.2971-.1351-3.4214 0-5.8837.6851-7.3866 2.0538-1.503 1.3703-2.2544 3.608-2.2544 6.71 0 .2184.0031.462.014.7354.0094.2719.0422.7072.0984 1.3059h-4.4713v5.3633z"/><path clip-rule="evenodd" d="m108.287 114.952c2.878 2.851 6.675 4.274 11.393 4.274 4.715 0 8.522-1.428 11.417-4.286 2.897-2.859 4.345-6.619 4.345-11.283 0-4.6832-1.439-8.4514-4.317-11.3099-2.876-2.8584-6.693-4.2868-11.445-4.2868-4.7 0-8.491 1.4331-11.377 4.2994-2.887 2.8679-4.331 6.633-4.331 11.2973 0 4.681 1.439 8.448 4.315 11.295zm6.511-4.939c-1.218-1.57-1.827-3.688-1.827-6.356 0-2.631.614-4.746 1.841-6.3426 1.226-1.5966 2.848-2.3948 4.868-2.3948 2.054 0 3.692.7888 4.909 2.3681 1.217 1.5777 1.824 3.7003 1.824 6.3693 0 2.649-.612 4.763-1.838 6.342-1.227 1.579-2.858 2.368-4.895 2.368-2.039 0-3.665-.784-4.882-2.354z" fill-rule="evenodd"/></g><path d="m158.78 110.978c3.118 0 5.551-1.083 7.299-3.251 1.747-2.169 2.62-5.196 2.62-9.0785 0-3.883-.878-6.919-2.636-9.1049-1.757-2.1874-4.183-3.2811-7.283-3.2811-3.079 0-5.503 1.1031-7.268 3.3078-1.767 2.2047-2.65 5.2313-2.65 9.0782 0 3.8465.878 6.8635 2.634 9.0495 1.758 2.188 4.186 3.28 7.284 3.28zm10.4 5.798c-1.454.799-3.059 1.407-4.815 1.825-1.756.416-3.617.625-5.58.625-6.025 0-10.844-1.868-14.461-5.607-3.615-3.738-5.425-8.729-5.425-14.9705 0-3.4116.552-6.4649 1.658-9.1599 1.105-2.695 2.751-4.9955 4.942-6.9001 1.756-1.5243 3.743-2.6683 5.961-3.4304 2.219-.7622 4.658-1.1425 7.32-1.1425 6.004 0 10.819 1.8779 14.444 5.6352 3.624 3.7557 5.436 8.7544 5.436 14.9977 0 2.6135-.301 4.9765-.904 7.0905-.605 2.115-1.537 4.024-2.803 5.729 1.133.998 2.369 1.793 3.707 2.382 1.341.59 2.775.967 4.303 1.13l-2.943 7.023c-2.227-.218-4.25-.767-6.07-1.647-1.822-.881-3.41-2.074-4.77-3.58" fill="#1e8d44"/></g><g fill="#000"><path d="m193.121 89.1455h.586667v22.2933h-.586667z"/><path d="m215.035 97.8883 2.807 11.7937h2.187l3.268-19.0147h-2.201l-1.146 7.6163-1.146 7.9194h-.145l-2.662-11.1873h-2.082l-2.662 11.1873h-.145l-1.146-7.9194-1.147-7.6163h-2.2l3.268 19.0147h2.187l2.807-11.7937z"/><path d="m238.609 101.71v-3.0706c0-5.2576-2.649-8.3674-6.971-8.3674s-6.971 3.1098-6.971 8.3674v3.0706c0 5.257 2.649 8.367 6.971 8.367s6.971-3.11 6.971-8.367zm-6.971 6.167c-2.886 0-4.625-2.214-4.625-6.18v-3.0444c0-3.9663 1.739-6.1801 4.625-6.1801s4.625 2.2138 4.625 6.1801v3.0444c0 3.966-1.739 6.18-4.625 6.18z"/><path d="m249.045 102.105 3.545 7.577h2.622l-3.874-8.051c2.161-.712 3.544-2.7544 3.544-5.2449 0-3.5314-2.358-5.7188-6.127-5.7188h-6.378v19.0147h2.293v-7.577zm-4.375-9.3689h3.874c2.543 0 3.993 1.344 3.993 3.7027 0 2.3719-1.476 3.7032-4.098 3.7032h-3.769z"/><path d="m261.787 109.682v-6.47l1.977-2.346 6.404 8.816h2.886l-7.722-10.6077 7.036-8.407h-2.714l-7.696 9.4607h-.171v-9.4607h-2.279v19.0147z"/><path d="m275.175 104.622c.198 3.373 2.767 5.455 6.694 5.455 3.98 0 6.549-2.174 6.549-5.587 0-2.859-1.555-4.467-5.244-5.3762l-1.661-.4217c-2.477-.6193-3.531-1.568-3.531-3.2152 0-1.937 1.462-3.0966 3.9-3.0966 2.24 0 3.69 1.1596 3.927 3.123h2.266c-.158-3.1625-2.622-5.2313-6.206-5.2313-3.795 0-6.233 2.0951-6.233 5.3367 0 2.754 1.595 4.4273 5.126 5.3233l1.634.409c2.57.632 3.677 1.621 3.677 3.268 0 2.042-1.661 3.36-4.191 3.36s-4.203-1.265-4.44-3.347z"/><path d="m304.692 109.682v-19.0147h-2.306v8.2357h-8.038v-8.2357h-2.306v19.0147h2.306v-8.644h8.038v8.644z"/><path d="m322.02 101.71v-3.0706c0-5.2576-2.649-8.3674-6.971-8.3674s-6.971 3.1098-6.971 8.3674v3.0706c0 5.257 2.649 8.367 6.971 8.367s6.971-3.11 6.971-8.367zm-6.971 6.167c-2.886 0-4.625-2.214-4.625-6.18v-3.0444c0-3.9663 1.739-6.1801 4.625-6.1801s4.625 2.2138 4.625 6.1801v3.0444c0 3.966-1.739 6.18-4.625 6.18z"/><path d="m325.999 90.6673v19.0147h2.332v-6.826h3.94c3.716 0 6.154-2.411 6.154-6.0877 0-3.6896-2.411-6.101-6.101-6.101zm2.332 2.0688h3.413c2.767 0 4.322 1.4363 4.322 4.0322 0 2.5827-1.555 4.0187-4.322 4.0187h-3.413z"/></g></svg>