<svg fill="none" height="350" viewBox="0 0 403 350" width="403" xmlns="http://www.w3.org/2000/svg" xmlns:xlink="http://www.w3.org/1999/xlink"><clipPath id="a"><path d="m0 0h402.258v350h-402.258z"/></clipPath><g clip-path="url(#a)"><path d="m348.489 350c29.696 0 53.769-1.836 53.769-4.101s-24.073-4.101-53.769-4.101-53.77 1.836-53.77 4.101 24.074 4.101 53.77 4.101z" fill="#e6e6e6"/><path d="m369.323 228.488-5.199 14.505c-.394 1.099-.396 2.301-.006 3.402.39 1.1 1.149 2.032 2.148 2.637.727.441 1.553.691 2.402.729.849.037 1.694-.14 2.457-.515s1.419-.937 1.907-1.632c.489-.695.795-1.502.89-2.347l1.65-14.696 12.498-41.311-10.762-5.208z" fill="#a0616a"/><path d="m364.984 338.017h7.638v-74.292l-17.359-.347z" fill="#a0616a"/><path d="m330.962 338.017h7.638v-74.292l-17.358-.347z" fill="#a0616a"/><path d="m373.837 271.536-19.788-2.083-4.166-21.871-7.638 22.219-23.607-2.431 9.721-36.798c17.768-12.074 34.644-11.81 50.685 0z" fill="#2f2e41"/><path d="m340.287 341.181c.117.942.017 1.9-.293 2.797-.311.898-.824 1.712-1.499 2.381-.675.668-1.495 1.172-2.396 1.473s-1.859.392-2.8.264l-14.07-1.908c-1.258-.197-2.387-.884-3.139-1.912s-1.066-2.312-.872-3.57c.174-1.136.75-2.171 1.621-2.919.872-.748 1.983-1.159 3.131-1.159h2.32l7.633-6.954c.075 4.737 3.563 3.685 9.328 3.223z" fill="#2f2e41"/><path d="m374.308 341.181c.118.942.018 1.9-.293 2.797-.311.898-.823 1.712-1.499 2.381-.675.668-1.494 1.172-2.395 1.473s-1.859.392-2.801.264l-14.07-1.908c-1.258-.197-2.387-.884-3.139-1.912s-1.065-2.312-.872-3.57c.175-1.136.75-2.171 1.622-2.919s1.982-1.159 3.131-1.159h2.32l7.632-6.954c.075 4.737 3.564 3.685 9.329 3.223z" fill="#2f2e41"/><path d="m347.192 145.171c6.759 0 12.237-5.479 12.237-12.238 0-6.758-5.478-12.237-12.237-12.237-6.758 0-12.237 5.479-12.237 12.237 0 6.759 5.479 12.238 12.237 12.238z" fill="#a0616a"/><path d="m362.728 153.502-15.275 1.389v-13.539l7.984-4.86z" fill="#a0616a"/><path d="m380.78 235.779c-15.367-11.253-33.819-10.109-54.157-1.389 9.214-26.085 13.139-50.396 5.902-70.961 0-3.634 1.209-7.164 3.438-10.035 2.228-2.87 5.348-4.917 8.869-5.817l2.621-.671 12.844.695 12.062 7.07c2.46 1.442 4.502 3.5 5.925 5.971s2.178 5.269 2.191 8.12z" fill="#e6e6e6"/><path d="m321.416 225.711-5.2 14.505c-.394 1.099-.396 2.301-.006 3.402.391 1.1 1.149 2.032 2.148 2.637.727.441 1.553.691 2.402.728.849.038 1.694-.139 2.457-.514.763-.376 1.419-.937 1.908-1.632s.795-1.502.889-2.347l1.651-14.696 12.497-41.312-10.762-5.207z" fill="#a0616a"/><path d="m390.847 197.244h-17.011v-41.659c2.942 1.635 5.498 3.883 7.495 6.592 1.997 2.71 3.387 5.817 4.078 9.111z" fill="#e6e6e6"/><path d="m337.862 126.308c-.747.353-1.571.514-2.397.47-.826-.045-1.627-.295-2.332-.726-.69-.456-1.211-1.126-1.483-1.907s-.279-1.63-.021-2.416c.516-1.326 1.821-2.157 3.088-2.806 2.795-1.431 5.79-2.431 8.883-2.967 1.475-.256 3.037-.396 4.431.149.69.27 1.308.697 1.993.98 1.259.519 2.663.521 3.996.803 1.364.298 2.648.885 3.765 1.723 1.118.837 2.042 1.904 2.711 3.13.439.833.775 1.717 1.003 2.631.642 2.501.633 5.125-.024 7.622-1.048 3.955-3.715 7.589-3.475 11.674-1.972-1.148-2.896-3.486-4.542-5.065-1.224-1.167-2.808-1.885-4.493-2.035-.46.018-.916-.098-1.311-.334-.288-.281-.486-.639-.571-1.032l-1.855-5.81c-.377-1.182-.833-2.467-1.9-3.101-.658-.334-1.385-.51-2.122-.516-1.765-.128-3.537-.112-5.299.05" fill="#2f2e41"/><path d="m341.898 189.607-19.788-7.638 8.986-24.213c1.047-2.82 2.885-5.277 5.293-7.079 2.409-1.801 5.286-2.869 8.286-3.076z" fill="#e6e6e6"/><path d="m235.441 259.225h-217.3258c-1.0314-.001-2.0202-.411-2.7495-1.14-.7293-.73-1.1395-1.719-1.1406-2.75v-237.0357c.0011-1.0314.4113-2.0202 1.1406-2.7495s1.7181-1.1395 2.7495-1.1406h217.3258c1.032.0011 2.02.4113 2.75 1.1406.729.7293 1.139 1.7181 1.14 2.7495v237.0357c-.001 1.031-.411 2.02-1.14 2.75-.73.729-1.718 1.139-2.75 1.14zm-217.3258-243.2598c-.6188.0007-1.2121.2468-1.6497.6844s-.6837 1.0308-.6844 1.6497v237.0357c.0007.619.2468 1.212.6844 1.65.4376.437 1.0309.683 1.6497.684h217.3258c.619-.001 1.212-.247 1.65-.684.438-.438.684-1.031.684-1.65v-237.0357c0-.6189-.246-1.2121-.684-1.6497s-1.031-.6837-1.65-.6844z" fill="#e6e6e6"/><path d="m62.9613 102.764c2.8196 0 5.1054-2.286 5.1054-5.1054 0-2.8196-2.2858-5.1054-5.1054-5.1054s-5.1053 2.2858-5.1053 5.1054c0 2.8194 2.2857 5.1054 5.1053 5.1054z" fill="#e6e6e6"/><path d="m84.2338 102.764c2.8196 0 5.1053-2.286 5.1053-5.1054 0-2.8196-2.2857-5.1054-5.1053-5.1054s-5.1054 2.2858-5.1054 5.1054c0 2.8194 2.2858 5.1054 5.1054 5.1054z" fill="#e6e6e6"/><path d="m105.506 102.764c2.819 0 5.105-2.286 5.105-5.1054 0-2.8196-2.286-5.1054-5.105-5.1054-2.82 0-5.106 2.2858-5.106 5.1054 0 2.8194 2.286 5.1054 5.106 5.1054z" fill="#1e8d44"/><path d="m126.778 102.764c2.82 0 5.106-2.286 5.106-5.1054 0-2.8196-2.286-5.1054-5.106-5.1054-2.819 0-5.105 2.2858-5.105 5.1054 0 2.8194 2.286 5.1054 5.105 5.1054z" fill="#1e8d44"/><path d="m148.051 102.764c2.819 0 5.105-2.286 5.105-5.1054 0-2.8196-2.286-5.1054-5.105-5.1054-2.82 0-5.106 2.2858-5.106 5.1054 0 2.8194 2.286 5.1054 5.106 5.1054z" fill="#1e8d44"/><path d="m169.323 102.764c2.82 0 5.105-2.286 5.105-5.1054 0-2.8196-2.285-5.1054-5.105-5.1054s-5.105 2.2858-5.105 5.1054c0 2.8194 2.285 5.1054 5.105 5.1054z" fill="#e6e6e6"/><path d="m190.595 102.764c2.82 0 5.105-2.286 5.105-5.1054 0-2.8196-2.285-5.1054-5.105-5.1054s-5.105 2.2858-5.105 5.1054c0 2.8194 2.285 5.1054 5.105 5.1054z" fill="#e6e6e6"/><path d="m62.9613 118.931c2.8196 0 5.1054-2.286 5.1054-5.106 0-2.819-2.2858-5.105-5.1054-5.105s-5.1053 2.286-5.1053 5.105c0 2.82 2.2857 5.106 5.1053 5.106z" fill="#e6e6e6"/><path d="m84.2338 118.931c2.8196 0 5.1053-2.286 5.1053-5.106 0-2.819-2.2857-5.105-5.1053-5.105s-5.1054 2.286-5.1054 5.105c0 2.82 2.2858 5.106 5.1054 5.106z" fill="#e6e6e6"/><path d="m105.506 118.931c2.819 0 5.105-2.286 5.105-5.106 0-2.819-2.286-5.105-5.105-5.105-2.82 0-5.106 2.286-5.106 5.105 0 2.82 2.286 5.106 5.106 5.106z" fill="#e6e6e6"/><path d="m126.778 118.931c2.82 0 5.106-2.286 5.106-5.106 0-2.819-2.286-5.105-5.106-5.105-2.819 0-5.105 2.286-5.105 5.105 0 2.82 2.286 5.106 5.105 5.106z" fill="#e6e6e6"/><path d="m148.051 118.931c2.819 0 5.105-2.286 5.105-5.106 0-2.819-2.286-5.105-5.105-5.105-2.82 0-5.106 2.286-5.106 5.105 0 2.82 2.286 5.106 5.106 5.106z" fill="#e6e6e6"/><path d="m169.323 118.931c2.82 0 5.105-2.286 5.105-5.106 0-2.819-2.285-5.105-5.105-5.105s-5.105 2.286-5.105 5.105c0 2.82 2.285 5.106 5.105 5.106z" fill="#e6e6e6"/><path d="m190.595 118.931c2.82 0 5.105-2.286 5.105-5.106 0-2.819-2.285-5.105-5.105-5.105s-5.105 2.286-5.105 5.105c0 2.82 2.285 5.106 5.105 5.106z" fill="#e6e6e6"/><path d="m62.9613 135.098c2.8196 0 5.1054-2.286 5.1054-5.106 0-2.819-2.2858-5.105-5.1054-5.105s-5.1053 2.286-5.1053 5.105c0 2.82 2.2857 5.106 5.1053 5.106z" fill="#1e8d44"/><path d="m84.2338 135.098c2.8196 0 5.1053-2.286 5.1053-5.106 0-2.819-2.2857-5.105-5.1053-5.105s-5.1054 2.286-5.1054 5.105c0 2.82 2.2858 5.106 5.1054 5.106z" fill="#1e8d44"/><path d="m105.506 135.098c2.819 0 5.105-2.286 5.105-5.106 0-2.819-2.286-5.105-5.105-5.105-2.82 0-5.106 2.286-5.106 5.105 0 2.82 2.286 5.106 5.106 5.106z" fill="#1e8d44"/><g fill="#e6e6e6"><path d="m126.778 135.098c2.82 0 5.106-2.286 5.106-5.106 0-2.819-2.286-5.105-5.106-5.105-2.819 0-5.105 2.286-5.105 5.105 0 2.82 2.286 5.106 5.105 5.106z"/><path d="m148.051 135.098c2.819 0 5.105-2.286 5.105-5.106 0-2.819-2.286-5.105-5.105-5.105-2.82 0-5.106 2.286-5.106 5.105 0 2.82 2.286 5.106 5.106 5.106z"/><path d="m169.323 135.098c2.82 0 5.105-2.286 5.105-5.106 0-2.819-2.285-5.105-5.105-5.105s-5.105 2.286-5.105 5.105c0 2.82 2.285 5.106 5.105 5.106z"/><path d="m190.595 135.098c2.82 0 5.105-2.286 5.105-5.106 0-2.819-2.285-5.105-5.105-5.105s-5.105 2.286-5.105 5.105c0 2.82 2.285 5.106 5.105 5.106z"/><path d="m62.9613 151.265c2.8196 0 5.1054-2.286 5.1054-5.106 0-2.819-2.2858-5.105-5.1054-5.105s-5.1053 2.286-5.1053 5.105c0 2.82 2.2857 5.106 5.1053 5.106z"/><path d="m84.2338 151.265c2.8196 0 5.1053-2.286 5.1053-5.106 0-2.819-2.2857-5.105-5.1053-5.105s-5.1054 2.286-5.1054 5.105c0 2.82 2.2858 5.106 5.1054 5.106z"/><path d="m62.9613 167.432c2.8196 0 5.1054-2.286 5.1054-5.106 0-2.819-2.2858-5.105-5.1054-5.105s-5.1053 2.286-5.1053 5.105c0 2.82 2.2857 5.106 5.1053 5.106z"/><path d="m84.2338 167.432c2.8196 0 5.1053-2.286 5.1053-5.106 0-2.819-2.2857-5.105-5.1053-5.105s-5.1054 2.286-5.1054 5.105c0 2.82 2.2858 5.106 5.1054 5.106z"/><path d="m105.506 167.432c2.819 0 5.105-2.286 5.105-5.106 0-2.819-2.286-5.105-5.105-5.105-2.82 0-5.106 2.286-5.106 5.105 0 2.82 2.286 5.106 5.106 5.106z"/><path d="m105.506 151.265c2.819 0 5.105-2.286 5.105-5.106 0-2.819-2.286-5.105-5.105-5.105-2.82 0-5.106 2.286-5.106 5.105 0 2.82 2.286 5.106 5.106 5.106z"/></g><path d="m126.778 151.265c2.82 0 5.106-2.286 5.106-5.106 0-2.819-2.286-5.105-5.106-5.105-2.819 0-5.105 2.286-5.105 5.105 0 2.82 2.286 5.106 5.105 5.106z" fill="#1e8d44"/><path d="m148.051 151.265c2.819 0 5.105-2.286 5.105-5.106 0-2.819-2.286-5.105-5.105-5.105-2.82 0-5.106 2.286-5.106 5.105 0 2.82 2.286 5.106 5.106 5.106z" fill="#1e8d44"/><path d="m169.323 151.265c2.82 0 5.105-2.286 5.105-5.106 0-2.819-2.285-5.105-5.105-5.105s-5.105 2.286-5.105 5.105c0 2.82 2.285 5.106 5.105 5.106z" fill="#1e8d44"/><path d="m190.595 151.265c2.82 0 5.105-2.286 5.105-5.106 0-2.819-2.285-5.105-5.105-5.105s-5.105 2.286-5.105 5.105c0 2.82 2.285 5.106 5.105 5.106z" fill="#e6e6e6"/><path d="m88.1309 52.531c-.8092.0133-1.5807.344-2.1482.921-.5675.5769-.8855 1.3538-.8855 2.163 0 .8093.318 1.5861.8855 2.1631.5675.5769 1.339.9077 2.1482.921h77.3271c.406.0071.808-.0658 1.186-.2144.377-.1486.721-.3701 1.012-.6519.292-.2817.525-.6181.686-.9899.161-.3719.248-.7719.255-1.1772.006-.4053-.067-.8079-.216-1.1849-.149-.3769-.371-.7208-.653-1.0119s-.619-.5238-.991-.6848c-.372-.1609-.772-.2469-1.177-.2531-.034-.0006-.068-.0006-.102 0z" fill="#3f3d56"/><path d="m182.994 51.6724c-.056.0563-.101.1232-.131.1969-.031.0736-.047.1525-.047.2322s.016.1586.047.2323c.03.0736.075.1405.131.1968l2.605 2.6053h-6.424c-.161 0-.315.0639-.429.1778-.114.1138-.178.2681-.178.4291 0 .1609.064.3153.178.4291s.268.1778.429.1778h6.424l-2.605 2.6052c-.056.0564-.101.1233-.131.1969-.031.0736-.047.1526-.047.2322 0 .0797.016.1587.047.2323.03.0736.075.1405.131.1969.057.0563.124.101.197.1315.074.0305.153.0462.232.0462.08 0 .159-.0157.233-.0462.073-.0305.14-.0752.197-.1315l3.641-3.6413c.114-.1138.178-.2682.178-.4291 0-.161-.064-.3153-.178-.4291l-3.641-3.6413c-.057-.0564-.124-.1011-.197-.1316-.074-.0305-.153-.0462-.233-.0462-.079 0-.158.0157-.232.0462-.073.0305-.14.0752-.197.1316z" fill="#e6e6e6"/><path d="m70.562 51.6724c.0564.0563.1011.1232.1316.1969.0305.0736.0462.1525.0462.2322s-.0157.1586-.0462.2323c-.0305.0736-.0752.1405-.1316.1969l-2.6052 2.6052h6.4243c.1609 0 .3153.0639.4291.1778.1138.1138.1777.2681.1777.4291s-.0639.3153-.1777.4291-.2682.1778-.4291.1778h-6.4243l2.6052 2.6052c.1138.1138.1778.2682.1778.4292 0 .1609-.0639.3153-.1778.4291-.1138.1138-.2681.1777-.4291.1778-.1609 0-.3153-.064-.4291-.1778l-3.6413-3.6413c-.1138-.1138-.1777-.2681-.1777-.4291s.0639-.3153.1777-.4291l3.6413-3.6413c.0563-.0564.1232-.1011.1969-.1316.0736-.0305.1525-.0462.2322-.0462s.1586.0157.2323.0462c.0736.0305.1405.0752.1968.1316z" fill="#e6e6e6"/><path d="m83.808 200.016c-1.4533-.001-2.8925.285-4.2355.84-1.3429.556-2.5632 1.37-3.5912 2.398-1.0279 1.027-1.8434 2.247-2.3998 3.589-.5564 1.343-.8427 2.782-.8427 4.235s.2863 2.892.8427 4.235c.5564 1.342 1.3719 2.562 2.3998 3.589 1.028 1.028 2.2483 1.842 3.5912 2.398 1.343.555 2.7822.841 4.2355.84h85.94c1.453.001 2.893-.285 4.236-.84 1.343-.556 2.563-1.37 3.591-2.398 1.028-1.027 1.843-2.247 2.4-3.589.556-1.343.842-2.782.842-4.235s-.286-2.892-.842-4.235c-.557-1.342-1.372-2.562-2.4-3.589-1.028-1.028-2.248-1.842-3.591-2.398-1.343-.555-2.783-.841-4.236-.84z" fill="#e6e6e6"/><path d="m17.7764 35.5528c-3.5158 0-6.9527-1.0426-9.87604-2.9959-2.92331-1.9533-5.20175-4.7296-6.5472-7.9778-1.34545743-3.2482-1.69749-6.8224-1.011584-10.2707.685904-3.4483 2.378944-6.61574 4.865014-9.10181s5.65351-4.17911 9.10181-4.865013c3.4483-.685906 7.0225-.3338774 10.2707 1.011573 3.2482 1.34545 6.0245 3.6239 7.9778 6.54721 1.9533 2.92334 2.9959 6.36024 2.9959 9.87604-.0053 4.7129-1.8799 9.2314-5.2125 12.5639-3.3326 3.3326-7.851 5.2072-12.5639 5.2125z" fill="#1e8d44"/><path d="m24.7906 16.0229h-5.2606v-5.2606c0-.465-.1847-.91105-.5136-1.23991-.3288-.32885-.7749-.5136-1.2399-.5136-.4651 0-.9111.18475-1.24.5136-.3288.32886-.5136.77491-.5136 1.23991v5.2606h-5.2606c-.4651 0-.91106.1848-1.23991.5136-.32885.3289-.5136.7749-.5136 1.24 0 .465.18475.9111.5136 1.2399.32885.3289.77481.5136 1.23991.5136h5.2606v5.2606c0 .4651.1848.9111.5136 1.2399.3289.3289.7749.5137 1.24.5137.465 0 .9111-.1848 1.2399-.5137.3289-.3288.5136-.7748.5136-1.2399v-5.2606h5.2606c.465 0 .911-.1847 1.2399-.5136.3288-.3288.5136-.7749.5136-1.2399 0-.4651-.1848-.9111-.5136-1.24-.3289-.3288-.7749-.5136-1.2399-.5136z" fill="#fff"/></g></svg>