<svg xmlns="http://www.w3.org/2000/svg" width="79" height="25" viewBox="0 0 79 25" xmlns:xlink="http://www.w3.org/1999/xlink">
  <defs>
    <rect id="a" width="4.741" height="9.872" x=".062" y=".077"/>
    <rect id="c" width="23.682" height="12.713" x=".076" y=".023"/>
  </defs>
  <g fill="none" fill-rule="evenodd" transform="translate(.78 .654)">
    <path fill="#168143" d="M10.7610511,17.6316068 C12.4368241,17.6316068 13.7437226,17.052466 14.6833363,15.8936167 C15.6219281,14.734881 16.0925296,13.1181461 16.0925296,11.0428444 C16.0925296,8.96833733 15.6202251,7.34649336 14.6753888,6.1781072 C13.7306661,5.00972104 12.4263789,4.4254712 10.7610511,4.4254712 C9.10616852,4.4254712 7.80358428,5.01460304 6.85454727,6.19241258 C5.90471551,7.3707898 5.43048084,8.9875247 5.43048084,11.0428444 C5.43048084,13.0990723 5.90187714,14.7104711 6.84671337,15.8788572 C7.79143606,17.047584 9.09572332,17.6316068 10.7610511,17.6316068 M16.3503671,20.7297432 C15.5689074,21.1565203 14.7066109,21.4812297 13.7626829,21.7039849 C12.8188685,21.9267401 11.8187409,22.0382312 10.7635489,22.0382312 C7.5256512,22.0382312 4.93546931,21.0400336 2.99232199,19.0426167 C1.04803932,17.0450862 0.0764088898,14.3790631 0.0764088898,11.0428444 C0.0764088898,9.22015741 0.373529342,7.58866299 0.96640783,6.14892877 C1.5605352,4.70896748 2.44621982,3.47984023 3.62278048,2.46222822 C4.5665949,1.64772989 5.6345028,1.03634524 6.82684479,0.629096075 C8.01907325,0.22184691 9.33096733,0.0187332345 10.7610511,0.0187332345 C13.9875953,0.0187332345 16.5752794,1.02215339 18.5237629,3.02922079 C20.4713381,5.03628818 21.4454662,7.70764741 21.4454662,11.0428444 C21.4454662,12.4390948 21.2834522,13.7025095 20.9593104,14.8317262 C20.634601,15.961397 20.1327774,16.9820744 19.4536125,17.8933044 C20.0615911,18.4270313 20.7257694,18.8511971 21.4454662,19.166029 C22.1655037,19.4810879 22.9365182,19.6824986 23.7579421,19.7693527 L22.1759489,23.5223575 C20.9794061,23.4058709 19.8921973,23.11227 18.9137548,22.6421226 C17.9350852,22.171521 17.0805091,21.5342504 16.3503671,20.7297432" transform="translate(.081 .278)"/>
    <path fill="#296CAE" d="M19.473027,16.7008489 C18.4598428,18.494698 17.1946115,19.8375871 15.6784684,20.7297432 C14.1624388,21.6215586 12.395611,22.0677502 10.3783254,22.0677502 C7.20468845,22.0677502 4.68228681,21.0740941 2.81180173,19.085987 C0.940748976,17.0985611 0.00567673773,14.4172108 0.00567673773,11.0428444 C0.00567673773,7.73671231 0.981394418,5.07273283 2.93339745,3.05090592 C4.88528695,1.02953315 7.4478799,0.0187332345 10.6216304,0.0187332345 C12.6185932,0.0187332345 14.3551073,0.472077509 15.830605,1.37853899 C17.3056485,2.28500047 18.4545067,3.60143595 19.2759306,5.32716422 L15.1993517,7.37782895 C14.7226193,6.3695268 14.0947721,5.60589204 13.3134259,5.08715175 C12.5326474,4.56875206 11.6251641,4.30909807 10.5910896,4.30909807 C8.97866899,4.30909807 7.7040143,4.90776683 6.7661037,6.10521789 C5.82842016,7.30300955 5.35963516,8.94846875 5.35963516,11.0428444 C5.35963516,13.1572021 5.82319756,14.7978928 6.75054943,15.9661655 C7.67880959,17.1348922 8.97866899,17.7190285 10.6518307,17.7190285 C11.7067956,17.7190285 12.6185932,17.4718634 13.3896077,16.9769654 C14.1598275,16.4828621 14.8041372,15.736144 15.3215151,14.7374923 L19.473027,16.7008489 Z" transform="translate(23.696 .278)"/>
    <path fill="#296CAE" d="M4.84804755,8.3828386 C4.84804755,9.80872158 5.17536825,10.940436 5.82932844,11.7792308 C6.48317509,12.6181391 7.3573927,13.0370823 8.45254894,13.0370823 C9.54838639,13.0370823 10.4245341,12.6154142 11.0842845,11.7719646 C11.7434673,10.9282878 12.0726046,9.79907113 12.0726046,8.3828386 C12.0726046,6.95797743 11.7459651,5.82308402 11.0910966,4.9798614 C10.4373635,4.13595757 9.55769624,3.71440303 8.45254894,3.71440303 C7.36772436,3.71440303 6.49611805,4.14118017 5.8370488,4.99428032 C5.17707127,5.8478346 4.84804755,6.97750541 4.84804755,8.3828386 M8.45254894,16.7020977 C5.91799908,16.7020977 3.87721187,15.9415284 2.33098204,14.4189138 C0.784298084,12.8967534 0.0114670102,10.8844634 0.0114670102,8.3828386 C0.0114670102,5.89120488 0.787136453,3.87936903 2.33847534,2.34721751 C3.89026836,0.815520142 5.92844428,0.0492740835 8.45254894,0.0492740835 C11.0079892,0.0492740835 13.0586539,0.812795308 14.6053379,2.33983776 C16.151,3.86722081 16.9246259,5.88121382 16.9246259,8.3828386 C16.9246259,10.8753806 16.1456639,12.8844916 14.5896701,14.4116476 C13.032768,15.9389171 10.9880071,16.7020977 8.45254894,16.7020977" transform="translate(44.019 5.614)"/>
    <path fill="#296CAE" d="M0.0351957739,16.0798137 L0.0351957739,0.444942703 L4.76584839,0.444942703 L4.76584839,1.89943644 C5.37359993,1.28805179 6.06025813,0.832550355 6.82616358,0.53179679 C7.5922961,0.231724434 8.45095945,0.0811773495 9.40419725,0.0811773495 C11.1080133,0.0811773495 12.3756288,0.619445621 13.2068168,1.69530095 C14.0386859,2.77195103 14.4535419,4.4205892 14.4535419,6.64019365 L14.4535419,16.0798137 L9.72379758,16.0798137 L9.72379758,6.87305343 C9.72379758,5.81672608 9.53714645,5.0409431 9.16543366,4.54593157 C8.7931532,4.05205539 8.20356722,3.80454962 7.39769753,3.80454962 C6.44854699,3.80454962 5.77312873,4.03491164 5.37019389,4.49529507 C4.96703198,4.95579203 4.76584839,5.74860523 4.76584839,6.87305343 L4.76584839,16.0798137 L0.0351957739,16.0798137 Z" transform="translate(62.98 5.727)"/>
    <g transform="translate(72.63 11.858)" opacity=".1">
      <mask id="b" fill="white">
        <use xlink:href="#a"/>
      </mask>
      <path fill="#2066A9" d="M4.79264259,0.076749494 C3.18896418,0.168372041 1.61389654,0.251252412 0.0621035107,0.326298884 C0.0690291307,0.460269895 0.0734569862,0.598101087 0.0734569862,0.74217669 L0.0734569862,9.948937 L4.80308779,9.948937 L4.80308779,0.509430443 C4.80308779,0.36058638 4.79616217,0.220825098 4.79264259,0.076749494" mask="url(#b)"/>
    </g>
    <path fill="#2066A9" d="M0.0351957739,9.49479799 L4.76584839,9.49479799 L4.76584839,0.288037672 C4.76584839,0.218781472 4.76823262,0.15474787 4.77027625,0.0881029695 C3.17045802,0.150320015 1.59300614,0.204249023 0.0351957739,0.24977646 L0.0351957739,9.49479799 Z" transform="translate(62.98 12.312)"/>
    <path fill="#2066A9" d="M11.9674714,0.176319474 C12.0351381,0.574372323 12.0726046,0.999219374 12.0726046,1.45721857 C12.0726046,2.8734511 11.7434673,4.00266777 11.0842845,4.84634453 C10.4245341,5.68990776 9.54838639,6.1114623 8.45254894,6.1114623 C7.3573927,6.1114623 6.48317509,5.69251906 5.82932844,4.85361076 C5.17536825,4.01492952 4.84804755,2.88310156 4.84804755,1.45721857 C4.84804755,1.01874735 4.88460574,0.610135771 4.94807167,0.225366488 C3.32600063,0.224685279 1.70915219,0.216283707 0.0912819426,0.199821168 C0.0445056238,0.606389124 0.0114670102,1.02169926 0.0114670102,1.45721857 C0.0114670102,3.95884336 0.784298084,5.97113334 2.33098204,7.4932938 C3.87721187,9.01590839 5.91799908,9.77659125 8.45254894,9.77659125 C10.9880071,9.77659125 13.032768,9.01329709 14.5896701,7.48602757 C16.1456639,5.95898513 16.9246259,3.94976057 16.9246259,1.45721857 C16.9246259,0.978783119 16.8871594,0.524076427 16.8306191,0.0811773495 C15.1932208,0.121822792 13.5737611,0.153044849 11.9674714,0.176319474" transform="translate(44.019 12.54)"/>
    <path fill="#2066A9" d="M13.3896077,5.16935091 C12.6185932,5.6642489 11.7067956,5.91141406 10.6518307,5.91141406 C8.97855546,5.91141406 7.67869605,5.32739129 6.7504359,4.15866452 C5.98816356,3.19770636 5.54356146,1.9116982 5.4081145,0.310744623 C3.64117311,0.250571203 1.85231952,0.183472163 0.0368987952,0.110923455 C0.187786484,3.07372641 1.10730446,5.46749317 2.81180173,7.27837251 C4.68228681,9.26647959 7.20457492,10.2602493 10.3783254,10.2602493 C12.3954974,10.2602493 14.1624388,9.81394418 15.6784684,8.92224222 C17.194498,8.02997258 18.4598428,6.68708351 19.473027,4.89323438 L15.3214016,2.92987787 C14.8041372,3.92852958 14.159714,4.67524766 13.3896077,5.16935091" transform="translate(23.696 12.085)"/>
    <g transform="translate(.081 11.063)" opacity=".1">
      <mask id="d" fill="white">
        <use xlink:href="#c"/>
      </mask>
      <path fill="#FFFFFF" d="M10.7635489,11.2525431 C11.8187409,11.2525431 12.8188685,11.1410519 13.7626829,10.9182967 C14.7064974,10.6955415 15.5687938,10.3707186 16.3503671,9.94405501 C17.0805091,10.7485623 17.9350852,11.3858329 18.9136412,11.8563209 C19.8920837,12.3265818 20.9792925,12.6201827 22.1759489,12.7365558 L23.7578286,8.98366452 C22.9365182,8.89681043 22.1655037,8.69539978 21.4454662,8.3802273 C20.7256559,8.06550896 20.0615911,7.64122958 19.4536125,7.1075027 C20.1326639,6.1963863 20.6344875,5.17570885 20.9593104,4.04592451 C21.2215757,3.13344569 21.3718957,2.12877665 21.4221916,1.0414543 C19.6697827,0.967997317 17.8900119,0.889544802 16.07584,0.806210292 C15.9986364,2.61754377 15.5365499,4.05432608 14.6832227,5.10792861 C13.7436091,6.26677784 12.4367105,6.84591863 10.7610511,6.84591863 C9.09572332,6.84591863 7.79132253,6.26189585 6.84671337,5.09316909 C5.90800802,3.93182208 5.43729293,2.33154972 5.43127559,0.292919667 C3.6852246,0.20561144 1.90329662,0.11557838 0.0816314885,0.0233881594 C0.0798149324,0.101613605 0.076295355,0.17813603 0.076295355,0.257042684 C0.076295355,3.59326145 1.04803932,6.25939809 2.99232199,8.25681502 C4.93546931,10.2543455 7.52553767,11.2525431 10.7635489,11.2525431" mask="url(#d)"/>
    </g>
  </g>
</svg>
