<svg fill="none" height="64" viewBox="0 0 66 64" width="66" xmlns="http://www.w3.org/2000/svg" xmlns:xlink="http://www.w3.org/1999/xlink"><filter id="a" color-interpolation-filters="sRGB" filterUnits="userSpaceOnUse" height="12.9675" width="41.7295" x="6.49316" y="7.09662"><feFlood flood-opacity="0" result="BackgroundImageFix"/><feColorMatrix in="SourceAlpha" type="matrix" values="0 0 0 0 0 0 0 0 0 0 0 0 0 0 0 0 0 0 127 0"/><feOffset dy="1"/><feGaussianBlur stdDeviation=".5"/><feColorMatrix type="matrix" values="0 0 0 0 0 0 0 0 0 0 0 0 0 0 0 0 0 0 0.199502 0"/><feBlend in2="BackgroundImageFix" mode="normal" result="effect1_dropShadow"/><feBlend in="SourceGraphic" in2="effect1_dropShadow" mode="normal" result="shape"/></filter><filter id="b" color-interpolation-filters="sRGB" filterUnits="userSpaceOnUse" height="5.49997" width="8.51797" x="6.67017" y="25.1607"><feFlood flood-opacity="0" result="BackgroundImageFix"/><feColorMatrix in="SourceAlpha" type="matrix" values="0 0 0 0 0 0 0 0 0 0 0 0 0 0 0 0 0 0 127 0"/><feOffset dy="1"/><feGaussianBlur stdDeviation=".5"/><feColorMatrix type="matrix" values="0 0 0 0 0 0 0 0 0 0 0 0 0 0 0 0 0 0 0.199502 0"/><feBlend in2="BackgroundImageFix" mode="normal" result="effect1_dropShadow"/><feBlend in="SourceGraphic" in2="effect1_dropShadow" mode="normal" result="shape"/></filter><path clip-rule="evenodd" d="m0 0h65.152v56.7594h-65.152z" fill="#3b3332" fill-rule="evenodd"/><g filter="url(#a)"><path d="m9.75765 7.17754-.08088.54118h-1.26366v.9104h1.10191v.53613h-1.10191v.96605h1.35465v.5462h-2.09768v-3.49996zm4.16755 3.49996h-.9553l-1.112-2.7767c.0303.23941.0547.46447.0732.67522.0186.21074.0278.45772.0278.74096v1.36052h-.6722v-3.49996h.9351l1.1322 2.78178c-.0674-.45183-.1011-.86657-.1011-1.24421v-1.53757h.6723zm3.1465-3.58088c.2359 0 .4457.03625.6293.10874.1837.0725.3547.17618.5131.31105l-.3892.40463c-.1247-.09442-.2418-.16354-.3513-.20737-.1096-.04384-.2334-.06575-.3715-.06575-.2663 0-.4811.10536-.6445.31611-.1635.21074-.2452.5319-.2452.9635 0 .4552.0632.78143.1896.97868.1263.19729.3226.29589.5888.29589.1921 0 .3657-.0422.5207-.1265v-.85472h-.4903l-.0758-.54118h1.2889v1.7247c-.182.1113-.3783.1981-.5889.2605s-.4237.0935-.6394.0935c-.5156 0-.9065-.1551-1.1727-.4653-.2662-.31018-.3993-.76706-.3993-1.37063 0-.38102.0725-.70977.2174-.98626s.3412-.48555.5888-.62717c.2477-.14161.5249-.21242.8315-.21242zm3.47.08092v3.49996h-.743v-3.49996zm4.3293 3.49996h-.9553l-1.112-2.7767c.0303.23941.0548.46447.0733.67522.0185.21074.0278.45772.0278.74096v1.36052h-.6723v-3.49996h.9351l1.1323 2.78178c-.0674-.45183-.1011-.86657-.1011-1.24421v-1.53757h.6722zm3.7733-3.49996-.0808.54118h-1.2637v.9104h1.1019v.53613h-1.1019v.96605h1.3546v.5462h-2.0976v-3.49996zm3.6166 0-.0808.54118h-1.2637v.9104h1.1019v.53613h-1.1019v.96605h1.3546v.5462h-2.0976v-3.49996zm2.6512 2.12932h-.3791v1.37064h-.743v-3.49996h1.0918c.4684 0 .8205.08683 1.0564.26048s.3538.43581.3538.78648c0 .22929-.0564.41811-.1693.56647s-.2873.27481-.5232.37934l.9048 1.50719h-.8441zm-.3791-.526h.3892c.1988 0 .3488-.04468.4499-.13403.1011-.08936.1516-.23013.1516-.42233 0-.17871-.0531-.30937-.1592-.39198-.1062-.08261-.2721-.12391-.4979-.12391h-.3336zm4.0513-1.60332v3.49996h-.743v-3.49996zm4.3293 3.49996h-.9553l-1.112-2.7767c.0303.23941.0547.46447.0733.67522.0185.21074.0278.45772.0278.74096v1.36052h-.6723v-3.49996h.9351l1.1322 2.78178c-.0674-.45183-.1011-.86657-.1011-1.24421v-1.53757h.6723zm3.1465-3.58088c.2359 0 .4457.03625.6293.10874.1837.0725.3547.17618.5131.31105l-.3892.40463c-.1247-.09442-.2418-.16354-.3513-.20737-.1095-.04384-.2334-.06575-.3715-.06575-.2663 0-.4811.10536-.6445.31611-.1634.21074-.2452.5319-.2452.9635 0 .4552.0632.78143.1896.97868.1264.19729.3226.29589.5889.29589.192 0 .3656-.0422.5206-.1265v-.85472h-.4903l-.0758-.54118h1.2889v1.7247c-.182.1113-.3783.1981-.5889.2605s-.4237.0935-.6394.0935c-.5156 0-.9064-.1551-1.1727-.4653-.2662-.31018-.3993-.76706-.3993-1.37063 0-.38102.0725-.70977.2174-.98626s.3412-.48555.5888-.62717c.2477-.14161.5249-.21242.8315-.21242zm-37.0101 7.30568c.21903 0 .40942.0312.57117.0936.16175.0623.32013.1576.47513.2857l-.36898.4299c-.20219-.1652-.41448-.2478-.63689-.2478-.24936 0-.44733.102-.59392.306-.14658.204-.21988.5235-.21988.9584 0 .4249.0733.7393.21988.9433.14659.204.34624.306.59898.306.13142 0 .25104-.0244.35888-.0733.10783-.0489.22072-.1189.33866-.2099l.34367.4299c-.1246.1281-.2788.2335-.46246.3161-.18365.0826-.38667.1239-.60908.1239-.31339 0-.58802-.0708-.82391-.2124-.23588-.1416-.41953-.3498-.55095-.6246-.13143-.2749-.19714-.6078-.19714-.999 0-.381.0674-.7089.20219-.9837s.32013-.4839.55601-.6272c.23589-.1433.5021-.2149.79864-.2149zm5.0167 2.4277c0 .2394-.0505.4518-.1516.6373-.1011.1854-.2519.3313-.4524.4375s-.444.1593-.7304.1593c-.4313 0-.7607-.1121-.9882-.3363-.2274-.2243-.3412-.5235-.3412-.8978v-2.3468h.7431v2.3114c0 .236.0471.4122.1415.5286.0944.1163.2426.1744.4448.1744s.3513-.0581.4473-.1744c.0961-.1164.1441-.2926.1441-.5286v-2.3114h.743zm2.3833-2.3468v2.9032h1.385l-.0809.5968h-2.0471v-3.5zm4.6376 0-.0808.5817h-.8846v2.9183h-.743v-2.9183h-.9301v-.5817zm3.9401 2.3468c0 .2394-.0505.4518-.1516.6373-.1011.1854-.2519.3313-.4524.4375s-.444.1593-.7304.1593c-.4313 0-.7607-.1121-.9882-.3363-.2274-.2243-.3412-.5235-.3412-.8978v-2.3468h.7431v2.3114c0 .236.0471.4122.1415.5286.0944.1163.2426.1744.4448.1744s.3513-.0581.4473-.1744c.0961-.1164.1441-.2926.1441-.5286v-2.3114h.743zm2.7624-.2175h-.3791v1.3707h-.743v-3.5h1.0918c.4684 0 .8205.0868 1.0564.2605.2359.1736.3538.4358.3538.7865 0 .2293-.0564.4181-.1693.5664-.1129.1484-.2873.2748-.5232.3794l.9048 1.5072h-.8441zm-.3791-.526h.3892c.1988 0 .3488-.0447.4499-.134.1011-.0894.1516-.2301.1516-.4223 0-.1787-.0531-.3094-.1592-.392-.1062-.0826-.2721-.1239-.4979-.1239h-.3336zm5.3958-1.6033-.0808.5412h-1.2637v.9104h1.1019v.5361h-1.1019v.966h1.3547v.5463h-2.0977v-3.5z" fill="#000"/></g><path d="m9.75765 7.17754-.08088.54118h-1.26366v.9104h1.10191v.53613h-1.10191v.96605h1.35465v.5462h-2.09768v-3.49996zm4.16755 3.49996h-.9553l-1.112-2.7767c.0303.23941.0547.46447.0732.67522.0186.21074.0278.45772.0278.74096v1.36052h-.6722v-3.49996h.9351l1.1322 2.78178c-.0674-.45183-.1011-.86657-.1011-1.24421v-1.53757h.6723zm3.1465-3.58088c.2359 0 .4457.03625.6293.10874.1837.0725.3547.17618.5131.31105l-.3892.40463c-.1247-.09442-.2418-.16354-.3513-.20737-.1096-.04384-.2334-.06575-.3715-.06575-.2663 0-.4811.10536-.6445.31611-.1635.21074-.2452.5319-.2452.9635 0 .4552.0632.78143.1896.97868.1263.19729.3226.29589.5888.29589.1921 0 .3657-.0422.5207-.1265v-.85472h-.4903l-.0758-.54118h1.2889v1.7247c-.182.1113-.3783.1981-.5889.2605s-.4237.0935-.6394.0935c-.5156 0-.9065-.1551-1.1727-.4653-.2662-.31018-.3993-.76706-.3993-1.37063 0-.38102.0725-.70977.2174-.98626s.3412-.48555.5888-.62717c.2477-.14161.5249-.21242.8315-.21242zm3.47.08092v3.49996h-.743v-3.49996zm4.3293 3.49996h-.9553l-1.112-2.7767c.0303.23941.0548.46447.0733.67522.0185.21074.0278.45772.0278.74096v1.36052h-.6723v-3.49996h.9351l1.1323 2.78178c-.0674-.45183-.1011-.86657-.1011-1.24421v-1.53757h.6722zm3.7733-3.49996-.0808.54118h-1.2637v.9104h1.1019v.53613h-1.1019v.96605h1.3546v.5462h-2.0976v-3.49996zm3.6166 0-.0808.54118h-1.2637v.9104h1.1019v.53613h-1.1019v.96605h1.3546v.5462h-2.0976v-3.49996zm2.6512 2.12932h-.3791v1.37064h-.743v-3.49996h1.0918c.4684 0 .8205.08683 1.0564.26048s.3538.43581.3538.78648c0 .22929-.0564.41811-.1693.56647s-.2873.27481-.5232.37934l.9048 1.50719h-.8441zm-.3791-.526h.3892c.1988 0 .3488-.04468.4499-.13403.1011-.08936.1516-.23013.1516-.42233 0-.17871-.0531-.30937-.1592-.39198-.1062-.08261-.2721-.12391-.4979-.12391h-.3336zm4.0513-1.60332v3.49996h-.743v-3.49996zm4.3293 3.49996h-.9553l-1.112-2.7767c.0303.23941.0547.46447.0733.67522.0185.21074.0278.45772.0278.74096v1.36052h-.6723v-3.49996h.9351l1.1322 2.78178c-.0674-.45183-.1011-.86657-.1011-1.24421v-1.53757h.6723zm3.1465-3.58088c.2359 0 .4457.03625.6293.10874.1837.0725.3547.17618.5131.31105l-.3892.40463c-.1247-.09442-.2418-.16354-.3513-.20737-.1095-.04384-.2334-.06575-.3715-.06575-.2663 0-.4811.10536-.6445.31611-.1634.21074-.2452.5319-.2452.9635 0 .4552.0632.78143.1896.97868.1264.19729.3226.29589.5889.29589.192 0 .3656-.0422.5206-.1265v-.85472h-.4903l-.0758-.54118h1.2889v1.7247c-.182.1113-.3783.1981-.5889.2605s-.4237.0935-.6394.0935c-.5156 0-.9064-.1551-1.1727-.4653-.2662-.31018-.3993-.76706-.3993-1.37063 0-.38102.0725-.70977.2174-.98626s.3412-.48555.5888-.62717c.2477-.14161.5249-.21242.8315-.21242zm-37.0101 7.30568c.21903 0 .40942.0312.57117.0936.16175.0623.32013.1576.47513.2857l-.36898.4299c-.20219-.1652-.41448-.2478-.63689-.2478-.24936 0-.44733.102-.59392.306-.14658.204-.21988.5235-.21988.9584 0 .4249.0733.7393.21988.9433.14659.204.34624.306.59898.306.13142 0 .25104-.0244.35888-.0733.10783-.0489.22072-.1189.33866-.2099l.34367.4299c-.1246.1281-.2788.2335-.46246.3161-.18365.0826-.38667.1239-.60908.1239-.31339 0-.58802-.0708-.82391-.2124-.23588-.1416-.41953-.3498-.55095-.6246-.13143-.2749-.19714-.6078-.19714-.999 0-.381.0674-.7089.20219-.9837s.32013-.4839.55601-.6272c.23589-.1433.5021-.2149.79864-.2149zm5.0167 2.4277c0 .2394-.0505.4518-.1516.6373-.1011.1854-.2519.3313-.4524.4375s-.444.1593-.7304.1593c-.4313 0-.7607-.1121-.9882-.3363-.2274-.2243-.3412-.5235-.3412-.8978v-2.3468h.7431v2.3114c0 .236.0471.4122.1415.5286.0944.1163.2426.1744.4448.1744s.3513-.0581.4473-.1744c.0961-.1164.1441-.2926.1441-.5286v-2.3114h.743zm2.3833-2.3468v2.9032h1.385l-.0809.5968h-2.0471v-3.5zm4.6376 0-.0808.5817h-.8846v2.9183h-.743v-2.9183h-.9301v-.5817zm3.9401 2.3468c0 .2394-.0505.4518-.1516.6373-.1011.1854-.2519.3313-.4524.4375s-.444.1593-.7304.1593c-.4313 0-.7607-.1121-.9882-.3363-.2274-.2243-.3412-.5235-.3412-.8978v-2.3468h.7431v2.3114c0 .236.0471.4122.1415.5286.0944.1163.2426.1744.4448.1744s.3513-.0581.4473-.1744c.0961-.1164.1441-.2926.1441-.5286v-2.3114h.743zm2.7624-.2175h-.3791v1.3707h-.743v-3.5h1.0918c.4684 0 .8205.0868 1.0564.2605.2359.1736.3538.4358.3538.7865 0 .2293-.0564.4181-.1693.5664-.1129.1484-.2873.2748-.5232.3794l.9048 1.5072h-.8441zm-.3791-.526h.3892c.1988 0 .3488-.0447.4499-.134.1011-.0894.1516-.2301.1516-.4223 0-.1787-.0531-.3094-.1592-.392-.1062-.0826-.2721-.1239-.4979-.1239h-.3336zm5.3958-1.6033-.0808.5412h-1.2637v.9104h1.1019v.5361h-1.1019v.966h1.3547v.5463h-2.0977v-3.5z" fill="#fff"/><g filter="url(#b)"><path d="m9.45951 26.8095c.23589.0439.42712.129.57369.2555.1466.1264.2199.3194.2199.5791 0 .3675-.1314.6288-.39427.7839-.26284.1551-.62846.2327-1.09686.2327h-1.0918v-3.5h.95532c.47851 0 .84413.0708 1.09686.2124.25274.1417.37915.3692.37915.6828 0 .2057-.0615.3718-.18454.4982-.123.1265-.27548.2116-.45745.2554zm-1.04631-1.1127v.8851h.36393c.18197 0 .32182-.0379.41954-.1138.09772-.0758.14658-.1913.14658-.3464s-.05223-.2647-.15669-.3288c-.10446-.064-.26789-.0961-.4903-.0961zm.35382 2.4126c.23252 0 .40943-.0346.53074-.1037.12132-.0691.18197-.1998.18197-.392 0-.3507-.21566-.526-.64699-.526h-.41954v1.0217zm5.42108-2.9487-1.1221 2.1799v1.3201h-.743v-1.315l-1.1222-2.185h.8138l.6976 1.5881.6925-1.5881z" fill="#000"/></g><path d="m9.45951 26.8095c.23589.0439.42712.129.57369.2555.1466.1264.2199.3194.2199.5791 0 .3675-.1314.6288-.39427.7839-.26284.1551-.62846.2327-1.09686.2327h-1.0918v-3.5h.95532c.47851 0 .84413.0708 1.09686.2124.25274.1417.37915.3692.37915.6828 0 .2057-.0615.3718-.18454.4982-.123.1265-.27548.2116-.45745.2554zm-1.04631-1.1127v.8851h.36393c.18197 0 .32182-.0379.41954-.1138.09772-.0758.14658-.1913.14658-.3464s-.05223-.2647-.15669-.3288c-.10446-.064-.26789-.0961-.4903-.0961zm.35382 2.4126c.23252 0 .40943-.0346.53074-.1037.12132-.0691.18197-.1998.18197-.392 0-.3507-.21566-.526-.64699-.526h-.41954v1.0217zm5.42108-2.9487-1.1221 2.1799v1.3201h-.743v-1.315l-1.1222-2.185h.8138l.6976 1.5881.6925-1.5881z" fill="#fff"/><path clip-rule="evenodd" d="m40.4373 53.6685v10.3315l-9.5477-10.2112" fill="#3b3332" fill-rule="evenodd"/><path clip-rule="evenodd" d="m7.38281 35.3658h2.56448v10.4355h-2.56448z" fill="#296cae" fill-rule="evenodd"/><path d="m11.6311 45.8013v-7.7582h2.3455v.7217c.3018-.3029.6424-.5292 1.0218-.6783.3797-.1492.8061-.2238 1.2787-.2238.8448 0 1.4731.2671 1.8853.8012.4127.5337.6188 1.352.6188 2.4536v4.6838h-2.3459v-4.5684c0-.5241-.092-.9091-.2769-1.1545s-.4768-.3683-.8765-.3683c-.4705 0-.8057.1146-1.0055.3429-.1999.2287-.2998.622-.2998 1.1799v4.5684zm8.8655 0v-6.1487h-1.1916v-1.422h1.1916c-.0149-.1587-.0237-.2741-.0262-.3462-.0029-.0725-.0037-.1371-.0037-.195 0-.8224.2002-1.4157.6008-1.779.4006-.3629 1.0568-.5446 1.9686-.5446.1999 0 .4043.0117.6121.0359.2078.0241.4243.0625.65.1154v1.624h-.3922c-.4327 0-.7179.0529-.8561.1588-.1387.1058-.2074.3174-.2074.6349v.2958h1.4557v1.422h-1.4557v6.1487zm6.2524-3.8755c0 .7074.1624 1.2691.4867 1.6853.3244.4162.7578.6241 1.3012.6241.543 0 .9777-.2092 1.3045-.6279.3269-.4187.4901-.9791.4901-1.6815 0-.7075-.162-1.2703-.4863-1.6886-.3244-.4188-.7607-.6279-1.3083-.6279-.5384 0-.9706.2116-1.2974.6349-.3269.4233-.4905.9841-.4905 1.6816zm1.7879 4.128c-1.2574 0-2.2692-.3775-3.0362-1.1332-.7666-.755-1.1501-1.7537-1.1501-2.9948 0-1.2366.3848-2.2349 1.1543-2.9952.769-.76 1.7796-1.1399 3.032-1.1399 1.2666 0 2.2839.3787 3.0504 1.1365.767.7579 1.1505 1.757 1.1505 2.9986 0 1.2366-.386 2.2336-1.158 2.9914-.7715.7579-1.7862 1.1366-3.0429 1.1366z" fill="#296cae"/><path d="m38.9576 43.8669c.8311 0 1.4794-.2871 1.9453-.862.4655-.575.6983-1.3774.6983-2.4069s-.234-1.8345-.7024-2.414c-.4685-.58-1.1151-.87-1.9412-.87-.8207 0-1.4665.2925-1.937.8771-.4709.5845-.7062 1.3869-.7062 2.4069 0 1.0199.234 1.8198.702 2.3994.4685.5799 1.1155.8695 1.9412.8695zm2.7718 1.5374c-.3876.2116-.8152.3729-1.2832.4837-.4681.1104-.964.1658-1.4873.1658-1.6056 0-2.8901-.4954-3.8541-1.4865-.9635-.9912-1.4456-2.3145-1.4456-3.9693 0-.9046.147-1.7141.4418-2.4286.2943-.7145.7332-1.3245 1.317-1.8295.468-.4041.9976-.7074 1.5889-.9095.5912-.202 1.2412-.3029 1.9507-.3029 1.6001 0 2.8834.4979 3.8494 1.4941.966.9958 1.449 2.3211 1.449 3.9764 0 .6928-.0803 1.3195-.2411 1.8798-.1611.5608-.4097 1.067-.7469 1.5191.3018.2645.6312.4754.988.6316.3573.1562.7395.2562 1.1467.2996l-.7844 1.8619c-.5934-.0579-1.1326-.2033-1.6177-.4366-.4855-.2338-.9089-.55-1.2712-.9491z" fill="#1e8d44"/><path clip-rule="evenodd" d="m46.9198 35.733c-.2355-1.372-1.1946-2.6048-2.4718-3.1724-.359-.1594-.7798.0017-.9386.3607-.1621.3597-.0008.7806.3604.9402.8554.3821 1.4909 1.1936 1.6484 2.1136.0209.1193.07.2275.1401.3173.1557.1994.4146.3096.6815.263.3872-.0663.6462-.4347.58-.8224zm2.8032-.4885c-.3959-2.2934-1.9995-4.3472-4.1244-5.2869-.3591-.1596-.779.0028-.9386.3631-.1583.3595.0001.7817.364.9382 1.6969.7503 2.9816 2.3956 3.2971 4.2273.02.1203.0703.2276.1404.3174.1557.1995.4144.3095.6815.263.3872-.0663.6475-.4355.58-.8221zm2.8045-.4984c-.5633-3.2283-2.8362-6.1168-5.8355-7.4194-.3614-.156-.7796.0087-.9369.3697-.1066.2475-.0623.5234.093.7222.0706.0905.1644.1654.2767.2144 2.571 1.1133 4.5172 3.5902 5.0001 6.3586.0667.3859.4336.6458.8241.5788.3865-.0674.6456-.4357.5785-.8243z" fill="#f5a623" fill-rule="evenodd"/></svg>