<svg height="120" viewBox="0 0 276 120" width="276" xmlns="http://www.w3.org/2000/svg" xmlns:xlink="http://www.w3.org/1999/xlink"><linearGradient id="a" x1="80.174101%" x2="18.917761%" y1="50%" y2="50%"><stop offset="0" stop-color="#f9955b"/><stop offset=".493542269" stop-color="#f9955b"/><stop offset=".494558821" stop-color="#fec774"/><stop offset="1" stop-color="#fedc7b"/></linearGradient><linearGradient id="b" x1="80.174101%" x2="18.917761%" y1="50%" y2="50%"><stop offset="0" stop-color="#fe9f67"/><stop offset=".507722182" stop-color="#feb46e"/><stop offset=".50912211" stop-color="#fec774"/><stop offset="1" stop-color="#fedc7b"/></linearGradient><g fill="none" fill-rule="evenodd"><g fill-rule="nonzero" transform="translate(140.271353 7)"><path d="m9.087 38.064h-9.087v-37.407h9.087z" fill="#2b6cad"/><path d="m14.928 38.064v-27.579h8.304v2.562c1.0227316-1.0496402 2.2584586-1.8680025 3.624-2.4 1.335-.522 2.85-.804 4.521-.804 2.988 0 5.22.942 6.672 2.844 1.455 1.902 2.19 4.806 2.19 8.73v16.644h-8.304v-16.239c0-1.86-.318-3.222-.975-4.104-.66-.882-1.692-1.302-3.108-1.302-1.671 0-2.847.399-3.564 1.221-.696.822-1.056 2.202-1.056 4.185v16.245h-8.304zm31.449 0v-22.041h-4.188v-5.085h4.188c-.06-.567-.081-.99-.099-1.233 0-.264-.021-.486-.021-.708 0-2.949.711-5.07 2.115-6.381 1.401-1.293 3.714-1.959 6.915-1.959.711 0 1.422.039 2.154.12.729.081 1.479.222 2.271.426v5.817h-1.383c-1.521 0-2.508.18-3.003.564s-.732 1.131-.732 2.28v1.074h5.118v5.088h-5.1v22.038h-8.232zm28.23 1.968c-4.47 0-8.079-1.38-10.806-4.137-2.727-2.76-4.089-6.399-4.089-10.95 0-4.503 1.362-8.166 4.11-10.944 2.727-2.76 6.336-4.158 10.788-4.158 4.512 0 8.139 1.38 10.866 4.158 2.73 2.778 4.092 6.42 4.092 10.947 0 4.506-1.383 8.148-4.131 10.926-2.727 2.778-6.336 4.158-10.83 4.158zm-6.354-15.084c0 2.592.582 4.629 1.725 6.15 1.164 1.524 2.706 2.286 4.632 2.286 1.923 0 3.489-.762 4.65-2.283 1.164-1.524 1.746-3.582 1.746-6.132 0-2.592-.582-4.632-1.725-6.174-1.164-1.524-2.706-2.283-4.65-2.283-1.926 0-3.45.78-4.614 2.325-1.182 1.521-1.764 3.579-1.764 6.111z" fill="#2b6cad"/><path d="m122.031 37.011c-1.428038.7841001-2.956023 1.3704669-4.542 1.743-1.723.406633-3.48874.6040575-5.259.588-5.679 0-10.221-1.782-13.65-5.352-3.405-3.57-5.118-8.337-5.118-14.298 0-3.264.519-6.165 1.554-8.742 1.009868-2.53532766 2.6077625-4.79438431 4.662-6.591 1.63589-1.4527983 3.54658-2.56269152 5.619-3.264 2.091-.729 4.401-1.095 6.912-1.095 5.658 0 10.2 1.785 13.626 5.373 3.426 3.591 5.121 8.358 5.121 14.319 0 2.493-.279 4.746-.858 6.774-.550252 1.9680602-1.447315 3.8221262-2.649 5.475 1.077.954 2.232 1.704 3.486 2.271 1.257.57 2.61.912 4.065 1.074l-2.769 6.714c-1.986753-.1722962-3.924935-.7081944-5.718-1.581-1.705964-.8263221-3.229755-1.984974-4.482-3.408zm-9.822-5.535c2.949 0 5.238-1.035 6.873-3.105 1.653-2.07 2.469-4.95 2.469-8.658 0-3.711-.834-6.612-2.49-8.682-1.65-2.088-3.945-3.12-6.87-3.12-2.91 0-5.181 1.05-6.855 3.162-1.674 2.109-2.49 4.989-2.49 8.658 0 3.672.837 6.552 2.49 8.64 1.674 2.07 3.963 3.105 6.87 3.105z" fill="#228d45"/></g><path d="m121.271353 1h3v85h-3z" fill="#292952"/><path d="m140.891353 62.5h20.76v3.09h-8.7v13.11h10.77v3.09h-24.9v-3.09h10.77v-13.11h-8.7zm48.498333-6.09c1.44 1.29 2.55 2.64 3.33 4.02l-1.77 1.29c-.87-1.5-1.92-2.85-3.18-4.05zm-3.21 1.38c1.35 1.2 2.46 2.58 3.3 4.08l-1.74 1.23c-.84-1.47-1.92-2.82-3.21-4.05zm-18.63 2.58h17.82v3.09h-17.82zm-2.64 6.96h25.38v3.09h-10.71c-.21 3-.87 5.43-1.95 7.32-1.38 2.28-3.78 4.38-7.2 6.27l-2.19-2.46c2.91-1.56 4.95-3.18 6.09-4.89 1.05-1.59 1.68-3.66 1.86-6.24h-11.28zm44.988333-3.27 2.46 2.25c-1.92 1.92-4.05 3.69-6.36 5.31v11.49h-3.21v-9.48c-2.28 1.32-4.74 2.52-7.35 3.6l-1.77-2.76c2.97-1.2 5.94-2.76 8.91-4.65 2.94-1.89 5.4-3.81 7.32-5.76zm18.018333-5.91 3.09.99c-.3.84-.63 1.68-.99 2.52h9.51l1.95 1.05c-.81 4.8-2.67 9-5.58 12.63-3.06 3.78-6.99 6.6-11.82 8.46l-1.77-2.82c4.08-1.56 7.47-3.75 10.17-6.6.03-.06.06-.09.09-.12-.72-.51-1.47-.99-2.19-1.44-1.44-.93-2.91-1.74-4.41-2.46l2.01-2.4c1.47.75 2.94 1.56 4.38 2.43.72.45 1.47.93 2.19 1.41 1.47-2.16 2.52-4.5 3.18-7.05h-9.33c-.48.78-.99 1.53-1.53 2.28-1.68 2.25-3.69 4.26-6.03 6.06l-2.31-2.19c2.28-1.8 4.2-3.75 5.76-5.82 1.59-2.16 2.79-4.47 3.63-6.93zm17.868333 11.49h23.07v3.09h-23.07z" fill="#292952"/><path d="m1.99999994-2.0000003 86.00000006-.00000264c2.209139 0 4 1.790861 4 4.00000271l-.0001 73.84243543c-.0000021 1.6407667-1.0020004 3.1151374-2.5275554 3.7191219l-44.4271115 17.5891969-44.51515847-17.5891901c-1.52688489-.6033151-2.53007463-2.0783664-2.53007463-3.7201235v-73.8414407c0-2.209139 1.790861-4 4-4z" stroke="#292952" stroke-width="4" transform="translate(4.271353 4)"/><g transform="matrix(-.78801075 -.61566148 .61566148 -.78801075 30.976559 117.407736)"><path d="m41.7016533 74h-31.6413984v-4.5452671l-10.0602549-10.0556601 25.7323575-59.3990728 26.2676425 59.3990728-10.2983467 10.0556601z" fill="url(#a)" stroke="#292952" stroke-linecap="round" stroke-linejoin="round" stroke-width="4"/><path d="m26 11 11.225274 39.7703123c.2590108 5.9209247-.1610368 9.8154301-1.2601426 11.6835162-1.6486588 2.8021291.8502692 9.5041793 1.9492824 9.5041793.7326755 0-3.2387958 0-11.9144138 0z" fill="#ffbd71"/><g stroke="#292952" stroke-linecap="round" stroke-linejoin="round"><path d="m2 76h48v11h-48z" fill="url(#b)" stroke-width="4"/><path d="m10.5557476 100.5-3.20691591-12h38.26168661l-2.4123621 12z" fill="#292952"/><path d="m26 2v41" stroke-width="4"/></g><circle cx="25.5" cy="41.5" fill="#292952" r="7.5"/></g><path d="m10.2713534 102c9.9565285 10.666667 19.3919237 16 28.3061855 16 13.3713926 0 16.9131692-6.580078 25.1067145-8 5.4623635-.946615 12.6580635.5914 21.5871 4.614044" stroke="#292952" stroke-linecap="round" stroke-linejoin="round" stroke-width="3"/></g></svg>