<svg height="120" viewBox="0 0 276 120" width="276" xmlns="http://www.w3.org/2000/svg" xmlns:xlink="http://www.w3.org/1999/xlink"><linearGradient id="a" x1="80.174%" x2="18.918%" y1="50%" y2="50%"><stop offset="0" stop-color="#f9955b"/><stop offset=".49354" stop-color="#f9955b"/><stop offset=".49456" stop-color="#fec774"/><stop offset="1" stop-color="#fedc7b"/></linearGradient><linearGradient id="b" x1="80.174%" x2="18.918%" y1="50%" y2="50%"><stop offset="0" stop-color="#fe9f67"/><stop offset=".50772" stop-color="#feb46e"/><stop offset=".50912" stop-color="#fec774"/><stop offset="1" stop-color="#fedc7b"/></linearGradient><g fill="none" fill-rule="evenodd"><g fill-rule="nonzero" transform="translate(140.271)"><path d="m9.087 38.064h-9.087v-37.407h9.087z" fill="#2b6cad"/><path d="m14.928 38.064v-27.579h8.304v2.562c1.0227316-1.0496402 2.2584586-1.8680025 3.624-2.4 1.335-.522 2.85-.804 4.521-.804 2.988 0 5.22.942 6.672 2.844 1.455 1.902 2.19 4.806 2.19 8.73v16.644h-8.304v-16.239c0-1.86-.318-3.222-.975-4.104-.66-.882-1.692-1.302-3.108-1.302-1.671 0-2.847.399-3.564 1.221-.696.822-1.056 2.202-1.056 4.185v16.245h-8.304zm31.449 0v-22.041h-4.188v-5.085h4.188c-.06-.567-.081-.99-.099-1.233 0-.264-.021-.486-.021-.708 0-2.949.711-5.07 2.115-6.381 1.401-1.293 3.714-1.959 6.915-1.959.711 0 1.422.039 2.154.12.729.081 1.479.222 2.271.426v5.817h-1.383c-1.521 0-2.508.18-3.003.564s-.732 1.131-.732 2.28v1.074h5.118v5.088h-5.1v22.038h-8.232zm28.23 1.968c-4.47 0-8.079-1.38-10.806-4.137-2.727-2.76-4.089-6.399-4.089-10.95 0-4.503 1.362-8.166 4.11-10.944 2.727-2.76 6.336-4.158 10.788-4.158 4.512 0 8.139 1.38 10.866 4.158 2.73 2.778 4.092 6.42 4.092 10.947 0 4.506-1.383 8.148-4.131 10.926-2.727 2.778-6.336 4.158-10.83 4.158zm-6.354-15.084c0 2.592.582 4.629 1.725 6.15 1.164 1.524 2.706 2.286 4.632 2.286 1.923 0 3.489-.762 4.65-2.283 1.164-1.524 1.746-3.582 1.746-6.132 0-2.592-.582-4.632-1.725-6.174-1.164-1.524-2.706-2.283-4.65-2.283-1.926 0-3.45.78-4.614 2.325-1.182 1.521-1.764 3.579-1.764 6.111z" fill="#2b6cad"/><path d="m122.031 37.011c-1.428038.7841001-2.956023 1.3704669-4.542 1.743-1.723.406633-3.48874.6040575-5.259.588-5.679 0-10.221-1.782-13.65-5.352-3.405-3.57-5.118-8.337-5.118-14.298 0-3.264.519-6.165 1.554-8.742 1.009868-2.53532766 2.6077625-4.79438431 4.662-6.591 1.63589-1.4527983 3.54658-2.56269152 5.619-3.264 2.091-.729 4.401-1.095 6.912-1.095 5.658 0 10.2 1.785 13.626 5.373 3.426 3.591 5.121 8.358 5.121 14.319 0 2.493-.279 4.746-.858 6.774-.550252 1.9680602-1.447315 3.8221262-2.649 5.475 1.077.954 2.232 1.704 3.486 2.271 1.257.57 2.61.912 4.065 1.074l-2.769 6.714c-1.986753-.1722962-3.924935-.7081944-5.718-1.581-1.705964-.8263221-3.229755-1.984974-4.482-3.408zm-9.822-5.535c2.949 0 5.238-1.035 6.873-3.105 1.653-2.07 2.469-4.95 2.469-8.658 0-3.711-.834-6.612-2.49-8.682-1.65-2.088-3.945-3.12-6.87-3.12-2.91 0-5.181 1.05-6.855 3.162-1.674 2.109-2.49 4.989-2.49 8.658 0 3.672.837 6.552 2.49 8.64 1.674 2.07 3.963 3.105 6.87 3.105z" fill="#228d45"/></g><path d="m121.271 1h3v85h-3z" fill="#292952"/><path d="m154.253353 59.396-.592 3.959h-9.25v6.66h8.066v3.922h-8.066v7.067h9.916v3.996h-15.355v-25.604zm-4.551-9.361 1.998 3.996-8.658 3.145-1.332-2.701zm24.629667 7.548v27.417h-4.625l-.296-2.405c-1.38134 1.99801-3.255988 2.997-5.624 2.997-2.417345 0-4.26116-.9311574-5.5315-2.7935s-1.9055-4.3968173-1.9055-7.6035c0-2.0226768.32683-3.8171588.9805-5.3835s1.584827-2.7934956 2.7935-3.6815 2.602326-1.332 4.181-1.332c1.825343 0 3.416327.6536601 4.773 1.961v-9.768zm-8.991 24.087c.764671 0 1.442997-.1911648 2.035-.5735s1.159331-.9804959 1.702-1.7945v-8.769c-.518003-.6166697-1.042164-1.0791651-1.5725-1.3875s-1.14083-.4625-1.8315-.4625c-1.208673 0-2.152163.530328-2.8305 1.591s-1.0175 2.7009889-1.0175 4.921c0 2.3433451.302164 4.0083284.9065 4.995s1.473828 1.48 2.6085 1.48zm19.116667-16.28v19.61h-5.254v-19.61zm-2.664-10.101c.937338 0 1.708163.2898304 2.3125.8695.604336.5796696.9065 1.3134956.9065 2.2015s-.302164 1.6218304-.9065 2.2015c-.604337.5796696-1.375162.8695-2.3125.8695s-1.701997-.2898304-2.294-.8695-.888-1.3134956-.888-2.2015.295997-1.6218304.888-2.2015 1.356662-.8695 2.294-.8695zm19.264666 28.786c-.715336.4933358-1.523162.8694987-2.4235 1.1285-.900337.2590013-1.794495.3885-2.6825.3885-2.022676-.0246668-3.551994-.6043277-4.588-1.739-1.036005-1.1346723-1.554-2.7996557-1.554-4.995v-9.768h-2.923v-3.7h2.923v-4.292l5.254-.629v4.921h4.514l-.518 3.7h-3.996v9.657c0 .937338.160332 1.6156646.481 2.035.320669.4193354.813997.629 1.48.629.666004 0 1.405996-.2219978 2.22-.666zm17.969667-9.324c0 .2466679-.036999.9249945-.111 2.035h-12.247c.172668 1.7760089.653663 3.0339963 1.443 3.774s1.862327 1.11 3.219 1.11c.838671 0 1.627996-.1356653 2.368-.407s1.541663-.702997 2.405-1.295l2.183 2.96c-2.195344 1.7760089-4.674319 2.664-7.437 2.664-3.083349 0-5.451325-.9249907-7.104-2.775-1.652675-1.8500092-2.479-4.3536509-2.479-7.511 0-1.99801.351497-3.792492 1.0545-5.3835.703004-1.591008 1.72666-2.8428288 3.071-3.7555s2.941491-1.369 4.7915-1.369c2.787347 0 4.957992.8756579 6.512 2.627s2.331 4.1933177 2.331 7.326zm-5.217-1.48c0-3.2560163-1.171655-4.884-3.515-4.884-1.085339 0-1.930163.4008293-2.5345 1.2025-.604336.8016707-.968166 2.1028243-1.0915 3.9035h7.141zm24.777667 11.729h-4.551l-.259-2.627c-.69067 1.0853388-1.529329 1.893164-2.516 2.4235-.986672.530336-2.13366.7955-3.441.7955-1.776009 0-3.132662-.5364946-4.07-1.6095s-1.406-2.5714904-1.406-4.4955v-14.097h5.254v13.431c0 1.0360052.172665 1.7698312.518 2.2015s.887996.6475 1.628.6475c1.406007 0 2.602328-.8509915 3.589-2.553v-13.727h5.254zm15.009667-20.165c.592003 0 1.245663.0986657 1.961.296l-.888 5.069c-.690671-.1726675-1.270331-.259-1.739-.259-1.15934 0-2.059664.4069959-2.701 1.221-.641337.8140041-1.146999 2.0473251-1.517 3.7v10.138h-5.254v-19.61h4.551l.481 3.811c.468669-1.3813402 1.153162-2.4543295 2.0535-3.219.900337-.7646705 1.917827-1.147 3.0525-1.147z" fill="#292952"/><path d="m1.99999994-2.0000003 86.00000006-.00000264c2.209139 0 4 1.790861 4 4.00000271l-.0001 73.84243543c-.0000021 1.6407667-1.0020004 3.1151374-2.5275554 3.7191219l-44.4271115 17.5891969-44.51515847-17.5891901c-1.52688489-.6033151-2.53007463-2.0783664-2.53007463-3.7201235v-73.8414407c0-2.209139 1.790861-4 4-4z" stroke="#292952" stroke-width="4" transform="translate(4.271 4)"/><g transform="matrix(-.78801075 -.61566148 .61566148 -.78801075 30.977707 117.40648)"><path d="m41.702 74h-31.642v-4.545l-10.06-10.056 25.732-59.399 26.268 59.399-10.298 10.056z" fill="url(#a)" stroke="#292952" stroke-linecap="round" stroke-linejoin="round" stroke-width="4"/><path d="m26 11 11.225274 39.7703123c.2590108 5.9209247-.1610368 9.8154301-1.2601426 11.6835162-1.6486588 2.8021291.8502692 9.5041793 1.9492824 9.5041793.7326755 0-3.2387958 0-11.9144138 0z" fill="#ffbd71"/><g stroke="#292952" stroke-linecap="round" stroke-linejoin="round"><path d="m2 76h48v11h-48z" fill="url(#b)" stroke-width="4"/><path d="m10.5557476 100.5-3.20691591-12h38.26168661l-2.4123621 12z" fill="#292952"/><path d="m26 2v41" stroke-width="4"/></g><circle cx="25.5" cy="41.5" fill="#292952" r="7.5"/></g><path d="m10.2713534 102c9.9565285 10.666667 19.3919237 16 28.3061855 16 13.3713926 0 16.9131692-6.580078 25.1067145-8 5.4623635-.946615 12.6580635.5914 21.5871 4.614044" stroke="#292952" stroke-linecap="round" stroke-linejoin="round" stroke-width="3"/></g></svg>