<?xml version="1.0" encoding="UTF-8"?>
<svg width="54px" height="54px" viewBox="0 0 54 54" version="1.1" xmlns="http://www.w3.org/2000/svg" xmlns:xlink="http://www.w3.org/1999/xlink">
    <!-- Generator: Sketch 47.1 (45422) - http://www.bohemiancoding.com/sketch -->
    <title>plus</title>
    <desc>Created with Sketch.</desc>
    <defs>
        <linearGradient x1="81.3295718%" y1="15.0101273%" x2="22.2005208%" y2="88.4620949%" id="linearGradient-1">
            <stop stop-color="#4AC668" offset="0%"></stop>
            <stop stop-color="#1097EC" offset="100%"></stop>
        </linearGradient>
    </defs>
    <g id="Page-1" stroke="none" stroke-width="1" fill="none" fill-rule="evenodd">
        <g id="Notification-Widget-Non-Logged" transform="translate(-504.000000, -175.000000)" fill-rule="nonzero" fill="url(#linearGradient-1)">
            <g id="plus" transform="translate(504.000000, 175.000000)">
                <g id="Group">
                    <path d="M27,0 C12.1123,0 0,12.1123 0,27 C0,41.8877 12.1123,54 27,54 C41.8877,54 54,41.8877 54,27 C54,12.1123 41.8877,0 27,0 Z M40,28 L28,28 L28,40 C28,40.5522 27.5522,41 27,41 C26.4478,41 26,40.5522 26,40 L26,28 L14,28 C13.4478,28 13,27.5522 13,27 C13,26.4478 13.4478,26 14,26 L26,26 L26,14 C26,13.4478 26.4478,13 27,13 C27.5522,13 28,13.4478 28,14 L28,26 L40,26 C40.5522,26 41,26.4478 41,27 C41,27.5522 40.5522,28 40,28 Z" id="Shape"></path>
                </g>
            </g>
        </g>
    </g>
</svg>