<?xml version="1.0" encoding="UTF-8"?>
<svg width="30px" height="35px" viewBox="0 0 30 35" version="1.1" xmlns="http://www.w3.org/2000/svg" xmlns:xlink="http://www.w3.org/1999/xlink">
    <!-- Generator: Sketch 48.2 (47327) - http://www.bohemiancoding.com/sketch -->
    <title>icon-notifications</title>
    <desc>Created with Sketch.</desc>
    <defs></defs>
    <g id="Article-1-Copy" stroke="none" stroke-width="1" fill="none" fill-rule="evenodd" transform="translate(-417.000000, -507.000000)">
        <g id="Banner---Warning" transform="translate(393.000000, 482.000000)" fill-rule="nonzero">
            <g id="Group-3" transform="translate(15.000000, 19.000000)">
                <g id="icon-notifications" transform="translate(9.000000, 6.000000)">
                    <rect id="Rectangle-path" fill="#BFE5C2" x="8" y="0" width="6" height="2"></rect>
                    <polygon id="Shape" fill="#E1C38F" points="26.9994834 16.9744704 25.1458584 18 25.5002583 15.8283542 24 14.2911461 26.0726709 13.9750136 26.9994834 12 27.9262958 13.9750136 30 14.2911461 28.4997417 15.8283542 28.8541416 18"></polygon>
                    <circle id="Oval" fill="#8FE19A" cx="21.5" cy="3.5" r="2.5"></circle>
                    <circle id="Oval" fill="#E1DF8F" cx="6" cy="7" r="2"></circle>
                    <circle id="Oval" fill="#E18FD4" cx="27" cy="31" r="2"></circle>
                    <rect id="Rectangle-path" fill="#8FC0E1" x="7" y="30" width="4" height="5"></rect>
                    <polygon id="Shape" fill="#8FE196" points="3.9124424 18 3.9124424 20.156682 6 20.156682 6 21.843318 3.9124424 21.843318 3.9124424 24 2.10138249 24 2.10138249 21.843318 0 21.843318 0 20.156682 2.10138249 20.156682 2.10138249 18"></polygon>
                    <path d="M16,29 C17.1647059,29 18.1176471,28.01 18.1176471,26.8 L13.8823529,26.8 C13.8823529,28.01 14.8352941,29 16,29 Z M22.8823529,22.4 L22.8823529,16.35 C22.8823529,12.973 20.6270588,10.146 17.5882353,9.398 L17.5882353,8.65 C17.5882353,7.737 16.8788235,7 16,7 C15.1211765,7 14.4117647,7.737 14.4117647,8.65 L14.4117647,9.398 C11.3729412,10.146 9.11764706,12.973 9.11764706,16.35 L9.11764706,22.4 L7,24.6 L7,25.7 L25,25.7 L25,24.6 L22.8823529,22.4 Z" id="Shape" fill="#59BA71"></path>
                </g>
            </g>
        </g>
    </g>
</svg>