<?xml version="1.0" encoding="UTF-8"?>
<svg width="52px" height="53px" viewBox="0 0 52 53" version="1.1" xmlns="http://www.w3.org/2000/svg" xmlns:xlink="http://www.w3.org/1999/xlink">
    <!-- Generator: Sketch 47.1 (45422) - http://www.bohemiancoding.com/sketch -->
    <title>Like Copy</title>
    <desc>Created with Sketch.</desc>
    <defs>
        <linearGradient x1="81.3295718%" y1="15.0101273%" x2="22.2005208%" y2="88.4620949%" id="linearGradient-1">
            <stop stop-color="#4AC668" offset="0%"></stop>
            <stop stop-color="#1097EC" offset="100%"></stop>
        </linearGradient>
    </defs>
    <g id="Page-1" stroke="none" stroke-width="1" fill="none" fill-rule="evenodd">
        <g id="Notification-Widget-Non-Logged" transform="translate(-204.000000, -175.000000)">
            <g id="Like-Copy" transform="translate(204.000000, 175.000000)">
                <rect id="Rectangle-6" fill="url(#linearGradient-1)" x="0" y="0" width="52" height="53" rx="26"></rect>
                <g id="ic_notifications_black_24px" transform="translate(18.000000, 17.000000)" fill="#FFFFFF">
                    <path d="M8.22016461,19.3415638 C9.28395062,19.3415638 10.154321,18.4711934 10.154321,17.4074074 L6.28600823,17.4074074 C6.28600823,18.4711934 7.1563786,19.3415638 8.22016461,19.3415638 L8.22016461,19.3415638 Z M14.5061728,13.5390947 L14.5061728,8.22016461 C14.5061728,5.25123457 12.4462963,2.76584362 9.67078189,2.10823045 L9.67078189,1.45061728 C9.67078189,0.647942387 9.02283951,0 8.22016461,0 C7.41748971,0 6.76954733,0.647942387 6.76954733,1.45061728 L6.76954733,2.10823045 C3.99403292,2.76584362 1.93415638,5.25123457 1.93415638,8.22016461 L1.93415638,13.5390947 L0,15.473251 L0,16.4403292 L16.4403292,16.4403292 L16.4403292,15.473251 L14.5061728,13.5390947 L14.5061728,13.5390947 Z" id="Shape"></path>
                </g>
            </g>
        </g>
    </g>
</svg>