<?xml version="1.0" encoding="UTF-8"?>
<svg width="22px" height="22px" viewBox="0 0 22 22" version="1.1" xmlns="http://www.w3.org/2000/svg" xmlns:xlink="http://www.w3.org/1999/xlink">
    <!-- Generator: Sketch 54.1 (76490) - https://sketchapp.com -->
    <title>Shape</title>
    <desc>Created with Sketch.</desc>
    <g id="Podcasts" stroke="none" stroke-width="1" fill="none" fill-rule="evenodd">
        <g id="Mobile-Dropdown" transform="translate(-33.000000, -775.000000)" fill="#FF4300" fill-rule="nonzero">
            <g id="Tooltip" transform="translate(15.000000, 634.000000)">
                <path d="M38.8297872,141 L19.1702128,141 C18.5237872,141 18,141.524021 18,142.170213 L18,161.829787 C18,162.475979 18.5237872,163 19.1702128,163 L38.8297872,163 C39.4762128,163 40,162.475979 40,161.829787 L40,142.170213 C40,141.524021 39.4762128,141 38.8297872,141 Z M20.1531915,154.859298 C20.1475745,154.901426 20.117383,154.930213 20.0804043,154.930213 C20.0424894,154.930213 20.0120638,154.900957 20.0071489,154.85883 L19.8737447,153.862511 L20.0071489,152.848638 C20.0120638,152.806277 20.0422553,152.777021 20.0804043,152.777021 C20.1171489,152.777021 20.1473404,152.806277 20.1531915,152.848404 L20.3114043,153.862511 L20.1531915,154.859298 Z M20.8312128,155.465936 C20.8253617,155.509468 20.794,155.53966 20.755617,155.53966 C20.716766,155.53966 20.6844681,155.508766 20.6795532,155.465936 L20.5000426,153.862979 L20.6795532,152.223979 C20.6844681,152.180915 20.716766,152.150489 20.755617,152.150489 C20.794,152.150489 20.8253617,152.180681 20.8312128,152.223979 L21.0355319,153.862979 L20.8312128,155.465936 Z M21.563766,155.736957 C21.5581489,155.789149 21.519766,155.826596 21.4724894,155.826596 C21.4242766,155.826596 21.3856596,155.789149 21.3807447,155.736489 L21.2103617,153.862979 L21.3807447,151.918085 C21.3856596,151.866128 21.4242766,151.828447 21.4724894,151.828447 C21.5195319,151.828447 21.5579149,151.866128 21.563766,151.918085 L21.7570851,153.862979 L21.563766,155.736957 Z M22.3024043,155.796404 C22.2974894,155.856319 22.2511489,155.901489 22.1956809,155.901489 C22.1388085,155.901489 22.0927021,155.856319 22.0882553,155.796404 L21.927234,153.863213 L22.0882553,151.864723 C22.0927021,151.804809 22.1388085,151.759638 22.1956809,151.759638 C22.2511489,151.759638 22.2974894,151.804809 22.3024043,151.864489 L22.4851915,153.863213 L22.3024043,155.796404 Z M23.0466596,155.812553 C23.0422128,155.881128 22.9893191,155.933553 22.9244894,155.933553 C22.8587234,155.933553 22.8058298,155.881128 22.8018511,155.812553 L22.6497234,153.863447 L22.8018511,152.00983 C22.8060638,151.940787 22.8587234,151.88883 22.9244894,151.88883 C22.9893191,151.88883 23.0424468,151.940787 23.0466596,152.009128 L23.2191489,153.863447 L23.0466596,155.812553 Z M23.796766,155.813255 L23.796766,155.812787 C23.7925532,155.889319 23.7319362,155.949468 23.6589149,155.949468 C23.5849574,155.949468 23.5245745,155.889319 23.5208298,155.813255 L23.3780638,153.864149 C23.3780638,153.864149 23.5208298,150.848511 23.5208298,150.848277 C23.5245745,150.771511 23.5847234,150.711596 23.6589149,150.711596 C23.7319362,150.711596 23.7925532,150.771745 23.796766,150.848043 L23.9580213,153.864149 L23.796766,155.813255 Z M24.5412553,155.811851 L24.5412553,155.810915 C24.5375106,155.89634 24.4698723,155.963043 24.3877234,155.963043 C24.3048723,155.963043 24.2377021,155.89634 24.2341915,155.811617 L24.1007872,153.874681 C24.1007872,153.874681 24.2337234,150.169319 24.2337234,150.169085 C24.2379362,150.08366 24.3051064,150.016723 24.3877234,150.016723 C24.4701064,150.016723 24.5377447,150.08366 24.5412553,150.169085 L24.6922128,153.874681 L24.5412553,155.811851 Z M25.314766,155.782362 L25.314766,155.781191 C25.3110213,155.875277 25.2365957,155.949 25.1455532,155.949 C25.0535745,155.949 24.979617,155.875511 24.9758723,155.781894 L24.8520638,153.865085 C24.8520638,153.865085 24.9758723,149.850319 24.9758723,149.850085 C24.979617,149.756 25.0535745,149.682043 25.1455532,149.682043 C25.2365957,149.682043 25.3110213,149.755766 25.314766,149.850085 L25.4551915,153.865085 L25.314766,155.782362 Z M26.0821915,155.769255 C26.079383,155.871766 25.9981702,155.952511 25.898,155.952511 C25.7968936,155.952511 25.7156809,155.871766 25.7128723,155.769723 L25.5977234,153.864851 L25.7128723,149.714809 C25.7156809,149.61183 25.7968936,149.530851 25.898,149.530851 C25.9981702,149.530851 26.079383,149.611596 26.0821915,149.714809 L26.2120851,153.865085 L26.0821915,155.769255 Z M26.8561702,155.752872 L26.8561702,155.751468 C26.8533617,155.863106 26.7651277,155.951106 26.6560638,155.951106 C26.5462979,155.951106 26.4580638,155.863106 26.4559574,155.752404 L26.3499362,153.865553 L26.4559574,149.821532 C26.4582979,149.70966 26.5465319,149.622128 26.6560638,149.622128 C26.7653617,149.622128 26.8535957,149.709426 26.8561702,149.821298 L26.9755319,153.866021 L26.8561702,155.752872 Z M27.636,155.740936 L27.636,155.739064 C27.6336596,155.860064 27.5386383,155.954383 27.4202128,155.954383 C27.3013191,155.954383 27.2062979,155.860064 27.2034894,155.740468 L27.1075319,153.865319 L27.2034894,149.969213 C27.2062979,149.848447 27.3013191,149.753894 27.4202128,149.753894 C27.5386383,149.753894 27.6336596,149.848447 27.636,149.968745 L27.7443617,153.866021 L27.636,155.740936 Z M28.4312766,155.543638 L28.4216809,155.72783 C28.4202766,155.791255 28.3938298,155.849064 28.3517021,155.890723 C28.3100426,155.932383 28.2529362,155.958596 28.1899787,155.958596 C28.1190638,155.958596 28.0556383,155.925596 28.0125745,155.875043 C27.9809787,155.837128 27.9613191,155.789149 27.9587447,155.736957 C27.9587447,155.734383 27.9582766,155.732043 27.9582766,155.729234 C27.9582766,155.729234 27.8709787,153.867894 27.8709787,153.865085 L27.9578085,149.27317 L27.9582766,149.229404 C27.9596809,149.148426 28.0022766,149.077277 28.065234,149.036085 C28.1012766,149.012447 28.1438723,148.998404 28.1899787,148.998404 C28.2370213,148.998404 28.2814894,149.013149 28.318,149.037723 C28.3793191,149.079383 28.4205106,149.149596 28.4216809,149.228936 L28.5190426,153.865787 L28.4312766,155.543638 Z M29.2038511,155.702085 L29.2038511,155.702085 L29.2038511,155.700213 C29.2015106,155.835957 29.0910426,155.94666 28.9564681,155.94666 C28.8218936,155.94666 28.7109574,155.835957 28.7090851,155.701617 L28.659234,154.796809 L28.6075106,153.866723 L28.708617,148.834574 L28.7090851,148.809298 C28.7100213,148.733 28.7455957,148.664426 28.8005957,148.619255 C28.8436596,148.583915 28.8974894,148.562617 28.9564681,148.562617 C29.0021064,148.562617 29.0456383,148.575723 29.082383,148.598191 C29.153766,148.641489 29.2026809,148.71966 29.2040851,148.80883 L29.3138511,153.866723 L29.2038511,155.702085 Z M35.8813191,155.951809 C35.8813191,155.951809 29.6637447,155.952745 29.6576596,155.951809 C29.5237872,155.938468 29.4172979,155.831511 29.4154255,155.694128 L29.4154255,148.568936 C29.4172979,148.437872 29.462,148.370702 29.6312128,148.304936 C30.067234,148.136426 30.5615319,148.036723 31.0675319,148.036723 C33.1374043,148.036723 34.8337447,149.623766 35.0127872,151.64683 C35.2798298,151.534957 35.5733191,151.472702 35.8813191,151.472702 C37.1210426,151.472702 38.1257872,152.477681 38.1257872,153.717638 C38.1257872,154.958064 37.1210426,155.951809 35.8813191,155.951809 Z" id="Shape"></path>
            </g>
        </g>
    </g>
</svg>