<svg fill="none" height="12" viewBox="0 0 12 12" width="12" xmlns="http://www.w3.org/2000/svg"><g stroke="#000" stroke-linecap="round" stroke-linejoin="round" stroke-width="0.75"><path d="m6 .5c-.3978 0-.77935.158035-1.06066.43934-.2813.2813-.43934.66283-.43934 1.06066v4c0 .3978.15804.77935.43934 1.06065.28131.2813.66286.43935 1.06066.43935s.77935-.15805 1.06065-.43935.43935-.66285.43935-1.06065v-4c0-.39783-.15805-.77936-.43935-1.06066-.2813-.281305-.66285-.43934-1.06065-.43934z"/><path d="m9.5 5v1c0 .92825-.36875 1.8185-1.02515 2.47485-.65635.6564-1.5466 1.02515-2.47485 1.02515s-1.81849-.36875-2.47487-1.02515c-.65638-.65635-1.02513-1.5466-1.02513-2.47485v-1"/><path d="m6 9.5v2"/><path d="m4 11.5h4"/></g></svg>