<svg xmlns="http://www.w3.org/2000/svg" width="20" height="14" viewBox="0 0 20 14">
  <path fill="#000000" fill-rule="evenodd" d="M0.107526882,9.3415 C0.107526882,11.867625 2.12064516,13.9153437 4.60408602,13.9153437 C7.08752688,13.9153437 9.10064516,11.867625 9.10064516,9.3415 C9.10064516,6.8464375 7.13569892,4.81928125 4.6944086,4.7700625 C5.82967742,3.63759375 7.38451613,2.93803125 9.10064516,2.93803125 L9.10064516,0.1938125 C4.13397849,0.1938125 0.107526882,4.28946875 0.107526882,9.3415 L0.107526882,9.3415 Z M19.8924731,0.1938125 C14.9258065,0.1938125 10.8993548,4.28946875 10.8993548,9.3415 C10.8993548,11.867625 12.9126882,13.9153437 15.395914,13.9153437 C17.8793548,13.9153437 19.8924731,11.867625 19.8924731,9.3415 C19.8924731,6.8464375 17.9275269,4.81928125 15.4862366,4.7700625 C16.6215054,3.63759375 18.1765591,2.93803125 19.8924731,2.93803125 L19.8924731,0.1938125 L19.8924731,0.1938125 Z"/>
</svg>
