<?xml version="1.0" encoding="UTF-8"?>
<svg width="14px" height="14px" viewBox="0 0 14 14" version="1.1" xmlns="http://www.w3.org/2000/svg" xmlns:xlink="http://www.w3.org/1999/xlink">
    <!-- Generator: Sketch 46.2 (44496) - http://www.bohemiancoding.com/sketch -->
    <title>Shape</title>
    <desc>Created with Sketch.</desc>
    <defs></defs>
    <g id="Page-1" stroke="none" stroke-width="1" fill="none" fill-rule="evenodd">
        <g id="user" fill="#FFFFFF">
            <path d="M7,7 C6.028,7 5.201,6.66 4.52,5.98 C3.84,5.299 3.5,4.472 3.5,3.5 C3.5,2.528 3.84,1.701 4.52,1.02 C5.202,0.34 6.029,0 7,0 C7.971,0 8.799,0.34 9.48,1.02 C10.16,1.701 10.5,2.528 10.5,3.5 C10.5,4.472 10.16,5.299 9.48,5.98 C8.798,6.66 7.971,7 7,7 Z M7,8.75 C8.458,8.75 9.99,9.072 11.594,9.716 C13.198,10.36 14,11.205 14,12.25 L14,14 L0,14 L0,12.25 C0,11.205 0.802,10.36 2.406,9.716 C4.01,9.072 5.542,8.75 7,8.75 Z" id="Shape"></path>
        </g>
    </g>
</svg>