<svg width="330" height="582" viewBox="0 0 330 582" xmlns="http://www.w3.org/2000/svg" xmlns:xlink="http://www.w3.org/1999/xlink"><title>frame copy</title><defs><path id="b" d="M0 0H304V52H0z"/><filter x="-.1%" y="-.5%" width="100.2%" height="101.9%" filterUnits="objectBoundingBox" id="a"><feOffset dy=".5" in="SourceAlpha" result="shadowOffsetOuter1"/><feComposite in="shadowOffsetOuter1" in2="SourceAlpha" operator="out" result="shadowOffsetOuter1"/><feColorMatrix values="0 0 0 0 0 0 0 0 0 0 0 0 0 0 0 0 0 0 0.25 0" in="shadowOffsetOuter1"/></filter></defs><g transform="translate(1 1)" fill="none" fill-rule="evenodd"><g transform="translate(11.303 24)"><use fill="#000" filter="url(#a)" xlink:href="#b"/><use fill-opacity=".82" fill="#F8F8F8" xlink:href="#b"/><g transform="translate(182 8)" fill-rule="nonzero"><path d="M90.5 24.379l-7.94-7.94a1.5 1.5 0 0 0-2.12 2.122l9 9a1.5 1.5 0 0 0 2.12 0l9-9a1.5 1.5 0 0 0-2.12-2.122l-7.94 7.94z" fill="#007AFF"/><path d="M43.5 19.621l7.94 7.94a1.5 1.5 0 0 0 2.12-2.122l-9-9a1.5 1.5 0 0 0-2.12 0l-9 9a1.5 1.5 0 0 0 2.12 2.122l7.94-7.94z" fill="#727272" opacity=".196"/></g><g transform="translate(9 23.125)" fill="#007AFF"><path d="M25.021 17h-1.494V5.022h1.494V17zm2.463 0V8.052h1.36v1.41h.134c.448-.987 1.32-1.568 2.69-1.568 2.008 0 3.129 1.187 3.129 3.312V17h-1.428v-5.445c0-1.61-.68-2.374-2.109-2.374-1.427 0-2.349.954-2.349 2.523V17h-1.427zm13.958.158c-1.245 0-2.307-.59-2.872-1.586h-.133V17h-1.361V4.499h1.428v4.964h.133c.49-.963 1.577-1.569 2.805-1.569 2.275 0 3.752 1.818 3.752 4.632 0 2.797-1.486 4.632-3.752 4.632zM41.11 9.18c-1.627 0-2.64 1.278-2.64 3.345s1.013 3.345 2.64 3.345c1.635 0 2.607-1.253 2.607-3.345 0-2.092-.972-3.345-2.607-3.345zm9.593 7.977c-2.549 0-4.126-1.76-4.126-4.632 0-2.88 1.577-4.632 4.126-4.632 2.548 0 4.125 1.752 4.125 4.632 0 2.872-1.577 4.632-4.125 4.632zm0-1.287c1.693 0 2.648-1.228 2.648-3.345 0-2.125-.955-3.345-2.648-3.345-1.694 0-2.648 1.22-2.648 3.345 0 2.117.954 3.345 2.648 3.345zm8.712-2.25h-.133L57.157 17H55.54l3.063-4.474-3.096-4.474h1.701l2.125 3.328h.133l2.1-3.328h1.619l-3.038 4.416L63.226 17h-1.694l-2.117-3.378z"/><path d="M3.621 11l7.94-7.94A1.5 1.5 0 0 0 9.439.94l-9 9a1.5 1.5 0 0 0 0 2.12l9 9a1.5 1.5 0 0 0 2.122-2.12L3.62 11z" fill-rule="nonzero"/></g><g><g transform="translate(254 4.5)"><path d="M3.205.5c-.94 0-1.31.071-1.69.275-.32.171-.569.42-.74.74-.204.38-.275.75-.275 1.69v5.09c0 .94.071 1.31.275 1.69.171.32.42.569.74.74.38.204.75.275 1.69.275h18.869c.787 0 1.426-.639 1.426-1.426v-6.37c0-.94-.071-1.309-.275-1.69a1.772 1.772 0 0 0-.74-.74c-.38-.203-.75-.274-1.69-.274H3.205z" stroke="#000" opacity=".4"/><path d="M25 4a2 2 0 0 1 0 3.874V4z" fill="#000" opacity=".4"/><rect fill="#000" x="2" y="2" width="20" height="7.5" rx=".5"/></g><path d="M24.33 7.83A10.463 10.463 0 0 1 31.5 5c2.772 0 5.294 1.074 7.17 2.83l-1.415 1.415A8.47 8.47 0 0 0 31.5 7a8.47 8.47 0 0 0-5.755 2.245L24.33 7.83zm2.477 2.477A6.974 6.974 0 0 1 31.5 8.5c1.806 0 3.452.684 4.693 1.807l-1.416 1.416A4.98 4.98 0 0 0 31.5 10.5a4.98 4.98 0 0 0-3.277 1.223l-1.416-1.416zm2.48 2.48A3.486 3.486 0 0 1 31.5 12c.84 0 1.61.295 2.212.788L31.5 15l-2.212-2.212z" fill="#000"/></g></g><path d="M42.306 0h243.313c23.196 0 42 18.804 42 42v496c0 23.196-18.804 42-42 42H42.306c-23.196 0-42-18.804-42-42V42c0-23.196 18.804-42 42-42zM11.588 536.487c0 8.84.993 14.754 4.09 19.869 3.315 5.615 8.935 9.973 15.765 12.223 5.62 1.918 11.358 2.421 20.135 2.421h225.267c8.765 0 14.517-.504 20.146-2.424 6.82-2.247 12.44-6.605 15.76-12.227 3.087-5.112 4.085-11.043 4.085-19.862V58.016c0-8.84-.994-14.753-4.09-19.869-3.316-5.614-8.935-9.973-15.766-12.223-5.62-1.918-11.357-2.42-20.135-2.42H254.4l-5.188.01c-2.6.007-4.898.01-7.089.012-6.332.004-10.575-.013-11.953-.057H98.29c-1.411.041-5.642.056-11.966.051-2.114-.002-4.335-.006-6.843-.011.08 0-4.983-.013-5.409-.013H51.578c-8.765 0-14.517.504-20.145 2.425-6.822 2.248-12.442 6.61-15.76 12.234-3.092 5.108-4.085 11.021-4.085 19.861v478.471z" stroke="#E5E5E5" stroke-width="2" fill="#F6F6F6" fill-rule="nonzero"/><rect fill="#E1E1E1" fill-rule="nonzero" x="135.884" y="9.22" width="35.202" height="4.191" rx="2.095"/><circle fill="#E1E1E1" fill-rule="nonzero" cx="191.621" cy="11.315" r="5.448"/></g></svg>