<svg width="190" height="80" viewBox="0 0 190 80" fill="none" xmlns="http://www.w3.org/2000/svg">
<g clip-path="url(#clip0)">
<path d="M40.0389 51.8457C38.1204 52.9246 36.0071 53.7196 33.6995 54.2874C31.3915 54.8552 28.9448 55.1108 26.3589 55.1108C18.4347 55.1108 12.0952 52.6124 7.34054 47.6152C2.58584 42.6181 0.194695 35.9455 0.194695 27.5979C0.194695 23.0269 0.917526 18.9664 2.36354 15.3607C3.80921 11.7547 5.97806 8.68814 8.86974 6.13275C11.1777 4.0885 13.7912 2.55575 16.7104 1.56177C19.6308 0.539471 22.8559 0.0283203 26.3593 0.0283203C34.2559 0.0283203 40.5954 2.52708 45.3781 7.55257C50.1604 12.5781 52.5239 19.2506 52.5239 27.5979C52.5239 31.0903 52.1345 34.2421 51.3281 37.0811C50.5218 39.9207 49.2984 42.4474 47.6301 44.7473C49.1317 46.0818 50.7444 47.1324 52.4959 47.9274C54.2478 48.7225 56.1384 49.2053 58.1681 49.4322L54.3034 58.8304C51.3837 58.5466 48.7147 57.8081 46.3232 56.6156C43.932 55.4517 41.8191 53.8616 40.0393 51.8457H40.0389ZM26.3589 44.0945C30.4743 44.0945 33.6719 42.6464 35.9519 39.7501C38.2598 36.8542 39.3997 32.8223 39.3997 27.6262C39.3997 22.4304 38.2315 18.3703 35.9239 15.474C33.6159 12.5214 30.4184 11.0733 26.3593 11.0733C22.2995 11.0733 19.1299 12.5494 16.7943 15.5027C14.4584 18.4269 13.2906 22.4874 13.2906 27.6265C13.2906 32.7657 14.4588 36.7972 16.7664 39.7221C19.0743 42.646 22.2719 44.0945 26.3593 44.0945H26.3589Z" fill="#1E8D44"/>
<path d="M105.52 41.7664C103.045 46.252 99.931 49.6025 96.2329 51.8457C92.5069 54.0888 88.1975 55.1961 83.2478 55.1961C75.4627 55.1961 69.2899 52.6973 64.7299 47.7285C60.1423 42.76 57.8343 36.0591 57.8343 27.6265C57.8343 19.3639 60.2255 12.6917 65.0078 7.63788C69.7901 2.58372 76.0743 0.0566406 83.8595 0.0566406C88.7533 0.0566406 93.0074 1.19257 96.6219 3.46407C100.237 5.73522 103.045 9.02868 105.047 13.3448L95.0655 18.4556C93.8973 15.9281 92.3681 14.0262 90.4496 12.72C88.531 11.4138 86.3069 10.7611 83.7766 10.7611C79.8283 10.7611 76.714 12.2655 74.4064 15.2471C72.0984 18.2283 70.9586 22.3451 70.9586 27.5979C70.9586 32.8793 72.0984 36.9961 74.3784 39.9207C76.6584 42.845 79.8283 44.2931 83.9434 44.2931C86.5292 44.2931 88.7536 43.6683 90.6442 42.4474C92.5352 41.1982 94.12 39.3526 95.3713 36.8542L105.52 41.766L105.52 41.7664ZM128.292 55.1108C122.091 55.1108 117.086 53.2085 113.305 49.4039C109.524 45.5993 107.633 40.5734 107.633 34.2988C107.633 28.0807 109.524 23.0269 113.333 19.1936C117.142 15.3607 122.119 13.4584 128.32 13.4584C134.576 13.4584 139.608 15.3607 143.39 19.1936C147.171 23.0269 149.062 28.0524 149.062 34.2988C149.062 40.5451 147.143 45.5706 143.334 49.3756C139.525 53.2085 134.52 55.1108 128.292 55.1108H128.292ZM119.478 34.2988C119.478 37.8761 120.284 40.6871 121.869 42.7883C123.482 44.8892 125.623 45.9398 128.292 45.9398C130.989 45.9398 133.13 44.8892 134.743 42.7883C136.355 40.6871 137.162 37.8478 137.162 34.2988C137.162 30.7497 136.355 27.9104 134.77 25.7809C133.158 23.6796 131.017 22.6294 128.32 22.6294C125.651 22.6294 123.537 23.7083 121.925 25.8375C120.284 27.9671 119.478 30.8064 119.478 34.2988ZM154.122 53.8333V14.7359H165.717V18.3703C167.219 16.8372 168.887 15.7012 170.75 14.9632C172.613 14.2248 174.726 13.8273 177.062 13.8273C181.233 13.8273 184.347 15.1618 186.376 17.8591C188.406 20.5565 189.435 24.6733 189.435 30.2386V53.8333H177.841V30.8067C177.841 28.166 177.396 26.235 176.478 24.9858C175.561 23.7363 174.115 23.1402 172.141 23.1402C169.805 23.1402 168.165 23.7083 167.164 24.8722C166.162 26.0365 165.69 27.9954 165.69 30.8064V53.8329H154.123L154.122 53.8333Z" fill="#2B6CAD"/>
<path d="M134.598 77.9536H130.619V61.875H134.598V77.9536ZM137.156 77.9536V66.0991H140.793V67.2011C141.264 66.7363 141.787 66.3918 142.38 66.1681C142.964 65.9444 143.627 65.8237 144.36 65.8237C145.668 65.8237 146.644 66.2283 147.281 67.046C147.918 67.8637 148.24 69.1122 148.24 70.7996V77.9533H144.604V70.972C144.604 70.1713 144.464 69.5862 144.176 69.2074C143.888 68.8287 143.435 68.6478 142.816 68.6478C142.083 68.6478 141.569 68.8198 141.255 69.1727C140.95 69.5257 140.793 70.1196 140.793 70.972V77.9536H137.156ZM150.927 77.9536V68.4814H149.093V66.2938H150.927C150.901 66.0506 150.892 65.8683 150.884 65.7639C150.884 65.6513 150.875 65.5557 150.875 65.4602C150.875 64.1929 151.187 63.2811 151.801 62.7168C152.415 62.1611 153.427 61.8743 154.829 61.8743C155.14 61.8743 155.452 61.892 155.772 61.9267C156.092 61.9614 156.421 62.0223 156.766 62.109V64.6095H156.161C155.495 64.6095 155.062 64.6874 154.846 64.8524C154.63 65.0173 154.526 65.3388 154.526 65.8336V66.2938H156.767V68.4814H154.535V77.9533H150.927V77.9536ZM163.29 78.7996C161.332 78.7996 159.752 78.2071 158.558 77.0219C157.364 75.8368 156.766 74.2711 156.766 72.3164C156.766 70.3795 157.364 68.8049 158.566 67.611C159.76 66.4255 161.341 65.8241 163.29 65.8241C165.265 65.8241 166.855 66.4166 168.049 67.611C169.243 68.8049 169.84 70.3706 169.84 72.3164C169.84 74.2534 169.234 75.8191 168.031 77.0131C166.837 78.2071 165.257 78.7996 163.29 78.7996ZM160.507 72.3164C160.507 73.4308 160.762 74.3065 161.262 74.9607C161.771 75.6156 162.447 75.943 163.29 75.943C164.133 75.943 164.818 75.6156 165.327 74.961C165.836 74.3062 166.091 73.4219 166.091 72.3253C166.091 71.2106 165.836 70.3352 165.336 69.6718C164.827 69.017 164.15 68.6899 163.299 68.6899C162.456 68.6899 161.789 69.0262 161.279 69.6895C160.761 70.3441 160.507 71.2283 160.507 72.3161V72.3164Z" fill="#2B6CAD"/>
<path d="M184.055 77.5016C183.453 77.8329 182.79 78.0768 182.066 78.2513C181.342 78.4255 180.575 78.5041 179.763 78.5041C177.277 78.5041 175.288 77.737 173.787 76.2028C172.296 74.6687 171.545 72.6202 171.545 70.0574C171.545 68.6538 171.772 67.4071 172.226 66.3002C172.679 65.1929 173.36 64.2517 174.267 63.4673C174.986 62.8411 175.823 62.364 176.727 62.0637C177.643 61.7497 178.655 61.5929 179.754 61.5929C182.232 61.5929 184.221 62.36 185.721 63.903C187.222 65.446 187.963 67.4945 187.963 70.0574C187.963 71.1296 187.841 72.097 187.588 72.9689C187.346 73.8168 186.953 74.6141 186.428 75.3225C186.885 75.7226 187.399 76.0518 187.954 76.2988C188.504 76.543 189.097 76.691 189.734 76.7607L188.522 79.646C187.606 79.5589 186.769 79.332 186.018 78.9664C185.273 78.6129 184.606 78.115 184.055 77.5016ZM179.754 75.1218C181.046 75.1218 182.049 74.6772 182.764 73.788C183.488 72.8991 183.846 71.6612 183.846 70.0658C183.846 68.4708 183.48 67.2241 182.756 66.3349C182.032 65.4372 181.028 64.9926 179.746 64.9926C178.472 64.9926 177.478 65.4457 176.745 66.3526C176.012 67.2588 175.655 68.497 175.655 70.0747C175.655 71.6524 176.021 72.8903 176.745 73.788C177.478 74.6772 178.481 75.1218 179.754 75.1218Z" fill="#1E8D44"/>
<path d="M117.783 77.9696C116.995 77.9696 116.336 77.6064 115.999 76.9841H115.916V77.8761H114.843V70.0255H115.958V73.1264H116.046C116.347 72.5094 117.011 72.1359 117.783 72.1359C119.214 72.1359 120.116 73.2559 120.116 75.0503C120.116 76.8389 119.209 77.9696 117.783 77.9696ZM117.462 73.1366C116.528 73.1366 115.942 73.8729 115.937 75.0552C115.942 76.2375 116.523 76.9688 117.462 76.9688C118.405 76.9688 118.971 76.2478 118.971 75.0503C118.971 73.8626 118.405 73.1366 117.462 73.1366ZM121.732 79.9242C121.639 79.9242 121.375 79.9136 121.271 79.8984V78.9391C121.359 78.9547 121.53 78.96 121.634 78.96C122.163 78.96 122.464 78.7419 122.655 78.1717L122.738 77.897L120.695 72.2294H121.909L123.325 76.7143H123.412L124.823 72.2294H126.005L123.9 78.1094C123.418 79.4835 122.884 79.9242 121.732 79.9242Z" fill="black"/>
</g>
<defs>
<clipPath id="clip0">
<rect width="189.735" height="80" fill="white"/>
</clipPath>
</defs>
</svg>
