<?xml version="1.0" encoding="UTF-8"?>
<svg width="20px" height="21px" viewBox="0 0 20 21" version="1.1" xmlns="http://www.w3.org/2000/svg" xmlns:xlink="http://www.w3.org/1999/xlink">
    <!-- Generator: Sketch 47.1 (45422) - http://www.bohemiancoding.com/sketch -->
    <title> copy</title>
    <desc>Created with Sketch.</desc>
    <defs></defs>
    <g id="Page-1" stroke="none" stroke-width="1" fill="none" fill-rule="evenodd">
        <g id="Final" transform="translate(-873.000000, -3158.000000)" fill="#59BA71">
            <g id="Architects-Newsletter" transform="translate(835.000000, 2995.000000)">
                <path d="M48,163.25 C49.3802152,163.25 50.6790304,163.510414 51.8964844,164.03125 C53.1139384,164.552086 54.1751257,165.264969 55.0800781,166.169922 C55.9850306,167.074874 56.6979141,168.136062 57.21875,169.353516 C57.7395859,170.57097 58,171.869785 58,173.25 C58,174.630215 57.7395859,175.92903 57.21875,177.146484 C56.6979141,178.363938 55.9850306,179.425126 55.0800781,180.330078 C54.1751257,181.235031 53.1139384,181.947914 51.8964844,182.46875 C50.6790304,182.989586 49.3802152,183.25 48,183.25 C46.6197848,183.25 45.3209696,182.989586 44.1035156,182.46875 C42.8860616,181.947914 41.8248743,181.235031 40.9199219,180.330078 C40.0149694,179.425126 39.3020859,178.363938 38.78125,177.146484 C38.2604141,175.92903 38,174.630215 38,173.25 C38,171.869785 38.2604141,170.57097 38.78125,169.353516 C39.3020859,168.136062 40.0149694,167.074874 40.9199219,166.169922 C41.8248743,165.264969 42.8860616,164.552086 44.1035156,164.03125 C45.3209696,163.510414 46.6197848,163.25 48,163.25 Z M48,182.019531 C49.2109436,182.019531 50.3469999,181.788414 51.4082031,181.326172 C52.4694063,180.86393 53.3938763,180.235681 54.1816406,179.441406 C54.969405,178.647131 55.5943987,177.719406 56.0566406,176.658203 C56.5188825,175.597 56.75,174.460944 56.75,173.25 C56.75,172.039056 56.5188825,170.903 56.0566406,169.841797 C55.5943987,168.780594 54.969405,167.856124 54.1816406,167.068359 C53.3938763,166.280595 52.4694063,165.655601 51.4082031,165.193359 C50.3469999,164.731117 49.2109436,164.5 48,164.5 C46.7890564,164.5 45.6530001,164.731117 44.5917969,165.193359 C43.5305937,165.655601 42.6061237,166.280595 41.8183594,167.068359 C41.030595,167.856124 40.4056013,168.780594 39.9433594,169.841797 C39.4811175,170.903 39.25,172.039056 39.25,173.25 C39.25,174.460944 39.4811175,175.597 39.9433594,176.658203 C40.4056013,177.719406 41.030595,178.647131 41.8183594,179.441406 C42.6061237,180.235681 43.5305937,180.86393 44.5917969,181.326172 C45.6530001,181.788414 46.7890564,182.019531 48,182.019531 Z M51.984375,169.597656 C52.114584,169.467447 52.2643221,169.402344 52.4335938,169.402344 C52.6028654,169.402344 52.7526035,169.467447 52.8828125,169.597656 C53.0000006,169.714844 53.0585938,169.861327 53.0585938,170.037109 C53.0585938,170.212892 53.0000006,170.359374 52.8828125,170.476562 L46.6523438,176.746094 L46.5742188,176.824219 C46.4570307,176.954428 46.3105478,177.019531 46.1347656,177.019531 C45.9589835,177.019531 45.8125006,176.954428 45.6953125,176.824219 L42.5898438,173.738281 C42.4726557,173.621093 42.4140625,173.47461 42.4140625,173.298828 C42.4140625,173.123046 42.4726557,172.976563 42.5898438,172.859375 C42.7200527,172.729166 42.8697908,172.664062 43.0390625,172.664062 C43.2083342,172.664062 43.3580723,172.729166 43.4882812,172.859375 L46.125,175.496094 L51.984375,169.597656 Z" id="-copy"></path>
            </g>
        </g>
    </g>
</svg>