<svg width="174" height="43" viewBox="0 0 174 43" fill="none" xmlns="http://www.w3.org/2000/svg">
<g clip-path="url(#clip0)">
<path d="M25.4562 38.5964C24.2365 39.2862 22.893 39.7945 21.4259 40.1575C19.9586 40.5205 18.4031 40.6839 16.7591 40.6839C11.7212 40.6839 7.69084 39.0866 4.66801 35.8917C1.64519 32.6968 0.125 28.4308 0.125 23.0939C0.125 20.1716 0.584545 17.5755 1.50386 15.2703C2.42295 12.9648 3.80181 11.0043 5.64022 9.37054C7.10752 8.06358 8.76904 7.08365 10.625 6.44816C12.4816 5.79457 14.532 5.46777 16.7593 5.46777C21.7797 5.46777 25.81 7.06532 28.8506 10.2783C31.891 13.4912 33.3936 17.7572 33.3936 23.0939C33.3936 25.3267 33.1461 27.3418 32.6334 29.1569C32.1208 30.9723 31.343 32.5878 30.2824 34.0581C31.237 34.9113 32.2623 35.583 33.3758 36.0913C34.4896 36.5996 35.6916 36.9083 36.982 37.0534L34.5249 43.062C32.6688 42.8805 30.9719 42.4084 29.4515 41.6459C27.9313 40.9018 26.588 39.8852 25.4565 38.5964H25.4562ZM16.7591 33.6408C19.3755 33.6408 21.4083 32.715 22.8579 30.8633C24.3252 29.0118 25.0498 26.4341 25.0498 23.112C25.0498 19.7902 24.3071 17.1944 22.8401 15.3427C21.3728 13.455 19.3399 12.5292 16.7593 12.5292C14.1783 12.5292 12.1632 13.4729 10.6783 15.361C9.19325 17.2306 8.45082 19.8267 8.45082 23.1123C8.45082 26.3979 9.19348 28.9754 10.6606 30.8454C12.1279 32.7147 14.1607 33.6408 16.7593 33.6408H16.7591Z" fill="#1E8D44"/>
<path d="M67.0853 32.1528C65.5122 35.0206 63.5323 37.1627 61.1812 38.5968C58.8124 40.031 56.0726 40.7389 52.9258 40.7389C47.9764 40.7389 44.052 39.1413 41.1529 35.9646C38.2363 32.7881 36.769 28.5039 36.769 23.1127C36.769 17.8301 38.2892 13.5643 41.3296 10.3333C44.37 7.10198 48.3652 5.48633 53.3147 5.48633C56.426 5.48633 59.1306 6.21257 61.4285 7.66482C63.7267 9.11684 65.512 11.2225 66.7846 13.9819L60.439 17.2494C59.6963 15.6335 58.7241 14.4175 57.5044 13.5825C56.2846 12.7474 54.8707 12.33 53.262 12.33C50.7519 12.33 48.7719 13.2919 47.3048 15.1981C45.8375 17.1041 45.1129 19.7361 45.1129 23.0944C45.1129 26.471 45.8375 29.103 47.287 30.9728C48.7366 32.8424 50.7519 33.7682 53.368 33.7682C55.012 33.7682 56.4262 33.3688 57.6282 32.5882C58.8304 31.7896 59.8379 30.6096 60.6334 29.0122L67.0855 32.1526L67.0853 32.1528ZM81.563 40.6843C77.6208 40.6843 74.4389 39.4681 72.035 37.0357C69.6308 34.6033 68.4288 31.3901 68.4288 27.3785C68.4288 23.4031 69.6308 20.172 72.0525 17.7213C74.4742 15.2707 77.6386 14.0545 81.5805 14.0545C85.558 14.0545 88.7573 15.2707 91.1617 17.7213C93.5656 20.172 94.7676 23.385 94.7676 27.3785C94.7676 31.372 93.5478 34.585 91.1259 37.0176C88.7044 39.4681 85.5222 40.6843 81.5628 40.6843H81.563ZM75.9593 27.3785C75.9593 29.6656 76.4718 31.4628 77.4795 32.8062C78.5048 34.1493 79.8659 34.821 81.563 34.821C83.2776 34.821 84.6387 34.1493 85.664 32.8062C86.6893 31.4628 87.202 29.6475 87.202 27.3785C87.202 25.1095 86.6893 23.2942 85.6816 21.9327C84.6565 20.5893 83.2952 19.9179 81.5805 19.9179C79.8837 19.9179 78.5402 20.6077 77.5149 21.9689C76.4718 23.3304 75.9593 25.1457 75.9593 27.3785V27.3785ZM97.9849 39.8676V14.8713H105.356V17.1949C106.311 16.2147 107.372 15.4885 108.556 15.0166C109.74 14.5445 111.084 14.2904 112.569 14.2904C115.22 14.2904 117.2 15.1436 118.49 16.8681C119.781 18.5926 120.435 21.2246 120.435 24.7827V39.8676H113.064V25.1459C113.064 23.4576 112.781 22.2231 112.197 21.4244C111.614 20.6255 110.695 20.2444 109.44 20.2444C107.955 20.2444 106.912 20.6077 106.276 21.3518C105.639 22.0961 105.339 23.3485 105.339 25.1457V39.8674H97.9851L97.9849 39.8676Z" fill="#2B6CAD"/>
<path d="M130.974 24.1811V5.44931H133.803V6.26145C135.008 5.5279 136.135 5.16113 137.183 5.16113C138.912 5.16113 140.178 5.69382 140.981 6.75922C141.785 7.80715 142.186 9.57989 142.186 12.0775C142.186 14.5576 141.724 16.3041 140.798 17.3171C139.89 18.3301 138.396 18.8366 136.318 18.8366C135.602 18.8366 134.772 18.758 133.829 18.6008V24.1811H130.974ZM136.685 7.70235C135.864 7.70235 135.043 7.88574 134.222 8.25252L133.829 8.4359V16.1644C134.528 16.3041 135.296 16.374 136.135 16.374C137.322 16.374 138.143 16.0334 138.597 15.3523C139.051 14.6711 139.278 13.5096 139.278 11.8679C139.278 9.09086 138.414 7.70235 136.685 7.70235V7.70235Z" fill="white"/>
<path d="M144.416 18.5483V0H147.272V18.5483H144.416Z" fill="white"/>
<path d="M158.037 5.44922H160.867V18.5483H158.037V17.7362C156.762 18.4697 155.584 18.8365 154.501 18.8365C152.702 18.8365 151.497 18.3562 150.885 17.3956C150.274 16.4175 149.968 14.7147 149.968 12.287V5.44922H152.824V12.3132C152.824 13.8851 152.955 14.9417 153.217 15.4831C153.479 16.0246 154.09 16.2953 155.051 16.2953C155.994 16.2953 156.858 16.1206 157.644 15.7713L158.037 15.6141V5.44922Z" fill="white"/>
<path d="M172.629 8.14741C170.568 7.86797 169.075 7.72824 168.149 7.72824C167.223 7.72824 166.577 7.84177 166.21 8.06882C165.861 8.27841 165.686 8.61898 165.686 9.09055C165.686 9.56212 165.879 9.89396 166.263 10.0861C166.665 10.2782 167.59 10.5053 169.04 10.7673C170.507 11.0118 171.546 11.4048 172.157 11.9462C172.769 12.4876 173.074 13.4482 173.074 14.828C173.074 16.2078 172.629 17.2208 171.738 17.867C170.865 18.5132 169.581 18.8363 167.887 18.8363C166.822 18.8363 165.477 18.6879 163.853 18.3909L163.04 18.26L163.145 15.8759C165.241 16.1554 166.752 16.2951 167.678 16.2951C168.603 16.2951 169.258 16.1816 169.642 15.9545C170.044 15.7275 170.245 15.352 170.245 14.828C170.245 14.304 170.053 13.946 169.669 13.7539C169.302 13.5443 168.402 13.326 166.97 13.0989C165.555 12.8544 164.516 12.4789 163.853 11.9724C163.189 11.4659 162.857 10.5402 162.857 9.19534C162.857 7.8505 163.311 6.84624 164.219 6.18255C165.145 5.51886 166.324 5.18701 167.756 5.18701C168.874 5.18701 170.245 5.32674 171.869 5.60619L172.681 5.76338L172.629 8.14741Z" fill="white"/>
</g>
<defs>
<clipPath id="clip0">
<rect width="174" height="43" fill="white"/>
</clipPath>
</defs>
</svg>
