<?xml version="1.0" encoding="UTF-8"?>
<svg width="36px" height="36px" viewBox="0 0 36 36" version="1.1" xmlns="http://www.w3.org/2000/svg" xmlns:xlink="http://www.w3.org/1999/xlink">
    <!-- Generator: Sketch 50.2 (55047) - http://www.bohemiancoding.com/sketch -->
    <title>info_outline - material</title>
    <desc>Created with Sketch.</desc>
    <defs></defs>
    <g id="Page-1" stroke="none" stroke-width="1" fill="none" fill-rule="evenodd">
        <g id="Register" transform="translate(-215.000000, -1644.000000)" fill="#2265A9">
            <path d="M231.225962,1656.59135 L231.225962,1652.95673 L234.774038,1652.95673 L234.774038,1656.59135 L231.225962,1656.59135 Z M233,1676.45192 C235.596167,1676.45192 238.01922,1675.78847 240.269231,1674.46154 C242.461549,1673.1923 244.192301,1671.46155 245.461538,1669.26923 C246.788468,1667.01922 247.451923,1664.59617 247.451923,1662 C247.451923,1659.40383 246.788468,1656.98078 245.461538,1654.73077 C244.192301,1652.53845 242.461549,1650.8077 240.269231,1649.53846 C238.01922,1648.21153 235.596167,1647.54808 233,1647.54808 C230.403833,1647.54808 227.98078,1648.21153 225.730769,1649.53846 C223.538451,1650.8077 221.807699,1652.53845 220.538462,1654.73077 C219.211532,1656.98078 218.548077,1659.40383 218.548077,1662 C218.548077,1664.59617 219.211532,1667.01922 220.538462,1669.26923 C221.807699,1671.46155 223.538451,1673.1923 225.730769,1674.46154 C227.98078,1675.78847 230.403833,1676.45192 233,1676.45192 Z M233,1644 C236.288478,1644 239.331717,1644.82211 242.129808,1646.46635 C244.84136,1648.02405 246.975954,1650.15864 248.533654,1652.87019 C250.177893,1655.66828 251,1658.71152 251,1662 C251,1665.28848 250.177893,1668.33172 248.533654,1671.12981 C246.975954,1673.84136 244.84136,1675.97595 242.129808,1677.53365 C239.331717,1679.17789 236.288478,1680 233,1680 C229.711522,1680 226.668283,1679.17789 223.870192,1677.53365 C221.15864,1675.94711 219.024046,1673.79809 217.466346,1671.08654 C215.822107,1668.28845 215,1665.25963 215,1662 C215,1658.74037 215.822107,1655.71155 217.466346,1652.91346 C219.052893,1650.20191 221.20191,1648.05289 223.913462,1646.46635 C226.711552,1644.82211 229.740368,1644 233,1644 Z M231.225962,1671.04327 L231.225962,1660.22596 L234.774038,1660.22596 L234.774038,1671.04327 L231.225962,1671.04327 Z" id="info_outline---material"></path>
        </g>
    </g>
</svg>