<?xml version="1.0" encoding="UTF-8"?>
<svg width="249px" height="42px" viewBox="0 0 249 42" version="1.1" xmlns="http://www.w3.org/2000/svg" xmlns:xlink="http://www.w3.org/1999/xlink">
    <!-- Generator: Sketch 55.2 (78181) - https://sketchapp.com -->
    <title>Logo</title>
    <desc>Created with Sketch.</desc>
    <defs>
        <linearGradient x1="64.6269412%" y1="54.3269533%" x2="35.3766987%" y2="45.6730467%" id="linearGradient-1">
            <stop stop-color="#86C877" offset="0%"></stop>
            <stop stop-color="#67C280" offset="13%"></stop>
            <stop stop-color="#18B498" offset="40%"></stop>
            <stop stop-color="#00AF9F" offset="49%"></stop>
            <stop stop-color="#30368F" offset="100%"></stop>
        </linearGradient>
    </defs>
    <g id="Big-Conference---Single-Conference" stroke="none" stroke-width="1" fill="none" fill-rule="evenodd">
        <g id="Final-Copy" transform="translate(-180.000000, -266.000000)" fill="url(#linearGradient-1)" fill-rule="nonzero">
            <g id="Conference-Hero" transform="translate(0.000000, 189.000000)">
                <g id="Logo" transform="translate(180.000000, 77.000000)">
                    <g id="Asset-1">
                        <g id="Layer_2">
                            <g id="content">
                                <path d="M17.5382609,26.5878261 C17.0521464,26.2376533 16.8477714,25.6080735 17.0339735,25.0343618 C17.2201755,24.4606502 17.7536159,24.0763383 18.3502174,24.086087 C18.6573279,24.0732797 18.9595972,24.1666631 19.2072826,24.3508696 C20.5101149,25.4696545 22.1628891,26.0843751 23.8715217,26.0856522 C25.6758696,26.0856522 26.8216304,25.2182609 26.8216304,23.9673913 L26.8216304,23.9217391 C26.8216304,22.7165217 26.1540217,22.0956522 23.0595652,21.3469565 C19.5140217,20.4795652 17.5202174,19.4204348 17.5202174,16.316087 L17.5202174,16.2704348 C17.5202174,13.3852174 19.9019565,11.3856522 23.203913,11.3856522 C25.0795741,11.3472147 26.9217212,11.8921761 28.4816304,12.9469565 C28.8894606,13.1938706 29.1342439,13.6439762 29.1221739,14.1247826 C29.1270754,14.4967771 28.9832232,14.8549879 28.7232917,15.1180511 C28.4633602,15.3811143 28.1094138,15.5266997 27.7418478,15.5217391 C27.4737731,15.523231 27.2108536,15.4472061 26.9840217,15.3026087 C25.8621794,14.5025168 24.5308267,14.0576228 23.1588043,14.0243478 C21.4446739,14.0243478 20.4522826,14.9373913 20.4522826,16.023913 L20.4522826,16.0695652 C20.4522826,17.366087 21.2101087,17.9504348 24.4218478,18.7173913 C27.9403261,19.5847826 29.7536957,20.8630435 29.7536957,23.6478261 L29.7536957,23.6934783 C29.7536957,26.8434783 27.2997826,28.7243478 23.8083696,28.7243478 C21.5438483,28.7244181 19.3416003,27.9740084 17.5382609,26.5878261 Z M31.6663043,17.0830435 C31.6590363,16.6957162 31.8060008,16.3217067 32.0741135,16.0452117 C32.3422262,15.7687166 32.7089539,15.6129736 33.0917391,15.6130435 C33.4777028,15.6105944 33.8485596,15.7646824 34.1214825,16.0408936 C34.3944054,16.3171047 34.546659,16.6924296 34.5442391,17.0830435 L34.5442391,17.8773913 C35.4684099,16.407345 37.0718597,15.5184399 38.7934783,15.5217391 C41.743587,15.5217391 44.6215217,17.8773913 44.6215217,22.113913 L44.6215217,22.1595652 C44.6215217,26.3686957 41.7706522,28.7517391 38.7934783,28.7517391 C37.0923438,28.7532813 35.5009401,27.9018296 34.5442391,26.4782609 L34.5442391,30.9795652 C34.4847565,31.7392463 33.8582621,32.3250332 33.1052717,32.3250332 C32.3522814,32.3250332 31.7257869,31.7392463 31.6663043,30.9795652 L31.6663043,17.0830435 Z M41.7255435,22.1413043 L41.7255435,22.0956522 C41.7255435,19.6395652 40.083587,18.0234783 38.1168478,18.0234783 C37.0920139,18.0560459 36.1239707,18.5075566 35.4337455,19.2749196 C34.7435202,20.0422826 34.3900433,21.0599817 34.4540217,22.0956522 L34.4540217,22.1413043 C34.3900433,23.1769748 34.7435202,24.1946739 35.4337455,24.9620369 C36.1239707,25.7293999 37.0920139,26.1809106 38.1168478,26.2134783 C40.1106522,26.2043478 41.7345652,24.6521739 41.7345652,22.1413043 L41.7255435,22.1413043 Z M46.4348913,17.0830435 C46.4276232,16.6957162 46.5745878,16.3217067 46.8427005,16.0452117 C47.1108132,15.7687166 47.4775409,15.6129736 47.8603261,15.6130435 C48.2462898,15.6105944 48.6171465,15.7646824 48.8900695,16.0408936 C49.1629924,16.3171047 49.315246,16.6924296 49.3128261,17.0830435 L49.3128261,18.3795652 C49.9804348,16.7908696 51.216413,15.5856522 52.4794565,15.5856522 C52.8651704,15.558251 53.2436806,15.7014171 53.5170926,15.9781232 C53.7905045,16.2548293 53.9319663,16.6378999 53.9048913,17.0282609 C53.9266021,17.720013 53.4349586,18.3194441 52.7591304,18.4252174 C50.7111957,18.7904348 49.3128261,20.3791304 49.3128261,23.3830435 L49.3128261,27.1356522 C49.3104537,27.522277 49.1557918,27.8919724 48.8831277,28.1627796 C48.6104637,28.4335869 48.2423253,28.5831316 47.8603261,28.5782609 C47.4815405,28.5807105 47.1175675,28.4295085 46.8497202,28.1584341 C46.5818728,27.8873596 46.4324709,27.5190015 46.4348913,27.1356522 L46.4348913,17.0830435 Z M55.0326087,12.3443478 C55.1535529,11.5209646 55.8520437,10.9113763 56.6745652,10.9113763 C57.4970867,10.9113763 58.1955776,11.5209646 58.3165217,12.3443478 L58.3165217,12.4904348 C58.1955776,13.313818 57.4970867,13.9234063 56.6745652,13.9234063 C55.8520437,13.9234063 55.1535529,13.313818 55.0326087,12.4904348 L55.0326087,12.3443478 Z M55.2491304,17.0830435 C55.2418624,16.6957162 55.3888269,16.3217067 55.6569396,16.0452117 C55.9250523,15.7687166 56.29178,15.6129736 56.6745652,15.6130435 C57.0605289,15.6105944 57.4313857,15.7646824 57.7043086,16.0408936 C57.9772315,16.3171047 58.1294851,16.6924296 58.1270652,17.0830435 L58.1270652,27.1265217 C58.1270652,27.9308164 57.4828176,28.5828261 56.6880978,28.5828261 C55.8933781,28.5828261 55.2491304,27.9308164 55.2491304,27.1265217 L55.2491304,17.0830435 Z M60.6621739,17.0830435 C60.6549058,16.6957162 60.8018704,16.3217067 61.0699831,16.0452117 C61.3380958,15.7687166 61.7048235,15.6129736 62.0876087,15.6130435 C62.4735724,15.6105944 62.8444291,15.7646824 63.1173521,16.0408936 C63.390275,16.3171047 63.5425286,16.6924296 63.5401087,17.0830435 L63.5401087,17.7130435 C64.3766745,16.3214586 65.8825005,15.4864074 67.4916304,15.5217391 C70.3244565,15.5217391 72.0025,17.4482609 72.0025,20.3791304 L72.0025,27.1721739 C72.0099343,27.5570348 71.8621435,27.9283557 71.5931942,28.2005454 C71.3242448,28.4727351 70.9573444,28.6223065 70.5770652,28.6147826 C70.194349,28.6221383 69.824792,28.473403 69.5515885,28.2020601 C69.2783851,27.9307171 69.1244962,27.559571 69.1245652,27.1721739 L69.1245652,21.2465217 C69.1245652,19.2743478 68.1502174,18.1421739 66.4180435,18.1421739 C64.6858696,18.1421739 63.5852174,19.32 63.5852174,21.2921739 L63.5852174,27.1447826 C63.5852174,27.9490773 62.9409697,28.601087 62.14625,28.601087 C61.3515303,28.601087 60.7072826,27.9490773 60.7072826,27.1447826 L60.6621739,17.0830435 Z M74.9616304,31.2352174 C74.4688188,31.0709756 74.1394831,30.6006471 74.1496739,30.0756522 C74.1595348,29.4070858 74.6979061,28.8703603 75.358587,28.8704348 C75.5399002,28.8668449 75.7193948,28.9075611 75.8818478,28.9891304 C77.0557423,29.6634104 78.3843836,30.0129561 79.7341304,30.0026087 C82.3053261,30.0026087 83.7036957,28.6513043 83.7036957,26.103913 L83.7036957,25.1269565 C82.7120477,26.6085889 81.0511363,27.486785 79.2830435,27.4643478 C77.734365,27.4831302 76.2460228,26.8574149 75.1663219,25.7336333 C74.0866211,24.6098517 73.5103188,23.0866296 73.5722826,21.5204348 L73.5722826,21.4747826 C73.512771,19.9036898 74.0933199,18.3767882 75.1781013,17.2513182 C76.2628828,16.1258481 77.7567201,15.5005565 79.3101087,15.5217391 C81.0344611,15.492071 82.6695826,16.2957447 83.7127174,17.6856522 L83.7127174,17.0830435 C83.7127174,16.2787488 84.356965,15.6267391 85.1516848,15.6267391 C85.9464045,15.6267391 86.5906522,16.2787488 86.5906522,17.0830435 L86.5906522,25.8665217 C86.7196549,27.6170041 86.143713,29.3458883 84.9938043,30.66 C83.8480435,31.8104348 82.0888043,32.3673913 79.8333696,32.3673913 C78.1505127,32.376921 76.4886328,31.9892706 74.9796739,31.2352174 L74.9616304,31.2352174 Z M83.7397826,21.483913 L83.7397826,21.4382609 C83.7239172,20.4749134 83.3220198,19.559424 82.6262732,18.9017778 C81.9305267,18.2441316 81.0006366,17.9007647 80.0498913,17.9504348 C79.1038539,17.8890408 78.1755936,18.2310859 77.4900223,18.8936946 C76.8044511,19.5563033 76.4241253,20.4790146 76.4411957,21.4382609 L76.4411957,21.483913 C76.4322578,22.4406317 76.8151078,23.3584004 77.4987922,24.0191855 C78.1824767,24.6799706 79.1059745,25.0247951 80.0498913,24.9717391 C81.0036698,25.026548 81.9383083,24.6854828 82.6380536,24.0272755 C83.3377988,23.3690682 83.7421716,22.4506079 83.7578261,21.483913 L83.7397826,21.483913 Z M88.6115217,20.0869565 L88.6115217,20.0869565 C88.5990654,15.2208477 92.4867667,11.2658676 97.2949457,11.2532611 C102.103125,11.2406546 106.011022,15.1751955 106.023478,20.0413043 L106.023478,20.0869565 C106.035935,24.9530653 102.148233,28.9080455 97.3400543,28.920652 C92.5318754,28.9332585 88.6239783,24.9987175 88.6115217,20.1326087 L88.6115217,20.0869565 Z M102.956087,20.0869565 L102.956087,20.0869565 C103.014709,18.5268319 102.446183,17.0092474 101.380282,15.8806102 C100.314381,14.751973 98.8420826,14.1086153 97.2994565,14.0973913 C95.7663586,14.100911 94.3009916,14.7370712 93.2418956,15.8589014 C92.1827995,16.9807316 91.6215947,18.4911846 91.6879348,20.0413043 L91.6879348,20.0869565 C91.6292176,21.6453863 92.1982802,23.1611505 93.2647253,24.2869211 C94.3311704,25.4126917 95.8035816,26.0519669 97.3445652,26.0582609 C98.8850572,26.0629747 100.359497,25.4255202 101.421143,24.2958071 C102.482789,23.1660939 103.037956,21.6438126 102.956087,20.0869565 L102.956087,20.0869565 Z M108.044348,17.073913 C108.03708,16.6865858 108.184044,16.3125763 108.452157,16.0360812 C108.72027,15.7595862 109.086997,15.6038432 109.469783,15.603913 C109.855746,15.601464 110.226603,15.755552 110.499526,16.0317631 C110.772449,16.3079743 110.924703,16.6832992 110.922283,17.073913 L110.922283,17.703913 C111.756184,16.3243822 113.249016,15.4943009 114.846739,15.5217391 C117.679565,15.5217391 119.357609,17.4482609 119.357609,20.3791304 L119.357609,27.1721739 C119.365043,27.5570348 119.217252,27.9283557 118.948303,28.2005454 C118.679354,28.4727351 118.312453,28.6223065 117.932174,28.6147826 C117.549458,28.6221383 117.179901,28.473403 116.906697,28.2020601 C116.633494,27.9307171 116.479605,27.559571 116.479674,27.1721739 L116.479674,21.2465217 C116.479674,19.2743478 115.505326,18.1421739 113.773152,18.1421739 C112.040978,18.1421739 110.940326,19.32 110.940326,21.2921739 L110.940326,27.1447826 C110.880844,27.9044637 110.254349,28.4902506 109.501359,28.4902506 C108.748368,28.4902506 108.121874,27.9044637 108.062391,27.1447826 L108.044348,17.073913 Z M127.359891,28.7608696 C125.621961,28.804566 123.943096,28.1212663 122.718947,26.8720017 C121.494798,25.622737 120.833647,23.9180088 120.891304,22.1595652 L120.891304,22.113913 C120.891304,18.4617391 123.435435,15.4943478 127.026087,15.4943478 C128.649874,15.4829719 130.207384,16.1452795 131.335832,17.3270015 C132.46428,18.5087234 133.065148,20.1066914 132.998478,21.7486957 C133.008271,22.1173805 132.869734,22.4742899 132.614609,22.7376529 C132.359484,23.0010159 132.009636,23.1482606 131.645217,23.1456522 L123.769239,23.1456522 C123.940113,25.0170556 125.521914,26.4298132 127.377935,26.3686957 C128.469734,26.3772161 129.527533,25.9846836 130.355109,25.263913 C130.559856,25.0843432 130.824118,24.9897588 131.094891,24.9991304 C131.402684,24.9965696 131.698345,25.1204404 131.914287,25.3424261 C132.130229,25.5644117 132.247991,25.865534 132.240652,26.1769565 C132.241728,26.5206763 132.105001,26.8501385 131.861739,27.09 C130.629013,28.2116994 129.016902,28.8100373 127.359891,28.7608696 L127.359891,28.7608696 Z M130.210761,21.2282609 C130.021304,19.3473913 128.929674,17.8865217 127.026087,17.8865217 C125.221739,17.8865217 124.03087,19.256087 123.769239,21.2282609 L130.210761,21.2282609 Z M141.036848,13.1204348 C141.029123,12.716155 141.186287,12.3265065 141.471354,12.0431872 C141.756422,11.7598679 142.144217,11.6078987 142.543478,11.6230435 L147.631739,11.6230435 C151.52913,11.6230435 153.946957,13.86 153.946957,17.2565217 L153.946957,17.3021739 C153.946957,21.0821739 150.951739,23.0543478 147.288913,23.0543478 L143.977935,23.0543478 L143.977935,27.1173913 C143.977935,27.9342925 143.323589,28.5965217 142.516413,28.5965217 C141.709237,28.5965217 141.054891,27.9342925 141.054891,27.1173913 L141.036848,13.1204348 Z M147.352065,20.4247826 C149.562391,20.4247826 150.960761,19.173913 150.960761,17.4117391 L150.960761,17.3478261 C150.960761,15.3756522 149.55337,14.343913 147.352065,14.343913 L143.95087,14.343913 L143.95087,20.4065217 L147.352065,20.4247826 Z M155.561848,12.2621739 C155.547126,11.8725917 155.68983,11.4937462 155.957071,11.2129489 C156.224312,10.9321517 156.593035,10.7736282 156.978261,10.773913 C157.36026,10.7690423 157.728398,10.918587 158.001063,11.1893943 C158.273727,11.4602015 158.428388,11.8298969 158.430761,12.2165217 L158.430761,27.1447826 C158.430761,27.9490773 157.786513,28.601087 156.991793,28.601087 C156.197074,28.601087 155.552826,27.9490773 155.552826,27.1447826 L155.561848,12.2621739 Z M160.171957,24.8530435 L160.171957,24.8073913 C160.171957,22.0682609 162.292065,20.7169565 165.359457,20.7169565 C166.505193,20.7058418 167.644992,20.8847318 168.733587,21.2465217 L168.733587,20.936087 C168.733587,19.11 167.641957,18.1969565 165.621087,18.1969565 C164.67172,18.18389 163.728614,18.3543309 162.842391,18.6991304 C162.696209,18.7449877 162.544327,18.7695815 162.391304,18.7721739 C162.073071,18.7746046 161.766918,18.6489901 161.540201,18.422966 C161.313484,18.1969419 161.184775,17.8890244 161.182391,17.5669565 C161.189341,17.0557139 161.498743,16.5986173 161.967283,16.4073913 C163.254583,15.8976846 164.626788,15.643496 166.009022,15.6586957 C167.528707,15.5442158 169.02933,16.0581369 170.168043,17.0830435 C171.131018,18.1491643 171.620122,19.5681543 171.521304,21.0091304 L171.521304,27.2634783 C171.523878,27.63955 171.375534,28.0005774 171.110232,28.2639123 C170.84493,28.5272473 170.485388,28.6703407 170.113913,28.6604348 C169.758736,28.6906709 169.406885,28.5718918 169.140767,28.3319176 C168.87465,28.0919433 168.717643,27.7518542 168.706522,27.3913043 L168.706522,26.9073913 C167.693565,28.1188914 166.186745,28.792169 164.619674,28.7334783 C162.292065,28.7334783 160.199022,27.3913043 160.199022,24.8073913 L160.171957,24.8530435 Z M168.778696,23.94 L168.778696,23.0726087 C167.866614,22.7306793 166.900423,22.560487 165.927826,22.5704348 C164.069348,22.5704348 162.977717,23.3647826 162.977717,24.6886957 L162.977717,24.6521739 C162.977717,25.8756522 164.051304,26.5786957 165.43163,26.5786957 C167.362283,26.6152174 168.814783,25.5104348 168.814783,23.8943478 L168.778696,23.94 Z M174.24587,24.9991304 L174.24587,18.2608696 L173.767717,18.2608696 C173.085105,18.2608696 172.531739,17.7008362 172.531739,17.01 C172.531739,16.3191638 173.085105,15.7591304 173.767717,15.7591304 L174.24587,15.7591304 L174.24587,13.5952174 C174.24587,12.7909227 174.890117,12.138913 175.684837,12.138913 C176.479557,12.138913 177.123804,12.7909227 177.123804,13.5952174 L177.123804,15.7591304 L179.379239,15.7591304 C179.820812,15.7591304 180.228841,15.9975448 180.449628,16.3845652 C180.670414,16.7715856 180.670414,17.2484144 180.449628,17.6354348 C180.228841,18.0224552 179.820812,18.2608696 179.379239,18.2608696 L177.123804,18.2608696 L177.123804,24.4969565 C177.056953,24.9305826 177.196705,25.3706577 177.500663,25.6836741 C177.80462,25.9966904 178.23696,26.1457575 178.666522,26.0856522 C178.905198,26.0740071 179.143101,26.0496254 179.379239,26.0126087 C180.03992,26.0125342 180.578291,26.5492597 180.588152,27.2178261 C180.579774,27.7139283 180.282451,28.1581217 179.830326,28.35 C179.196559,28.5795752 178.527678,28.6939441 177.854565,28.6878261 C175.779565,28.6878261 174.281957,27.7473913 174.281957,24.9534783 L174.24587,24.9991304 Z M182.915761,18.2608696 L182.419565,18.2608696 C182.101332,18.2633002 181.795179,18.1376857 181.568462,17.9116616 C181.341745,17.6856376 181.213036,17.3777201 181.210652,17.0556522 C181.215565,16.3820139 181.753946,15.8371456 182.419565,15.8321739 L182.915761,15.8321739 L182.915761,14.9191304 C182.830935,13.7795988 183.197749,12.6527574 183.935217,11.7873913 C184.694902,11.0689062 185.711894,10.6961348 186.75,10.7556522 C187.236667,10.7520903 187.722702,10.7918082 188.2025,10.8743478 C188.817339,10.9833793 189.246884,11.5512815 189.190371,12.1804142 C189.133858,12.8095468 188.610165,13.289747 187.985978,13.2847826 C187.788697,13.2564297 187.589794,13.2411797 187.390543,13.2391304 C186.298913,13.2391304 185.721522,13.8417391 185.721522,15.1656522 L185.721522,15.8595652 L187.958913,15.8595652 C188.278592,15.8521441 188.5876,15.9761372 188.815401,16.2032414 C189.043201,16.4303456 189.170351,16.7411766 189.167826,17.0647826 C189.158143,17.7212611 188.634642,18.2510697 187.985978,18.2608696 L185.793696,18.2608696 L185.793696,27.1447826 C185.793696,27.9490772 185.149448,28.6010868 184.354728,28.6010868 C183.560009,28.6010868 182.915761,27.9490772 182.915761,27.1447826 L182.915761,18.2608696 Z M189.095652,22.1869565 L189.095652,22.1413043 C189.083196,18.3996953 192.070162,15.3563024 195.767228,15.3436959 C199.464294,15.3310894 202.471456,18.3540432 202.483913,22.0956522 L202.483913,22.1413043 C202.477076,23.9250372 201.762137,25.6311392 200.49984,26.8760206 C199.237543,28.120902 197.533824,28.8000862 195.771739,28.7608696 C194.019481,28.8076832 192.322905,28.1357985 191.067405,26.8978402 C189.811905,25.659882 189.104063,23.9609442 189.104674,22.1869565 L189.095652,22.1869565 Z M199.605978,22.1869565 L199.605978,22.1413043 C199.652498,21.0782025 199.270622,20.0415261 198.547806,19.2686914 C197.82499,18.4958568 196.823155,18.0530709 195.771739,18.0417391 C194.729686,18.0373277 193.732278,18.4695002 193.016222,19.2356929 C192.300166,20.0018855 191.929297,21.0337931 191.99163,22.0865217 L191.99163,22.1321739 C191.950229,23.1819761 192.327284,24.2046017 193.038093,24.9703312 C193.748903,25.7360608 194.733872,26.1806933 195.771739,26.2043478 C196.819723,26.226133 197.829382,25.8054944 198.558497,25.0433447 C199.287612,24.2811949 199.67039,23.246308 199.615,22.1869565 L199.605978,22.1869565 Z M204.216087,17.0830435 C204.208351,16.686025 204.362661,16.3033356 204.642657,16.0251503 C204.922652,15.746965 205.30357,15.5978867 205.695652,15.6130435 C206.081616,15.6105944 206.452473,15.7646824 206.725396,16.0408936 C206.998318,16.3171047 207.150572,16.6924296 207.148152,17.0830435 L207.148152,18.3795652 C207.815761,16.7908696 209.051739,15.5856522 210.314783,15.5856522 C210.700496,15.558251 211.079007,15.7014171 211.352419,15.9781232 C211.625831,16.2548293 211.767292,16.6378999 211.740217,17.0282609 C211.761928,17.720013 211.270285,18.3194441 210.594457,18.4252174 C208.546522,18.7904348 207.148152,20.3791304 207.148152,23.3830435 L207.148152,27.1356522 C207.148183,27.5238622 206.994578,27.8959123 206.72165,28.1686973 C206.448723,28.4414822 206.07921,28.5922745 205.695652,28.5873913 C205.316867,28.5898409 204.952894,28.4386389 204.685046,28.1675645 C204.417199,27.8964901 204.267797,27.5281319 204.270217,27.1447826 L204.216087,17.0830435 Z M212.849891,17.0830435 C212.842623,16.6957162 212.989588,16.3217067 213.2577,16.0452117 C213.525813,15.7687166 213.892541,15.6129736 214.275326,15.6130435 C214.66129,15.6105944 215.032147,15.7646824 215.305069,16.0408936 C215.577992,16.3171047 215.730246,16.6924296 215.727826,17.0830435 L215.727826,17.6856522 C216.541221,16.3333821 217.988795,15.5041282 219.553043,15.4943478 C221.13469,15.4179209 222.611166,16.2958461 223.315109,17.7313043 C224.276236,16.320751 225.871591,15.4911809 227.564348,15.5217391 C230.27087,15.5217391 231.966957,17.2747826 231.966957,20.3791304 L231.966957,27.1721739 C231.974391,27.5570348 231.8266,27.9283557 231.557651,28.2005454 C231.288701,28.4727351 230.921801,28.6223065 230.541522,28.6147826 C230.158806,28.6221383 229.789248,28.473403 229.516045,28.2020601 C229.242842,27.9307171 229.088953,27.559571 229.089022,27.1721739 L229.089022,21.2465217 C229.089022,19.2286957 228.186848,18.1421739 226.544891,18.1421739 C224.902935,18.1421739 223.83837,19.2469565 223.83837,21.2921739 L223.83837,27.1447826 C223.83837,27.9490773 223.194122,28.601087 222.399402,28.601087 C221.604682,28.601087 220.960435,27.9490773 220.960435,27.1447826 L220.960435,21.2191304 C220.960435,19.2469565 220.013152,18.1421739 218.416304,18.1421739 C216.819457,18.1421739 215.709783,19.3473913 215.709783,21.2921739 L215.709783,27.1447826 C215.709783,27.9490773 215.065535,28.601087 214.270815,28.601087 C213.476095,28.601087 212.831848,27.9490773 212.831848,27.1447826 L212.849891,17.0830435 Z M228.033478,41.8265217 L20.6597826,41.8265217 C9.41544848,41.5887318 0.422774756,32.295553 0.422774756,20.9132609 C0.422774756,9.5309687 9.41544848,0.237789946 20.6597826,0 L228.0425,0 C239.286834,0.237789946 248.279508,9.5309687 248.279508,20.9132609 C248.279508,32.295553 239.286834,41.5887318 228.0425,41.8265217 L228.033478,41.8265217 Z M20.6597826,1.0226087 C9.80774746,1.0226087 1.01043478,9.92591309 1.01043478,20.9086957 C1.01043478,31.8914782 9.80774746,40.7947826 20.6597826,40.7947826 L228.0425,40.7947826 C238.894535,40.7947826 247.691848,31.8914782 247.691848,20.9086957 C247.691848,9.92591309 238.894535,1.0226087 228.0425,1.0226087 L20.6597826,1.0226087 Z" id="Shape"></path>
                            </g>
                        </g>
                    </g>
                </g>
            </g>
        </g>
    </g>
</svg>